<svg xmlns="http://www.w3.org/2000/svg" viewBox="0 0 408 136"><svg width="136" height="136" viewBox="0 0 136 136" fill="none" xmlns="http://www.w3.org/2000/svg" x="0"><rect x="3" y="3" width="130" height="130" rx="11" fill="#8CD598" /><rect x="3" y="3" width="130" height="130" rx="11" stroke="#8CD598" stroke-width="6" /><path d="M26.6562 115.367C26.9531 114.393 27.4688 113.677 28.2031 113.219C28.9375 112.755 29.9531 112.523 31.25 112.523C32.2135 112.523 33.0104 112.651 33.6406 112.906C34.2708 113.156 34.8359 113.609 35.3359 114.266C35.8411 114.917 36.0938 115.792 36.0938 116.891C36.0938 118.188 35.6979 119.229 34.9062 120.016C34.1146 120.802 32.8203 121.195 31.0234 121.195C28.5703 121.195 27.0599 120.154 26.4922 118.07L29.5234 117.734C29.7786 118.589 30.3438 119.016 31.2188 119.016C32.1094 119.016 32.6536 118.573 32.8516 117.688H30.3984V116.055H32.7969C32.5677 115.148 32.0182 114.695 31.1484 114.695C30.3151 114.695 29.8151 115.052 29.6484 115.766L26.6562 115.367ZM46.8672 121H43.2812L42.0625 118.711C41.8698 118.346 41.6797 118.117 41.4922 118.023C41.3099 117.93 41.0833 117.883 40.8125 117.883V121H37.6328V112.711H40.8125V115.703C41.0729 115.677 41.2656 115.591 41.3906 115.445C41.5156 115.299 41.6953 114.979 41.9297 114.484C42.1693 113.99 42.3828 113.628 42.5703 113.398C42.7578 113.169 42.9974 112.997 43.2891 112.883C43.5807 112.768 43.9453 112.695 44.3828 112.664C44.8203 112.633 45.4714 112.617 46.3359 112.617V114.875H46.1953C45.7682 114.875 45.4427 114.893 45.2188 114.93C44.9948 114.961 44.8151 115.031 44.6797 115.141C44.5443 115.25 44.388 115.474 44.2109 115.812C44.0339 116.151 43.8854 116.388 43.7656 116.523C43.651 116.654 43.4792 116.742 43.25 116.789C43.6927 116.831 44.0339 116.927 44.2734 117.078C44.513 117.224 44.875 117.701 45.3594 118.508L46.8672 121ZM47.5234 116.875C47.5234 115.609 47.9505 114.568 48.8047 113.75C49.6589 112.927 50.8125 112.516 52.2656 112.516C53.9271 112.516 55.1823 112.997 56.0312 113.961C56.7135 114.737 57.0547 115.693 57.0547 116.828C57.0547 118.104 56.6302 119.151 55.7812 119.969C54.9375 120.781 53.7682 121.188 52.2734 121.188C50.9401 121.188 49.862 120.849 49.0391 120.172C48.0286 119.333 47.5234 118.234 47.5234 116.875ZM50.7109 116.867C50.7109 117.607 50.8594 118.154 51.1562 118.508C51.4583 118.862 51.8359 119.039 52.2891 119.039C52.7474 119.039 53.1224 118.865 53.4141 118.516C53.7109 118.167 53.8594 117.607 53.8594 116.836C53.8594 116.117 53.7109 115.583 53.4141 115.234C53.1172 114.88 52.75 114.703 52.3125 114.703C51.849 114.703 51.4661 114.883 51.1641 115.242C50.862 115.596 50.7109 116.138 50.7109 116.867ZM68.1172 121H64.9375V115.031H62.5234V118.508C62.5234 119.435 62.3333 120.122 61.9531 120.57C61.5781 121.018 61 121.242 60.2188 121.242C59.3333 121.242 58.5391 121.161 57.8359 121V118.648C58.2109 118.763 58.4974 118.82 58.6953 118.82C59.1224 118.82 59.3359 118.503 59.3359 117.867V112.711H68.1172V121ZM69.6484 116.875C69.6484 115.609 70.0755 114.568 70.9297 113.75C71.7839 112.927 72.9375 112.516 74.3906 112.516C76.0521 112.516 77.3073 112.997 78.1562 113.961C78.8385 114.737 79.1797 115.693 79.1797 116.828C79.1797 118.104 78.7552 119.151 77.9062 119.969C77.0625 120.781 75.8932 121.188 74.3984 121.188C73.0651 121.188 71.987 120.849 71.1641 120.172C70.1536 119.333 69.6484 118.234 69.6484 116.875ZM72.8359 116.867C72.8359 117.607 72.9844 118.154 73.2812 118.508C73.5833 118.862 73.9609 119.039 74.4141 119.039C74.8724 119.039 75.2474 118.865 75.5391 118.516C75.8359 118.167 75.9844 117.607 75.9844 116.836C75.9844 116.117 75.8359 115.583 75.5391 115.234C75.2422 114.88 74.875 114.703 74.4375 114.703C73.974 114.703 73.5911 114.883 73.2891 115.242C72.987 115.596 72.8359 116.138 72.8359 116.867ZM87.5391 115.031H84.0078V121H80.8203V112.711H87.5391V115.031ZM98.1016 121H95.0938V116.922L91.9688 121H88.9453V112.711H91.9531V116.844L95.1094 112.711H98.1016V121ZM108.195 121H105.016V117.781H104.898C104.674 117.781 104.497 117.844 104.367 117.969C104.242 118.089 104.115 118.273 103.984 118.523L102.711 121H99.1875L100.422 118.602C100.786 117.888 101.266 117.497 101.859 117.43C101.188 117.326 100.674 117.047 100.32 116.594C99.9714 116.135 99.7969 115.635 99.7969 115.094C99.7969 114.557 99.9297 114.083 100.195 113.672C100.466 113.255 100.857 112.992 101.367 112.883C101.883 112.768 102.531 112.711 103.312 112.711H108.195V121ZM105.016 115.898V114.602H104.023C103.555 114.602 103.263 114.659 103.148 114.773C103.034 114.883 102.977 115.039 102.977 115.242C102.977 115.68 103.362 115.898 104.133 115.898H105.016Z" fill="#F0F0F0" /><path d="M46.7613 79.8099H91.8353V35.6217H46.7613V79.8099Z" fill="#F2F2F3" /><path d="M67.9521 90.317C75.8199 90.317 82.6931 88.9877 88.5792 86.3217C94.4617 83.663 99.0033 79.8739 102.201 74.9653C105.398 70.0567 107 64.3307 107 57.7872V57.3048C107 50.7612 105.398 45.0352 102.201 40.1266C99.0033 35.2181 94.4617 31.4179 88.5792 28.7224C82.6931 26.0269 75.8199 24.6829 67.9521 24.6829C60.2133 24.6829 53.4026 26.0269 47.5165 28.7224C41.6304 31.4179 37.074 35.2365 33.8474 40.1745C30.617 45.1162 29 50.8275 29 57.3048V57.7872C29 64.2681 30.617 69.9794 33.8474 74.9174C37.074 79.8591 41.6304 83.663 47.5165 86.3217C53.4026 88.9877 60.2133 90.317 67.9521 90.317ZM67.9521 72.3214C61.4914 72.3214 56.6625 71.1504 53.4652 68.8084C50.268 66.4664 48.6694 62.8872 48.6694 58.0781V57.1133C48.6694 52.3667 50.3012 48.7728 53.561 46.3351C56.8245 43.8973 61.6203 42.6785 67.9521 42.6785C80.8699 42.6785 87.3306 47.4913 87.3306 57.1133V58.0781C87.3306 62.8872 85.7651 66.4664 82.6305 68.8084C79.4959 71.1504 74.6044 72.3214 67.9521 72.3214Z" fill="#F2F2F3" /><path d="M83.0491 63.2793C83.0491 56.316 68.4296 35.6212 68.4296 35.6212C68.4296 35.6212 52.9519 56.316 52.9519 63.2793C52.9519 70.2426 59.6889 75.8913 68.0023 75.8913C76.3121 75.8913 83.0491 70.2426 83.0491 63.2793Z" fill="#8CD598" /></svg><svg width="136" height="136" viewBox="0 0 136 136" fill="none" xmlns="http://www.w3.org/2000/svg" x="136"><rect x="3" y="3" width="130" height="130" rx="11" fill="#F2F2F3" /><rect x="3" y="3" width="130" height="130" rx="11" stroke="#8CD598" stroke-width="6" /><path d="M26.6562 115.367C26.9531 114.393 27.4688 113.677 28.2031 113.219C28.9375 112.755 29.9531 112.523 31.25 112.523C32.2135 112.523 33.0104 112.651 33.6406 112.906C34.2708 113.156 34.8359 113.609 35.3359 114.266C35.8411 114.917 36.0938 115.792 36.0938 116.891C36.0938 118.188 35.6979 119.229 34.9062 120.016C34.1146 120.802 32.8203 121.195 31.0234 121.195C28.5703 121.195 27.0599 120.154 26.4922 118.07L29.5234 117.734C29.7786 118.589 30.3438 119.016 31.2188 119.016C32.1094 119.016 32.6536 118.573 32.8516 117.688H30.3984V116.055H32.7969C32.5677 115.148 32.0182 114.695 31.1484 114.695C30.3151 114.695 29.8151 115.052 29.6484 115.766L26.6562 115.367ZM46.8672 121H43.2812L42.0625 118.711C41.8698 118.346 41.6797 118.117 41.4922 118.023C41.3099 117.93 41.0833 117.883 40.8125 117.883V121H37.6328V112.711H40.8125V115.703C41.0729 115.677 41.2656 115.591 41.3906 115.445C41.5156 115.299 41.6953 114.979 41.9297 114.484C42.1693 113.99 42.3828 113.628 42.5703 113.398C42.7578 113.169 42.9974 112.997 43.2891 112.883C43.5807 112.768 43.9453 112.695 44.3828 112.664C44.8203 112.633 45.4714 112.617 46.3359 112.617V114.875H46.1953C45.7682 114.875 45.4427 114.893 45.2188 114.93C44.9948 114.961 44.8151 115.031 44.6797 115.141C44.5443 115.25 44.388 115.474 44.2109 115.812C44.0339 116.151 43.8854 116.388 43.7656 116.523C43.651 116.654 43.4792 116.742 43.25 116.789C43.6927 116.831 44.0339 116.927 44.2734 117.078C44.513 117.224 44.875 117.701 45.3594 118.508L46.8672 121ZM47.5234 116.875C47.5234 115.609 47.9505 114.568 48.8047 113.75C49.6589 112.927 50.8125 112.516 52.2656 112.516C53.9271 112.516 55.1823 112.997 56.0312 113.961C56.7135 114.737 57.0547 115.693 57.0547 116.828C57.0547 118.104 56.6302 119.151 55.7812 119.969C54.9375 120.781 53.7682 121.188 52.2734 121.188C50.9401 121.188 49.862 120.849 49.0391 120.172C48.0286 119.333 47.5234 118.234 47.5234 116.875ZM50.7109 116.867C50.7109 117.607 50.8594 118.154 51.1562 118.508C51.4583 118.862 51.8359 119.039 52.2891 119.039C52.7474 119.039 53.1224 118.865 53.4141 118.516C53.7109 118.167 53.8594 117.607 53.8594 116.836C53.8594 116.117 53.7109 115.583 53.4141 115.234C53.1172 114.88 52.75 114.703 52.3125 114.703C51.849 114.703 51.4661 114.883 51.1641 115.242C50.862 115.596 50.7109 116.138 50.7109 116.867ZM68.1172 121H64.9375V115.031H62.5234V118.508C62.5234 119.435 62.3333 120.122 61.9531 120.57C61.5781 121.018 61 121.242 60.2188 121.242C59.3333 121.242 58.5391 121.161 57.8359 121V118.648C58.2109 118.763 58.4974 118.82 58.6953 118.82C59.1224 118.82 59.3359 118.503 59.3359 117.867V112.711H68.1172V121ZM69.6484 116.875C69.6484 115.609 70.0755 114.568 70.9297 113.75C71.7839 112.927 72.9375 112.516 74.3906 112.516C76.0521 112.516 77.3073 112.997 78.1562 113.961C78.8385 114.737 79.1797 115.693 79.1797 116.828C79.1797 118.104 78.7552 119.151 77.9062 119.969C77.0625 120.781 75.8932 121.188 74.3984 121.188C73.0651 121.188 71.987 120.849 71.1641 120.172C70.1536 119.333 69.6484 118.234 69.6484 116.875ZM72.8359 116.867C72.8359 117.607 72.9844 118.154 73.2812 118.508C73.5833 118.862 73.9609 119.039 74.4141 119.039C74.8724 119.039 75.2474 118.865 75.5391 118.516C75.8359 118.167 75.9844 117.607 75.9844 116.836C75.9844 116.117 75.8359 115.583 75.5391 115.234C75.2422 114.88 74.875 114.703 74.4375 114.703C73.974 114.703 73.5911 114.883 73.2891 115.242C72.987 115.596 72.8359 116.138 72.8359 116.867ZM87.5391 115.031H84.0078V121H80.8203V112.711H87.5391V115.031ZM98.1016 121H95.0938V116.922L91.9688 121H88.9453V112.711H91.9531V116.844L95.1094 112.711H98.1016V121ZM108.195 121H105.016V117.781H104.898C104.674 117.781 104.497 117.844 104.367 117.969C104.242 118.089 104.115 118.273 103.984 118.523L102.711 121H99.1875L100.422 118.602C100.786 117.888 101.266 117.497 101.859 117.43C101.188 117.326 100.674 117.047 100.32 116.594C99.9714 116.135 99.7969 115.635 99.7969 115.094C99.7969 114.557 99.9297 114.083 100.195 113.672C100.466 113.255 100.857 112.992 101.367 112.883C101.883 112.768 102.531 112.711 103.312 112.711H108.195V121ZM105.016 115.898V114.602H104.023C103.555 114.602 103.263 114.659 103.148 114.773C103.034 114.883 102.977 115.039 102.977 115.242C102.977 115.68 103.362 115.898 104.133 115.898H105.016Z" fill="#8CD598" /><path d="M46.7613 79.8099H91.8353V35.6217H46.7613V79.8099Z" fill="#8CD598" /><path d="M67.9521 90.317C75.8199 90.317 82.6931 88.9877 88.5792 86.3217C94.4617 83.663 99.0033 79.8739 102.201 74.9653C105.398 70.0567 107 64.3307 107 57.7872V57.3048C107 50.7612 105.398 45.0352 102.201 40.1266C99.0033 35.2181 94.4617 31.4179 88.5792 28.7224C82.6931 26.0269 75.8199 24.6829 67.9521 24.6829C60.2133 24.6829 53.4026 26.0269 47.5165 28.7224C41.6304 31.4179 37.074 35.2365 33.8474 40.1745C30.617 45.1162 29 50.8275 29 57.3048V57.7872C29 64.2681 30.617 69.9794 33.8474 74.9174C37.074 79.8591 41.6304 83.663 47.5165 86.3217C53.4026 88.9877 60.2133 90.317 67.9521 90.317ZM67.9521 72.3214C61.4914 72.3214 56.6625 71.1504 53.4652 68.8084C50.268 66.4664 48.6694 62.8872 48.6694 58.0781V57.1133C48.6694 52.3667 50.3012 48.7728 53.561 46.3351C56.8245 43.8973 61.6203 42.6785 67.9521 42.6785C80.8699 42.6785 87.3306 47.4913 87.3306 57.1133V58.0781C87.3306 62.8872 85.7651 66.4664 82.6305 68.8084C79.4959 71.1504 74.6044 72.3214 67.9521 72.3214Z" fill="#8CD598" /><path d="M83.0491 63.2793C83.0491 56.316 68.4296 35.6212 68.4296 35.6212C68.4296 35.6212 52.9519 56.316 52.9519 63.2793C52.9519 70.2426 59.6889 75.8913 68.0023 75.8913C76.3121 75.8913 83.0491 70.2426 83.0491 63.2793Z" fill="#F2F2F3" /></svg><svg width="136" height="136" viewBox="0 0 136 136" fill="none" xmlns="http://www.w3.org/2000/svg" x="272"><rect x="3" y="3" width="130" height="130" rx="11" fill="#F2F2F3" /><rect x="3" y="3" width="130" height="130" rx="11" stroke="#6FAF7C" stroke-width="6" /><path d="M26.6562 115.367C26.9531 114.393 27.4688 113.677 28.2031 113.219C28.9375 112.755 29.9531 112.523 31.25 112.523C32.2135 112.523 33.0104 112.651 33.6406 112.906C34.2708 113.156 34.8359 113.609 35.3359 114.266C35.8411 114.917 36.0938 115.792 36.0938 116.891C36.0938 118.188 35.6979 119.229 34.9062 120.016C34.1146 120.802 32.8203 121.195 31.0234 121.195C28.5703 121.195 27.0599 120.154 26.4922 118.07L29.5234 117.734C29.7786 118.589 30.3438 119.016 31.2188 119.016C32.1094 119.016 32.6536 118.573 32.8516 117.688H30.3984V116.055H32.7969C32.5677 115.148 32.0182 114.695 31.1484 114.695C30.3151 114.695 29.8151 115.052 29.6484 115.766L26.6562 115.367ZM46.8672 121H43.2812L42.0625 118.711C41.8698 118.346 41.6797 118.117 41.4922 118.023C41.3099 117.93 41.0833 117.883 40.8125 117.883V121H37.6328V112.711H40.8125V115.703C41.0729 115.677 41.2656 115.591 41.3906 115.445C41.5156 115.299 41.6953 114.979 41.9297 114.484C42.1693 113.99 42.3828 113.628 42.5703 113.398C42.7578 113.169 42.9974 112.997 43.2891 112.883C43.5807 112.768 43.9453 112.695 44.3828 112.664C44.8203 112.633 45.4714 112.617 46.3359 112.617V114.875H46.1953C45.7682 114.875 45.4427 114.893 45.2188 114.93C44.9948 114.961 44.8151 115.031 44.6797 115.141C44.5443 115.25 44.388 115.474 44.2109 115.812C44.0339 116.151 43.8854 116.388 43.7656 116.523C43.651 116.654 43.4792 116.742 43.25 116.789C43.6927 116.831 44.0339 116.927 44.2734 117.078C44.513 117.224 44.875 117.701 45.3594 118.508L46.8672 121ZM47.5234 116.875C47.5234 115.609 47.9505 114.568 48.8047 113.75C49.6589 112.927 50.8125 112.516 52.2656 112.516C53.9271 112.516 55.1823 112.997 56.0312 113.961C56.7135 114.737 57.0547 115.693 57.0547 116.828C57.0547 118.104 56.6302 119.151 55.7812 119.969C54.9375 120.781 53.7682 121.188 52.2734 121.188C50.9401 121.188 49.862 120.849 49.0391 120.172C48.0286 119.333 47.5234 118.234 47.5234 116.875ZM50.7109 116.867C50.7109 117.607 50.8594 118.154 51.1562 118.508C51.4583 118.862 51.8359 119.039 52.2891 119.039C52.7474 119.039 53.1224 118.865 53.4141 118.516C53.7109 118.167 53.8594 117.607 53.8594 116.836C53.8594 116.117 53.7109 115.583 53.4141 115.234C53.1172 114.88 52.75 114.703 52.3125 114.703C51.849 114.703 51.4661 114.883 51.1641 115.242C50.862 115.596 50.7109 116.138 50.7109 116.867ZM68.1172 121H64.9375V115.031H62.5234V118.508C62.5234 119.435 62.3333 120.122 61.9531 120.57C61.5781 121.018 61 121.242 60.2188 121.242C59.3333 121.242 58.5391 121.161 57.8359 121V118.648C58.2109 118.763 58.4974 118.82 58.6953 118.82C59.1224 118.82 59.3359 118.503 59.3359 117.867V112.711H68.1172V121ZM69.6484 116.875C69.6484 115.609 70.0755 114.568 70.9297 113.75C71.7839 112.927 72.9375 112.516 74.3906 112.516C76.0521 112.516 77.3073 112.997 78.1562 113.961C78.8385 114.737 79.1797 115.693 79.1797 116.828C79.1797 118.104 78.7552 119.151 77.9062 119.969C77.0625 120.781 75.8932 121.188 74.3984 121.188C73.0651 121.188 71.987 120.849 71.1641 120.172C70.1536 119.333 69.6484 118.234 69.6484 116.875ZM72.8359 116.867C72.8359 117.607 72.9844 118.154 73.2812 118.508C73.5833 118.862 73.9609 119.039 74.4141 119.039C74.8724 119.039 75.2474 118.865 75.5391 118.516C75.8359 118.167 75.9844 117.607 75.9844 116.836C75.9844 116.117 75.8359 115.583 75.5391 115.234C75.2422 114.88 74.875 114.703 74.4375 114.703C73.974 114.703 73.5911 114.883 73.2891 115.242C72.987 115.596 72.8359 116.138 72.8359 116.867ZM87.5391 115.031H84.0078V121H80.8203V112.711H87.5391V115.031ZM98.1016 121H95.0938V116.922L91.9688 121H88.9453V112.711H91.9531V116.844L95.1094 112.711H98.1016V121ZM108.195 121H105.016V117.781H104.898C104.674 117.781 104.497 117.844 104.367 117.969C104.242 118.089 104.115 118.273 103.984 118.523L102.711 121H99.1875L100.422 118.602C100.786 117.888 101.266 117.497 101.859 117.43C101.188 117.326 100.674 117.047 100.32 116.594C99.9714 116.135 99.7969 115.635 99.7969 115.094C99.7969 114.557 99.9297 114.083 100.195 113.672C100.466 113.255 100.857 112.992 101.367 112.883C101.883 112.768 102.531 112.711 103.312 112.711H108.195V121ZM105.016 115.898V114.602H104.023C103.555 114.602 103.263 114.659 103.148 114.773C103.034 114.883 102.977 115.039 102.977 115.242C102.977 115.68 103.362 115.898 104.133 115.898H105.016Z" fill="#6FAF7C" /><path d="M46.7613 79.8099H91.8353V35.6217H46.7613V79.8099Z" fill="#6FAF7C" /><path d="M67.9521 90.317C75.8199 90.317 82.6931 88.9877 88.5792 86.3217C94.4617 83.663 99.0033 79.8739 102.201 74.9653C105.398 70.0567 107 64.3307 107 57.7872V57.3048C107 50.7612 105.398 45.0352 102.201 40.1266C99.0033 35.2181 94.4617 31.4179 88.5792 28.7224C82.6931 26.0269 75.8199 24.6829 67.9521 24.6829C60.2133 24.6829 53.4026 26.0269 47.5165 28.7224C41.6304 31.4179 37.074 35.2365 33.8474 40.1745C30.617 45.1162 29 50.8275 29 57.3048V57.7872C29 64.2681 30.617 69.9794 33.8474 74.9174C37.074 79.8591 41.6304 83.663 47.5165 86.3217C53.4026 88.9877 60.2133 90.317 67.9521 90.317ZM67.9521 72.3214C61.4914 72.3214 56.6625 71.1504 53.4652 68.8084C50.268 66.4664 48.6694 62.8872 48.6694 58.0781V57.1133C48.6694 52.3667 50.3012 48.7728 53.561 46.3351C56.8245 43.8973 61.6203 42.6785 67.9521 42.6785C80.8699 42.6785 87.3306 47.4913 87.3306 57.1133V58.0781C87.3306 62.8872 85.7651 66.4664 82.6305 68.8084C79.4959 71.1504 74.6044 72.3214 67.9521 72.3214Z" fill="#6FAF7C" /><path d="M83.0491 63.2793C83.0491 56.316 68.4296 35.6212 68.4296 35.6212C68.4296 35.6212 52.9519 56.316 52.9519 63.2793C52.9519 70.2426 59.6889 75.8913 68.0023 75.8913C76.3121 75.8913 83.0491 70.2426 83.0491 63.2793Z" fill="#F2F2F3" /></svg></svg>