<svg xmlns="http://www.w3.org/2000/svg" viewBox="0 0 408 136"><svg width="136" height="136" viewBox="0 0 136 136" fill="none" xmlns="http://www.w3.org/2000/svg" x="0"><rect x="3" y="3" width="130" height="130" rx="11" fill="#FF41AF" /><rect x="3" y="3" width="130" height="130" rx="11" stroke="#FF41AF" stroke-width="6" /><path d="M51.7109 121H48.5312V115.031H46.1094V121H42.9297V112.711H51.7109V121ZM53.6484 124.156V112.703H56.625V113.93C57.0365 113.414 57.4141 113.065 57.7578 112.883C58.2214 112.638 58.7344 112.516 59.2969 112.516C60.4062 112.516 61.263 112.94 61.8672 113.789C62.4766 114.638 62.7812 115.688 62.7812 116.938C62.7812 118.318 62.4505 119.372 61.7891 120.102C61.1276 120.826 60.2917 121.188 59.2812 121.188C58.7917 121.188 58.3438 121.104 57.9375 120.938C57.5365 120.771 57.1771 120.523 56.8594 120.195V124.156H53.6484ZM56.8359 116.875C56.8359 117.531 56.974 118.018 57.25 118.336C57.526 118.654 57.875 118.812 58.2969 118.812C58.6667 118.812 58.9766 118.661 59.2266 118.359C59.4766 118.052 59.6016 117.534 59.6016 116.805C59.6016 116.133 59.4714 115.641 59.2109 115.328C58.9505 115.01 58.6328 114.852 58.2578 114.852C57.8516 114.852 57.513 115.01 57.2422 115.328C56.9714 115.646 56.8359 116.161 56.8359 116.875ZM67.2031 115.391L64.1641 115.07C64.2786 114.539 64.4427 114.122 64.6562 113.82C64.875 113.513 65.1875 113.247 65.5938 113.023C65.8854 112.862 66.2865 112.737 66.7969 112.648C67.3073 112.56 67.8594 112.516 68.4531 112.516C69.4062 112.516 70.1719 112.57 70.75 112.68C71.3281 112.784 71.8099 113.005 72.1953 113.344C72.4661 113.578 72.6797 113.911 72.8359 114.344C72.9922 114.771 73.0703 115.18 73.0703 115.57V119.234C73.0703 119.625 73.0938 119.932 73.1406 120.156C73.1927 120.375 73.3021 120.656 73.4688 121H70.4844C70.3646 120.786 70.2865 120.625 70.25 120.516C70.2135 120.401 70.1771 120.224 70.1406 119.984C69.724 120.385 69.3099 120.672 68.8984 120.844C68.3359 121.073 67.6823 121.188 66.9375 121.188C65.9479 121.188 65.1953 120.958 64.6797 120.5C64.1693 120.042 63.9141 119.477 63.9141 118.805C63.9141 118.174 64.099 117.656 64.4688 117.25C64.8385 116.844 65.5208 116.542 66.5156 116.344C67.7083 116.104 68.4818 115.938 68.8359 115.844C69.1901 115.745 69.5651 115.617 69.9609 115.461C69.9609 115.07 69.8802 114.797 69.7188 114.641C69.5573 114.484 69.2734 114.406 68.8672 114.406C68.3464 114.406 67.9557 114.49 67.6953 114.656C67.4922 114.786 67.3281 115.031 67.2031 115.391ZM69.9609 117.062C69.5234 117.219 69.0677 117.357 68.5938 117.477C67.9479 117.648 67.5391 117.818 67.3672 117.984C67.1901 118.156 67.1016 118.352 67.1016 118.57C67.1016 118.82 67.1875 119.026 67.3594 119.188C67.5365 119.344 67.7943 119.422 68.1328 119.422C68.487 119.422 68.8151 119.336 69.1172 119.164C69.4245 118.992 69.6406 118.784 69.7656 118.539C69.8958 118.289 69.9609 117.966 69.9609 117.57V117.062ZM81.2344 116.586C81.8646 116.648 82.3646 116.857 82.7344 117.211C83.1094 117.565 83.2969 118.039 83.2969 118.633C83.2969 119.424 83.0365 120.018 82.5156 120.414C81.9948 120.805 81.0599 121 79.7109 121H74.9766V112.711H80.0938C81.0208 112.711 81.7266 112.888 82.2109 113.242C82.7005 113.596 82.9453 114.091 82.9453 114.727C82.9453 115.174 82.7865 115.565 82.4688 115.898C82.151 116.227 81.7396 116.445 81.2344 116.555V116.586ZM78.1562 115.867H78.9609C79.4922 115.867 79.7578 115.625 79.7578 115.141C79.7578 114.75 79.4766 114.555 78.9141 114.555H78.1562V115.867ZM78.1562 119.047H79.2031C79.4635 119.047 79.6745 118.987 79.8359 118.867C79.9974 118.747 80.0781 118.573 80.0781 118.344C80.0781 117.844 79.7865 117.594 79.2031 117.594H78.1562V119.047ZM84.4297 116.875C84.4297 115.609 84.8568 114.568 85.7109 113.75C86.5651 112.927 87.7188 112.516 89.1719 112.516C90.8333 112.516 92.0885 112.997 92.9375 113.961C93.6198 114.737 93.9609 115.693 93.9609 116.828C93.9609 118.104 93.5365 119.151 92.6875 119.969C91.8438 120.781 90.6745 121.188 89.1797 121.188C87.8464 121.188 86.7682 120.849 85.9453 120.172C84.9349 119.333 84.4297 118.234 84.4297 116.875ZM87.6172 116.867C87.6172 117.607 87.7656 118.154 88.0625 118.508C88.3646 118.862 88.7422 119.039 89.1953 119.039C89.6536 119.039 90.0286 118.865 90.3203 118.516C90.6172 118.167 90.7656 117.607 90.7656 116.836C90.7656 116.117 90.6172 115.583 90.3203 115.234C90.0234 114.88 89.6562 114.703 89.2188 114.703C88.7552 114.703 88.3724 114.883 88.0703 115.242C87.7682 115.596 87.6172 116.138 87.6172 116.867Z" fill="#F0F0F0" /><mask id="mask0_135_720" style="mask-type:luminance" maskUnits="userSpaceOnUse" x="25" y="23" width="87" height="75"><path d="M25 23.4431H112V97.6335H25V23.4431Z" fill="white" /></mask><g mask="url(#mask0_135_720)"><path d="M47.6244 89.8211C41.6248 87.1196 36.9834 83.2549 33.6891 78.2346C30.3985 73.2142 28.7513 67.4135 28.7513 60.8285V60.3407C28.7513 53.7558 30.3985 47.955 33.6891 42.9347C36.9834 37.9144 41.6248 34.0384 47.6244 31.2994C53.6203 28.5604 60.5654 27.1946 68.4524 27.1946C76.4706 27.1946 83.4758 28.5604 89.4754 31.2994C95.4713 34.0384 100.098 37.8994 103.358 42.8859C106.619 47.8725 108.251 53.692 108.251 60.3407V60.8285C108.251 67.481 106.619 73.2968 103.358 78.2833C100.098 83.2699 95.4713 87.1196 89.4754 89.8211C83.4758 92.5263 76.4706 93.8809 68.4524 93.8809C60.5654 93.8809 53.6203 92.5263 47.6244 89.8211Z" fill="#F0F0F0" /></g><mask id="mask1_135_720" style="mask-type:luminance" maskUnits="userSpaceOnUse" x="25" y="23" width="87" height="75"><path d="M25 23.4431H112V97.6335H25V23.4431Z" fill="white" /></mask><g mask="url(#mask1_135_720)"><path d="M58.9299 66.2441L51.103 37.6756L54.1197 36.8238L61.9466 65.3962L58.9299 66.2441Z" fill="#FF41AF" /></g><mask id="mask2_135_720" style="mask-type:luminance" maskUnits="userSpaceOnUse" x="25" y="23" width="87" height="75"><path d="M25 23.4431H112V97.6335H25V23.4431Z" fill="white" /></mask><g mask="url(#mask2_135_720)"><path d="M46.2918 66.2441L43.2751 65.3962L51.102 36.8238L54.1187 37.6756L46.2918 66.2441Z" fill="#FF41AF" /></g><mask id="mask3_135_720" style="mask-type:luminance" maskUnits="userSpaceOnUse" x="25" y="23" width="87" height="75"><path d="M25 23.4419H112V97.6323H25V23.4419Z" fill="white" /></mask><g mask="url(#mask3_135_720)"><path d="M39.4605 64.7068C39.4605 72.0685 45.3476 78.0381 52.6079 78.0381C59.8682 78.0381 65.7591 72.0685 65.7591 64.7068H39.4605Z" fill="#FF41AF" /></g><mask id="mask4_135_720" style="mask-type:luminance" maskUnits="userSpaceOnUse" x="25" y="23" width="87" height="75"><path d="M25 23.4431H112V97.6335H25V23.4431Z" fill="white" /></mask><g mask="url(#mask4_135_720)"><path d="M89.1567 72.9651L81.3298 44.3965L84.3502 43.5448L92.1734 72.1171L89.1567 72.9651Z" fill="#FF41AF" /></g><mask id="mask5_135_720" style="mask-type:luminance" maskUnits="userSpaceOnUse" x="25" y="23" width="87" height="75"><path d="M25 23.4431H112V97.6335H25V23.4431Z" fill="white" /></mask><g mask="url(#mask5_135_720)"><path d="M76.5198 72.9651L73.5031 72.1171L81.33 43.5448L84.3467 44.3965L76.5198 72.9651Z" fill="#FF41AF" /></g><mask id="mask6_135_720" style="mask-type:luminance" maskUnits="userSpaceOnUse" x="25" y="23" width="87" height="75"><path d="M25 23.4431H112V97.6335H25V23.4431Z" fill="white" /></mask><g mask="url(#mask6_135_720)"><path d="M69.6901 71.4285C69.6901 78.7902 75.5772 84.7598 82.8375 84.7598C90.0979 84.7598 95.9887 78.7902 95.9887 71.4285H69.6901Z" fill="#FF41AF" /></g><mask id="mask7_135_720" style="mask-type:luminance" maskUnits="userSpaceOnUse" x="25" y="23" width="87" height="75"><path d="M25 23.4431H112V97.6335H25V23.4431Z" fill="white" /></mask><g mask="url(#mask7_135_720)"><path d="M52.6104 37.2284L82.8374 43.5432" stroke="#FF41AF" stroke-width="3.75211" stroke-miterlimit="10" stroke-linecap="round" /></g></svg><svg width="136" height="136" viewBox="0 0 136 136" fill="none" xmlns="http://www.w3.org/2000/svg" x="136"><rect x="3" y="3" width="130" height="130" rx="11" fill="#F0F0F0" /><rect x="3" y="3" width="130" height="130" rx="11" stroke="#FF41AF" stroke-width="6" /><path d="M51.7109 121H48.5312V115.031H46.1094V121H42.9297V112.711H51.7109V121ZM53.6484 124.156V112.703H56.625V113.93C57.0365 113.414 57.4141 113.065 57.7578 112.883C58.2214 112.638 58.7344 112.516 59.2969 112.516C60.4062 112.516 61.263 112.94 61.8672 113.789C62.4766 114.638 62.7812 115.688 62.7812 116.938C62.7812 118.318 62.4505 119.372 61.7891 120.102C61.1276 120.826 60.2917 121.188 59.2812 121.188C58.7917 121.188 58.3438 121.104 57.9375 120.938C57.5365 120.771 57.1771 120.523 56.8594 120.195V124.156H53.6484ZM56.8359 116.875C56.8359 117.531 56.974 118.018 57.25 118.336C57.526 118.654 57.875 118.812 58.2969 118.812C58.6667 118.812 58.9766 118.661 59.2266 118.359C59.4766 118.052 59.6016 117.534 59.6016 116.805C59.6016 116.133 59.4714 115.641 59.2109 115.328C58.9505 115.01 58.6328 114.852 58.2578 114.852C57.8516 114.852 57.513 115.01 57.2422 115.328C56.9714 115.646 56.8359 116.161 56.8359 116.875ZM67.2031 115.391L64.1641 115.07C64.2786 114.539 64.4427 114.122 64.6562 113.82C64.875 113.513 65.1875 113.247 65.5938 113.023C65.8854 112.862 66.2865 112.737 66.7969 112.648C67.3073 112.56 67.8594 112.516 68.4531 112.516C69.4062 112.516 70.1719 112.57 70.75 112.68C71.3281 112.784 71.8099 113.005 72.1953 113.344C72.4661 113.578 72.6797 113.911 72.8359 114.344C72.9922 114.771 73.0703 115.18 73.0703 115.57V119.234C73.0703 119.625 73.0938 119.932 73.1406 120.156C73.1927 120.375 73.3021 120.656 73.4688 121H70.4844C70.3646 120.786 70.2865 120.625 70.25 120.516C70.2135 120.401 70.1771 120.224 70.1406 119.984C69.724 120.385 69.3099 120.672 68.8984 120.844C68.3359 121.073 67.6823 121.188 66.9375 121.188C65.9479 121.188 65.1953 120.958 64.6797 120.5C64.1693 120.042 63.9141 119.477 63.9141 118.805C63.9141 118.174 64.099 117.656 64.4688 117.25C64.8385 116.844 65.5208 116.542 66.5156 116.344C67.7083 116.104 68.4818 115.938 68.8359 115.844C69.1901 115.745 69.5651 115.617 69.9609 115.461C69.9609 115.07 69.8802 114.797 69.7188 114.641C69.5573 114.484 69.2734 114.406 68.8672 114.406C68.3464 114.406 67.9557 114.49 67.6953 114.656C67.4922 114.786 67.3281 115.031 67.2031 115.391ZM69.9609 117.062C69.5234 117.219 69.0677 117.357 68.5938 117.477C67.9479 117.648 67.5391 117.818 67.3672 117.984C67.1901 118.156 67.1016 118.352 67.1016 118.57C67.1016 118.82 67.1875 119.026 67.3594 119.188C67.5365 119.344 67.7943 119.422 68.1328 119.422C68.487 119.422 68.8151 119.336 69.1172 119.164C69.4245 118.992 69.6406 118.784 69.7656 118.539C69.8958 118.289 69.9609 117.966 69.9609 117.57V117.062ZM81.2344 116.586C81.8646 116.648 82.3646 116.857 82.7344 117.211C83.1094 117.565 83.2969 118.039 83.2969 118.633C83.2969 119.424 83.0365 120.018 82.5156 120.414C81.9948 120.805 81.0599 121 79.7109 121H74.9766V112.711H80.0938C81.0208 112.711 81.7266 112.888 82.2109 113.242C82.7005 113.596 82.9453 114.091 82.9453 114.727C82.9453 115.174 82.7865 115.565 82.4688 115.898C82.151 116.227 81.7396 116.445 81.2344 116.555V116.586ZM78.1562 115.867H78.9609C79.4922 115.867 79.7578 115.625 79.7578 115.141C79.7578 114.75 79.4766 114.555 78.9141 114.555H78.1562V115.867ZM78.1562 119.047H79.2031C79.4635 119.047 79.6745 118.987 79.8359 118.867C79.9974 118.747 80.0781 118.573 80.0781 118.344C80.0781 117.844 79.7865 117.594 79.2031 117.594H78.1562V119.047ZM84.4297 116.875C84.4297 115.609 84.8568 114.568 85.7109 113.75C86.5651 112.927 87.7188 112.516 89.1719 112.516C90.8333 112.516 92.0885 112.997 92.9375 113.961C93.6198 114.737 93.9609 115.693 93.9609 116.828C93.9609 118.104 93.5365 119.151 92.6875 119.969C91.8438 120.781 90.6745 121.188 89.1797 121.188C87.8464 121.188 86.7682 120.849 85.9453 120.172C84.9349 119.333 84.4297 118.234 84.4297 116.875ZM87.6172 116.867C87.6172 117.607 87.7656 118.154 88.0625 118.508C88.3646 118.862 88.7422 119.039 89.1953 119.039C89.6536 119.039 90.0286 118.865 90.3203 118.516C90.6172 118.167 90.7656 117.607 90.7656 116.836C90.7656 116.117 90.6172 115.583 90.3203 115.234C90.0234 114.88 89.6562 114.703 89.2188 114.703C88.7552 114.703 88.3724 114.883 88.0703 115.242C87.7682 115.596 87.6172 116.138 87.6172 116.867Z" fill="#FF41AF" /><mask id="mask0_230_1112" style="mask-type:luminance" maskUnits="userSpaceOnUse" x="25" y="23" width="87" height="75"><path d="M25 23.4431H112V97.6335H25V23.4431Z" fill="white" /></mask><g mask="url(#mask0_230_1112)"><path d="M47.6244 89.8211C41.6248 87.1196 36.9834 83.2549 33.6891 78.2346C30.3985 73.2142 28.7513 67.4135 28.7513 60.8285V60.3407C28.7513 53.7558 30.3985 47.955 33.6891 42.9347C36.9834 37.9144 41.6248 34.0384 47.6244 31.2994C53.6203 28.5604 60.5654 27.1946 68.4524 27.1946C76.4706 27.1946 83.4758 28.5604 89.4754 31.2994C95.4713 34.0384 100.098 37.8994 103.358 42.8859C106.619 47.8725 108.251 53.692 108.251 60.3407V60.8285C108.251 67.481 106.619 73.2968 103.358 78.2833C100.098 83.2699 95.4713 87.1196 89.4754 89.8211C83.4758 92.5263 76.4706 93.8809 68.4524 93.8809C60.5654 93.8809 53.6203 92.5263 47.6244 89.8211Z" fill="#FF41AF" /></g><mask id="mask1_230_1112" style="mask-type:luminance" maskUnits="userSpaceOnUse" x="25" y="23" width="87" height="75"><path d="M25 23.4431H112V97.6335H25V23.4431Z" fill="white" /></mask><g mask="url(#mask1_230_1112)"><path d="M58.9299 66.2441L51.103 37.6756L54.1197 36.8238L61.9466 65.3962L58.9299 66.2441Z" fill="#F0F0F0" /></g><mask id="mask2_230_1112" style="mask-type:luminance" maskUnits="userSpaceOnUse" x="25" y="23" width="87" height="75"><path d="M25 23.4431H112V97.6335H25V23.4431Z" fill="white" /></mask><g mask="url(#mask2_230_1112)"><path d="M46.2918 66.2441L43.2751 65.3962L51.102 36.8238L54.1187 37.6756L46.2918 66.2441Z" fill="#F0F0F0" /></g><mask id="mask3_230_1112" style="mask-type:luminance" maskUnits="userSpaceOnUse" x="25" y="23" width="87" height="75"><path d="M25 23.4417H112V97.6322H25V23.4417Z" fill="white" /></mask><g mask="url(#mask3_230_1112)"><path d="M39.4605 64.7066C39.4605 72.0682 45.3476 78.0378 52.6079 78.0378C59.8682 78.0378 65.7591 72.0682 65.7591 64.7066H39.4605Z" fill="#F0F0F0" /></g><mask id="mask4_230_1112" style="mask-type:luminance" maskUnits="userSpaceOnUse" x="25" y="23" width="87" height="75"><path d="M25 23.4431H112V97.6335H25V23.4431Z" fill="white" /></mask><g mask="url(#mask4_230_1112)"><path d="M89.1567 72.965L81.3298 44.3964L84.3502 43.5447L92.1734 72.117L89.1567 72.965Z" fill="#F0F0F0" /></g><mask id="mask5_230_1112" style="mask-type:luminance" maskUnits="userSpaceOnUse" x="25" y="23" width="87" height="75"><path d="M25 23.4431H112V97.6335H25V23.4431Z" fill="white" /></mask><g mask="url(#mask5_230_1112)"><path d="M76.5198 72.965L73.5031 72.117L81.33 43.5447L84.3467 44.3964L76.5198 72.965Z" fill="#F0F0F0" /></g><mask id="mask6_230_1112" style="mask-type:luminance" maskUnits="userSpaceOnUse" x="25" y="23" width="87" height="75"><path d="M25 23.4431H112V97.6335H25V23.4431Z" fill="white" /></mask><g mask="url(#mask6_230_1112)"><path d="M69.6901 71.4286C69.6901 78.7903 75.5772 84.7599 82.8375 84.7599C90.0979 84.7599 95.9887 78.7903 95.9887 71.4286H69.6901Z" fill="#F0F0F0" /></g><mask id="mask7_230_1112" style="mask-type:luminance" maskUnits="userSpaceOnUse" x="25" y="23" width="87" height="75"><path d="M25 23.4431H112V97.6335H25V23.4431Z" fill="white" /></mask><g mask="url(#mask7_230_1112)"><path d="M52.6104 37.2285L82.8374 43.5433" stroke="#F0F0F0" stroke-width="3.75211" stroke-miterlimit="10" stroke-linecap="round" /></g></svg><svg width="136" height="136" viewBox="0 0 136 136" fill="none" xmlns="http://www.w3.org/2000/svg" x="272"><rect x="3" y="3" width="130" height="130" rx="11" fill="#F0F0F0" /><rect x="3" y="3" width="130" height="130" rx="11" stroke="#BB3B85" stroke-width="6" /><path d="M51.7109 121H48.5312V115.031H46.1094V121H42.9297V112.711H51.7109V121ZM53.6484 124.156V112.703H56.625V113.93C57.0365 113.414 57.4141 113.065 57.7578 112.883C58.2214 112.638 58.7344 112.516 59.2969 112.516C60.4062 112.516 61.263 112.94 61.8672 113.789C62.4766 114.638 62.7812 115.688 62.7812 116.938C62.7812 118.318 62.4505 119.372 61.7891 120.102C61.1276 120.826 60.2917 121.188 59.2812 121.188C58.7917 121.188 58.3438 121.104 57.9375 120.938C57.5365 120.771 57.1771 120.523 56.8594 120.195V124.156H53.6484ZM56.8359 116.875C56.8359 117.531 56.974 118.018 57.25 118.336C57.526 118.654 57.875 118.812 58.2969 118.812C58.6667 118.812 58.9766 118.661 59.2266 118.359C59.4766 118.052 59.6016 117.534 59.6016 116.805C59.6016 116.133 59.4714 115.641 59.2109 115.328C58.9505 115.01 58.6328 114.852 58.2578 114.852C57.8516 114.852 57.513 115.01 57.2422 115.328C56.9714 115.646 56.8359 116.161 56.8359 116.875ZM67.2031 115.391L64.1641 115.07C64.2786 114.539 64.4427 114.122 64.6562 113.82C64.875 113.513 65.1875 113.247 65.5938 113.023C65.8854 112.862 66.2865 112.737 66.7969 112.648C67.3073 112.56 67.8594 112.516 68.4531 112.516C69.4062 112.516 70.1719 112.57 70.75 112.68C71.3281 112.784 71.8099 113.005 72.1953 113.344C72.4661 113.578 72.6797 113.911 72.8359 114.344C72.9922 114.771 73.0703 115.18 73.0703 115.57V119.234C73.0703 119.625 73.0938 119.932 73.1406 120.156C73.1927 120.375 73.3021 120.656 73.4688 121H70.4844C70.3646 120.786 70.2865 120.625 70.25 120.516C70.2135 120.401 70.1771 120.224 70.1406 119.984C69.724 120.385 69.3099 120.672 68.8984 120.844C68.3359 121.073 67.6823 121.188 66.9375 121.188C65.9479 121.188 65.1953 120.958 64.6797 120.5C64.1693 120.042 63.9141 119.477 63.9141 118.805C63.9141 118.174 64.099 117.656 64.4688 117.25C64.8385 116.844 65.5208 116.542 66.5156 116.344C67.7083 116.104 68.4818 115.938 68.8359 115.844C69.1901 115.745 69.5651 115.617 69.9609 115.461C69.9609 115.07 69.8802 114.797 69.7188 114.641C69.5573 114.484 69.2734 114.406 68.8672 114.406C68.3464 114.406 67.9557 114.49 67.6953 114.656C67.4922 114.786 67.3281 115.031 67.2031 115.391ZM69.9609 117.062C69.5234 117.219 69.0677 117.357 68.5938 117.477C67.9479 117.648 67.5391 117.818 67.3672 117.984C67.1901 118.156 67.1016 118.352 67.1016 118.57C67.1016 118.82 67.1875 119.026 67.3594 119.188C67.5365 119.344 67.7943 119.422 68.1328 119.422C68.487 119.422 68.8151 119.336 69.1172 119.164C69.4245 118.992 69.6406 118.784 69.7656 118.539C69.8958 118.289 69.9609 117.966 69.9609 117.57V117.062ZM81.2344 116.586C81.8646 116.648 82.3646 116.857 82.7344 117.211C83.1094 117.565 83.2969 118.039 83.2969 118.633C83.2969 119.424 83.0365 120.018 82.5156 120.414C81.9948 120.805 81.0599 121 79.7109 121H74.9766V112.711H80.0938C81.0208 112.711 81.7266 112.888 82.2109 113.242C82.7005 113.596 82.9453 114.091 82.9453 114.727C82.9453 115.174 82.7865 115.565 82.4688 115.898C82.151 116.227 81.7396 116.445 81.2344 116.555V116.586ZM78.1562 115.867H78.9609C79.4922 115.867 79.7578 115.625 79.7578 115.141C79.7578 114.75 79.4766 114.555 78.9141 114.555H78.1562V115.867ZM78.1562 119.047H79.2031C79.4635 119.047 79.6745 118.987 79.8359 118.867C79.9974 118.747 80.0781 118.573 80.0781 118.344C80.0781 117.844 79.7865 117.594 79.2031 117.594H78.1562V119.047ZM84.4297 116.875C84.4297 115.609 84.8568 114.568 85.7109 113.75C86.5651 112.927 87.7188 112.516 89.1719 112.516C90.8333 112.516 92.0885 112.997 92.9375 113.961C93.6198 114.737 93.9609 115.693 93.9609 116.828C93.9609 118.104 93.5365 119.151 92.6875 119.969C91.8438 120.781 90.6745 121.188 89.1797 121.188C87.8464 121.188 86.7682 120.849 85.9453 120.172C84.9349 119.333 84.4297 118.234 84.4297 116.875ZM87.6172 116.867C87.6172 117.607 87.7656 118.154 88.0625 118.508C88.3646 118.862 88.7422 119.039 89.1953 119.039C89.6536 119.039 90.0286 118.865 90.3203 118.516C90.6172 118.167 90.7656 117.607 90.7656 116.836C90.7656 116.117 90.6172 115.583 90.3203 115.234C90.0234 114.88 89.6562 114.703 89.2188 114.703C88.7552 114.703 88.3724 114.883 88.0703 115.242C87.7682 115.596 87.6172 116.138 87.6172 116.867Z" fill="#BB3B85" /><mask id="mask0_230_1111" style="mask-type:luminance" maskUnits="userSpaceOnUse" x="25" y="23" width="87" height="75"><path d="M25 23.4431H112V97.6335H25V23.4431Z" fill="white" /></mask><g mask="url(#mask0_230_1111)"><path d="M47.6244 89.8211C41.6248 87.1196 36.9834 83.2549 33.6891 78.2346C30.3985 73.2142 28.7513 67.4135 28.7513 60.8285V60.3407C28.7513 53.7558 30.3985 47.955 33.6891 42.9347C36.9834 37.9144 41.6248 34.0384 47.6244 31.2994C53.6203 28.5604 60.5654 27.1946 68.4524 27.1946C76.4706 27.1946 83.4758 28.5604 89.4754 31.2994C95.4713 34.0384 100.098 37.8994 103.358 42.8859C106.619 47.8725 108.251 53.692 108.251 60.3407V60.8285C108.251 67.481 106.619 73.2968 103.358 78.2833C100.098 83.2699 95.4713 87.1196 89.4754 89.8211C83.4758 92.5263 76.4706 93.8809 68.4524 93.8809C60.5654 93.8809 53.6203 92.5263 47.6244 89.8211Z" fill="#BB3B85" /></g><mask id="mask1_230_1111" style="mask-type:luminance" maskUnits="userSpaceOnUse" x="25" y="23" width="87" height="75"><path d="M25 23.4431H112V97.6335H25V23.4431Z" fill="white" /></mask><g mask="url(#mask1_230_1111)"><path d="M58.9299 66.2441L51.103 37.6756L54.1197 36.8238L61.9466 65.3962L58.9299 66.2441Z" fill="#F0F0F0" /></g><mask id="mask2_230_1111" style="mask-type:luminance" maskUnits="userSpaceOnUse" x="25" y="23" width="87" height="75"><path d="M25 23.4431H112V97.6335H25V23.4431Z" fill="white" /></mask><g mask="url(#mask2_230_1111)"><path d="M46.2918 66.2441L43.2751 65.3962L51.102 36.8238L54.1187 37.6756L46.2918 66.2441Z" fill="#F0F0F0" /></g><mask id="mask3_230_1111" style="mask-type:luminance" maskUnits="userSpaceOnUse" x="25" y="23" width="87" height="75"><path d="M25 23.4417H112V97.6322H25V23.4417Z" fill="white" /></mask><g mask="url(#mask3_230_1111)"><path d="M39.4605 64.7066C39.4605 72.0682 45.3476 78.0378 52.6079 78.0378C59.8682 78.0378 65.7591 72.0682 65.7591 64.7066H39.4605Z" fill="#F0F0F0" /></g><mask id="mask4_230_1111" style="mask-type:luminance" maskUnits="userSpaceOnUse" x="25" y="23" width="87" height="75"><path d="M25 23.4431H112V97.6335H25V23.4431Z" fill="white" /></mask><g mask="url(#mask4_230_1111)"><path d="M89.1567 72.965L81.3298 44.3964L84.3502 43.5447L92.1734 72.117L89.1567 72.965Z" fill="#F0F0F0" /></g><mask id="mask5_230_1111" style="mask-type:luminance" maskUnits="userSpaceOnUse" x="25" y="23" width="87" height="75"><path d="M25 23.4431H112V97.6335H25V23.4431Z" fill="white" /></mask><g mask="url(#mask5_230_1111)"><path d="M76.5198 72.965L73.5031 72.117L81.33 43.5447L84.3467 44.3964L76.5198 72.965Z" fill="#F0F0F0" /></g><mask id="mask6_230_1111" style="mask-type:luminance" maskUnits="userSpaceOnUse" x="25" y="23" width="87" height="75"><path d="M25 23.4431H112V97.6335H25V23.4431Z" fill="white" /></mask><g mask="url(#mask6_230_1111)"><path d="M69.6901 71.4286C69.6901 78.7903 75.5772 84.7599 82.8375 84.7599C90.0979 84.7599 95.9887 78.7903 95.9887 71.4286H69.6901Z" fill="#F0F0F0" /></g><mask id="mask7_230_1111" style="mask-type:luminance" maskUnits="userSpaceOnUse" x="25" y="23" width="87" height="75"><path d="M25 23.4431H112V97.6335H25V23.4431Z" fill="white" /></mask><g mask="url(#mask7_230_1111)"><path d="M52.6104 37.2285L82.8374 43.5433" stroke="#F0F0F0" stroke-width="3.75211" stroke-miterlimit="10" stroke-linecap="round" /></g></svg></svg>