<svg xmlns="http://www.w3.org/2000/svg" viewBox="0 0 408 136"><svg width="136" height="136" viewBox="0 0 136 136" fill="none" xmlns="http://www.w3.org/2000/svg" x="0"><rect x="3" y="3" width="130" height="130" rx="11" fill="#0096DA" /><rect x="3" y="3" width="130" height="130" rx="11" stroke="#0096DA" stroke-width="6" /><path d="M39.3438 112.703H43.1172L44.4375 115.016L45.9688 112.703H49.4766L46.6484 116.656L49.6797 121H45.9688L44.4375 118.328L42.6328 121H39.1875L42.2031 116.656L39.3438 112.703ZM60 121H56.9922V116.922L53.8672 121H50.8438V112.711H53.8516V116.844L57.0078 112.711H60V121ZM73.5312 121H70.8438V115.797L68.875 121H66.9609L64.8281 115.797V121H62.1406V112.711H65.9375L67.9219 117.477L69.7422 112.711H73.5312V121ZM84.8438 121H81.8359V116.922L78.7109 121H75.6875V112.711H78.6953V116.844L81.8516 112.711H84.8438V121ZM94.9375 121H91.7578V117.781H91.6406C91.4167 117.781 91.2396 117.844 91.1094 117.969C90.9844 118.089 90.8568 118.273 90.7266 118.523L89.4531 121H85.9297L87.1641 118.602C87.5286 117.888 88.0078 117.497 88.6016 117.43C87.9297 117.326 87.4167 117.047 87.0625 116.594C86.7135 116.135 86.5391 115.635 86.5391 115.094C86.5391 114.557 86.6719 114.083 86.9375 113.672C87.2083 113.255 87.599 112.992 88.1094 112.883C88.625 112.768 89.2734 112.711 90.0547 112.711H94.9375V121ZM91.7578 115.898V114.602H90.7656C90.2969 114.602 90.0052 114.659 89.8906 114.773C89.776 114.883 89.7188 115.039 89.7188 115.242C89.7188 115.68 90.1042 115.898 90.875 115.898H91.7578Z" fill="#F0F0F0" /><path d="M54.3854 67.2207L67.235 68.6816C66.5267 71.36 65.3646 73.6842 63.7487 75.6543C62.1328 77.6022 60.0631 79.1185 57.5397 80.2031C55.0384 81.2878 51.8509 81.8301 47.9772 81.8301C44.2363 81.8301 41.1152 81.487 38.6139 80.8008C36.1347 80.0924 33.9987 78.9635 32.2057 77.4141C30.4127 75.8424 29.0071 74.0052 27.9889 71.9023C26.9707 69.7995 26.4616 67.0104 26.4616 63.5352C26.4616 59.9049 27.0814 56.8835 28.3209 54.4707C29.2285 52.6999 30.4681 51.1172 32.0397 49.7227C33.6113 48.306 35.2272 47.2546 36.8873 46.5684C39.5215 45.4837 42.8971 44.9414 47.0143 44.9414C52.7695 44.9414 57.1523 45.9707 60.1627 48.0293C63.1953 50.0879 65.3203 53.0983 66.5377 57.0605L53.8209 58.7539C53.4225 57.2487 52.692 56.1198 51.6295 55.3672C50.5892 54.5924 49.1836 54.2051 47.4127 54.2051C45.1771 54.2051 43.362 55.013 41.9674 56.6289C40.595 58.2227 39.9088 60.6465 39.9088 63.9004C39.9088 66.8001 40.595 69.0026 41.9674 70.5078C43.3398 72.013 45.0885 72.7656 47.2135 72.7656C48.9843 72.7656 50.4674 72.3118 51.6627 71.4043C52.8802 70.4967 53.7877 69.1022 54.3854 67.2207ZM69.0638 63.4688C69.0638 58.0898 70.8789 53.6628 74.5091 50.1875C78.1393 46.6901 83.0423 44.9414 89.2181 44.9414C96.2793 44.9414 101.614 46.9889 105.222 51.084C108.122 54.3822 109.572 58.444 109.572 63.2695C109.572 68.6927 107.768 73.1419 104.16 76.6172C100.574 80.0703 95.6042 81.7969 89.2513 81.7969C83.5847 81.7969 79.0026 80.3581 75.5052 77.4805C71.211 73.9167 69.0638 69.2461 69.0638 63.4688ZM82.6107 63.4355C82.6107 66.5788 83.2416 68.903 84.5033 70.4082C85.7871 71.9134 87.392 72.666 89.3177 72.666C91.2657 72.666 92.8594 71.9245 94.099 70.4414C95.3607 68.9583 95.9916 66.5788 95.9916 63.3027C95.9916 60.248 95.3607 57.9792 94.099 56.4961C92.8373 54.9909 91.2767 54.2383 89.4173 54.2383C87.4473 54.2383 85.8203 55.002 84.5365 56.5293C83.2526 58.0345 82.6107 60.3366 82.6107 63.4355Z" fill="#F0F0F0" /><path d="M10.2188 60.4844H21.7812V66.6367H10.2188V60.4844Z" fill="#F0F0F0" /><path d="M115.219 60.4844H126.781V66.6367H115.219V60.4844Z" fill="#F0F0F0" /></svg><svg width="136" height="136" viewBox="0 0 136 136" fill="none" xmlns="http://www.w3.org/2000/svg" x="136"><rect x="3" y="3" width="130" height="130" rx="11" fill="#F2F2F3" /><rect x="3" y="3" width="130" height="130" rx="11" stroke="#0096DA" stroke-width="6" /><path d="M39.3438 112.703H43.1172L44.4375 115.016L45.9688 112.703H49.4766L46.6484 116.656L49.6797 121H45.9688L44.4375 118.328L42.6328 121H39.1875L42.2031 116.656L39.3438 112.703ZM60 121H56.9922V116.922L53.8672 121H50.8438V112.711H53.8516V116.844L57.0078 112.711H60V121ZM73.5312 121H70.8438V115.797L68.875 121H66.9609L64.8281 115.797V121H62.1406V112.711H65.9375L67.9219 117.477L69.7422 112.711H73.5312V121ZM84.8438 121H81.8359V116.922L78.7109 121H75.6875V112.711H78.6953V116.844L81.8516 112.711H84.8438V121ZM94.9375 121H91.7578V117.781H91.6406C91.4167 117.781 91.2396 117.844 91.1094 117.969C90.9844 118.089 90.8568 118.273 90.7266 118.523L89.4531 121H85.9297L87.1641 118.602C87.5286 117.888 88.0078 117.497 88.6016 117.43C87.9297 117.326 87.4167 117.047 87.0625 116.594C86.7135 116.135 86.5391 115.635 86.5391 115.094C86.5391 114.557 86.6719 114.083 86.9375 113.672C87.2083 113.255 87.599 112.992 88.1094 112.883C88.625 112.768 89.2734 112.711 90.0547 112.711H94.9375V121ZM91.7578 115.898V114.602H90.7656C90.2969 114.602 90.0052 114.659 89.8906 114.773C89.776 114.883 89.7188 115.039 89.7188 115.242C89.7188 115.68 90.1042 115.898 90.875 115.898H91.7578Z" fill="#0096DA" /><path d="M54.3854 67.2207L67.235 68.6816C66.5267 71.36 65.3646 73.6842 63.7487 75.6543C62.1328 77.6022 60.0631 79.1185 57.5397 80.2031C55.0384 81.2878 51.8509 81.8301 47.9772 81.8301C44.2363 81.8301 41.1152 81.487 38.6139 80.8008C36.1347 80.0924 33.9987 78.9635 32.2057 77.4141C30.4127 75.8424 29.0071 74.0052 27.9889 71.9023C26.9707 69.7995 26.4616 67.0104 26.4616 63.5352C26.4616 59.9049 27.0814 56.8835 28.3209 54.4707C29.2285 52.6999 30.4681 51.1172 32.0397 49.7227C33.6113 48.306 35.2272 47.2546 36.8873 46.5684C39.5215 45.4837 42.8971 44.9414 47.0143 44.9414C52.7695 44.9414 57.1523 45.9707 60.1627 48.0293C63.1953 50.0879 65.3203 53.0983 66.5377 57.0605L53.8209 58.7539C53.4225 57.2487 52.692 56.1198 51.6295 55.3672C50.5892 54.5924 49.1836 54.2051 47.4127 54.2051C45.1771 54.2051 43.362 55.013 41.9674 56.6289C40.595 58.2227 39.9088 60.6465 39.9088 63.9004C39.9088 66.8001 40.595 69.0026 41.9674 70.5078C43.3398 72.013 45.0885 72.7656 47.2135 72.7656C48.9843 72.7656 50.4674 72.3118 51.6627 71.4043C52.8802 70.4967 53.7877 69.1022 54.3854 67.2207ZM69.0638 63.4688C69.0638 58.0898 70.8789 53.6628 74.5091 50.1875C78.1393 46.6901 83.0423 44.9414 89.2181 44.9414C96.2793 44.9414 101.614 46.9889 105.222 51.084C108.122 54.3822 109.572 58.444 109.572 63.2695C109.572 68.6927 107.768 73.1419 104.16 76.6172C100.574 80.0703 95.6042 81.7969 89.2513 81.7969C83.5847 81.7969 79.0026 80.3581 75.5052 77.4805C71.211 73.9167 69.0638 69.2461 69.0638 63.4688ZM82.6107 63.4355C82.6107 66.5788 83.2416 68.903 84.5033 70.4082C85.7871 71.9134 87.392 72.666 89.3177 72.666C91.2657 72.666 92.8594 71.9245 94.099 70.4414C95.3607 68.9583 95.9916 66.5788 95.9916 63.3027C95.9916 60.248 95.3607 57.9792 94.099 56.4961C92.8373 54.9909 91.2767 54.2383 89.4173 54.2383C87.4473 54.2383 85.8203 55.002 84.5365 56.5293C83.2526 58.0345 82.6107 60.3366 82.6107 63.4355Z" fill="#0096DA" /><path d="M10.2188 60.4844H21.7812V66.6367H10.2188V60.4844Z" fill="#0096DA" /><path d="M115.219 60.4844H126.781V66.6367H115.219V60.4844Z" fill="#0096DA" /></svg><svg width="136" height="136" viewBox="0 0 136 136" fill="none" xmlns="http://www.w3.org/2000/svg" x="272"><rect x="3" y="3" width="130" height="130" rx="11" fill="#F2F2F3" /><rect x="3" y="3" width="130" height="130" rx="11" stroke="#0072B1" stroke-width="6" /><path d="M39.3438 112.703H43.1172L44.4375 115.016L45.9688 112.703H49.4766L46.6484 116.656L49.6797 121H45.9688L44.4375 118.328L42.6328 121H39.1875L42.2031 116.656L39.3438 112.703ZM60 121H56.9922V116.922L53.8672 121H50.8438V112.711H53.8516V116.844L57.0078 112.711H60V121ZM73.5312 121H70.8438V115.797L68.875 121H66.9609L64.8281 115.797V121H62.1406V112.711H65.9375L67.9219 117.477L69.7422 112.711H73.5312V121ZM84.8438 121H81.8359V116.922L78.7109 121H75.6875V112.711H78.6953V116.844L81.8516 112.711H84.8438V121ZM94.9375 121H91.7578V117.781H91.6406C91.4167 117.781 91.2396 117.844 91.1094 117.969C90.9844 118.089 90.8568 118.273 90.7266 118.523L89.4531 121H85.9297L87.1641 118.602C87.5286 117.888 88.0078 117.497 88.6016 117.43C87.9297 117.326 87.4167 117.047 87.0625 116.594C86.7135 116.135 86.5391 115.635 86.5391 115.094C86.5391 114.557 86.6719 114.083 86.9375 113.672C87.2083 113.255 87.599 112.992 88.1094 112.883C88.625 112.768 89.2734 112.711 90.0547 112.711H94.9375V121ZM91.7578 115.898V114.602H90.7656C90.2969 114.602 90.0052 114.659 89.8906 114.773C89.776 114.883 89.7188 115.039 89.7188 115.242C89.7188 115.68 90.1042 115.898 90.875 115.898H91.7578Z" fill="#0072B1" /><path d="M54.3854 67.2207L67.235 68.6816C66.5267 71.36 65.3646 73.6842 63.7487 75.6543C62.1328 77.6022 60.0631 79.1185 57.5397 80.2031C55.0384 81.2878 51.8509 81.8301 47.9772 81.8301C44.2363 81.8301 41.1152 81.487 38.6139 80.8008C36.1347 80.0924 33.9987 78.9635 32.2057 77.4141C30.4127 75.8424 29.0071 74.0052 27.9889 71.9023C26.9707 69.7995 26.4616 67.0104 26.4616 63.5352C26.4616 59.9049 27.0814 56.8835 28.3209 54.4707C29.2285 52.6999 30.4681 51.1172 32.0397 49.7227C33.6113 48.306 35.2272 47.2546 36.8873 46.5684C39.5215 45.4837 42.8971 44.9414 47.0143 44.9414C52.7695 44.9414 57.1523 45.9707 60.1627 48.0293C63.1953 50.0879 65.3203 53.0983 66.5377 57.0605L53.8209 58.7539C53.4225 57.2487 52.692 56.1198 51.6295 55.3672C50.5892 54.5924 49.1836 54.2051 47.4127 54.2051C45.1771 54.2051 43.362 55.013 41.9674 56.6289C40.595 58.2227 39.9088 60.6465 39.9088 63.9004C39.9088 66.8001 40.595 69.0026 41.9674 70.5078C43.3398 72.013 45.0885 72.7656 47.2135 72.7656C48.9843 72.7656 50.4674 72.3118 51.6627 71.4043C52.8802 70.4967 53.7877 69.1022 54.3854 67.2207ZM69.0638 63.4688C69.0638 58.0898 70.8789 53.6628 74.5091 50.1875C78.1393 46.6901 83.0423 44.9414 89.2181 44.9414C96.2793 44.9414 101.614 46.9889 105.222 51.084C108.122 54.3822 109.572 58.444 109.572 63.2695C109.572 68.6927 107.768 73.1419 104.16 76.6172C100.574 80.0703 95.6042 81.7969 89.2513 81.7969C83.5847 81.7969 79.0026 80.3581 75.5052 77.4805C71.211 73.9167 69.0638 69.2461 69.0638 63.4688ZM82.6107 63.4355C82.6107 66.5788 83.2416 68.903 84.5033 70.4082C85.7871 71.9134 87.392 72.666 89.3177 72.666C91.2657 72.666 92.8594 71.9245 94.099 70.4414C95.3607 68.9583 95.9916 66.5788 95.9916 63.3027C95.9916 60.248 95.3607 57.9792 94.099 56.4961C92.8373 54.9909 91.2767 54.2383 89.4173 54.2383C87.4473 54.2383 85.8203 55.002 84.5365 56.5293C83.2526 58.0345 82.6107 60.3366 82.6107 63.4355Z" fill="#0072B1" /><path d="M10.2188 60.4844H21.7812V66.6367H10.2188V60.4844Z" fill="#0072B1" /><path d="M115.219 60.4844H126.781V66.6367H115.219V60.4844Z" fill="#0072B1" /></svg></svg>