<svg xmlns="http://www.w3.org/2000/svg" viewBox="0 0 408 136"><svg width="136" height="136" viewBox="0 0 136 136" fill="none" xmlns="http://www.w3.org/2000/svg" x="0"><g clip-path="url(#clip0_135_562)"><rect x="6" y="6" width="124" height="124" rx="8" fill="#0096DA" /><path d="M27.7891 115.031H24.2578V121H21.0703V112.711H27.7891V115.031ZM38.2969 117.641H31.9219C31.9792 118.151 32.1172 118.531 32.3359 118.781C32.6432 119.141 33.0443 119.32 33.5391 119.32C33.8516 119.32 34.1484 119.242 34.4297 119.086C34.6016 118.987 34.7865 118.812 34.9844 118.562L38.1172 118.852C37.638 119.685 37.0599 120.284 36.3828 120.648C35.7057 121.008 34.7344 121.188 33.4688 121.188C32.3698 121.188 31.5052 121.034 30.875 120.727C30.2448 120.414 29.7214 119.922 29.3047 119.25C28.8932 118.573 28.6875 117.779 28.6875 116.867C28.6875 115.57 29.1016 114.521 29.9297 113.719C30.763 112.917 31.9115 112.516 33.375 112.516C34.5625 112.516 35.5 112.695 36.1875 113.055C36.875 113.414 37.3984 113.935 37.7578 114.617C38.1172 115.299 38.2969 116.188 38.2969 117.281V117.641ZM35.0625 116.117C35 115.503 34.8333 115.062 34.5625 114.797C34.2969 114.531 33.9453 114.398 33.5078 114.398C33.0026 114.398 32.599 114.599 32.2969 115C32.1042 115.25 31.9818 115.622 31.9297 116.117H35.0625ZM39.3672 116.875C39.3672 115.609 39.7943 114.568 40.6484 113.75C41.5026 112.927 42.6562 112.516 44.1094 112.516C45.7708 112.516 47.026 112.997 47.875 113.961C48.5573 114.737 48.8984 115.693 48.8984 116.828C48.8984 118.104 48.474 119.151 47.625 119.969C46.7812 120.781 45.612 121.188 44.1172 121.188C42.7839 121.188 41.7057 120.849 40.8828 120.172C39.8724 119.333 39.3672 118.234 39.3672 116.875ZM42.5547 116.867C42.5547 117.607 42.7031 118.154 43 118.508C43.3021 118.862 43.6797 119.039 44.1328 119.039C44.5911 119.039 44.9661 118.865 45.2578 118.516C45.5547 118.167 45.7031 117.607 45.7031 116.836C45.7031 116.117 45.5547 115.583 45.2578 115.234C44.9609 114.88 44.5938 114.703 44.1562 114.703C43.6927 114.703 43.3099 114.883 43.0078 115.242C42.7057 115.596 42.5547 116.138 42.5547 116.867ZM57.2578 115.031H53.7266V121H50.5391V112.711H57.2578V115.031ZM58.5703 124.156V112.703H61.5469V113.93C61.9583 113.414 62.3359 113.065 62.6797 112.883C63.1432 112.638 63.6562 112.516 64.2188 112.516C65.3281 112.516 66.1849 112.94 66.7891 113.789C67.3984 114.638 67.7031 115.688 67.7031 116.938C67.7031 118.318 67.3724 119.372 66.7109 120.102C66.0495 120.826 65.2135 121.188 64.2031 121.188C63.7135 121.188 63.2656 121.104 62.8594 120.938C62.4583 120.771 62.099 120.523 61.7812 120.195V124.156H58.5703ZM61.7578 116.875C61.7578 117.531 61.8958 118.018 62.1719 118.336C62.4479 118.654 62.7969 118.812 63.2188 118.812C63.5885 118.812 63.8984 118.661 64.1484 118.359C64.3984 118.052 64.5234 117.534 64.5234 116.805C64.5234 116.133 64.3932 115.641 64.1328 115.328C63.8724 115.01 63.5547 114.852 63.1797 114.852C62.7734 114.852 62.4349 115.01 62.1641 115.328C61.8932 115.646 61.7578 116.161 61.7578 116.875ZM72.125 115.391L69.0859 115.07C69.2005 114.539 69.3646 114.122 69.5781 113.82C69.7969 113.513 70.1094 113.247 70.5156 113.023C70.8073 112.862 71.2083 112.737 71.7188 112.648C72.2292 112.56 72.7812 112.516 73.375 112.516C74.3281 112.516 75.0938 112.57 75.6719 112.68C76.25 112.784 76.7318 113.005 77.1172 113.344C77.388 113.578 77.6016 113.911 77.7578 114.344C77.9141 114.771 77.9922 115.18 77.9922 115.57V119.234C77.9922 119.625 78.0156 119.932 78.0625 120.156C78.1146 120.375 78.224 120.656 78.3906 121H75.4062C75.2865 120.786 75.2083 120.625 75.1719 120.516C75.1354 120.401 75.099 120.224 75.0625 119.984C74.6458 120.385 74.2318 120.672 73.8203 120.844C73.2578 121.073 72.6042 121.188 71.8594 121.188C70.8698 121.188 70.1172 120.958 69.6016 120.5C69.0911 120.042 68.8359 119.477 68.8359 118.805C68.8359 118.174 69.0208 117.656 69.3906 117.25C69.7604 116.844 70.4427 116.542 71.4375 116.344C72.6302 116.104 73.4036 115.938 73.7578 115.844C74.112 115.745 74.487 115.617 74.8828 115.461C74.8828 115.07 74.8021 114.797 74.6406 114.641C74.4792 114.484 74.1953 114.406 73.7891 114.406C73.2682 114.406 72.8776 114.49 72.6172 114.656C72.4141 114.786 72.25 115.031 72.125 115.391ZM74.8828 117.062C74.4453 117.219 73.9896 117.357 73.5156 117.477C72.8698 117.648 72.4609 117.818 72.2891 117.984C72.112 118.156 72.0234 118.352 72.0234 118.57C72.0234 118.82 72.1094 119.026 72.2812 119.188C72.4583 119.344 72.7161 119.422 73.0547 119.422C73.4089 119.422 73.737 119.336 74.0391 119.164C74.3464 118.992 74.5625 118.784 74.6875 118.539C74.8177 118.289 74.8828 117.966 74.8828 117.57V117.062ZM88.6328 113.547C89.2682 112.865 90.0781 112.523 91.0625 112.523C92.1302 112.523 92.9792 112.938 93.6094 113.766C94.2396 114.589 94.5547 115.661 94.5547 116.984C94.5547 118.266 94.2396 119.289 93.6094 120.055C92.9792 120.815 92.125 121.195 91.0469 121.195C90.026 121.195 89.2214 120.865 88.6328 120.203V124.172H85.4531V120.219C84.7865 120.87 83.974 121.195 83.0156 121.195C81.9531 121.195 81.1068 120.784 80.4766 119.961C79.8464 119.133 79.5312 118.055 79.5312 116.727C79.5312 115.445 79.8464 114.424 80.4766 113.664C81.1068 112.904 81.9583 112.523 83.0312 112.523C84.0469 112.523 84.8542 112.875 85.4531 113.578V109.547H88.6328V113.547ZM90.0703 118.844C90.487 118.844 90.8073 118.669 91.0312 118.32C91.2552 117.971 91.3672 117.505 91.3672 116.922C91.3672 115.557 90.9193 114.875 90.0234 114.875C89.6328 114.875 89.2969 115.023 89.0156 115.32C88.7396 115.617 88.6016 116.141 88.6016 116.891C88.6016 117.448 88.7266 117.914 88.9766 118.289C89.2266 118.659 89.5911 118.844 90.0703 118.844ZM84.0547 118.844C84.4505 118.844 84.7865 118.695 85.0625 118.398C85.3438 118.096 85.4844 117.57 85.4844 116.82C85.4844 116.263 85.3594 115.799 85.1094 115.43C84.8594 115.06 84.4922 114.875 84.0078 114.875C83.5964 114.875 83.276 115.049 83.0469 115.398C82.8229 115.742 82.7109 116.206 82.7109 116.789C82.7109 118.159 83.1589 118.844 84.0547 118.844ZM105.383 121H102.375V116.922L99.25 121H96.2266V112.711H99.2344V116.844L102.391 112.711H105.383V121ZM115.477 121H112.297V117.781H112.18C111.956 117.781 111.779 117.844 111.648 117.969C111.523 118.089 111.396 118.273 111.266 118.523L109.992 121H106.469L107.703 118.602C108.068 117.888 108.547 117.497 109.141 117.43C108.469 117.326 107.956 117.047 107.602 116.594C107.253 116.135 107.078 115.635 107.078 115.094C107.078 114.557 107.211 114.083 107.477 113.672C107.747 113.255 108.138 112.992 108.648 112.883C109.164 112.768 109.812 112.711 110.594 112.711H115.477V121ZM112.297 115.898V114.602H111.305C110.836 114.602 110.544 114.659 110.43 114.773C110.315 114.883 110.258 115.039 110.258 115.242C110.258 115.68 110.643 115.898 111.414 115.898H112.297Z" fill="#F0F0F0" /><path d="M71.7344 68.1152L92.1426 70.4355C91.0176 74.6895 89.1719 78.3809 86.6055 81.5098C84.0391 84.6035 80.752 87.0117 76.7441 88.7344C72.7715 90.457 67.709 91.3184 61.5566 91.3184C55.6152 91.3184 50.6582 90.7734 46.6855 89.6836C42.748 88.5586 39.3555 86.7656 36.5078 84.3047C33.6602 81.8086 31.4277 78.8906 29.8105 75.5508C28.1934 72.2109 27.3848 67.7812 27.3848 62.2617C27.3848 56.4961 28.3691 51.6973 30.3379 47.8652C31.7793 45.0527 33.748 42.5391 36.2441 40.3242C38.7402 38.0742 41.3066 36.4043 43.9434 35.3145C48.127 33.5918 53.4883 32.7305 60.0273 32.7305C69.168 32.7305 76.1289 34.3652 80.9102 37.6348C85.7266 40.9043 89.1016 45.6855 91.0352 51.9785L70.8379 54.668C70.2051 52.2773 69.0449 50.4844 67.3574 49.2891C65.7051 48.0586 63.4727 47.4434 60.6602 47.4434C57.1094 47.4434 54.2266 48.7266 52.0117 51.293C49.832 53.8242 48.7422 57.6738 48.7422 62.8418C48.7422 67.4473 49.832 70.9453 52.0117 73.3359C54.1914 75.7266 56.9688 76.9219 60.3438 76.9219C63.1562 76.9219 65.5117 76.2012 67.4102 74.7598C69.3438 73.3184 70.7852 71.1035 71.7344 68.1152Z" fill="#F0F0F0" /><path d="M114.455 32.1992C114.455 35.6939 113.211 38.6852 110.723 41.1729C108.236 43.6607 105.23 44.9046 101.705 44.9046C98.2106 44.9046 95.2194 43.6607 92.7316 41.1729C90.2439 38.6852 89 35.6939 89 32.1992C89 28.6749 90.2439 25.6837 92.7316 23.2255C95.2194 20.7378 98.2106 19.4939 101.705 19.4939C105.23 19.4939 108.236 20.7378 110.723 23.2255C113.211 25.6837 114.455 28.6749 114.455 32.1992ZM106.192 32.1548C106.192 30.9109 105.748 29.8447 104.859 28.9563C104.001 28.0678 102.949 27.6235 101.705 27.6235C100.461 27.6235 99.3953 28.0678 98.5068 28.9563C97.6183 29.8447 97.1741 30.9109 97.1741 32.1548C97.1741 33.3987 97.6183 34.4649 98.5068 35.3533C99.3953 36.2122 100.461 36.6416 101.705 36.6416C102.949 36.6416 104.001 36.2122 104.859 35.3533C105.748 34.4649 106.192 33.3987 106.192 32.1548Z" fill="#F0F0F0" /></g><rect x="3" y="3" width="130" height="130" rx="11" stroke="#0096DA" stroke-width="6" /><defs><clipPath id="clip0_135_562"><rect x="6" y="6" width="124" height="124" rx="8" fill="white" /></clipPath></defs></svg><svg width="136" height="136" viewBox="0 0 136 136" fill="none" xmlns="http://www.w3.org/2000/svg" x="136"><g clip-path="url(#clip0_230_1125)"><rect x="6" y="6" width="124" height="124" rx="8" fill="#F0F0F0" /><path d="M27.7891 115.031H24.2578V121H21.0703V112.711H27.7891V115.031ZM38.2969 117.641H31.9219C31.9792 118.151 32.1172 118.531 32.3359 118.781C32.6432 119.141 33.0443 119.32 33.5391 119.32C33.8516 119.32 34.1484 119.242 34.4297 119.086C34.6016 118.987 34.7865 118.812 34.9844 118.562L38.1172 118.852C37.638 119.685 37.0599 120.284 36.3828 120.648C35.7057 121.008 34.7344 121.188 33.4688 121.188C32.3698 121.188 31.5052 121.034 30.875 120.727C30.2448 120.414 29.7214 119.922 29.3047 119.25C28.8932 118.573 28.6875 117.779 28.6875 116.867C28.6875 115.57 29.1016 114.521 29.9297 113.719C30.763 112.917 31.9115 112.516 33.375 112.516C34.5625 112.516 35.5 112.695 36.1875 113.055C36.875 113.414 37.3984 113.935 37.7578 114.617C38.1172 115.299 38.2969 116.188 38.2969 117.281V117.641ZM35.0625 116.117C35 115.503 34.8333 115.062 34.5625 114.797C34.2969 114.531 33.9453 114.398 33.5078 114.398C33.0026 114.398 32.599 114.599 32.2969 115C32.1042 115.25 31.9818 115.622 31.9297 116.117H35.0625ZM39.3672 116.875C39.3672 115.609 39.7943 114.568 40.6484 113.75C41.5026 112.927 42.6562 112.516 44.1094 112.516C45.7708 112.516 47.026 112.997 47.875 113.961C48.5573 114.737 48.8984 115.693 48.8984 116.828C48.8984 118.104 48.474 119.151 47.625 119.969C46.7812 120.781 45.612 121.188 44.1172 121.188C42.7839 121.188 41.7057 120.849 40.8828 120.172C39.8724 119.333 39.3672 118.234 39.3672 116.875ZM42.5547 116.867C42.5547 117.607 42.7031 118.154 43 118.508C43.3021 118.862 43.6797 119.039 44.1328 119.039C44.5911 119.039 44.9661 118.865 45.2578 118.516C45.5547 118.167 45.7031 117.607 45.7031 116.836C45.7031 116.117 45.5547 115.583 45.2578 115.234C44.9609 114.88 44.5938 114.703 44.1562 114.703C43.6927 114.703 43.3099 114.883 43.0078 115.242C42.7057 115.596 42.5547 116.138 42.5547 116.867ZM57.2578 115.031H53.7266V121H50.5391V112.711H57.2578V115.031ZM58.5703 124.156V112.703H61.5469V113.93C61.9583 113.414 62.3359 113.065 62.6797 112.883C63.1432 112.638 63.6562 112.516 64.2188 112.516C65.3281 112.516 66.1849 112.94 66.7891 113.789C67.3984 114.638 67.7031 115.688 67.7031 116.938C67.7031 118.318 67.3724 119.372 66.7109 120.102C66.0495 120.826 65.2135 121.188 64.2031 121.188C63.7135 121.188 63.2656 121.104 62.8594 120.938C62.4583 120.771 62.099 120.523 61.7812 120.195V124.156H58.5703ZM61.7578 116.875C61.7578 117.531 61.8958 118.018 62.1719 118.336C62.4479 118.654 62.7969 118.812 63.2188 118.812C63.5885 118.812 63.8984 118.661 64.1484 118.359C64.3984 118.052 64.5234 117.534 64.5234 116.805C64.5234 116.133 64.3932 115.641 64.1328 115.328C63.8724 115.01 63.5547 114.852 63.1797 114.852C62.7734 114.852 62.4349 115.01 62.1641 115.328C61.8932 115.646 61.7578 116.161 61.7578 116.875ZM72.125 115.391L69.0859 115.07C69.2005 114.539 69.3646 114.122 69.5781 113.82C69.7969 113.513 70.1094 113.247 70.5156 113.023C70.8073 112.862 71.2083 112.737 71.7188 112.648C72.2292 112.56 72.7812 112.516 73.375 112.516C74.3281 112.516 75.0938 112.57 75.6719 112.68C76.25 112.784 76.7318 113.005 77.1172 113.344C77.388 113.578 77.6016 113.911 77.7578 114.344C77.9141 114.771 77.9922 115.18 77.9922 115.57V119.234C77.9922 119.625 78.0156 119.932 78.0625 120.156C78.1146 120.375 78.224 120.656 78.3906 121H75.4062C75.2865 120.786 75.2083 120.625 75.1719 120.516C75.1354 120.401 75.099 120.224 75.0625 119.984C74.6458 120.385 74.2318 120.672 73.8203 120.844C73.2578 121.073 72.6042 121.188 71.8594 121.188C70.8698 121.188 70.1172 120.958 69.6016 120.5C69.0911 120.042 68.8359 119.477 68.8359 118.805C68.8359 118.174 69.0208 117.656 69.3906 117.25C69.7604 116.844 70.4427 116.542 71.4375 116.344C72.6302 116.104 73.4036 115.938 73.7578 115.844C74.112 115.745 74.487 115.617 74.8828 115.461C74.8828 115.07 74.8021 114.797 74.6406 114.641C74.4792 114.484 74.1953 114.406 73.7891 114.406C73.2682 114.406 72.8776 114.49 72.6172 114.656C72.4141 114.786 72.25 115.031 72.125 115.391ZM74.8828 117.062C74.4453 117.219 73.9896 117.357 73.5156 117.477C72.8698 117.648 72.4609 117.818 72.2891 117.984C72.112 118.156 72.0234 118.352 72.0234 118.57C72.0234 118.82 72.1094 119.026 72.2812 119.188C72.4583 119.344 72.7161 119.422 73.0547 119.422C73.4089 119.422 73.737 119.336 74.0391 119.164C74.3464 118.992 74.5625 118.784 74.6875 118.539C74.8177 118.289 74.8828 117.966 74.8828 117.57V117.062ZM88.6328 113.547C89.2682 112.865 90.0781 112.523 91.0625 112.523C92.1302 112.523 92.9792 112.938 93.6094 113.766C94.2396 114.589 94.5547 115.661 94.5547 116.984C94.5547 118.266 94.2396 119.289 93.6094 120.055C92.9792 120.815 92.125 121.195 91.0469 121.195C90.026 121.195 89.2214 120.865 88.6328 120.203V124.172H85.4531V120.219C84.7865 120.87 83.974 121.195 83.0156 121.195C81.9531 121.195 81.1068 120.784 80.4766 119.961C79.8464 119.133 79.5312 118.055 79.5312 116.727C79.5312 115.445 79.8464 114.424 80.4766 113.664C81.1068 112.904 81.9583 112.523 83.0312 112.523C84.0469 112.523 84.8542 112.875 85.4531 113.578V109.547H88.6328V113.547ZM90.0703 118.844C90.487 118.844 90.8073 118.669 91.0312 118.32C91.2552 117.971 91.3672 117.505 91.3672 116.922C91.3672 115.557 90.9193 114.875 90.0234 114.875C89.6328 114.875 89.2969 115.023 89.0156 115.32C88.7396 115.617 88.6016 116.141 88.6016 116.891C88.6016 117.448 88.7266 117.914 88.9766 118.289C89.2266 118.659 89.5911 118.844 90.0703 118.844ZM84.0547 118.844C84.4505 118.844 84.7865 118.695 85.0625 118.398C85.3438 118.096 85.4844 117.57 85.4844 116.82C85.4844 116.263 85.3594 115.799 85.1094 115.43C84.8594 115.06 84.4922 114.875 84.0078 114.875C83.5964 114.875 83.276 115.049 83.0469 115.398C82.8229 115.742 82.7109 116.206 82.7109 116.789C82.7109 118.159 83.1589 118.844 84.0547 118.844ZM105.383 121H102.375V116.922L99.25 121H96.2266V112.711H99.2344V116.844L102.391 112.711H105.383V121ZM115.477 121H112.297V117.781H112.18C111.956 117.781 111.779 117.844 111.648 117.969C111.523 118.089 111.396 118.273 111.266 118.523L109.992 121H106.469L107.703 118.602C108.068 117.888 108.547 117.497 109.141 117.43C108.469 117.326 107.956 117.047 107.602 116.594C107.253 116.135 107.078 115.635 107.078 115.094C107.078 114.557 107.211 114.083 107.477 113.672C107.747 113.255 108.138 112.992 108.648 112.883C109.164 112.768 109.812 112.711 110.594 112.711H115.477V121ZM112.297 115.898V114.602H111.305C110.836 114.602 110.544 114.659 110.43 114.773C110.315 114.883 110.258 115.039 110.258 115.242C110.258 115.68 110.643 115.898 111.414 115.898H112.297Z" fill="#0096DA" /><path d="M71.7344 68.1152L92.1426 70.4355C91.0176 74.6895 89.1719 78.3809 86.6055 81.5098C84.0391 84.6035 80.752 87.0117 76.7441 88.7344C72.7715 90.457 67.709 91.3184 61.5566 91.3184C55.6152 91.3184 50.6582 90.7734 46.6855 89.6836C42.748 88.5586 39.3555 86.7656 36.5078 84.3047C33.6602 81.8086 31.4277 78.8906 29.8105 75.5508C28.1934 72.2109 27.3848 67.7812 27.3848 62.2617C27.3848 56.4961 28.3691 51.6973 30.3379 47.8652C31.7793 45.0527 33.748 42.5391 36.2441 40.3242C38.7402 38.0742 41.3066 36.4043 43.9434 35.3145C48.127 33.5918 53.4883 32.7305 60.0273 32.7305C69.168 32.7305 76.1289 34.3652 80.9102 37.6348C85.7266 40.9043 89.1016 45.6855 91.0352 51.9785L70.8379 54.668C70.2051 52.2773 69.0449 50.4844 67.3574 49.2891C65.7051 48.0586 63.4727 47.4434 60.6602 47.4434C57.1094 47.4434 54.2266 48.7266 52.0117 51.293C49.832 53.8242 48.7422 57.6738 48.7422 62.8418C48.7422 67.4473 49.832 70.9453 52.0117 73.3359C54.1914 75.7266 56.9688 76.9219 60.3438 76.9219C63.1562 76.9219 65.5117 76.2012 67.4102 74.7598C69.3438 73.3184 70.7852 71.1035 71.7344 68.1152Z" fill="#0096DA" /><path d="M114.455 32.1992C114.455 35.6939 113.211 38.6852 110.723 41.1729C108.236 43.6607 105.23 44.9046 101.705 44.9046C98.2106 44.9046 95.2194 43.6607 92.7316 41.1729C90.2439 38.6852 89 35.6939 89 32.1992C89 28.6749 90.2439 25.6837 92.7316 23.2255C95.2194 20.7378 98.2106 19.4939 101.705 19.4939C105.23 19.4939 108.236 20.7378 110.723 23.2255C113.211 25.6837 114.455 28.6749 114.455 32.1992ZM106.192 32.1548C106.192 30.9109 105.748 29.8447 104.859 28.9563C104.001 28.0678 102.949 27.6235 101.705 27.6235C100.461 27.6235 99.3953 28.0678 98.5068 28.9563C97.6183 29.8447 97.1741 30.9109 97.1741 32.1548C97.1741 33.3987 97.6183 34.4649 98.5068 35.3533C99.3953 36.2122 100.461 36.6416 101.705 36.6416C102.949 36.6416 104.001 36.2122 104.859 35.3533C105.748 34.4649 106.192 33.3987 106.192 32.1548Z" fill="#0096DA" /></g><rect x="3" y="3" width="130" height="130" rx="11" stroke="#0096DA" stroke-width="6" /><defs><clipPath id="clip0_230_1125"><rect x="6" y="6" width="124" height="124" rx="8" fill="white" /></clipPath></defs></svg><svg width="136" height="136" viewBox="0 0 136 136" fill="none" xmlns="http://www.w3.org/2000/svg" x="272"><g clip-path="url(#clip0_230_1124)"><rect x="6" y="6" width="124" height="124" rx="8" fill="#F0F0F0" /><path d="M27.7891 115.031H24.2578V121H21.0703V112.711H27.7891V115.031ZM38.2969 117.641H31.9219C31.9792 118.151 32.1172 118.531 32.3359 118.781C32.6432 119.141 33.0443 119.32 33.5391 119.32C33.8516 119.32 34.1484 119.242 34.4297 119.086C34.6016 118.987 34.7865 118.812 34.9844 118.562L38.1172 118.852C37.638 119.685 37.0599 120.284 36.3828 120.648C35.7057 121.008 34.7344 121.188 33.4688 121.188C32.3698 121.188 31.5052 121.034 30.875 120.727C30.2448 120.414 29.7214 119.922 29.3047 119.25C28.8932 118.573 28.6875 117.779 28.6875 116.867C28.6875 115.57 29.1016 114.521 29.9297 113.719C30.763 112.917 31.9115 112.516 33.375 112.516C34.5625 112.516 35.5 112.695 36.1875 113.055C36.875 113.414 37.3984 113.935 37.7578 114.617C38.1172 115.299 38.2969 116.188 38.2969 117.281V117.641ZM35.0625 116.117C35 115.503 34.8333 115.062 34.5625 114.797C34.2969 114.531 33.9453 114.398 33.5078 114.398C33.0026 114.398 32.599 114.599 32.2969 115C32.1042 115.25 31.9818 115.622 31.9297 116.117H35.0625ZM39.3672 116.875C39.3672 115.609 39.7943 114.568 40.6484 113.75C41.5026 112.927 42.6562 112.516 44.1094 112.516C45.7708 112.516 47.026 112.997 47.875 113.961C48.5573 114.737 48.8984 115.693 48.8984 116.828C48.8984 118.104 48.474 119.151 47.625 119.969C46.7812 120.781 45.612 121.188 44.1172 121.188C42.7839 121.188 41.7057 120.849 40.8828 120.172C39.8724 119.333 39.3672 118.234 39.3672 116.875ZM42.5547 116.867C42.5547 117.607 42.7031 118.154 43 118.508C43.3021 118.862 43.6797 119.039 44.1328 119.039C44.5911 119.039 44.9661 118.865 45.2578 118.516C45.5547 118.167 45.7031 117.607 45.7031 116.836C45.7031 116.117 45.5547 115.583 45.2578 115.234C44.9609 114.88 44.5938 114.703 44.1562 114.703C43.6927 114.703 43.3099 114.883 43.0078 115.242C42.7057 115.596 42.5547 116.138 42.5547 116.867ZM57.2578 115.031H53.7266V121H50.5391V112.711H57.2578V115.031ZM58.5703 124.156V112.703H61.5469V113.93C61.9583 113.414 62.3359 113.065 62.6797 112.883C63.1432 112.638 63.6562 112.516 64.2188 112.516C65.3281 112.516 66.1849 112.94 66.7891 113.789C67.3984 114.638 67.7031 115.688 67.7031 116.938C67.7031 118.318 67.3724 119.372 66.7109 120.102C66.0495 120.826 65.2135 121.188 64.2031 121.188C63.7135 121.188 63.2656 121.104 62.8594 120.938C62.4583 120.771 62.099 120.523 61.7812 120.195V124.156H58.5703ZM61.7578 116.875C61.7578 117.531 61.8958 118.018 62.1719 118.336C62.4479 118.654 62.7969 118.812 63.2188 118.812C63.5885 118.812 63.8984 118.661 64.1484 118.359C64.3984 118.052 64.5234 117.534 64.5234 116.805C64.5234 116.133 64.3932 115.641 64.1328 115.328C63.8724 115.01 63.5547 114.852 63.1797 114.852C62.7734 114.852 62.4349 115.01 62.1641 115.328C61.8932 115.646 61.7578 116.161 61.7578 116.875ZM72.125 115.391L69.0859 115.07C69.2005 114.539 69.3646 114.122 69.5781 113.82C69.7969 113.513 70.1094 113.247 70.5156 113.023C70.8073 112.862 71.2083 112.737 71.7188 112.648C72.2292 112.56 72.7812 112.516 73.375 112.516C74.3281 112.516 75.0938 112.57 75.6719 112.68C76.25 112.784 76.7318 113.005 77.1172 113.344C77.388 113.578 77.6016 113.911 77.7578 114.344C77.9141 114.771 77.9922 115.18 77.9922 115.57V119.234C77.9922 119.625 78.0156 119.932 78.0625 120.156C78.1146 120.375 78.224 120.656 78.3906 121H75.4062C75.2865 120.786 75.2083 120.625 75.1719 120.516C75.1354 120.401 75.099 120.224 75.0625 119.984C74.6458 120.385 74.2318 120.672 73.8203 120.844C73.2578 121.073 72.6042 121.188 71.8594 121.188C70.8698 121.188 70.1172 120.958 69.6016 120.5C69.0911 120.042 68.8359 119.477 68.8359 118.805C68.8359 118.174 69.0208 117.656 69.3906 117.25C69.7604 116.844 70.4427 116.542 71.4375 116.344C72.6302 116.104 73.4036 115.938 73.7578 115.844C74.112 115.745 74.487 115.617 74.8828 115.461C74.8828 115.07 74.8021 114.797 74.6406 114.641C74.4792 114.484 74.1953 114.406 73.7891 114.406C73.2682 114.406 72.8776 114.49 72.6172 114.656C72.4141 114.786 72.25 115.031 72.125 115.391ZM74.8828 117.062C74.4453 117.219 73.9896 117.357 73.5156 117.477C72.8698 117.648 72.4609 117.818 72.2891 117.984C72.112 118.156 72.0234 118.352 72.0234 118.57C72.0234 118.82 72.1094 119.026 72.2812 119.188C72.4583 119.344 72.7161 119.422 73.0547 119.422C73.4089 119.422 73.737 119.336 74.0391 119.164C74.3464 118.992 74.5625 118.784 74.6875 118.539C74.8177 118.289 74.8828 117.966 74.8828 117.57V117.062ZM88.6328 113.547C89.2682 112.865 90.0781 112.523 91.0625 112.523C92.1302 112.523 92.9792 112.938 93.6094 113.766C94.2396 114.589 94.5547 115.661 94.5547 116.984C94.5547 118.266 94.2396 119.289 93.6094 120.055C92.9792 120.815 92.125 121.195 91.0469 121.195C90.026 121.195 89.2214 120.865 88.6328 120.203V124.172H85.4531V120.219C84.7865 120.87 83.974 121.195 83.0156 121.195C81.9531 121.195 81.1068 120.784 80.4766 119.961C79.8464 119.133 79.5312 118.055 79.5312 116.727C79.5312 115.445 79.8464 114.424 80.4766 113.664C81.1068 112.904 81.9583 112.523 83.0312 112.523C84.0469 112.523 84.8542 112.875 85.4531 113.578V109.547H88.6328V113.547ZM90.0703 118.844C90.487 118.844 90.8073 118.669 91.0312 118.32C91.2552 117.971 91.3672 117.505 91.3672 116.922C91.3672 115.557 90.9193 114.875 90.0234 114.875C89.6328 114.875 89.2969 115.023 89.0156 115.32C88.7396 115.617 88.6016 116.141 88.6016 116.891C88.6016 117.448 88.7266 117.914 88.9766 118.289C89.2266 118.659 89.5911 118.844 90.0703 118.844ZM84.0547 118.844C84.4505 118.844 84.7865 118.695 85.0625 118.398C85.3438 118.096 85.4844 117.57 85.4844 116.82C85.4844 116.263 85.3594 115.799 85.1094 115.43C84.8594 115.06 84.4922 114.875 84.0078 114.875C83.5964 114.875 83.276 115.049 83.0469 115.398C82.8229 115.742 82.7109 116.206 82.7109 116.789C82.7109 118.159 83.1589 118.844 84.0547 118.844ZM105.383 121H102.375V116.922L99.25 121H96.2266V112.711H99.2344V116.844L102.391 112.711H105.383V121ZM115.477 121H112.297V117.781H112.18C111.956 117.781 111.779 117.844 111.648 117.969C111.523 118.089 111.396 118.273 111.266 118.523L109.992 121H106.469L107.703 118.602C108.068 117.888 108.547 117.497 109.141 117.43C108.469 117.326 107.956 117.047 107.602 116.594C107.253 116.135 107.078 115.635 107.078 115.094C107.078 114.557 107.211 114.083 107.477 113.672C107.747 113.255 108.138 112.992 108.648 112.883C109.164 112.768 109.812 112.711 110.594 112.711H115.477V121ZM112.297 115.898V114.602H111.305C110.836 114.602 110.544 114.659 110.43 114.773C110.315 114.883 110.258 115.039 110.258 115.242C110.258 115.68 110.643 115.898 111.414 115.898H112.297Z" fill="#0072B1" /><path d="M71.7344 68.1152L92.1426 70.4355C91.0176 74.6895 89.1719 78.3809 86.6055 81.5098C84.0391 84.6035 80.752 87.0117 76.7441 88.7344C72.7715 90.457 67.709 91.3184 61.5566 91.3184C55.6152 91.3184 50.6582 90.7734 46.6855 89.6836C42.748 88.5586 39.3555 86.7656 36.5078 84.3047C33.6602 81.8086 31.4277 78.8906 29.8105 75.5508C28.1934 72.2109 27.3848 67.7812 27.3848 62.2617C27.3848 56.4961 28.3691 51.6973 30.3379 47.8652C31.7793 45.0527 33.748 42.5391 36.2441 40.3242C38.7402 38.0742 41.3066 36.4043 43.9434 35.3145C48.127 33.5918 53.4883 32.7305 60.0273 32.7305C69.168 32.7305 76.1289 34.3652 80.9102 37.6348C85.7266 40.9043 89.1016 45.6855 91.0352 51.9785L70.8379 54.668C70.2051 52.2773 69.0449 50.4844 67.3574 49.2891C65.7051 48.0586 63.4727 47.4434 60.6602 47.4434C57.1094 47.4434 54.2266 48.7266 52.0117 51.293C49.832 53.8242 48.7422 57.6738 48.7422 62.8418C48.7422 67.4473 49.832 70.9453 52.0117 73.3359C54.1914 75.7266 56.9688 76.9219 60.3438 76.9219C63.1562 76.9219 65.5117 76.2012 67.4102 74.7598C69.3438 73.3184 70.7852 71.1035 71.7344 68.1152Z" fill="#0072B1" /><path d="M114.455 32.1992C114.455 35.6939 113.211 38.6852 110.723 41.1729C108.236 43.6607 105.23 44.9046 101.705 44.9046C98.2106 44.9046 95.2194 43.6607 92.7316 41.1729C90.2439 38.6852 89 35.6939 89 32.1992C89 28.6749 90.2439 25.6837 92.7316 23.2255C95.2194 20.7378 98.2106 19.4939 101.705 19.4939C105.23 19.4939 108.236 20.7378 110.723 23.2255C113.211 25.6837 114.455 28.6749 114.455 32.1992ZM106.192 32.1548C106.192 30.9109 105.748 29.8447 104.859 28.9563C104.001 28.0678 102.949 27.6235 101.705 27.6235C100.461 27.6235 99.3953 28.0678 98.5068 28.9563C97.6183 29.8447 97.1741 30.9109 97.1741 32.1548C97.1741 33.3987 97.6183 34.4649 98.5068 35.3533C99.3953 36.2122 100.461 36.6416 101.705 36.6416C102.949 36.6416 104.001 36.2122 104.859 35.3533C105.748 34.4649 106.192 33.3987 106.192 32.1548Z" fill="#0072B1" /></g><rect x="3" y="3" width="130" height="130" rx="11" stroke="#0072B1" stroke-width="6" /><defs><clipPath id="clip0_230_1124"><rect x="6" y="6" width="124" height="124" rx="8" fill="white" /></clipPath></defs></svg></svg>