<svg xmlns="http://www.w3.org/2000/svg" viewBox="0 0 408 136"><svg width="136" height="136" viewBox="0 0 136 136" fill="none" xmlns="http://www.w3.org/2000/svg" x="0"><g clip-path="url(#clip0_167_469)"><rect x="6" y="6" width="124" height="124" rx="8" fill="#FF41AF" /><path d="M42.2266 121H39.2188V116.922L36.0938 121H33.0703V112.711H36.0781V116.844L39.2344 112.711H42.2266V121ZM50.4453 117.758L53.4688 118.102C53.3021 118.732 53.0286 119.279 52.6484 119.742C52.2682 120.201 51.7812 120.557 51.1875 120.812C50.599 121.068 49.849 121.195 48.9375 121.195C48.0573 121.195 47.3229 121.115 46.7344 120.953C46.151 120.786 45.6484 120.521 45.2266 120.156C44.8047 119.786 44.474 119.354 44.2344 118.859C43.9948 118.365 43.875 117.708 43.875 116.891C43.875 116.036 44.0208 115.326 44.3125 114.758C44.526 114.341 44.8177 113.969 45.1875 113.641C45.5573 113.307 45.9375 113.06 46.3281 112.898C46.9479 112.643 47.7422 112.516 48.7109 112.516C50.0651 112.516 51.0964 112.758 51.8047 113.242C52.5182 113.727 53.0182 114.435 53.3047 115.367L50.3125 115.766C50.2188 115.411 50.0469 115.146 49.7969 114.969C49.5521 114.786 49.2214 114.695 48.8047 114.695C48.2786 114.695 47.8516 114.885 47.5234 115.266C47.2005 115.641 47.0391 116.211 47.0391 116.977C47.0391 117.659 47.2005 118.177 47.5234 118.531C47.8464 118.885 48.2578 119.062 48.7578 119.062C49.1745 119.062 49.5234 118.956 49.8047 118.742C50.0911 118.529 50.3047 118.201 50.4453 117.758ZM61.9219 115.031H59.6172V121H56.4297V115.031H54.125V112.711H61.9219V115.031ZM62.6641 116.875C62.6641 115.609 63.0911 114.568 63.9453 113.75C64.7995 112.927 65.9531 112.516 67.4062 112.516C69.0677 112.516 70.3229 112.997 71.1719 113.961C71.8542 114.737 72.1953 115.693 72.1953 116.828C72.1953 118.104 71.7708 119.151 70.9219 119.969C70.0781 120.781 68.9089 121.188 67.4141 121.188C66.0807 121.188 65.0026 120.849 64.1797 120.172C63.1693 119.333 62.6641 118.234 62.6641 116.875ZM65.8516 116.867C65.8516 117.607 66 118.154 66.2969 118.508C66.599 118.862 66.9766 119.039 67.4297 119.039C67.888 119.039 68.263 118.865 68.5547 118.516C68.8516 118.167 69 117.607 69 116.836C69 116.117 68.8516 115.583 68.5547 115.234C68.2578 114.88 67.8906 114.703 67.4531 114.703C66.9896 114.703 66.6068 114.883 66.3047 115.242C66.0026 115.596 65.8516 116.138 65.8516 116.867ZM73.7422 124.156V112.703H76.7188V113.93C77.1302 113.414 77.5078 113.065 77.8516 112.883C78.3151 112.638 78.8281 112.516 79.3906 112.516C80.5 112.516 81.3568 112.94 81.9609 113.789C82.5703 114.638 82.875 115.688 82.875 116.938C82.875 118.318 82.5443 119.372 81.8828 120.102C81.2214 120.826 80.3854 121.188 79.375 121.188C78.8854 121.188 78.4375 121.104 78.0312 120.938C77.6302 120.771 77.2708 120.523 76.9531 120.195V124.156H73.7422ZM76.9297 116.875C76.9297 117.531 77.0677 118.018 77.3438 118.336C77.6198 118.654 77.9688 118.812 78.3906 118.812C78.7604 118.812 79.0703 118.661 79.3203 118.359C79.5703 118.052 79.6953 117.534 79.6953 116.805C79.6953 116.133 79.5651 115.641 79.3047 115.328C79.0443 115.01 78.7266 114.852 78.3516 114.852C77.9453 114.852 77.6068 115.01 77.3359 115.328C77.0651 115.646 76.9297 116.161 76.9297 116.875ZM93.6641 121H90.6562V116.922L87.5312 121H84.5078V112.711H87.5156V116.844L90.6719 112.711H93.6641V121ZM103.758 121H100.578V117.781H100.461C100.237 117.781 100.06 117.844 99.9297 117.969C99.8047 118.089 99.6771 118.273 99.5469 118.523L98.2734 121H94.75L95.9844 118.602C96.349 117.888 96.8281 117.497 97.4219 117.43C96.75 117.326 96.237 117.047 95.8828 116.594C95.5339 116.135 95.3594 115.635 95.3594 115.094C95.3594 114.557 95.4922 114.083 95.7578 113.672C96.0286 113.255 96.4193 112.992 96.9297 112.883C97.4453 112.768 98.0938 112.711 98.875 112.711H103.758V121ZM100.578 115.898V114.602H99.5859C99.1172 114.602 98.8255 114.659 98.7109 114.773C98.5964 114.883 98.5391 115.039 98.5391 115.242C98.5391 115.68 98.9245 115.898 99.6953 115.898H100.578Z" fill="#F0F0F0" /><path d="M56.333 82.4102V84H25.8681V82.4102H27.8017C29.4918 82.4102 30.8525 82.1094 31.8838 81.5078C32.6285 81.1068 33.2015 80.4193 33.6025 79.4453C33.9176 78.7578 34.0752 76.9531 34.0752 74.0312V35.7031C34.0752 32.724 33.9176 30.862 33.6025 30.1172C33.2874 29.3724 32.6429 28.7279 31.6689 28.1836C30.7236 27.6107 29.4345 27.3242 27.8017 27.3242H25.8681V25.7344H56.333V27.3242H54.3994C52.7093 27.3242 51.3486 27.625 50.3173 28.2266C49.5726 28.6276 48.9853 29.3151 48.5556 30.2891C48.2405 30.9766 48.083 32.7812 48.083 35.7031V74.0312C48.083 77.0104 48.2405 78.8724 48.5556 79.6172C48.8994 80.362 49.5439 81.0208 50.4892 81.5938C51.4632 82.138 52.7666 82.4102 54.3994 82.4102H56.333ZM83.582 82.4102V84H53.1172V82.4102H55.0508C56.7409 82.4102 58.1016 82.1094 59.1328 81.5078C59.8776 81.1068 60.4505 80.4193 60.8516 79.4453C61.1667 78.7578 61.3242 76.9531 61.3242 74.0312V35.7031C61.3242 32.724 61.1667 30.862 60.8516 30.1172C60.5365 29.3724 59.8919 28.7279 58.918 28.1836C57.9727 27.6107 56.6836 27.3242 55.0508 27.3242H53.1172V25.7344H83.582V27.3242H81.6484C79.9583 27.3242 78.5977 27.625 77.5664 28.2266C76.8216 28.6276 76.2344 29.3151 75.8047 30.2891C75.4896 30.9766 75.332 32.7812 75.332 35.7031V74.0312C75.332 77.0104 75.4896 78.8724 75.8047 79.6172C76.1484 80.362 76.793 81.0208 77.7383 81.5938C78.7122 82.138 80.0156 82.4102 81.6484 82.4102H83.582ZM110.831 82.4102V84H80.3662V82.4102H82.2998C83.9899 82.4102 85.3506 82.1094 86.3819 81.5078C87.1267 81.1068 87.6996 80.4193 88.1006 79.4453C88.4157 78.7578 88.5733 76.9531 88.5733 74.0312V35.7031C88.5733 32.724 88.4157 30.862 88.1006 30.1172C87.7855 29.3724 87.141 28.7279 86.167 28.1836C85.2217 27.6107 83.9327 27.3242 82.2998 27.3242H80.3662V25.7344H110.831V27.3242H108.897C107.207 27.3242 105.847 27.625 104.815 28.2266C104.071 28.6276 103.483 29.3151 103.054 30.2891C102.739 30.9766 102.581 32.7812 102.581 35.7031V74.0312C102.581 77.0104 102.739 78.8724 103.054 79.6172C103.397 80.362 104.042 81.0208 104.987 81.5938C105.961 82.138 107.265 82.4102 108.897 82.4102H110.831Z" fill="#F0F0F0" /></g><rect x="3" y="3" width="130" height="130" rx="11" stroke="#FF41AF" stroke-width="6" /><defs><clipPath id="clip0_167_469"><rect x="6" y="6" width="124" height="124" rx="8" fill="white" /></clipPath></defs></svg><svg width="136" height="136" viewBox="0 0 136 136" fill="none" xmlns="http://www.w3.org/2000/svg" x="136"><g clip-path="url(#clip0_230_1106)"><rect x="6" y="6" width="124" height="124" rx="8" fill="#F0F0F0" /><path d="M42.2266 121H39.2188V116.922L36.0938 121H33.0703V112.711H36.0781V116.844L39.2344 112.711H42.2266V121ZM50.4453 117.758L53.4688 118.102C53.3021 118.732 53.0286 119.279 52.6484 119.742C52.2682 120.201 51.7812 120.557 51.1875 120.812C50.599 121.068 49.849 121.195 48.9375 121.195C48.0573 121.195 47.3229 121.115 46.7344 120.953C46.151 120.786 45.6484 120.521 45.2266 120.156C44.8047 119.786 44.474 119.354 44.2344 118.859C43.9948 118.365 43.875 117.708 43.875 116.891C43.875 116.036 44.0208 115.326 44.3125 114.758C44.526 114.341 44.8177 113.969 45.1875 113.641C45.5573 113.307 45.9375 113.06 46.3281 112.898C46.9479 112.643 47.7422 112.516 48.7109 112.516C50.0651 112.516 51.0964 112.758 51.8047 113.242C52.5182 113.727 53.0182 114.435 53.3047 115.367L50.3125 115.766C50.2188 115.411 50.0469 115.146 49.7969 114.969C49.5521 114.786 49.2214 114.695 48.8047 114.695C48.2786 114.695 47.8516 114.885 47.5234 115.266C47.2005 115.641 47.0391 116.211 47.0391 116.977C47.0391 117.659 47.2005 118.177 47.5234 118.531C47.8464 118.885 48.2578 119.062 48.7578 119.062C49.1745 119.062 49.5234 118.956 49.8047 118.742C50.0911 118.529 50.3047 118.201 50.4453 117.758ZM61.9219 115.031H59.6172V121H56.4297V115.031H54.125V112.711H61.9219V115.031ZM62.6641 116.875C62.6641 115.609 63.0911 114.568 63.9453 113.75C64.7995 112.927 65.9531 112.516 67.4062 112.516C69.0677 112.516 70.3229 112.997 71.1719 113.961C71.8542 114.737 72.1953 115.693 72.1953 116.828C72.1953 118.104 71.7708 119.151 70.9219 119.969C70.0781 120.781 68.9089 121.188 67.4141 121.188C66.0807 121.188 65.0026 120.849 64.1797 120.172C63.1693 119.333 62.6641 118.234 62.6641 116.875ZM65.8516 116.867C65.8516 117.607 66 118.154 66.2969 118.508C66.599 118.862 66.9766 119.039 67.4297 119.039C67.888 119.039 68.263 118.865 68.5547 118.516C68.8516 118.167 69 117.607 69 116.836C69 116.117 68.8516 115.583 68.5547 115.234C68.2578 114.88 67.8906 114.703 67.4531 114.703C66.9896 114.703 66.6068 114.883 66.3047 115.242C66.0026 115.596 65.8516 116.138 65.8516 116.867ZM73.7422 124.156V112.703H76.7188V113.93C77.1302 113.414 77.5078 113.065 77.8516 112.883C78.3151 112.638 78.8281 112.516 79.3906 112.516C80.5 112.516 81.3568 112.94 81.9609 113.789C82.5703 114.638 82.875 115.688 82.875 116.938C82.875 118.318 82.5443 119.372 81.8828 120.102C81.2214 120.826 80.3854 121.188 79.375 121.188C78.8854 121.188 78.4375 121.104 78.0312 120.938C77.6302 120.771 77.2708 120.523 76.9531 120.195V124.156H73.7422ZM76.9297 116.875C76.9297 117.531 77.0677 118.018 77.3438 118.336C77.6198 118.654 77.9688 118.812 78.3906 118.812C78.7604 118.812 79.0703 118.661 79.3203 118.359C79.5703 118.052 79.6953 117.534 79.6953 116.805C79.6953 116.133 79.5651 115.641 79.3047 115.328C79.0443 115.01 78.7266 114.852 78.3516 114.852C77.9453 114.852 77.6068 115.01 77.3359 115.328C77.0651 115.646 76.9297 116.161 76.9297 116.875ZM93.6641 121H90.6562V116.922L87.5312 121H84.5078V112.711H87.5156V116.844L90.6719 112.711H93.6641V121ZM103.758 121H100.578V117.781H100.461C100.237 117.781 100.06 117.844 99.9297 117.969C99.8047 118.089 99.6771 118.273 99.5469 118.523L98.2734 121H94.75L95.9844 118.602C96.349 117.888 96.8281 117.497 97.4219 117.43C96.75 117.326 96.237 117.047 95.8828 116.594C95.5339 116.135 95.3594 115.635 95.3594 115.094C95.3594 114.557 95.4922 114.083 95.7578 113.672C96.0286 113.255 96.4193 112.992 96.9297 112.883C97.4453 112.768 98.0938 112.711 98.875 112.711H103.758V121ZM100.578 115.898V114.602H99.5859C99.1172 114.602 98.8255 114.659 98.7109 114.773C98.5964 114.883 98.5391 115.039 98.5391 115.242C98.5391 115.68 98.9245 115.898 99.6953 115.898H100.578Z" fill="#FF41AF" /><path d="M56.333 82.4102V84H25.8681V82.4102H27.8017C29.4918 82.4102 30.8525 82.1094 31.8838 81.5078C32.6285 81.1068 33.2015 80.4193 33.6025 79.4453C33.9176 78.7578 34.0752 76.9531 34.0752 74.0312V35.7031C34.0752 32.724 33.9176 30.862 33.6025 30.1172C33.2874 29.3724 32.6429 28.7279 31.6689 28.1836C30.7236 27.6107 29.4345 27.3242 27.8017 27.3242H25.8681V25.7344H56.333V27.3242H54.3994C52.7093 27.3242 51.3486 27.625 50.3173 28.2266C49.5726 28.6276 48.9853 29.3151 48.5556 30.2891C48.2405 30.9766 48.083 32.7812 48.083 35.7031V74.0312C48.083 77.0104 48.2405 78.8724 48.5556 79.6172C48.8994 80.362 49.5439 81.0208 50.4892 81.5938C51.4632 82.138 52.7666 82.4102 54.3994 82.4102H56.333ZM83.582 82.4102V84H53.1172V82.4102H55.0508C56.7409 82.4102 58.1016 82.1094 59.1328 81.5078C59.8776 81.1068 60.4505 80.4193 60.8516 79.4453C61.1667 78.7578 61.3242 76.9531 61.3242 74.0312V35.7031C61.3242 32.724 61.1667 30.862 60.8516 30.1172C60.5365 29.3724 59.8919 28.7279 58.918 28.1836C57.9727 27.6107 56.6836 27.3242 55.0508 27.3242H53.1172V25.7344H83.582V27.3242H81.6484C79.9583 27.3242 78.5977 27.625 77.5664 28.2266C76.8216 28.6276 76.2344 29.3151 75.8047 30.2891C75.4896 30.9766 75.332 32.7812 75.332 35.7031V74.0312C75.332 77.0104 75.4896 78.8724 75.8047 79.6172C76.1484 80.362 76.793 81.0208 77.7383 81.5938C78.7122 82.138 80.0156 82.4102 81.6484 82.4102H83.582ZM110.831 82.4102V84H80.3662V82.4102H82.2998C83.9899 82.4102 85.3506 82.1094 86.3819 81.5078C87.1267 81.1068 87.6996 80.4193 88.1006 79.4453C88.4157 78.7578 88.5733 76.9531 88.5733 74.0312V35.7031C88.5733 32.724 88.4157 30.862 88.1006 30.1172C87.7855 29.3724 87.141 28.7279 86.167 28.1836C85.2217 27.6107 83.9327 27.3242 82.2998 27.3242H80.3662V25.7344H110.831V27.3242H108.897C107.207 27.3242 105.847 27.625 104.815 28.2266C104.071 28.6276 103.483 29.3151 103.054 30.2891C102.739 30.9766 102.581 32.7812 102.581 35.7031V74.0312C102.581 77.0104 102.739 78.8724 103.054 79.6172C103.397 80.362 104.042 81.0208 104.987 81.5938C105.961 82.138 107.265 82.4102 108.897 82.4102H110.831Z" fill="#FF41AF" /></g><rect x="3" y="3" width="130" height="130" rx="11" stroke="#FF41AF" stroke-width="6" /><defs><clipPath id="clip0_230_1106"><rect x="6" y="6" width="124" height="124" rx="8" fill="white" /></clipPath></defs></svg><svg width="136" height="136" viewBox="0 0 136 136" fill="none" xmlns="http://www.w3.org/2000/svg" x="272"><g clip-path="url(#clip0_230_1105)"><rect x="6" y="6" width="124" height="124" rx="8" fill="#F0F0F0" /><path d="M42.2266 121H39.2188V116.922L36.0938 121H33.0703V112.711H36.0781V116.844L39.2344 112.711H42.2266V121ZM50.4453 117.758L53.4688 118.102C53.3021 118.732 53.0286 119.279 52.6484 119.742C52.2682 120.201 51.7812 120.557 51.1875 120.812C50.599 121.068 49.849 121.195 48.9375 121.195C48.0573 121.195 47.3229 121.115 46.7344 120.953C46.151 120.786 45.6484 120.521 45.2266 120.156C44.8047 119.786 44.474 119.354 44.2344 118.859C43.9948 118.365 43.875 117.708 43.875 116.891C43.875 116.036 44.0208 115.326 44.3125 114.758C44.526 114.341 44.8177 113.969 45.1875 113.641C45.5573 113.307 45.9375 113.06 46.3281 112.898C46.9479 112.643 47.7422 112.516 48.7109 112.516C50.0651 112.516 51.0964 112.758 51.8047 113.242C52.5182 113.727 53.0182 114.435 53.3047 115.367L50.3125 115.766C50.2188 115.411 50.0469 115.146 49.7969 114.969C49.5521 114.786 49.2214 114.695 48.8047 114.695C48.2786 114.695 47.8516 114.885 47.5234 115.266C47.2005 115.641 47.0391 116.211 47.0391 116.977C47.0391 117.659 47.2005 118.177 47.5234 118.531C47.8464 118.885 48.2578 119.062 48.7578 119.062C49.1745 119.062 49.5234 118.956 49.8047 118.742C50.0911 118.529 50.3047 118.201 50.4453 117.758ZM61.9219 115.031H59.6172V121H56.4297V115.031H54.125V112.711H61.9219V115.031ZM62.6641 116.875C62.6641 115.609 63.0911 114.568 63.9453 113.75C64.7995 112.927 65.9531 112.516 67.4062 112.516C69.0677 112.516 70.3229 112.997 71.1719 113.961C71.8542 114.737 72.1953 115.693 72.1953 116.828C72.1953 118.104 71.7708 119.151 70.9219 119.969C70.0781 120.781 68.9089 121.188 67.4141 121.188C66.0807 121.188 65.0026 120.849 64.1797 120.172C63.1693 119.333 62.6641 118.234 62.6641 116.875ZM65.8516 116.867C65.8516 117.607 66 118.154 66.2969 118.508C66.599 118.862 66.9766 119.039 67.4297 119.039C67.888 119.039 68.263 118.865 68.5547 118.516C68.8516 118.167 69 117.607 69 116.836C69 116.117 68.8516 115.583 68.5547 115.234C68.2578 114.88 67.8906 114.703 67.4531 114.703C66.9896 114.703 66.6068 114.883 66.3047 115.242C66.0026 115.596 65.8516 116.138 65.8516 116.867ZM73.7422 124.156V112.703H76.7188V113.93C77.1302 113.414 77.5078 113.065 77.8516 112.883C78.3151 112.638 78.8281 112.516 79.3906 112.516C80.5 112.516 81.3568 112.94 81.9609 113.789C82.5703 114.638 82.875 115.688 82.875 116.938C82.875 118.318 82.5443 119.372 81.8828 120.102C81.2214 120.826 80.3854 121.188 79.375 121.188C78.8854 121.188 78.4375 121.104 78.0312 120.938C77.6302 120.771 77.2708 120.523 76.9531 120.195V124.156H73.7422ZM76.9297 116.875C76.9297 117.531 77.0677 118.018 77.3438 118.336C77.6198 118.654 77.9688 118.812 78.3906 118.812C78.7604 118.812 79.0703 118.661 79.3203 118.359C79.5703 118.052 79.6953 117.534 79.6953 116.805C79.6953 116.133 79.5651 115.641 79.3047 115.328C79.0443 115.01 78.7266 114.852 78.3516 114.852C77.9453 114.852 77.6068 115.01 77.3359 115.328C77.0651 115.646 76.9297 116.161 76.9297 116.875ZM93.6641 121H90.6562V116.922L87.5312 121H84.5078V112.711H87.5156V116.844L90.6719 112.711H93.6641V121ZM103.758 121H100.578V117.781H100.461C100.237 117.781 100.06 117.844 99.9297 117.969C99.8047 118.089 99.6771 118.273 99.5469 118.523L98.2734 121H94.75L95.9844 118.602C96.349 117.888 96.8281 117.497 97.4219 117.43C96.75 117.326 96.237 117.047 95.8828 116.594C95.5339 116.135 95.3594 115.635 95.3594 115.094C95.3594 114.557 95.4922 114.083 95.7578 113.672C96.0286 113.255 96.4193 112.992 96.9297 112.883C97.4453 112.768 98.0938 112.711 98.875 112.711H103.758V121ZM100.578 115.898V114.602H99.5859C99.1172 114.602 98.8255 114.659 98.7109 114.773C98.5964 114.883 98.5391 115.039 98.5391 115.242C98.5391 115.68 98.9245 115.898 99.6953 115.898H100.578Z" fill="#BB3B85" /><path d="M56.333 82.4102V84H25.8681V82.4102H27.8017C29.4918 82.4102 30.8525 82.1094 31.8838 81.5078C32.6285 81.1068 33.2015 80.4193 33.6025 79.4453C33.9176 78.7578 34.0752 76.9531 34.0752 74.0312V35.7031C34.0752 32.724 33.9176 30.862 33.6025 30.1172C33.2874 29.3724 32.6429 28.7279 31.6689 28.1836C30.7236 27.6107 29.4345 27.3242 27.8017 27.3242H25.8681V25.7344H56.333V27.3242H54.3994C52.7093 27.3242 51.3486 27.625 50.3173 28.2266C49.5726 28.6276 48.9853 29.3151 48.5556 30.2891C48.2405 30.9766 48.083 32.7812 48.083 35.7031V74.0312C48.083 77.0104 48.2405 78.8724 48.5556 79.6172C48.8994 80.362 49.5439 81.0208 50.4892 81.5938C51.4632 82.138 52.7666 82.4102 54.3994 82.4102H56.333ZM83.582 82.4102V84H53.1172V82.4102H55.0508C56.7409 82.4102 58.1016 82.1094 59.1328 81.5078C59.8776 81.1068 60.4505 80.4193 60.8516 79.4453C61.1667 78.7578 61.3242 76.9531 61.3242 74.0312V35.7031C61.3242 32.724 61.1667 30.862 60.8516 30.1172C60.5365 29.3724 59.8919 28.7279 58.918 28.1836C57.9727 27.6107 56.6836 27.3242 55.0508 27.3242H53.1172V25.7344H83.582V27.3242H81.6484C79.9583 27.3242 78.5977 27.625 77.5664 28.2266C76.8216 28.6276 76.2344 29.3151 75.8047 30.2891C75.4896 30.9766 75.332 32.7812 75.332 35.7031V74.0312C75.332 77.0104 75.4896 78.8724 75.8047 79.6172C76.1484 80.362 76.793 81.0208 77.7383 81.5938C78.7122 82.138 80.0156 82.4102 81.6484 82.4102H83.582ZM110.831 82.4102V84H80.3662V82.4102H82.2998C83.9899 82.4102 85.3506 82.1094 86.3819 81.5078C87.1267 81.1068 87.6996 80.4193 88.1006 79.4453C88.4157 78.7578 88.5733 76.9531 88.5733 74.0312V35.7031C88.5733 32.724 88.4157 30.862 88.1006 30.1172C87.7855 29.3724 87.141 28.7279 86.167 28.1836C85.2217 27.6107 83.9327 27.3242 82.2998 27.3242H80.3662V25.7344H110.831V27.3242H108.897C107.207 27.3242 105.847 27.625 104.815 28.2266C104.071 28.6276 103.483 29.3151 103.054 30.2891C102.739 30.9766 102.581 32.7812 102.581 35.7031V74.0312C102.581 77.0104 102.739 78.8724 103.054 79.6172C103.397 80.362 104.042 81.0208 104.987 81.5938C105.961 82.138 107.265 82.4102 108.897 82.4102H110.831Z" fill="#BB3B85" /></g><rect x="3" y="3" width="130" height="130" rx="11" stroke="#BB3B85" stroke-width="6" /><defs><clipPath id="clip0_230_1105"><rect x="6" y="6" width="124" height="124" rx="8" fill="white" /></clipPath></defs></svg></svg>