<svg xmlns="http://www.w3.org/2000/svg" viewBox="0 0 408 136"><svg width="136" height="136" viewBox="0 0 136 136" fill="none" xmlns="http://www.w3.org/2000/svg" x="0"><rect x="3" y="3" width="130" height="130" rx="11" fill="#FF41AF" /><rect x="3" y="3" width="130" height="130" rx="11" stroke="#FF41AF" stroke-width="6" /><path d="M29.5938 110H26.5859V105.922L23.4609 110H20.4375V101.711H23.4453V105.844L26.6016 101.711H29.5938V110ZM37.8125 106.758L40.8359 107.102C40.6693 107.732 40.3958 108.279 40.0156 108.742C39.6354 109.201 39.1484 109.557 38.5547 109.812C37.9661 110.068 37.2161 110.195 36.3047 110.195C35.4245 110.195 34.6901 110.115 34.1016 109.953C33.5182 109.786 33.0156 109.521 32.5938 109.156C32.1719 108.786 31.8411 108.354 31.6016 107.859C31.362 107.365 31.2422 106.708 31.2422 105.891C31.2422 105.036 31.388 104.326 31.6797 103.758C31.8932 103.341 32.1849 102.969 32.5547 102.641C32.9245 102.307 33.3047 102.06 33.6953 101.898C34.3151 101.643 35.1094 101.516 36.0781 101.516C37.4323 101.516 38.4635 101.758 39.1719 102.242C39.8854 102.727 40.3854 103.435 40.6719 104.367L37.6797 104.766C37.5859 104.411 37.4141 104.146 37.1641 103.969C36.9193 103.786 36.5885 103.695 36.1719 103.695C35.6458 103.695 35.2188 103.885 34.8906 104.266C34.5677 104.641 34.4062 105.211 34.4062 105.977C34.4062 106.659 34.5677 107.177 34.8906 107.531C35.2135 107.885 35.625 108.062 36.125 108.062C36.5417 108.062 36.8906 107.956 37.1719 107.742C37.4583 107.529 37.6719 107.201 37.8125 106.758ZM51.0469 110H47.8672V104.031H45.4453V110H42.2656V101.711H51.0469V110ZM55.8672 104.391L52.8281 104.07C52.9427 103.539 53.1068 103.122 53.3203 102.82C53.5391 102.513 53.8516 102.247 54.2578 102.023C54.5495 101.862 54.9505 101.737 55.4609 101.648C55.9714 101.56 56.5234 101.516 57.1172 101.516C58.0703 101.516 58.8359 101.57 59.4141 101.68C59.9922 101.784 60.474 102.005 60.8594 102.344C61.1302 102.578 61.3438 102.911 61.5 103.344C61.6562 103.771 61.7344 104.18 61.7344 104.57V108.234C61.7344 108.625 61.7578 108.932 61.8047 109.156C61.8568 109.375 61.9661 109.656 62.1328 110H59.1484C59.0286 109.786 58.9505 109.625 58.9141 109.516C58.8776 109.401 58.8411 109.224 58.8047 108.984C58.388 109.385 57.974 109.672 57.5625 109.844C57 110.073 56.3464 110.188 55.6016 110.188C54.612 110.188 53.8594 109.958 53.3438 109.5C52.8333 109.042 52.5781 108.477 52.5781 107.805C52.5781 107.174 52.763 106.656 53.1328 106.25C53.5026 105.844 54.1849 105.542 55.1797 105.344C56.3724 105.104 57.1458 104.938 57.5 104.844C57.8542 104.745 58.2292 104.617 58.625 104.461C58.625 104.07 58.5443 103.797 58.3828 103.641C58.2214 103.484 57.9375 103.406 57.5312 103.406C57.0104 103.406 56.6198 103.49 56.3594 103.656C56.1562 103.786 55.9922 104.031 55.8672 104.391ZM58.625 106.062C58.1875 106.219 57.7318 106.357 57.2578 106.477C56.612 106.648 56.2031 106.818 56.0312 106.984C55.8542 107.156 55.7656 107.352 55.7656 107.57C55.7656 107.82 55.8516 108.026 56.0234 108.188C56.2005 108.344 56.4583 108.422 56.7969 108.422C57.151 108.422 57.4792 108.336 57.7812 108.164C58.0885 107.992 58.3047 107.784 58.4297 107.539C58.5599 107.289 58.625 106.966 58.625 106.57V106.062ZM73.0156 110H69.8281V106.867H66.9375V110H63.75V101.711H66.9375V104.547H69.8281V101.711H73.0156V110ZM81.2344 106.758L84.2578 107.102C84.0911 107.732 83.8177 108.279 83.4375 108.742C83.0573 109.201 82.5703 109.557 81.9766 109.812C81.388 110.068 80.638 110.195 79.7266 110.195C78.8464 110.195 78.112 110.115 77.5234 109.953C76.9401 109.786 76.4375 109.521 76.0156 109.156C75.5938 108.786 75.263 108.354 75.0234 107.859C74.7839 107.365 74.6641 106.708 74.6641 105.891C74.6641 105.036 74.8099 104.326 75.1016 103.758C75.3151 103.341 75.6068 102.969 75.9766 102.641C76.3464 102.307 76.7266 102.06 77.1172 101.898C77.737 101.643 78.5312 101.516 79.5 101.516C80.8542 101.516 81.8854 101.758 82.5938 102.242C83.3073 102.727 83.8073 103.435 84.0938 104.367L81.1016 104.766C81.0078 104.411 80.8359 104.146 80.5859 103.969C80.3411 103.786 80.0104 103.695 79.5938 103.695C79.0677 103.695 78.6406 103.885 78.3125 104.266C77.9896 104.641 77.8281 105.211 77.8281 105.977C77.8281 106.659 77.9896 107.177 78.3125 107.531C78.6354 107.885 79.0469 108.062 79.5469 108.062C79.9635 108.062 80.3125 107.956 80.5938 107.742C80.8802 107.529 81.0938 107.201 81.2344 106.758ZM94.9531 110H91.3672L90.1484 107.711C89.9557 107.346 89.7656 107.117 89.5781 107.023C89.3958 106.93 89.1693 106.883 88.8984 106.883V110H85.7188V101.711H88.8984V104.703C89.1589 104.677 89.3516 104.591 89.4766 104.445C89.6016 104.299 89.7812 103.979 90.0156 103.484C90.2552 102.99 90.4688 102.628 90.6562 102.398C90.8438 102.169 91.0833 101.997 91.375 101.883C91.6667 101.768 92.0312 101.695 92.4688 101.664C92.9062 101.633 93.5573 101.617 94.4219 101.617V103.875H94.2812C93.8542 103.875 93.5286 103.893 93.3047 103.93C93.0807 103.961 92.901 104.031 92.7656 104.141C92.6302 104.25 92.474 104.474 92.2969 104.812C92.1198 105.151 91.9714 105.388 91.8516 105.523C91.737 105.654 91.5651 105.742 91.3359 105.789C91.7786 105.831 92.1198 105.927 92.3594 106.078C92.599 106.224 92.9609 106.701 93.4453 107.508L94.9531 110ZM105.266 110H102.258V105.922L99.1328 110H96.1094V101.711H99.1172V105.844L102.273 101.711H105.266V110ZM116.562 110H113.555V105.922L110.43 110H107.406V101.711H110.414V105.844L113.57 101.711H116.562V110ZM114.547 98.3516C114.531 99.1068 114.268 99.6875 113.758 100.094C113.247 100.5 112.641 100.703 111.938 100.703C111.115 100.703 110.471 100.497 110.008 100.086C109.544 99.6693 109.281 99.0911 109.219 98.3516H110.562C110.719 98.9089 111.156 99.1875 111.875 99.1875C112.271 99.1875 112.581 99.1328 112.805 99.0234C113.034 98.9089 113.188 98.6849 113.266 98.3516H114.547ZM57.3594 125H54.1797V121.781H54.0625C53.8385 121.781 53.6615 121.844 53.5312 121.969C53.4062 122.089 53.2786 122.273 53.1484 122.523L51.875 125H48.3516L49.5859 122.602C49.9505 121.888 50.4297 121.497 51.0234 121.43C50.3516 121.326 49.8385 121.047 49.4844 120.594C49.1354 120.135 48.9609 119.635 48.9609 119.094C48.9609 118.557 49.0938 118.083 49.3594 117.672C49.6302 117.255 50.0208 116.992 50.5312 116.883C51.0469 116.768 51.6953 116.711 52.4766 116.711H57.3594V125ZM54.1797 119.898V118.602H53.1875C52.7188 118.602 52.4271 118.659 52.3125 118.773C52.1979 118.883 52.1406 119.039 52.1406 119.242C52.1406 119.68 52.526 119.898 53.2969 119.898H54.1797ZM66.9609 120.711C67.4557 120.867 67.849 121.112 68.1406 121.445C68.4323 121.773 68.5781 122.138 68.5781 122.539C68.5781 123.404 68.1641 124.062 67.3359 124.516C66.5078 124.969 65.2995 125.195 63.7109 125.195C62.3776 125.195 61.3281 124.951 60.5625 124.461C59.8021 123.966 59.2526 123.224 58.9141 122.234L61.9375 121.898C62.0417 122.19 62.2552 122.451 62.5781 122.68C62.9062 122.904 63.2786 123.016 63.6953 123.016C64.763 123.016 65.2969 122.75 65.2969 122.219C65.2969 122.036 65.1953 121.891 64.9922 121.781C64.7891 121.667 64.5234 121.609 64.1953 121.609H62.8125V119.977H64.2266C64.5026 119.977 64.7552 119.919 64.9844 119.805C65.2135 119.69 65.3281 119.544 65.3281 119.367C65.3281 119.169 65.1927 119.008 64.9219 118.883C64.6562 118.758 64.2839 118.695 63.8047 118.695C63.3359 118.695 62.9401 118.794 62.6172 118.992C62.2943 119.185 62.0885 119.417 62 119.688L59.0703 119.289C59.3568 118.346 59.8802 117.651 60.6406 117.203C61.401 116.75 62.4505 116.523 63.7891 116.523C65.1797 116.523 66.2682 116.75 67.0547 117.203C67.8464 117.656 68.2422 118.229 68.2422 118.922C68.2422 119.755 67.8151 120.352 66.9609 120.711ZM73.4375 119.656H74.8906C77.3438 119.656 78.5703 120.552 78.5703 122.344C78.5703 124.115 77.375 125 74.9844 125H70.25V116.711H73.4375V119.656ZM73.4375 123.047H74.4766C74.737 123.047 74.9479 122.987 75.1094 122.867C75.276 122.747 75.3594 122.573 75.3594 122.344C75.3594 121.844 75.0651 121.594 74.4766 121.594H73.4375V123.047ZM79.4766 116.703H82.6562V125H79.4766V116.703ZM93.9219 125H90.3359L89.1172 122.711C88.9245 122.346 88.7344 122.117 88.5469 122.023C88.3646 121.93 88.138 121.883 87.8672 121.883V125H84.6875V116.711H87.8672V119.703C88.1276 119.677 88.3203 119.591 88.4453 119.445C88.5703 119.299 88.75 118.979 88.9844 118.484C89.224 117.99 89.4375 117.628 89.625 117.398C89.8125 117.169 90.0521 116.997 90.3438 116.883C90.6354 116.768 91 116.695 91.4375 116.664C91.875 116.633 92.526 116.617 93.3906 116.617V118.875H93.25C92.8229 118.875 92.4974 118.893 92.2734 118.93C92.0495 118.961 91.8698 119.031 91.7344 119.141C91.599 119.25 91.4427 119.474 91.2656 119.812C91.0885 120.151 90.9401 120.388 90.8203 120.523C90.7057 120.654 90.5339 120.742 90.3047 120.789C90.7474 120.831 91.0885 120.927 91.3281 121.078C91.5677 121.224 91.9297 121.701 92.4141 122.508L93.9219 125Z" fill="#F0F0F0" /><path d="M74.3384 55.8626C72.7744 57.803 69.8461 59.861 65.5616 62.0366C62.2923 63.7379 60.1676 65.0119 59.1798 65.8665C58.1959 66.7171 57.7019 67.6853 57.7019 68.7751V69.5905C57.7019 71.0879 58.5526 72.2796 60.2539 73.1655C61.9552 74.0475 64.268 74.4905 67.1923 74.4905C70.5282 74.4905 73.182 73.828 75.1538 72.4991C77.1295 71.1741 78.1134 69.4219 78.1134 67.2424V65.3059H97V67.2424C97 72.1424 95.8083 76.4113 93.425 80.053C91.0455 83.6946 87.6429 86.4857 83.2173 88.4222C78.7955 90.3626 73.5584 91.3308 67.498 91.3308C61.9199 91.3308 56.8827 90.4802 52.3943 88.7789C47.9019 87.0776 44.3818 84.7138 41.8298 81.6876C39.2779 78.6574 38 75.2392 38 71.4289V69.7943C38 66.7994 38.9055 64.0946 40.7048 61.6799C42.508 59.2652 45.35 57.0347 49.2269 54.9963C51.6103 53.7693 53.5154 52.7501 54.9462 51.9348C56.3731 51.1155 57.2747 50.4844 57.651 50.0453C58.0234 49.6023 58.2115 49.0379 58.2115 48.3597V47.8501H76.6865V48.3597C76.6865 51.4212 75.9025 53.9222 74.3384 55.8626ZM75.6673 24.7809C77.7763 26.8232 78.8308 29.5123 78.8308 32.8443C78.8308 36.1136 77.7763 38.7675 75.6673 40.8059C73.5584 42.8482 70.8026 43.8674 67.3961 43.8674C63.9975 43.8674 61.2378 42.8482 59.1288 40.8059C57.0199 38.7675 55.9654 36.1136 55.9654 32.8443C55.9654 29.5123 57.0199 26.8232 59.1288 24.7809C61.2378 22.7425 63.9975 21.7194 67.3961 21.7194C70.8026 21.7194 73.5584 22.7425 75.6673 24.7809Z" fill="#F0F0F0" /></svg><svg width="136" height="136" viewBox="0 0 136 136" fill="none" xmlns="http://www.w3.org/2000/svg" x="136"><rect x="3" y="3" width="130" height="130" rx="11" fill="#F0F0F0" /><rect x="3" y="3" width="130" height="130" rx="11" stroke="#FF41AF" stroke-width="6" /><path d="M29.5938 110H26.5859V105.922L23.4609 110H20.4375V101.711H23.4453V105.844L26.6016 101.711H29.5938V110ZM37.8125 106.758L40.8359 107.102C40.6693 107.732 40.3958 108.279 40.0156 108.742C39.6354 109.201 39.1484 109.557 38.5547 109.812C37.9661 110.068 37.2161 110.195 36.3047 110.195C35.4245 110.195 34.6901 110.115 34.1016 109.953C33.5182 109.786 33.0156 109.521 32.5938 109.156C32.1719 108.786 31.8411 108.354 31.6016 107.859C31.362 107.365 31.2422 106.708 31.2422 105.891C31.2422 105.036 31.388 104.326 31.6797 103.758C31.8932 103.341 32.1849 102.969 32.5547 102.641C32.9245 102.307 33.3047 102.06 33.6953 101.898C34.3151 101.643 35.1094 101.516 36.0781 101.516C37.4323 101.516 38.4635 101.758 39.1719 102.242C39.8854 102.727 40.3854 103.435 40.6719 104.367L37.6797 104.766C37.5859 104.411 37.4141 104.146 37.1641 103.969C36.9193 103.786 36.5885 103.695 36.1719 103.695C35.6458 103.695 35.2188 103.885 34.8906 104.266C34.5677 104.641 34.4062 105.211 34.4062 105.977C34.4062 106.659 34.5677 107.177 34.8906 107.531C35.2135 107.885 35.625 108.062 36.125 108.062C36.5417 108.062 36.8906 107.956 37.1719 107.742C37.4583 107.529 37.6719 107.201 37.8125 106.758ZM51.0469 110H47.8672V104.031H45.4453V110H42.2656V101.711H51.0469V110ZM55.8672 104.391L52.8281 104.07C52.9427 103.539 53.1068 103.122 53.3203 102.82C53.5391 102.513 53.8516 102.247 54.2578 102.023C54.5495 101.862 54.9505 101.737 55.4609 101.648C55.9714 101.56 56.5234 101.516 57.1172 101.516C58.0703 101.516 58.8359 101.57 59.4141 101.68C59.9922 101.784 60.474 102.005 60.8594 102.344C61.1302 102.578 61.3438 102.911 61.5 103.344C61.6562 103.771 61.7344 104.18 61.7344 104.57V108.234C61.7344 108.625 61.7578 108.932 61.8047 109.156C61.8568 109.375 61.9661 109.656 62.1328 110H59.1484C59.0286 109.786 58.9505 109.625 58.9141 109.516C58.8776 109.401 58.8411 109.224 58.8047 108.984C58.388 109.385 57.974 109.672 57.5625 109.844C57 110.073 56.3464 110.188 55.6016 110.188C54.612 110.188 53.8594 109.958 53.3438 109.5C52.8333 109.042 52.5781 108.477 52.5781 107.805C52.5781 107.174 52.763 106.656 53.1328 106.25C53.5026 105.844 54.1849 105.542 55.1797 105.344C56.3724 105.104 57.1458 104.938 57.5 104.844C57.8542 104.745 58.2292 104.617 58.625 104.461C58.625 104.07 58.5443 103.797 58.3828 103.641C58.2214 103.484 57.9375 103.406 57.5312 103.406C57.0104 103.406 56.6198 103.49 56.3594 103.656C56.1562 103.786 55.9922 104.031 55.8672 104.391ZM58.625 106.062C58.1875 106.219 57.7318 106.357 57.2578 106.477C56.612 106.648 56.2031 106.818 56.0312 106.984C55.8542 107.156 55.7656 107.352 55.7656 107.57C55.7656 107.82 55.8516 108.026 56.0234 108.188C56.2005 108.344 56.4583 108.422 56.7969 108.422C57.151 108.422 57.4792 108.336 57.7812 108.164C58.0885 107.992 58.3047 107.784 58.4297 107.539C58.5599 107.289 58.625 106.966 58.625 106.57V106.062ZM73.0156 110H69.8281V106.867H66.9375V110H63.75V101.711H66.9375V104.547H69.8281V101.711H73.0156V110ZM81.2344 106.758L84.2578 107.102C84.0911 107.732 83.8177 108.279 83.4375 108.742C83.0573 109.201 82.5703 109.557 81.9766 109.812C81.388 110.068 80.638 110.195 79.7266 110.195C78.8464 110.195 78.112 110.115 77.5234 109.953C76.9401 109.786 76.4375 109.521 76.0156 109.156C75.5938 108.786 75.263 108.354 75.0234 107.859C74.7839 107.365 74.6641 106.708 74.6641 105.891C74.6641 105.036 74.8099 104.326 75.1016 103.758C75.3151 103.341 75.6068 102.969 75.9766 102.641C76.3464 102.307 76.7266 102.06 77.1172 101.898C77.737 101.643 78.5312 101.516 79.5 101.516C80.8542 101.516 81.8854 101.758 82.5938 102.242C83.3073 102.727 83.8073 103.435 84.0938 104.367L81.1016 104.766C81.0078 104.411 80.8359 104.146 80.5859 103.969C80.3411 103.786 80.0104 103.695 79.5938 103.695C79.0677 103.695 78.6406 103.885 78.3125 104.266C77.9896 104.641 77.8281 105.211 77.8281 105.977C77.8281 106.659 77.9896 107.177 78.3125 107.531C78.6354 107.885 79.0469 108.062 79.5469 108.062C79.9635 108.062 80.3125 107.956 80.5938 107.742C80.8802 107.529 81.0938 107.201 81.2344 106.758ZM94.9531 110H91.3672L90.1484 107.711C89.9557 107.346 89.7656 107.117 89.5781 107.023C89.3958 106.93 89.1693 106.883 88.8984 106.883V110H85.7188V101.711H88.8984V104.703C89.1589 104.677 89.3516 104.591 89.4766 104.445C89.6016 104.299 89.7812 103.979 90.0156 103.484C90.2552 102.99 90.4688 102.628 90.6562 102.398C90.8438 102.169 91.0833 101.997 91.375 101.883C91.6667 101.768 92.0312 101.695 92.4688 101.664C92.9062 101.633 93.5573 101.617 94.4219 101.617V103.875H94.2812C93.8542 103.875 93.5286 103.893 93.3047 103.93C93.0807 103.961 92.901 104.031 92.7656 104.141C92.6302 104.25 92.474 104.474 92.2969 104.812C92.1198 105.151 91.9714 105.388 91.8516 105.523C91.737 105.654 91.5651 105.742 91.3359 105.789C91.7786 105.831 92.1198 105.927 92.3594 106.078C92.599 106.224 92.9609 106.701 93.4453 107.508L94.9531 110ZM105.266 110H102.258V105.922L99.1328 110H96.1094V101.711H99.1172V105.844L102.273 101.711H105.266V110ZM116.562 110H113.555V105.922L110.43 110H107.406V101.711H110.414V105.844L113.57 101.711H116.562V110ZM114.547 98.3516C114.531 99.1068 114.268 99.6875 113.758 100.094C113.247 100.5 112.641 100.703 111.938 100.703C111.115 100.703 110.471 100.497 110.008 100.086C109.544 99.6693 109.281 99.0911 109.219 98.3516H110.562C110.719 98.9089 111.156 99.1875 111.875 99.1875C112.271 99.1875 112.581 99.1328 112.805 99.0234C113.034 98.9089 113.188 98.6849 113.266 98.3516H114.547ZM57.3594 125H54.1797V121.781H54.0625C53.8385 121.781 53.6615 121.844 53.5312 121.969C53.4062 122.089 53.2786 122.273 53.1484 122.523L51.875 125H48.3516L49.5859 122.602C49.9505 121.888 50.4297 121.497 51.0234 121.43C50.3516 121.326 49.8385 121.047 49.4844 120.594C49.1354 120.135 48.9609 119.635 48.9609 119.094C48.9609 118.557 49.0938 118.083 49.3594 117.672C49.6302 117.255 50.0208 116.992 50.5312 116.883C51.0469 116.768 51.6953 116.711 52.4766 116.711H57.3594V125ZM54.1797 119.898V118.602H53.1875C52.7188 118.602 52.4271 118.659 52.3125 118.773C52.1979 118.883 52.1406 119.039 52.1406 119.242C52.1406 119.68 52.526 119.898 53.2969 119.898H54.1797ZM66.9609 120.711C67.4557 120.867 67.849 121.112 68.1406 121.445C68.4323 121.773 68.5781 122.138 68.5781 122.539C68.5781 123.404 68.1641 124.062 67.3359 124.516C66.5078 124.969 65.2995 125.195 63.7109 125.195C62.3776 125.195 61.3281 124.951 60.5625 124.461C59.8021 123.966 59.2526 123.224 58.9141 122.234L61.9375 121.898C62.0417 122.19 62.2552 122.451 62.5781 122.68C62.9062 122.904 63.2786 123.016 63.6953 123.016C64.763 123.016 65.2969 122.75 65.2969 122.219C65.2969 122.036 65.1953 121.891 64.9922 121.781C64.7891 121.667 64.5234 121.609 64.1953 121.609H62.8125V119.977H64.2266C64.5026 119.977 64.7552 119.919 64.9844 119.805C65.2135 119.69 65.3281 119.544 65.3281 119.367C65.3281 119.169 65.1927 119.008 64.9219 118.883C64.6562 118.758 64.2839 118.695 63.8047 118.695C63.3359 118.695 62.9401 118.794 62.6172 118.992C62.2943 119.185 62.0885 119.417 62 119.688L59.0703 119.289C59.3568 118.346 59.8802 117.651 60.6406 117.203C61.401 116.75 62.4505 116.523 63.7891 116.523C65.1797 116.523 66.2682 116.75 67.0547 117.203C67.8464 117.656 68.2422 118.229 68.2422 118.922C68.2422 119.755 67.8151 120.352 66.9609 120.711ZM73.4375 119.656H74.8906C77.3438 119.656 78.5703 120.552 78.5703 122.344C78.5703 124.115 77.375 125 74.9844 125H70.25V116.711H73.4375V119.656ZM73.4375 123.047H74.4766C74.737 123.047 74.9479 122.987 75.1094 122.867C75.276 122.747 75.3594 122.573 75.3594 122.344C75.3594 121.844 75.0651 121.594 74.4766 121.594H73.4375V123.047ZM79.4766 116.703H82.6562V125H79.4766V116.703ZM93.9219 125H90.3359L89.1172 122.711C88.9245 122.346 88.7344 122.117 88.5469 122.023C88.3646 121.93 88.138 121.883 87.8672 121.883V125H84.6875V116.711H87.8672V119.703C88.1276 119.677 88.3203 119.591 88.4453 119.445C88.5703 119.299 88.75 118.979 88.9844 118.484C89.224 117.99 89.4375 117.628 89.625 117.398C89.8125 117.169 90.0521 116.997 90.3438 116.883C90.6354 116.768 91 116.695 91.4375 116.664C91.875 116.633 92.526 116.617 93.3906 116.617V118.875H93.25C92.8229 118.875 92.4974 118.893 92.2734 118.93C92.0495 118.961 91.8698 119.031 91.7344 119.141C91.599 119.25 91.4427 119.474 91.2656 119.812C91.0885 120.151 90.9401 120.388 90.8203 120.523C90.7057 120.654 90.5339 120.742 90.3047 120.789C90.7474 120.831 91.0885 120.927 91.3281 121.078C91.5677 121.224 91.9297 121.701 92.4141 122.508L93.9219 125Z" fill="#FF41AF" /><path d="M74.3384 55.8626C72.7744 57.803 69.8461 59.861 65.5616 62.0366C62.2923 63.7379 60.1676 65.0119 59.1798 65.8665C58.1959 66.7171 57.7019 67.6853 57.7019 68.7751V69.5905C57.7019 71.0879 58.5526 72.2796 60.2539 73.1655C61.9552 74.0475 64.268 74.4905 67.1923 74.4905C70.5282 74.4905 73.182 73.828 75.1538 72.4991C77.1295 71.1741 78.1134 69.4219 78.1134 67.2424V65.3059H97V67.2424C97 72.1424 95.8083 76.4113 93.425 80.053C91.0455 83.6946 87.6429 86.4857 83.2173 88.4222C78.7955 90.3626 73.5584 91.3308 67.498 91.3308C61.9199 91.3308 56.8827 90.4802 52.3943 88.7789C47.9019 87.0776 44.3818 84.7138 41.8298 81.6876C39.2779 78.6574 38 75.2392 38 71.4289V69.7943C38 66.7994 38.9055 64.0946 40.7048 61.6799C42.508 59.2652 45.35 57.0347 49.2269 54.9963C51.6103 53.7693 53.5154 52.7501 54.9462 51.9348C56.3731 51.1155 57.2747 50.4844 57.651 50.0453C58.0234 49.6023 58.2115 49.0379 58.2115 48.3597V47.8501H76.6865V48.3597C76.6865 51.4212 75.9025 53.9222 74.3384 55.8626ZM75.6673 24.7809C77.7763 26.8232 78.8308 29.5123 78.8308 32.8443C78.8308 36.1136 77.7763 38.7675 75.6673 40.8059C73.5584 42.8482 70.8026 43.8674 67.3961 43.8674C63.9975 43.8674 61.2378 42.8482 59.1288 40.8059C57.0199 38.7675 55.9654 36.1136 55.9654 32.8443C55.9654 29.5123 57.0199 26.8232 59.1288 24.7809C61.2378 22.7425 63.9975 21.7194 67.3961 21.7194C70.8026 21.7194 73.5584 22.7425 75.6673 24.7809Z" fill="#FF41AF" /></svg><svg width="136" height="136" viewBox="0 0 136 136" fill="none" xmlns="http://www.w3.org/2000/svg" x="272"><rect x="3" y="3" width="130" height="130" rx="11" fill="#F0F0F0" /><rect x="3" y="3" width="130" height="130" rx="11" stroke="#BB3B85" stroke-width="6" /><path d="M29.5938 110H26.5859V105.922L23.4609 110H20.4375V101.711H23.4453V105.844L26.6016 101.711H29.5938V110ZM37.8125 106.758L40.8359 107.102C40.6693 107.732 40.3958 108.279 40.0156 108.742C39.6354 109.201 39.1484 109.557 38.5547 109.812C37.9661 110.068 37.2161 110.195 36.3047 110.195C35.4245 110.195 34.6901 110.115 34.1016 109.953C33.5182 109.786 33.0156 109.521 32.5938 109.156C32.1719 108.786 31.8411 108.354 31.6016 107.859C31.362 107.365 31.2422 106.708 31.2422 105.891C31.2422 105.036 31.388 104.326 31.6797 103.758C31.8932 103.341 32.1849 102.969 32.5547 102.641C32.9245 102.307 33.3047 102.06 33.6953 101.898C34.3151 101.643 35.1094 101.516 36.0781 101.516C37.4323 101.516 38.4635 101.758 39.1719 102.242C39.8854 102.727 40.3854 103.435 40.6719 104.367L37.6797 104.766C37.5859 104.411 37.4141 104.146 37.1641 103.969C36.9193 103.786 36.5885 103.695 36.1719 103.695C35.6458 103.695 35.2188 103.885 34.8906 104.266C34.5677 104.641 34.4062 105.211 34.4062 105.977C34.4062 106.659 34.5677 107.177 34.8906 107.531C35.2135 107.885 35.625 108.062 36.125 108.062C36.5417 108.062 36.8906 107.956 37.1719 107.742C37.4583 107.529 37.6719 107.201 37.8125 106.758ZM51.0469 110H47.8672V104.031H45.4453V110H42.2656V101.711H51.0469V110ZM55.8672 104.391L52.8281 104.07C52.9427 103.539 53.1068 103.122 53.3203 102.82C53.5391 102.513 53.8516 102.247 54.2578 102.023C54.5495 101.862 54.9505 101.737 55.4609 101.648C55.9714 101.56 56.5234 101.516 57.1172 101.516C58.0703 101.516 58.8359 101.57 59.4141 101.68C59.9922 101.784 60.474 102.005 60.8594 102.344C61.1302 102.578 61.3438 102.911 61.5 103.344C61.6562 103.771 61.7344 104.18 61.7344 104.57V108.234C61.7344 108.625 61.7578 108.932 61.8047 109.156C61.8568 109.375 61.9661 109.656 62.1328 110H59.1484C59.0286 109.786 58.9505 109.625 58.9141 109.516C58.8776 109.401 58.8411 109.224 58.8047 108.984C58.388 109.385 57.974 109.672 57.5625 109.844C57 110.073 56.3464 110.188 55.6016 110.188C54.612 110.188 53.8594 109.958 53.3438 109.5C52.8333 109.042 52.5781 108.477 52.5781 107.805C52.5781 107.174 52.763 106.656 53.1328 106.25C53.5026 105.844 54.1849 105.542 55.1797 105.344C56.3724 105.104 57.1458 104.938 57.5 104.844C57.8542 104.745 58.2292 104.617 58.625 104.461C58.625 104.07 58.5443 103.797 58.3828 103.641C58.2214 103.484 57.9375 103.406 57.5312 103.406C57.0104 103.406 56.6198 103.49 56.3594 103.656C56.1562 103.786 55.9922 104.031 55.8672 104.391ZM58.625 106.062C58.1875 106.219 57.7318 106.357 57.2578 106.477C56.612 106.648 56.2031 106.818 56.0312 106.984C55.8542 107.156 55.7656 107.352 55.7656 107.57C55.7656 107.82 55.8516 108.026 56.0234 108.188C56.2005 108.344 56.4583 108.422 56.7969 108.422C57.151 108.422 57.4792 108.336 57.7812 108.164C58.0885 107.992 58.3047 107.784 58.4297 107.539C58.5599 107.289 58.625 106.966 58.625 106.57V106.062ZM73.0156 110H69.8281V106.867H66.9375V110H63.75V101.711H66.9375V104.547H69.8281V101.711H73.0156V110ZM81.2344 106.758L84.2578 107.102C84.0911 107.732 83.8177 108.279 83.4375 108.742C83.0573 109.201 82.5703 109.557 81.9766 109.812C81.388 110.068 80.638 110.195 79.7266 110.195C78.8464 110.195 78.112 110.115 77.5234 109.953C76.9401 109.786 76.4375 109.521 76.0156 109.156C75.5938 108.786 75.263 108.354 75.0234 107.859C74.7839 107.365 74.6641 106.708 74.6641 105.891C74.6641 105.036 74.8099 104.326 75.1016 103.758C75.3151 103.341 75.6068 102.969 75.9766 102.641C76.3464 102.307 76.7266 102.06 77.1172 101.898C77.737 101.643 78.5312 101.516 79.5 101.516C80.8542 101.516 81.8854 101.758 82.5938 102.242C83.3073 102.727 83.8073 103.435 84.0938 104.367L81.1016 104.766C81.0078 104.411 80.8359 104.146 80.5859 103.969C80.3411 103.786 80.0104 103.695 79.5938 103.695C79.0677 103.695 78.6406 103.885 78.3125 104.266C77.9896 104.641 77.8281 105.211 77.8281 105.977C77.8281 106.659 77.9896 107.177 78.3125 107.531C78.6354 107.885 79.0469 108.062 79.5469 108.062C79.9635 108.062 80.3125 107.956 80.5938 107.742C80.8802 107.529 81.0938 107.201 81.2344 106.758ZM94.9531 110H91.3672L90.1484 107.711C89.9557 107.346 89.7656 107.117 89.5781 107.023C89.3958 106.93 89.1693 106.883 88.8984 106.883V110H85.7188V101.711H88.8984V104.703C89.1589 104.677 89.3516 104.591 89.4766 104.445C89.6016 104.299 89.7812 103.979 90.0156 103.484C90.2552 102.99 90.4688 102.628 90.6562 102.398C90.8438 102.169 91.0833 101.997 91.375 101.883C91.6667 101.768 92.0312 101.695 92.4688 101.664C92.9062 101.633 93.5573 101.617 94.4219 101.617V103.875H94.2812C93.8542 103.875 93.5286 103.893 93.3047 103.93C93.0807 103.961 92.901 104.031 92.7656 104.141C92.6302 104.25 92.474 104.474 92.2969 104.812C92.1198 105.151 91.9714 105.388 91.8516 105.523C91.737 105.654 91.5651 105.742 91.3359 105.789C91.7786 105.831 92.1198 105.927 92.3594 106.078C92.599 106.224 92.9609 106.701 93.4453 107.508L94.9531 110ZM105.266 110H102.258V105.922L99.1328 110H96.1094V101.711H99.1172V105.844L102.273 101.711H105.266V110ZM116.562 110H113.555V105.922L110.43 110H107.406V101.711H110.414V105.844L113.57 101.711H116.562V110ZM114.547 98.3516C114.531 99.1068 114.268 99.6875 113.758 100.094C113.247 100.5 112.641 100.703 111.938 100.703C111.115 100.703 110.471 100.497 110.008 100.086C109.544 99.6693 109.281 99.0911 109.219 98.3516H110.562C110.719 98.9089 111.156 99.1875 111.875 99.1875C112.271 99.1875 112.581 99.1328 112.805 99.0234C113.034 98.9089 113.188 98.6849 113.266 98.3516H114.547ZM57.3594 125H54.1797V121.781H54.0625C53.8385 121.781 53.6615 121.844 53.5312 121.969C53.4062 122.089 53.2786 122.273 53.1484 122.523L51.875 125H48.3516L49.5859 122.602C49.9505 121.888 50.4297 121.497 51.0234 121.43C50.3516 121.326 49.8385 121.047 49.4844 120.594C49.1354 120.135 48.9609 119.635 48.9609 119.094C48.9609 118.557 49.0938 118.083 49.3594 117.672C49.6302 117.255 50.0208 116.992 50.5312 116.883C51.0469 116.768 51.6953 116.711 52.4766 116.711H57.3594V125ZM54.1797 119.898V118.602H53.1875C52.7188 118.602 52.4271 118.659 52.3125 118.773C52.1979 118.883 52.1406 119.039 52.1406 119.242C52.1406 119.68 52.526 119.898 53.2969 119.898H54.1797ZM66.9609 120.711C67.4557 120.867 67.849 121.112 68.1406 121.445C68.4323 121.773 68.5781 122.138 68.5781 122.539C68.5781 123.404 68.1641 124.062 67.3359 124.516C66.5078 124.969 65.2995 125.195 63.7109 125.195C62.3776 125.195 61.3281 124.951 60.5625 124.461C59.8021 123.966 59.2526 123.224 58.9141 122.234L61.9375 121.898C62.0417 122.19 62.2552 122.451 62.5781 122.68C62.9062 122.904 63.2786 123.016 63.6953 123.016C64.763 123.016 65.2969 122.75 65.2969 122.219C65.2969 122.036 65.1953 121.891 64.9922 121.781C64.7891 121.667 64.5234 121.609 64.1953 121.609H62.8125V119.977H64.2266C64.5026 119.977 64.7552 119.919 64.9844 119.805C65.2135 119.69 65.3281 119.544 65.3281 119.367C65.3281 119.169 65.1927 119.008 64.9219 118.883C64.6562 118.758 64.2839 118.695 63.8047 118.695C63.3359 118.695 62.9401 118.794 62.6172 118.992C62.2943 119.185 62.0885 119.417 62 119.688L59.0703 119.289C59.3568 118.346 59.8802 117.651 60.6406 117.203C61.401 116.75 62.4505 116.523 63.7891 116.523C65.1797 116.523 66.2682 116.75 67.0547 117.203C67.8464 117.656 68.2422 118.229 68.2422 118.922C68.2422 119.755 67.8151 120.352 66.9609 120.711ZM73.4375 119.656H74.8906C77.3438 119.656 78.5703 120.552 78.5703 122.344C78.5703 124.115 77.375 125 74.9844 125H70.25V116.711H73.4375V119.656ZM73.4375 123.047H74.4766C74.737 123.047 74.9479 122.987 75.1094 122.867C75.276 122.747 75.3594 122.573 75.3594 122.344C75.3594 121.844 75.0651 121.594 74.4766 121.594H73.4375V123.047ZM79.4766 116.703H82.6562V125H79.4766V116.703ZM93.9219 125H90.3359L89.1172 122.711C88.9245 122.346 88.7344 122.117 88.5469 122.023C88.3646 121.93 88.138 121.883 87.8672 121.883V125H84.6875V116.711H87.8672V119.703C88.1276 119.677 88.3203 119.591 88.4453 119.445C88.5703 119.299 88.75 118.979 88.9844 118.484C89.224 117.99 89.4375 117.628 89.625 117.398C89.8125 117.169 90.0521 116.997 90.3438 116.883C90.6354 116.768 91 116.695 91.4375 116.664C91.875 116.633 92.526 116.617 93.3906 116.617V118.875H93.25C92.8229 118.875 92.4974 118.893 92.2734 118.93C92.0495 118.961 91.8698 119.031 91.7344 119.141C91.599 119.25 91.4427 119.474 91.2656 119.812C91.0885 120.151 90.9401 120.388 90.8203 120.523C90.7057 120.654 90.5339 120.742 90.3047 120.789C90.7474 120.831 91.0885 120.927 91.3281 121.078C91.5677 121.224 91.9297 121.701 92.4141 122.508L93.9219 125Z" fill="#BB3B85" /><path d="M74.3384 55.8626C72.7744 57.803 69.8461 59.861 65.5616 62.0366C62.2923 63.7379 60.1676 65.0119 59.1798 65.8665C58.1959 66.7171 57.7019 67.6853 57.7019 68.7751V69.5905C57.7019 71.0879 58.5526 72.2796 60.2539 73.1655C61.9552 74.0475 64.268 74.4905 67.1923 74.4905C70.5282 74.4905 73.182 73.828 75.1538 72.4991C77.1295 71.1741 78.1134 69.4219 78.1134 67.2424V65.3059H97V67.2424C97 72.1424 95.8083 76.4113 93.425 80.053C91.0455 83.6946 87.6429 86.4857 83.2173 88.4222C78.7955 90.3626 73.5584 91.3308 67.498 91.3308C61.9199 91.3308 56.8827 90.4802 52.3943 88.7789C47.9019 87.0776 44.3818 84.7138 41.8298 81.6876C39.2779 78.6574 38 75.2392 38 71.4289V69.7943C38 66.7994 38.9055 64.0946 40.7048 61.6799C42.508 59.2652 45.35 57.0347 49.2269 54.9963C51.6103 53.7693 53.5154 52.7501 54.9462 51.9348C56.3731 51.1155 57.2747 50.4844 57.651 50.0453C58.0234 49.6023 58.2115 49.0379 58.2115 48.3597V47.8501H76.6865V48.3597C76.6865 51.4212 75.9025 53.9222 74.3384 55.8626ZM75.6673 24.7809C77.7763 26.8232 78.8308 29.5123 78.8308 32.8443C78.8308 36.1136 77.7763 38.7675 75.6673 40.8059C73.5584 42.8482 70.8026 43.8674 67.3961 43.8674C63.9975 43.8674 61.2378 42.8482 59.1288 40.8059C57.0199 38.7675 55.9654 36.1136 55.9654 32.8443C55.9654 29.5123 57.0199 26.8232 59.1288 24.7809C61.2378 22.7425 63.9975 21.7194 67.3961 21.7194C70.8026 21.7194 73.5584 22.7425 75.6673 24.7809Z" fill="#BB3B85" /></svg></svg>