<svg xmlns="http://www.w3.org/2000/svg" viewBox="0 0 408 136"><svg width="136" height="136" viewBox="0 0 136 136" fill="none" xmlns="http://www.w3.org/2000/svg" x="0"><rect x="3" y="3" width="130" height="130" rx="11" fill="#0096DA" /><rect x="3" y="3" width="130" height="130" rx="11" stroke="#0096DA" stroke-width="6" /><path d="M26.4609 121H23.7734V115.797L21.8047 121H19.8906L17.7578 115.797V121H15.0703V112.711H18.8672L20.8516 117.477L22.6719 112.711H26.4609V121ZM31.4062 115.391L28.3672 115.07C28.4818 114.539 28.6458 114.122 28.8594 113.82C29.0781 113.513 29.3906 113.247 29.7969 113.023C30.0885 112.862 30.4896 112.737 31 112.648C31.5104 112.56 32.0625 112.516 32.6562 112.516C33.6094 112.516 34.375 112.57 34.9531 112.68C35.5312 112.784 36.013 113.005 36.3984 113.344C36.6693 113.578 36.8828 113.911 37.0391 114.344C37.1953 114.771 37.2734 115.18 37.2734 115.57V119.234C37.2734 119.625 37.2969 119.932 37.3438 120.156C37.3958 120.375 37.5052 120.656 37.6719 121H34.6875C34.5677 120.786 34.4896 120.625 34.4531 120.516C34.4167 120.401 34.3802 120.224 34.3438 119.984C33.9271 120.385 33.513 120.672 33.1016 120.844C32.5391 121.073 31.8854 121.188 31.1406 121.188C30.151 121.188 29.3984 120.958 28.8828 120.5C28.3724 120.042 28.1172 119.477 28.1172 118.805C28.1172 118.174 28.3021 117.656 28.6719 117.25C29.0417 116.844 29.724 116.542 30.7188 116.344C31.9115 116.104 32.6849 115.938 33.0391 115.844C33.3932 115.745 33.7682 115.617 34.1641 115.461C34.1641 115.07 34.0833 114.797 33.9219 114.641C33.7604 114.484 33.4766 114.406 33.0703 114.406C32.5495 114.406 32.1589 114.49 31.8984 114.656C31.6953 114.786 31.5312 115.031 31.4062 115.391ZM34.1641 117.062C33.7266 117.219 33.2708 117.357 32.7969 117.477C32.151 117.648 31.7422 117.818 31.5703 117.984C31.3932 118.156 31.3047 118.352 31.3047 118.57C31.3047 118.82 31.3906 119.026 31.5625 119.188C31.7396 119.344 31.9974 119.422 32.3359 119.422C32.6901 119.422 33.0182 119.336 33.3203 119.164C33.6276 118.992 33.8438 118.784 33.9688 118.539C34.099 118.289 34.1641 117.966 34.1641 117.57V117.062ZM46.1719 115.031H43.8672V121H40.6797V115.031H38.375V112.711H46.1719V115.031ZM56.5156 117.641H50.1406C50.1979 118.151 50.3359 118.531 50.5547 118.781C50.862 119.141 51.263 119.32 51.7578 119.32C52.0703 119.32 52.3672 119.242 52.6484 119.086C52.8203 118.987 53.0052 118.812 53.2031 118.562L56.3359 118.852C55.8568 119.685 55.2786 120.284 54.6016 120.648C53.9245 121.008 52.9531 121.188 51.6875 121.188C50.5885 121.188 49.724 121.034 49.0938 120.727C48.4635 120.414 47.9401 119.922 47.5234 119.25C47.112 118.573 46.9062 117.779 46.9062 116.867C46.9062 115.57 47.3203 114.521 48.1484 113.719C48.9818 112.917 50.1302 112.516 51.5938 112.516C52.7812 112.516 53.7188 112.695 54.4062 113.055C55.0938 113.414 55.6172 113.935 55.9766 114.617C56.3359 115.299 56.5156 116.188 56.5156 117.281V117.641ZM53.2812 116.117C53.2188 115.503 53.0521 115.062 52.7812 114.797C52.5156 114.531 52.1641 114.398 51.7266 114.398C51.2214 114.398 50.8177 114.599 50.5156 115C50.3229 115.25 50.2005 115.622 50.1484 116.117H53.2812ZM69.4766 121H66.7891V115.797L64.8203 121H62.9062L60.7734 115.797V121H58.0859V112.711H61.8828L63.8672 117.477L65.6875 112.711H69.4766V121ZM74.4219 115.391L71.3828 115.07C71.4974 114.539 71.6615 114.122 71.875 113.82C72.0938 113.513 72.4062 113.247 72.8125 113.023C73.1042 112.862 73.5052 112.737 74.0156 112.648C74.526 112.56 75.0781 112.516 75.6719 112.516C76.625 112.516 77.3906 112.57 77.9688 112.68C78.5469 112.784 79.0286 113.005 79.4141 113.344C79.6849 113.578 79.8984 113.911 80.0547 114.344C80.2109 114.771 80.2891 115.18 80.2891 115.57V119.234C80.2891 119.625 80.3125 119.932 80.3594 120.156C80.4115 120.375 80.5208 120.656 80.6875 121H77.7031C77.5833 120.786 77.5052 120.625 77.4688 120.516C77.4323 120.401 77.3958 120.224 77.3594 119.984C76.9427 120.385 76.5286 120.672 76.1172 120.844C75.5547 121.073 74.901 121.188 74.1562 121.188C73.1667 121.188 72.4141 120.958 71.8984 120.5C71.388 120.042 71.1328 119.477 71.1328 118.805C71.1328 118.174 71.3177 117.656 71.6875 117.25C72.0573 116.844 72.7396 116.542 73.7344 116.344C74.9271 116.104 75.7005 115.938 76.0547 115.844C76.4089 115.745 76.7839 115.617 77.1797 115.461C77.1797 115.07 77.099 114.797 76.9375 114.641C76.776 114.484 76.4922 114.406 76.0859 114.406C75.5651 114.406 75.1745 114.49 74.9141 114.656C74.7109 114.786 74.5469 115.031 74.4219 115.391ZM77.1797 117.062C76.7422 117.219 76.2865 117.357 75.8125 117.477C75.1667 117.648 74.7578 117.818 74.5859 117.984C74.4089 118.156 74.3203 118.352 74.3203 118.57C74.3203 118.82 74.4062 119.026 74.5781 119.188C74.7552 119.344 75.013 119.422 75.3516 119.422C75.7057 119.422 76.0339 119.336 76.3359 119.164C76.6432 118.992 76.8594 118.784 76.9844 118.539C77.1146 118.289 77.1797 117.966 77.1797 117.57V117.062ZM89.1875 115.031H86.8828V121H83.6953V115.031H81.3906V112.711H89.1875V115.031ZM99.5859 121H96.5781V116.922L93.4531 121H90.4297V112.711H93.4375V116.844L96.5938 112.711H99.5859V121ZM110.852 121H107.266L106.047 118.711C105.854 118.346 105.664 118.117 105.477 118.023C105.294 117.93 105.068 117.883 104.797 117.883V121H101.617V112.711H104.797V115.703C105.057 115.677 105.25 115.591 105.375 115.445C105.5 115.299 105.68 114.979 105.914 114.484C106.154 113.99 106.367 113.628 106.555 113.398C106.742 113.169 106.982 112.997 107.273 112.883C107.565 112.768 107.93 112.695 108.367 112.664C108.805 112.633 109.456 112.617 110.32 112.617V114.875H110.18C109.753 114.875 109.427 114.893 109.203 114.93C108.979 114.961 108.799 115.031 108.664 115.141C108.529 115.25 108.372 115.474 108.195 115.812C108.018 116.151 107.87 116.388 107.75 116.523C107.635 116.654 107.464 116.742 107.234 116.789C107.677 116.831 108.018 116.927 108.258 117.078C108.497 117.224 108.859 117.701 109.344 118.508L110.852 121ZM114.797 115.391L111.758 115.07C111.872 114.539 112.036 114.122 112.25 113.82C112.469 113.513 112.781 113.247 113.188 113.023C113.479 112.862 113.88 112.737 114.391 112.648C114.901 112.56 115.453 112.516 116.047 112.516C117 112.516 117.766 112.57 118.344 112.68C118.922 112.784 119.404 113.005 119.789 113.344C120.06 113.578 120.273 113.911 120.43 114.344C120.586 114.771 120.664 115.18 120.664 115.57V119.234C120.664 119.625 120.688 119.932 120.734 120.156C120.786 120.375 120.896 120.656 121.062 121H118.078C117.958 120.786 117.88 120.625 117.844 120.516C117.807 120.401 117.771 120.224 117.734 119.984C117.318 120.385 116.904 120.672 116.492 120.844C115.93 121.073 115.276 121.188 114.531 121.188C113.542 121.188 112.789 120.958 112.273 120.5C111.763 120.042 111.508 119.477 111.508 118.805C111.508 118.174 111.693 117.656 112.062 117.25C112.432 116.844 113.115 116.542 114.109 116.344C115.302 116.104 116.076 115.938 116.43 115.844C116.784 115.745 117.159 115.617 117.555 115.461C117.555 115.07 117.474 114.797 117.312 114.641C117.151 114.484 116.867 114.406 116.461 114.406C115.94 114.406 115.549 114.49 115.289 114.656C115.086 114.786 114.922 115.031 114.797 115.391ZM117.555 117.062C117.117 117.219 116.661 117.357 116.188 117.477C115.542 117.648 115.133 117.818 114.961 117.984C114.784 118.156 114.695 118.352 114.695 118.57C114.695 118.82 114.781 119.026 114.953 119.188C115.13 119.344 115.388 119.422 115.727 119.422C116.081 119.422 116.409 119.336 116.711 119.164C117.018 118.992 117.234 118.784 117.359 118.539C117.49 118.289 117.555 117.966 117.555 117.57V117.062Z" fill="#F0F0F0" /><path d="M96.4531 92.0938L36.4941 67.1504V51.541L96.4531 26.6504V45.3711L60.0137 59.3984L96.4531 73.4785V92.0938Z" fill="#F0F0F0" /></svg><svg width="136" height="136" viewBox="0 0 136 136" fill="none" xmlns="http://www.w3.org/2000/svg" x="136"><rect x="3" y="3" width="130" height="130" rx="11" fill="#F0F0F0" /><rect x="3" y="3" width="130" height="130" rx="11" stroke="#0096DA" stroke-width="6" /><path d="M26.4609 121H23.7734V115.797L21.8047 121H19.8906L17.7578 115.797V121H15.0703V112.711H18.8672L20.8516 117.477L22.6719 112.711H26.4609V121ZM31.4062 115.391L28.3672 115.07C28.4818 114.539 28.6458 114.122 28.8594 113.82C29.0781 113.513 29.3906 113.247 29.7969 113.023C30.0885 112.862 30.4896 112.737 31 112.648C31.5104 112.56 32.0625 112.516 32.6562 112.516C33.6094 112.516 34.375 112.57 34.9531 112.68C35.5312 112.784 36.013 113.005 36.3984 113.344C36.6693 113.578 36.8828 113.911 37.0391 114.344C37.1953 114.771 37.2734 115.18 37.2734 115.57V119.234C37.2734 119.625 37.2969 119.932 37.3438 120.156C37.3958 120.375 37.5052 120.656 37.6719 121H34.6875C34.5677 120.786 34.4896 120.625 34.4531 120.516C34.4167 120.401 34.3802 120.224 34.3438 119.984C33.9271 120.385 33.513 120.672 33.1016 120.844C32.5391 121.073 31.8854 121.188 31.1406 121.188C30.151 121.188 29.3984 120.958 28.8828 120.5C28.3724 120.042 28.1172 119.477 28.1172 118.805C28.1172 118.174 28.3021 117.656 28.6719 117.25C29.0417 116.844 29.724 116.542 30.7188 116.344C31.9115 116.104 32.6849 115.938 33.0391 115.844C33.3932 115.745 33.7682 115.617 34.1641 115.461C34.1641 115.07 34.0833 114.797 33.9219 114.641C33.7604 114.484 33.4766 114.406 33.0703 114.406C32.5495 114.406 32.1589 114.49 31.8984 114.656C31.6953 114.786 31.5312 115.031 31.4062 115.391ZM34.1641 117.062C33.7266 117.219 33.2708 117.357 32.7969 117.477C32.151 117.648 31.7422 117.818 31.5703 117.984C31.3932 118.156 31.3047 118.352 31.3047 118.57C31.3047 118.82 31.3906 119.026 31.5625 119.188C31.7396 119.344 31.9974 119.422 32.3359 119.422C32.6901 119.422 33.0182 119.336 33.3203 119.164C33.6276 118.992 33.8438 118.784 33.9688 118.539C34.099 118.289 34.1641 117.966 34.1641 117.57V117.062ZM46.1719 115.031H43.8672V121H40.6797V115.031H38.375V112.711H46.1719V115.031ZM56.5156 117.641H50.1406C50.1979 118.151 50.3359 118.531 50.5547 118.781C50.862 119.141 51.263 119.32 51.7578 119.32C52.0703 119.32 52.3672 119.242 52.6484 119.086C52.8203 118.987 53.0052 118.812 53.2031 118.562L56.3359 118.852C55.8568 119.685 55.2786 120.284 54.6016 120.648C53.9245 121.008 52.9531 121.188 51.6875 121.188C50.5885 121.188 49.724 121.034 49.0938 120.727C48.4635 120.414 47.9401 119.922 47.5234 119.25C47.112 118.573 46.9062 117.779 46.9062 116.867C46.9062 115.57 47.3203 114.521 48.1484 113.719C48.9818 112.917 50.1302 112.516 51.5938 112.516C52.7812 112.516 53.7188 112.695 54.4062 113.055C55.0938 113.414 55.6172 113.935 55.9766 114.617C56.3359 115.299 56.5156 116.188 56.5156 117.281V117.641ZM53.2812 116.117C53.2188 115.503 53.0521 115.062 52.7812 114.797C52.5156 114.531 52.1641 114.398 51.7266 114.398C51.2214 114.398 50.8177 114.599 50.5156 115C50.3229 115.25 50.2005 115.622 50.1484 116.117H53.2812ZM69.4766 121H66.7891V115.797L64.8203 121H62.9062L60.7734 115.797V121H58.0859V112.711H61.8828L63.8672 117.477L65.6875 112.711H69.4766V121ZM74.4219 115.391L71.3828 115.07C71.4974 114.539 71.6615 114.122 71.875 113.82C72.0938 113.513 72.4062 113.247 72.8125 113.023C73.1042 112.862 73.5052 112.737 74.0156 112.648C74.526 112.56 75.0781 112.516 75.6719 112.516C76.625 112.516 77.3906 112.57 77.9688 112.68C78.5469 112.784 79.0286 113.005 79.4141 113.344C79.6849 113.578 79.8984 113.911 80.0547 114.344C80.2109 114.771 80.2891 115.18 80.2891 115.57V119.234C80.2891 119.625 80.3125 119.932 80.3594 120.156C80.4115 120.375 80.5208 120.656 80.6875 121H77.7031C77.5833 120.786 77.5052 120.625 77.4688 120.516C77.4323 120.401 77.3958 120.224 77.3594 119.984C76.9427 120.385 76.5286 120.672 76.1172 120.844C75.5547 121.073 74.901 121.188 74.1562 121.188C73.1667 121.188 72.4141 120.958 71.8984 120.5C71.388 120.042 71.1328 119.477 71.1328 118.805C71.1328 118.174 71.3177 117.656 71.6875 117.25C72.0573 116.844 72.7396 116.542 73.7344 116.344C74.9271 116.104 75.7005 115.938 76.0547 115.844C76.4089 115.745 76.7839 115.617 77.1797 115.461C77.1797 115.07 77.099 114.797 76.9375 114.641C76.776 114.484 76.4922 114.406 76.0859 114.406C75.5651 114.406 75.1745 114.49 74.9141 114.656C74.7109 114.786 74.5469 115.031 74.4219 115.391ZM77.1797 117.062C76.7422 117.219 76.2865 117.357 75.8125 117.477C75.1667 117.648 74.7578 117.818 74.5859 117.984C74.4089 118.156 74.3203 118.352 74.3203 118.57C74.3203 118.82 74.4062 119.026 74.5781 119.188C74.7552 119.344 75.013 119.422 75.3516 119.422C75.7057 119.422 76.0339 119.336 76.3359 119.164C76.6432 118.992 76.8594 118.784 76.9844 118.539C77.1146 118.289 77.1797 117.966 77.1797 117.57V117.062ZM89.1875 115.031H86.8828V121H83.6953V115.031H81.3906V112.711H89.1875V115.031ZM99.5859 121H96.5781V116.922L93.4531 121H90.4297V112.711H93.4375V116.844L96.5938 112.711H99.5859V121ZM110.852 121H107.266L106.047 118.711C105.854 118.346 105.664 118.117 105.477 118.023C105.294 117.93 105.068 117.883 104.797 117.883V121H101.617V112.711H104.797V115.703C105.057 115.677 105.25 115.591 105.375 115.445C105.5 115.299 105.68 114.979 105.914 114.484C106.154 113.99 106.367 113.628 106.555 113.398C106.742 113.169 106.982 112.997 107.273 112.883C107.565 112.768 107.93 112.695 108.367 112.664C108.805 112.633 109.456 112.617 110.32 112.617V114.875H110.18C109.753 114.875 109.427 114.893 109.203 114.93C108.979 114.961 108.799 115.031 108.664 115.141C108.529 115.25 108.372 115.474 108.195 115.812C108.018 116.151 107.87 116.388 107.75 116.523C107.635 116.654 107.464 116.742 107.234 116.789C107.677 116.831 108.018 116.927 108.258 117.078C108.497 117.224 108.859 117.701 109.344 118.508L110.852 121ZM114.797 115.391L111.758 115.07C111.872 114.539 112.036 114.122 112.25 113.82C112.469 113.513 112.781 113.247 113.188 113.023C113.479 112.862 113.88 112.737 114.391 112.648C114.901 112.56 115.453 112.516 116.047 112.516C117 112.516 117.766 112.57 118.344 112.68C118.922 112.784 119.404 113.005 119.789 113.344C120.06 113.578 120.273 113.911 120.43 114.344C120.586 114.771 120.664 115.18 120.664 115.57V119.234C120.664 119.625 120.688 119.932 120.734 120.156C120.786 120.375 120.896 120.656 121.062 121H118.078C117.958 120.786 117.88 120.625 117.844 120.516C117.807 120.401 117.771 120.224 117.734 119.984C117.318 120.385 116.904 120.672 116.492 120.844C115.93 121.073 115.276 121.188 114.531 121.188C113.542 121.188 112.789 120.958 112.273 120.5C111.763 120.042 111.508 119.477 111.508 118.805C111.508 118.174 111.693 117.656 112.062 117.25C112.432 116.844 113.115 116.542 114.109 116.344C115.302 116.104 116.076 115.938 116.43 115.844C116.784 115.745 117.159 115.617 117.555 115.461C117.555 115.07 117.474 114.797 117.312 114.641C117.151 114.484 116.867 114.406 116.461 114.406C115.94 114.406 115.549 114.49 115.289 114.656C115.086 114.786 114.922 115.031 114.797 115.391ZM117.555 117.062C117.117 117.219 116.661 117.357 116.188 117.477C115.542 117.648 115.133 117.818 114.961 117.984C114.784 118.156 114.695 118.352 114.695 118.57C114.695 118.82 114.781 119.026 114.953 119.188C115.13 119.344 115.388 119.422 115.727 119.422C116.081 119.422 116.409 119.336 116.711 119.164C117.018 118.992 117.234 118.784 117.359 118.539C117.49 118.289 117.555 117.966 117.555 117.57V117.062Z" fill="#0096DA" /><path d="M96.4531 92.0938L36.4941 67.1504V51.541L96.4531 26.6504V45.3711L60.0137 59.3984L96.4531 73.4785V92.0938Z" fill="#0096DA" /></svg><svg width="136" height="136" viewBox="0 0 136 136" fill="none" xmlns="http://www.w3.org/2000/svg" x="272"><rect x="3" y="3" width="130" height="130" rx="11" fill="#F0F0F0" /><rect x="3" y="3" width="130" height="130" rx="11" stroke="#0072B1" stroke-width="6" /><path d="M26.4609 121H23.7734V115.797L21.8047 121H19.8906L17.7578 115.797V121H15.0703V112.711H18.8672L20.8516 117.477L22.6719 112.711H26.4609V121ZM31.4062 115.391L28.3672 115.07C28.4818 114.539 28.6458 114.122 28.8594 113.82C29.0781 113.513 29.3906 113.247 29.7969 113.023C30.0885 112.862 30.4896 112.737 31 112.648C31.5104 112.56 32.0625 112.516 32.6562 112.516C33.6094 112.516 34.375 112.57 34.9531 112.68C35.5312 112.784 36.013 113.005 36.3984 113.344C36.6693 113.578 36.8828 113.911 37.0391 114.344C37.1953 114.771 37.2734 115.18 37.2734 115.57V119.234C37.2734 119.625 37.2969 119.932 37.3438 120.156C37.3958 120.375 37.5052 120.656 37.6719 121H34.6875C34.5677 120.786 34.4896 120.625 34.4531 120.516C34.4167 120.401 34.3802 120.224 34.3438 119.984C33.9271 120.385 33.513 120.672 33.1016 120.844C32.5391 121.073 31.8854 121.188 31.1406 121.188C30.151 121.188 29.3984 120.958 28.8828 120.5C28.3724 120.042 28.1172 119.477 28.1172 118.805C28.1172 118.174 28.3021 117.656 28.6719 117.25C29.0417 116.844 29.724 116.542 30.7188 116.344C31.9115 116.104 32.6849 115.938 33.0391 115.844C33.3932 115.745 33.7682 115.617 34.1641 115.461C34.1641 115.07 34.0833 114.797 33.9219 114.641C33.7604 114.484 33.4766 114.406 33.0703 114.406C32.5495 114.406 32.1589 114.49 31.8984 114.656C31.6953 114.786 31.5312 115.031 31.4062 115.391ZM34.1641 117.062C33.7266 117.219 33.2708 117.357 32.7969 117.477C32.151 117.648 31.7422 117.818 31.5703 117.984C31.3932 118.156 31.3047 118.352 31.3047 118.57C31.3047 118.82 31.3906 119.026 31.5625 119.188C31.7396 119.344 31.9974 119.422 32.3359 119.422C32.6901 119.422 33.0182 119.336 33.3203 119.164C33.6276 118.992 33.8438 118.784 33.9688 118.539C34.099 118.289 34.1641 117.966 34.1641 117.57V117.062ZM46.1719 115.031H43.8672V121H40.6797V115.031H38.375V112.711H46.1719V115.031ZM56.5156 117.641H50.1406C50.1979 118.151 50.3359 118.531 50.5547 118.781C50.862 119.141 51.263 119.32 51.7578 119.32C52.0703 119.32 52.3672 119.242 52.6484 119.086C52.8203 118.987 53.0052 118.812 53.2031 118.562L56.3359 118.852C55.8568 119.685 55.2786 120.284 54.6016 120.648C53.9245 121.008 52.9531 121.188 51.6875 121.188C50.5885 121.188 49.724 121.034 49.0938 120.727C48.4635 120.414 47.9401 119.922 47.5234 119.25C47.112 118.573 46.9062 117.779 46.9062 116.867C46.9062 115.57 47.3203 114.521 48.1484 113.719C48.9818 112.917 50.1302 112.516 51.5938 112.516C52.7812 112.516 53.7188 112.695 54.4062 113.055C55.0938 113.414 55.6172 113.935 55.9766 114.617C56.3359 115.299 56.5156 116.188 56.5156 117.281V117.641ZM53.2812 116.117C53.2188 115.503 53.0521 115.062 52.7812 114.797C52.5156 114.531 52.1641 114.398 51.7266 114.398C51.2214 114.398 50.8177 114.599 50.5156 115C50.3229 115.25 50.2005 115.622 50.1484 116.117H53.2812ZM69.4766 121H66.7891V115.797L64.8203 121H62.9062L60.7734 115.797V121H58.0859V112.711H61.8828L63.8672 117.477L65.6875 112.711H69.4766V121ZM74.4219 115.391L71.3828 115.07C71.4974 114.539 71.6615 114.122 71.875 113.82C72.0938 113.513 72.4062 113.247 72.8125 113.023C73.1042 112.862 73.5052 112.737 74.0156 112.648C74.526 112.56 75.0781 112.516 75.6719 112.516C76.625 112.516 77.3906 112.57 77.9688 112.68C78.5469 112.784 79.0286 113.005 79.4141 113.344C79.6849 113.578 79.8984 113.911 80.0547 114.344C80.2109 114.771 80.2891 115.18 80.2891 115.57V119.234C80.2891 119.625 80.3125 119.932 80.3594 120.156C80.4115 120.375 80.5208 120.656 80.6875 121H77.7031C77.5833 120.786 77.5052 120.625 77.4688 120.516C77.4323 120.401 77.3958 120.224 77.3594 119.984C76.9427 120.385 76.5286 120.672 76.1172 120.844C75.5547 121.073 74.901 121.188 74.1562 121.188C73.1667 121.188 72.4141 120.958 71.8984 120.5C71.388 120.042 71.1328 119.477 71.1328 118.805C71.1328 118.174 71.3177 117.656 71.6875 117.25C72.0573 116.844 72.7396 116.542 73.7344 116.344C74.9271 116.104 75.7005 115.938 76.0547 115.844C76.4089 115.745 76.7839 115.617 77.1797 115.461C77.1797 115.07 77.099 114.797 76.9375 114.641C76.776 114.484 76.4922 114.406 76.0859 114.406C75.5651 114.406 75.1745 114.49 74.9141 114.656C74.7109 114.786 74.5469 115.031 74.4219 115.391ZM77.1797 117.062C76.7422 117.219 76.2865 117.357 75.8125 117.477C75.1667 117.648 74.7578 117.818 74.5859 117.984C74.4089 118.156 74.3203 118.352 74.3203 118.57C74.3203 118.82 74.4062 119.026 74.5781 119.188C74.7552 119.344 75.013 119.422 75.3516 119.422C75.7057 119.422 76.0339 119.336 76.3359 119.164C76.6432 118.992 76.8594 118.784 76.9844 118.539C77.1146 118.289 77.1797 117.966 77.1797 117.57V117.062ZM89.1875 115.031H86.8828V121H83.6953V115.031H81.3906V112.711H89.1875V115.031ZM99.5859 121H96.5781V116.922L93.4531 121H90.4297V112.711H93.4375V116.844L96.5938 112.711H99.5859V121ZM110.852 121H107.266L106.047 118.711C105.854 118.346 105.664 118.117 105.477 118.023C105.294 117.93 105.068 117.883 104.797 117.883V121H101.617V112.711H104.797V115.703C105.057 115.677 105.25 115.591 105.375 115.445C105.5 115.299 105.68 114.979 105.914 114.484C106.154 113.99 106.367 113.628 106.555 113.398C106.742 113.169 106.982 112.997 107.273 112.883C107.565 112.768 107.93 112.695 108.367 112.664C108.805 112.633 109.456 112.617 110.32 112.617V114.875H110.18C109.753 114.875 109.427 114.893 109.203 114.93C108.979 114.961 108.799 115.031 108.664 115.141C108.529 115.25 108.372 115.474 108.195 115.812C108.018 116.151 107.87 116.388 107.75 116.523C107.635 116.654 107.464 116.742 107.234 116.789C107.677 116.831 108.018 116.927 108.258 117.078C108.497 117.224 108.859 117.701 109.344 118.508L110.852 121ZM114.797 115.391L111.758 115.07C111.872 114.539 112.036 114.122 112.25 113.82C112.469 113.513 112.781 113.247 113.188 113.023C113.479 112.862 113.88 112.737 114.391 112.648C114.901 112.56 115.453 112.516 116.047 112.516C117 112.516 117.766 112.57 118.344 112.68C118.922 112.784 119.404 113.005 119.789 113.344C120.06 113.578 120.273 113.911 120.43 114.344C120.586 114.771 120.664 115.18 120.664 115.57V119.234C120.664 119.625 120.688 119.932 120.734 120.156C120.786 120.375 120.896 120.656 121.062 121H118.078C117.958 120.786 117.88 120.625 117.844 120.516C117.807 120.401 117.771 120.224 117.734 119.984C117.318 120.385 116.904 120.672 116.492 120.844C115.93 121.073 115.276 121.188 114.531 121.188C113.542 121.188 112.789 120.958 112.273 120.5C111.763 120.042 111.508 119.477 111.508 118.805C111.508 118.174 111.693 117.656 112.062 117.25C112.432 116.844 113.115 116.542 114.109 116.344C115.302 116.104 116.076 115.938 116.43 115.844C116.784 115.745 117.159 115.617 117.555 115.461C117.555 115.07 117.474 114.797 117.312 114.641C117.151 114.484 116.867 114.406 116.461 114.406C115.94 114.406 115.549 114.49 115.289 114.656C115.086 114.786 114.922 115.031 114.797 115.391ZM117.555 117.062C117.117 117.219 116.661 117.357 116.188 117.477C115.542 117.648 115.133 117.818 114.961 117.984C114.784 118.156 114.695 118.352 114.695 118.57C114.695 118.82 114.781 119.026 114.953 119.188C115.13 119.344 115.388 119.422 115.727 119.422C116.081 119.422 116.409 119.336 116.711 119.164C117.018 118.992 117.234 118.784 117.359 118.539C117.49 118.289 117.555 117.966 117.555 117.57V117.062Z" fill="#0072B1" /><path d="M96.4531 92.0938L36.4941 67.1504V51.541L96.4531 26.6504V45.3711L60.0137 59.3984L96.4531 73.4785V92.0938Z" fill="#0072B1" /></svg></svg>