<svg xmlns="http://www.w3.org/2000/svg" viewBox="0 0 408 136"><svg width="136" height="136" viewBox="0 0 136 136" fill="none" xmlns="http://www.w3.org/2000/svg" x="0"><rect x="3" y="3" width="130" height="130" rx="11" fill="#0096DA" /><rect x="3" y="3" width="130" height="130" rx="11" stroke="#0096DA" stroke-width="6" /><path d="M18.3594 115.391L15.3203 115.07C15.4349 114.539 15.599 114.122 15.8125 113.82C16.0312 113.513 16.3438 113.247 16.75 113.023C17.0417 112.862 17.4427 112.737 17.9531 112.648C18.4635 112.56 19.0156 112.516 19.6094 112.516C20.5625 112.516 21.3281 112.57 21.9062 112.68C22.4844 112.784 22.9661 113.005 23.3516 113.344C23.6224 113.578 23.8359 113.911 23.9922 114.344C24.1484 114.771 24.2266 115.18 24.2266 115.57V119.234C24.2266 119.625 24.25 119.932 24.2969 120.156C24.349 120.375 24.4583 120.656 24.625 121H21.6406C21.5208 120.786 21.4427 120.625 21.4062 120.516C21.3698 120.401 21.3333 120.224 21.2969 119.984C20.8802 120.385 20.4661 120.672 20.0547 120.844C19.4922 121.073 18.8385 121.188 18.0938 121.188C17.1042 121.188 16.3516 120.958 15.8359 120.5C15.3255 120.042 15.0703 119.477 15.0703 118.805C15.0703 118.174 15.2552 117.656 15.625 117.25C15.9948 116.844 16.6771 116.542 17.6719 116.344C18.8646 116.104 19.638 115.938 19.9922 115.844C20.3464 115.745 20.7214 115.617 21.1172 115.461C21.1172 115.07 21.0365 114.797 20.875 114.641C20.7135 114.484 20.4297 114.406 20.0234 114.406C19.5026 114.406 19.112 114.49 18.8516 114.656C18.6484 114.786 18.4844 115.031 18.3594 115.391ZM21.1172 117.062C20.6797 117.219 20.224 117.357 19.75 117.477C19.1042 117.648 18.6953 117.818 18.5234 117.984C18.3464 118.156 18.2578 118.352 18.2578 118.57C18.2578 118.82 18.3438 119.026 18.5156 119.188C18.6927 119.344 18.9505 119.422 19.2891 119.422C19.6432 119.422 19.9714 119.336 20.2734 119.164C20.5807 118.992 20.7969 118.784 20.9219 118.539C21.0521 118.289 21.1172 117.966 21.1172 117.57V117.062ZM32.3203 117.758L35.3438 118.102C35.1771 118.732 34.9036 119.279 34.5234 119.742C34.1432 120.201 33.6562 120.557 33.0625 120.812C32.474 121.068 31.724 121.195 30.8125 121.195C29.9323 121.195 29.1979 121.115 28.6094 120.953C28.026 120.786 27.5234 120.521 27.1016 120.156C26.6797 119.786 26.349 119.354 26.1094 118.859C25.8698 118.365 25.75 117.708 25.75 116.891C25.75 116.036 25.8958 115.326 26.1875 114.758C26.401 114.341 26.6927 113.969 27.0625 113.641C27.4323 113.307 27.8125 113.06 28.2031 112.898C28.8229 112.643 29.6172 112.516 30.5859 112.516C31.9401 112.516 32.9714 112.758 33.6797 113.242C34.3932 113.727 34.8932 114.435 35.1797 115.367L32.1875 115.766C32.0938 115.411 31.9219 115.146 31.6719 114.969C31.4271 114.786 31.0964 114.695 30.6797 114.695C30.1536 114.695 29.7266 114.885 29.3984 115.266C29.0755 115.641 28.9141 116.211 28.9141 116.977C28.9141 117.659 29.0755 118.177 29.3984 118.531C29.7214 118.885 30.1328 119.062 30.6328 119.062C31.0495 119.062 31.3984 118.956 31.6797 118.742C31.9661 118.529 32.1797 118.201 32.3203 117.758ZM43.7969 115.031H41.4922V121H38.3047V115.031H36V112.711H43.7969V115.031ZM44.9453 124.156V112.703H47.9219V113.93C48.3333 113.414 48.7109 113.065 49.0547 112.883C49.5182 112.638 50.0312 112.516 50.5938 112.516C51.7031 112.516 52.5599 112.94 53.1641 113.789C53.7734 114.638 54.0781 115.688 54.0781 116.938C54.0781 118.318 53.7474 119.372 53.0859 120.102C52.4245 120.826 51.5885 121.188 50.5781 121.188C50.0885 121.188 49.6406 121.104 49.2344 120.938C48.8333 120.771 48.474 120.523 48.1562 120.195V124.156H44.9453ZM48.1328 116.875C48.1328 117.531 48.2708 118.018 48.5469 118.336C48.8229 118.654 49.1719 118.812 49.5938 118.812C49.9635 118.812 50.2734 118.661 50.5234 118.359C50.7734 118.052 50.8984 117.534 50.8984 116.805C50.8984 116.133 50.7682 115.641 50.5078 115.328C50.2474 115.01 49.9297 114.852 49.5547 114.852C49.1484 114.852 48.8099 115.01 48.5391 115.328C48.2682 115.646 48.1328 116.161 48.1328 116.875ZM55.2109 116.875C55.2109 115.609 55.638 114.568 56.4922 113.75C57.3464 112.927 58.5 112.516 59.9531 112.516C61.6146 112.516 62.8698 112.997 63.7188 113.961C64.401 114.737 64.7422 115.693 64.7422 116.828C64.7422 118.104 64.3177 119.151 63.4688 119.969C62.625 120.781 61.4557 121.188 59.9609 121.188C58.6276 121.188 57.5495 120.849 56.7266 120.172C55.7161 119.333 55.2109 118.234 55.2109 116.875ZM58.3984 116.867C58.3984 117.607 58.5469 118.154 58.8438 118.508C59.1458 118.862 59.5234 119.039 59.9766 119.039C60.4349 119.039 60.8099 118.865 61.1016 118.516C61.3984 118.167 61.5469 117.607 61.5469 116.836C61.5469 116.117 61.3984 115.583 61.1016 115.234C60.8047 114.88 60.4375 114.703 60 114.703C59.5365 114.703 59.1536 114.883 58.8516 115.242C58.5495 115.596 58.3984 116.138 58.3984 116.867ZM75.6484 121H72.4609V117.867H69.5703V121H66.3828V112.711H69.5703V115.547H72.4609V112.711H75.6484V121ZM77.2891 116.875C77.2891 115.609 77.7161 114.568 78.5703 113.75C79.4245 112.927 80.5781 112.516 82.0312 112.516C83.6927 112.516 84.9479 112.997 85.7969 113.961C86.4792 114.737 86.8203 115.693 86.8203 116.828C86.8203 118.104 86.3958 119.151 85.5469 119.969C84.7031 120.781 83.5339 121.188 82.0391 121.188C80.7057 121.188 79.6276 120.849 78.8047 120.172C77.7943 119.333 77.2891 118.234 77.2891 116.875ZM80.4766 116.867C80.4766 117.607 80.625 118.154 80.9219 118.508C81.224 118.862 81.6016 119.039 82.0547 119.039C82.513 119.039 82.888 118.865 83.1797 118.516C83.4766 118.167 83.625 117.607 83.625 116.836C83.625 116.117 83.4766 115.583 83.1797 115.234C82.8828 114.88 82.5156 114.703 82.0781 114.703C81.6146 114.703 81.2318 114.883 80.9297 115.242C80.6276 115.596 80.4766 116.138 80.4766 116.867ZM99.8516 121H97.1641V115.797L95.1953 121H93.2812L91.1484 115.797V121H88.4609V112.711H92.2578L94.2422 117.477L96.0625 112.711H99.8516V121ZM111.164 121H108.156V116.922L105.031 121H102.008V112.711H105.016V116.844L108.172 112.711H111.164V121ZM121.258 121H118.078V117.781H117.961C117.737 117.781 117.56 117.844 117.43 117.969C117.305 118.089 117.177 118.273 117.047 118.523L115.773 121H112.25L113.484 118.602C113.849 117.888 114.328 117.497 114.922 117.43C114.25 117.326 113.737 117.047 113.383 116.594C113.034 116.135 112.859 115.635 112.859 115.094C112.859 114.557 112.992 114.083 113.258 113.672C113.529 113.255 113.919 112.992 114.43 112.883C114.945 112.768 115.594 112.711 116.375 112.711H121.258V121ZM118.078 115.898V114.602H117.086C116.617 114.602 116.326 114.659 116.211 114.773C116.096 114.883 116.039 115.039 116.039 115.242C116.039 115.68 116.424 115.898 117.195 115.898H118.078Z" fill="#F0F0F0" /><path d="M55.4249 82.9779C71.199 90.3143 89.9377 83.477 97.2742 67.6995C99.0908 63.7934 100.089 59.5546 100.202 55.2492C93.3614 60.7923 86.178 65.8995 78.6952 70.5343C71.209 75.169 63.4367 79.3247 55.4249 82.9779Z" fill="#F0F0F0" /><path d="M99.6002 23.6576C99.1676 23.7575 93.8774 25.0018 90.7066 26.692C91.5018 27.4872 93.4083 29.4303 94.8124 31.1338C94.8124 31.1338 104.691 26.6554 106.87 30.1357C108.374 33.1202 100.319 40.2769 96.822 43.1882C95.2748 38.6533 92.7096 34.5209 89.3159 31.1172C78.8186 20.5933 62.7583 19.0761 50.7372 26.5856C50.7139 26.5989 50.6906 26.6122 50.6673 26.6255C50.644 26.6421 50.6208 26.6554 50.6008 26.6688C38.5431 34.125 32.7937 49.1971 37.5815 63.2677C39.132 67.816 41.7006 71.945 45.0777 75.3421C40.922 77.1887 30.9372 81.2412 28.9275 78.5728C26.7715 75.0759 35.1593 68.2053 35.1593 68.2053C34.2543 66.189 33.3593 63.6204 32.9967 62.5557C30.0787 64.6485 26.6185 68.8441 26.339 69.1868C21.8173 74.8962 19.6547 80.0068 21.8872 83.3672C26.8048 90.7736 47.766 81.87 65.1406 71.7188C72.7398 67.3702 84.9406 60.0703 93.6711 53.2862C106.993 43.3745 117.946 32.2518 114.286 25.9467C112.263 22.4599 106.72 22.1305 99.6002 23.6576Z" fill="#F0F0F0" /></svg><svg width="136" height="136" viewBox="0 0 136 136" fill="none" xmlns="http://www.w3.org/2000/svg" x="136"><rect x="3" y="3" width="130" height="130" rx="11" fill="#F0F0F0" /><rect x="3" y="3" width="130" height="130" rx="11" stroke="#0096DA" stroke-width="6" /><path d="M18.3594 115.391L15.3203 115.07C15.4349 114.539 15.599 114.122 15.8125 113.82C16.0312 113.513 16.3438 113.247 16.75 113.023C17.0417 112.862 17.4427 112.737 17.9531 112.648C18.4635 112.56 19.0156 112.516 19.6094 112.516C20.5625 112.516 21.3281 112.57 21.9062 112.68C22.4844 112.784 22.9661 113.005 23.3516 113.344C23.6224 113.578 23.8359 113.911 23.9922 114.344C24.1484 114.771 24.2266 115.18 24.2266 115.57V119.234C24.2266 119.625 24.25 119.932 24.2969 120.156C24.349 120.375 24.4583 120.656 24.625 121H21.6406C21.5208 120.786 21.4427 120.625 21.4062 120.516C21.3698 120.401 21.3333 120.224 21.2969 119.984C20.8802 120.385 20.4661 120.672 20.0547 120.844C19.4922 121.073 18.8385 121.188 18.0938 121.188C17.1042 121.188 16.3516 120.958 15.8359 120.5C15.3255 120.042 15.0703 119.477 15.0703 118.805C15.0703 118.174 15.2552 117.656 15.625 117.25C15.9948 116.844 16.6771 116.542 17.6719 116.344C18.8646 116.104 19.638 115.938 19.9922 115.844C20.3464 115.745 20.7214 115.617 21.1172 115.461C21.1172 115.07 21.0365 114.797 20.875 114.641C20.7135 114.484 20.4297 114.406 20.0234 114.406C19.5026 114.406 19.112 114.49 18.8516 114.656C18.6484 114.786 18.4844 115.031 18.3594 115.391ZM21.1172 117.062C20.6797 117.219 20.224 117.357 19.75 117.477C19.1042 117.648 18.6953 117.818 18.5234 117.984C18.3464 118.156 18.2578 118.352 18.2578 118.57C18.2578 118.82 18.3438 119.026 18.5156 119.188C18.6927 119.344 18.9505 119.422 19.2891 119.422C19.6432 119.422 19.9714 119.336 20.2734 119.164C20.5807 118.992 20.7969 118.784 20.9219 118.539C21.0521 118.289 21.1172 117.966 21.1172 117.57V117.062ZM32.3203 117.758L35.3438 118.102C35.1771 118.732 34.9036 119.279 34.5234 119.742C34.1432 120.201 33.6562 120.557 33.0625 120.812C32.474 121.068 31.724 121.195 30.8125 121.195C29.9323 121.195 29.1979 121.115 28.6094 120.953C28.026 120.786 27.5234 120.521 27.1016 120.156C26.6797 119.786 26.349 119.354 26.1094 118.859C25.8698 118.365 25.75 117.708 25.75 116.891C25.75 116.036 25.8958 115.326 26.1875 114.758C26.401 114.341 26.6927 113.969 27.0625 113.641C27.4323 113.307 27.8125 113.06 28.2031 112.898C28.8229 112.643 29.6172 112.516 30.5859 112.516C31.9401 112.516 32.9714 112.758 33.6797 113.242C34.3932 113.727 34.8932 114.435 35.1797 115.367L32.1875 115.766C32.0938 115.411 31.9219 115.146 31.6719 114.969C31.4271 114.786 31.0964 114.695 30.6797 114.695C30.1536 114.695 29.7266 114.885 29.3984 115.266C29.0755 115.641 28.9141 116.211 28.9141 116.977C28.9141 117.659 29.0755 118.177 29.3984 118.531C29.7214 118.885 30.1328 119.062 30.6328 119.062C31.0495 119.062 31.3984 118.956 31.6797 118.742C31.9661 118.529 32.1797 118.201 32.3203 117.758ZM43.7969 115.031H41.4922V121H38.3047V115.031H36V112.711H43.7969V115.031ZM44.9453 124.156V112.703H47.9219V113.93C48.3333 113.414 48.7109 113.065 49.0547 112.883C49.5182 112.638 50.0312 112.516 50.5938 112.516C51.7031 112.516 52.5599 112.94 53.1641 113.789C53.7734 114.638 54.0781 115.688 54.0781 116.938C54.0781 118.318 53.7474 119.372 53.0859 120.102C52.4245 120.826 51.5885 121.188 50.5781 121.188C50.0885 121.188 49.6406 121.104 49.2344 120.938C48.8333 120.771 48.474 120.523 48.1562 120.195V124.156H44.9453ZM48.1328 116.875C48.1328 117.531 48.2708 118.018 48.5469 118.336C48.8229 118.654 49.1719 118.812 49.5938 118.812C49.9635 118.812 50.2734 118.661 50.5234 118.359C50.7734 118.052 50.8984 117.534 50.8984 116.805C50.8984 116.133 50.7682 115.641 50.5078 115.328C50.2474 115.01 49.9297 114.852 49.5547 114.852C49.1484 114.852 48.8099 115.01 48.5391 115.328C48.2682 115.646 48.1328 116.161 48.1328 116.875ZM55.2109 116.875C55.2109 115.609 55.638 114.568 56.4922 113.75C57.3464 112.927 58.5 112.516 59.9531 112.516C61.6146 112.516 62.8698 112.997 63.7188 113.961C64.401 114.737 64.7422 115.693 64.7422 116.828C64.7422 118.104 64.3177 119.151 63.4688 119.969C62.625 120.781 61.4557 121.188 59.9609 121.188C58.6276 121.188 57.5495 120.849 56.7266 120.172C55.7161 119.333 55.2109 118.234 55.2109 116.875ZM58.3984 116.867C58.3984 117.607 58.5469 118.154 58.8438 118.508C59.1458 118.862 59.5234 119.039 59.9766 119.039C60.4349 119.039 60.8099 118.865 61.1016 118.516C61.3984 118.167 61.5469 117.607 61.5469 116.836C61.5469 116.117 61.3984 115.583 61.1016 115.234C60.8047 114.88 60.4375 114.703 60 114.703C59.5365 114.703 59.1536 114.883 58.8516 115.242C58.5495 115.596 58.3984 116.138 58.3984 116.867ZM75.6484 121H72.4609V117.867H69.5703V121H66.3828V112.711H69.5703V115.547H72.4609V112.711H75.6484V121ZM77.2891 116.875C77.2891 115.609 77.7161 114.568 78.5703 113.75C79.4245 112.927 80.5781 112.516 82.0312 112.516C83.6927 112.516 84.9479 112.997 85.7969 113.961C86.4792 114.737 86.8203 115.693 86.8203 116.828C86.8203 118.104 86.3958 119.151 85.5469 119.969C84.7031 120.781 83.5339 121.188 82.0391 121.188C80.7057 121.188 79.6276 120.849 78.8047 120.172C77.7943 119.333 77.2891 118.234 77.2891 116.875ZM80.4766 116.867C80.4766 117.607 80.625 118.154 80.9219 118.508C81.224 118.862 81.6016 119.039 82.0547 119.039C82.513 119.039 82.888 118.865 83.1797 118.516C83.4766 118.167 83.625 117.607 83.625 116.836C83.625 116.117 83.4766 115.583 83.1797 115.234C82.8828 114.88 82.5156 114.703 82.0781 114.703C81.6146 114.703 81.2318 114.883 80.9297 115.242C80.6276 115.596 80.4766 116.138 80.4766 116.867ZM99.8516 121H97.1641V115.797L95.1953 121H93.2812L91.1484 115.797V121H88.4609V112.711H92.2578L94.2422 117.477L96.0625 112.711H99.8516V121ZM111.164 121H108.156V116.922L105.031 121H102.008V112.711H105.016V116.844L108.172 112.711H111.164V121ZM121.258 121H118.078V117.781H117.961C117.737 117.781 117.56 117.844 117.43 117.969C117.305 118.089 117.177 118.273 117.047 118.523L115.773 121H112.25L113.484 118.602C113.849 117.888 114.328 117.497 114.922 117.43C114.25 117.326 113.737 117.047 113.383 116.594C113.034 116.135 112.859 115.635 112.859 115.094C112.859 114.557 112.992 114.083 113.258 113.672C113.529 113.255 113.919 112.992 114.43 112.883C114.945 112.768 115.594 112.711 116.375 112.711H121.258V121ZM118.078 115.898V114.602H117.086C116.617 114.602 116.326 114.659 116.211 114.773C116.096 114.883 116.039 115.039 116.039 115.242C116.039 115.68 116.424 115.898 117.195 115.898H118.078Z" fill="#0096DA" /><path d="M55.4249 82.9779C71.199 90.3143 89.9377 83.477 97.2742 67.6995C99.0908 63.7934 100.089 59.5546 100.202 55.2492C93.3614 60.7923 86.178 65.8995 78.6952 70.5343C71.209 75.169 63.4367 79.3247 55.4249 82.9779Z" fill="#0096DA" /><path d="M99.6002 23.6576C99.1676 23.7575 93.8774 25.0018 90.7066 26.692C91.5018 27.4872 93.4083 29.4303 94.8124 31.1338C94.8124 31.1338 104.691 26.6554 106.87 30.1357C108.374 33.1202 100.319 40.2769 96.822 43.1882C95.2748 38.6533 92.7096 34.5209 89.3159 31.1172C78.8186 20.5933 62.7583 19.0761 50.7372 26.5856C50.7139 26.5989 50.6906 26.6122 50.6673 26.6255C50.644 26.6421 50.6208 26.6554 50.6008 26.6688C38.5431 34.125 32.7937 49.1971 37.5815 63.2677C39.132 67.816 41.7006 71.945 45.0777 75.3421C40.922 77.1887 30.9372 81.2412 28.9275 78.5728C26.7715 75.0759 35.1593 68.2053 35.1593 68.2053C34.2543 66.189 33.3593 63.6204 32.9967 62.5557C30.0787 64.6485 26.6185 68.8441 26.339 69.1868C21.8173 74.8962 19.6547 80.0068 21.8872 83.3672C26.8048 90.7736 47.766 81.87 65.1406 71.7188C72.7398 67.3702 84.9406 60.0703 93.6711 53.2862C106.993 43.3745 117.946 32.2518 114.286 25.9467C112.263 22.4599 106.72 22.1305 99.6002 23.6576Z" fill="#0096DA" /></svg><svg width="136" height="136" viewBox="0 0 136 136" fill="none" xmlns="http://www.w3.org/2000/svg" x="272"><rect x="3" y="3" width="130" height="130" rx="11" fill="#F0F0F0" /><rect x="3" y="3" width="130" height="130" rx="11" stroke="#0072B1" stroke-width="6" /><path d="M18.3594 115.391L15.3203 115.07C15.4349 114.539 15.599 114.122 15.8125 113.82C16.0312 113.513 16.3438 113.247 16.75 113.023C17.0417 112.862 17.4427 112.737 17.9531 112.648C18.4635 112.56 19.0156 112.516 19.6094 112.516C20.5625 112.516 21.3281 112.57 21.9062 112.68C22.4844 112.784 22.9661 113.005 23.3516 113.344C23.6224 113.578 23.8359 113.911 23.9922 114.344C24.1484 114.771 24.2266 115.18 24.2266 115.57V119.234C24.2266 119.625 24.25 119.932 24.2969 120.156C24.349 120.375 24.4583 120.656 24.625 121H21.6406C21.5208 120.786 21.4427 120.625 21.4062 120.516C21.3698 120.401 21.3333 120.224 21.2969 119.984C20.8802 120.385 20.4661 120.672 20.0547 120.844C19.4922 121.073 18.8385 121.188 18.0938 121.188C17.1042 121.188 16.3516 120.958 15.8359 120.5C15.3255 120.042 15.0703 119.477 15.0703 118.805C15.0703 118.174 15.2552 117.656 15.625 117.25C15.9948 116.844 16.6771 116.542 17.6719 116.344C18.8646 116.104 19.638 115.938 19.9922 115.844C20.3464 115.745 20.7214 115.617 21.1172 115.461C21.1172 115.07 21.0365 114.797 20.875 114.641C20.7135 114.484 20.4297 114.406 20.0234 114.406C19.5026 114.406 19.112 114.49 18.8516 114.656C18.6484 114.786 18.4844 115.031 18.3594 115.391ZM21.1172 117.062C20.6797 117.219 20.224 117.357 19.75 117.477C19.1042 117.648 18.6953 117.818 18.5234 117.984C18.3464 118.156 18.2578 118.352 18.2578 118.57C18.2578 118.82 18.3438 119.026 18.5156 119.188C18.6927 119.344 18.9505 119.422 19.2891 119.422C19.6432 119.422 19.9714 119.336 20.2734 119.164C20.5807 118.992 20.7969 118.784 20.9219 118.539C21.0521 118.289 21.1172 117.966 21.1172 117.57V117.062ZM32.3203 117.758L35.3438 118.102C35.1771 118.732 34.9036 119.279 34.5234 119.742C34.1432 120.201 33.6562 120.557 33.0625 120.812C32.474 121.068 31.724 121.195 30.8125 121.195C29.9323 121.195 29.1979 121.115 28.6094 120.953C28.026 120.786 27.5234 120.521 27.1016 120.156C26.6797 119.786 26.349 119.354 26.1094 118.859C25.8698 118.365 25.75 117.708 25.75 116.891C25.75 116.036 25.8958 115.326 26.1875 114.758C26.401 114.341 26.6927 113.969 27.0625 113.641C27.4323 113.307 27.8125 113.06 28.2031 112.898C28.8229 112.643 29.6172 112.516 30.5859 112.516C31.9401 112.516 32.9714 112.758 33.6797 113.242C34.3932 113.727 34.8932 114.435 35.1797 115.367L32.1875 115.766C32.0938 115.411 31.9219 115.146 31.6719 114.969C31.4271 114.786 31.0964 114.695 30.6797 114.695C30.1536 114.695 29.7266 114.885 29.3984 115.266C29.0755 115.641 28.9141 116.211 28.9141 116.977C28.9141 117.659 29.0755 118.177 29.3984 118.531C29.7214 118.885 30.1328 119.062 30.6328 119.062C31.0495 119.062 31.3984 118.956 31.6797 118.742C31.9661 118.529 32.1797 118.201 32.3203 117.758ZM43.7969 115.031H41.4922V121H38.3047V115.031H36V112.711H43.7969V115.031ZM44.9453 124.156V112.703H47.9219V113.93C48.3333 113.414 48.7109 113.065 49.0547 112.883C49.5182 112.638 50.0312 112.516 50.5938 112.516C51.7031 112.516 52.5599 112.94 53.1641 113.789C53.7734 114.638 54.0781 115.688 54.0781 116.938C54.0781 118.318 53.7474 119.372 53.0859 120.102C52.4245 120.826 51.5885 121.188 50.5781 121.188C50.0885 121.188 49.6406 121.104 49.2344 120.938C48.8333 120.771 48.474 120.523 48.1562 120.195V124.156H44.9453ZM48.1328 116.875C48.1328 117.531 48.2708 118.018 48.5469 118.336C48.8229 118.654 49.1719 118.812 49.5938 118.812C49.9635 118.812 50.2734 118.661 50.5234 118.359C50.7734 118.052 50.8984 117.534 50.8984 116.805C50.8984 116.133 50.7682 115.641 50.5078 115.328C50.2474 115.01 49.9297 114.852 49.5547 114.852C49.1484 114.852 48.8099 115.01 48.5391 115.328C48.2682 115.646 48.1328 116.161 48.1328 116.875ZM55.2109 116.875C55.2109 115.609 55.638 114.568 56.4922 113.75C57.3464 112.927 58.5 112.516 59.9531 112.516C61.6146 112.516 62.8698 112.997 63.7188 113.961C64.401 114.737 64.7422 115.693 64.7422 116.828C64.7422 118.104 64.3177 119.151 63.4688 119.969C62.625 120.781 61.4557 121.188 59.9609 121.188C58.6276 121.188 57.5495 120.849 56.7266 120.172C55.7161 119.333 55.2109 118.234 55.2109 116.875ZM58.3984 116.867C58.3984 117.607 58.5469 118.154 58.8438 118.508C59.1458 118.862 59.5234 119.039 59.9766 119.039C60.4349 119.039 60.8099 118.865 61.1016 118.516C61.3984 118.167 61.5469 117.607 61.5469 116.836C61.5469 116.117 61.3984 115.583 61.1016 115.234C60.8047 114.88 60.4375 114.703 60 114.703C59.5365 114.703 59.1536 114.883 58.8516 115.242C58.5495 115.596 58.3984 116.138 58.3984 116.867ZM75.6484 121H72.4609V117.867H69.5703V121H66.3828V112.711H69.5703V115.547H72.4609V112.711H75.6484V121ZM77.2891 116.875C77.2891 115.609 77.7161 114.568 78.5703 113.75C79.4245 112.927 80.5781 112.516 82.0312 112.516C83.6927 112.516 84.9479 112.997 85.7969 113.961C86.4792 114.737 86.8203 115.693 86.8203 116.828C86.8203 118.104 86.3958 119.151 85.5469 119.969C84.7031 120.781 83.5339 121.188 82.0391 121.188C80.7057 121.188 79.6276 120.849 78.8047 120.172C77.7943 119.333 77.2891 118.234 77.2891 116.875ZM80.4766 116.867C80.4766 117.607 80.625 118.154 80.9219 118.508C81.224 118.862 81.6016 119.039 82.0547 119.039C82.513 119.039 82.888 118.865 83.1797 118.516C83.4766 118.167 83.625 117.607 83.625 116.836C83.625 116.117 83.4766 115.583 83.1797 115.234C82.8828 114.88 82.5156 114.703 82.0781 114.703C81.6146 114.703 81.2318 114.883 80.9297 115.242C80.6276 115.596 80.4766 116.138 80.4766 116.867ZM99.8516 121H97.1641V115.797L95.1953 121H93.2812L91.1484 115.797V121H88.4609V112.711H92.2578L94.2422 117.477L96.0625 112.711H99.8516V121ZM111.164 121H108.156V116.922L105.031 121H102.008V112.711H105.016V116.844L108.172 112.711H111.164V121ZM121.258 121H118.078V117.781H117.961C117.737 117.781 117.56 117.844 117.43 117.969C117.305 118.089 117.177 118.273 117.047 118.523L115.773 121H112.25L113.484 118.602C113.849 117.888 114.328 117.497 114.922 117.43C114.25 117.326 113.737 117.047 113.383 116.594C113.034 116.135 112.859 115.635 112.859 115.094C112.859 114.557 112.992 114.083 113.258 113.672C113.529 113.255 113.919 112.992 114.43 112.883C114.945 112.768 115.594 112.711 116.375 112.711H121.258V121ZM118.078 115.898V114.602H117.086C116.617 114.602 116.326 114.659 116.211 114.773C116.096 114.883 116.039 115.039 116.039 115.242C116.039 115.68 116.424 115.898 117.195 115.898H118.078Z" fill="#0072B1" /><path d="M55.4249 82.9779C71.199 90.3143 89.9377 83.477 97.2742 67.6995C99.0908 63.7934 100.089 59.5546 100.202 55.2492C93.3614 60.7923 86.178 65.8995 78.6952 70.5343C71.209 75.169 63.4367 79.3247 55.4249 82.9779Z" fill="#0072B1" /><path d="M99.6002 23.6576C99.1676 23.7575 93.8774 25.0018 90.7066 26.692C91.5018 27.4872 93.4083 29.4303 94.8124 31.1338C94.8124 31.1338 104.691 26.6554 106.87 30.1357C108.374 33.1202 100.319 40.2769 96.822 43.1882C95.2748 38.6533 92.7096 34.5209 89.3159 31.1172C78.8186 20.5933 62.7583 19.0761 50.7372 26.5856C50.7139 26.5989 50.6906 26.6122 50.6673 26.6255C50.644 26.6421 50.6208 26.6554 50.6008 26.6688C38.5431 34.125 32.7937 49.1971 37.5815 63.2677C39.132 67.816 41.7006 71.945 45.0777 75.3421C40.922 77.1887 30.9372 81.2412 28.9275 78.5728C26.7715 75.0759 35.1593 68.2053 35.1593 68.2053C34.2543 66.189 33.3593 63.6204 32.9967 62.5557C30.0787 64.6485 26.6185 68.8441 26.339 69.1868C21.8173 74.8962 19.6547 80.0068 21.8872 83.3672C26.8048 90.7736 47.766 81.87 65.1406 71.7188C72.7398 67.3702 84.9406 60.0703 93.6711 53.2862C106.993 43.3745 117.946 32.2518 114.286 25.9467C112.263 22.4599 106.72 22.1305 99.6002 23.6576Z" fill="#0072B1" /></svg></svg>