<svg xmlns="http://www.w3.org/2000/svg" viewBox="0 0 408 136"><svg width="136" height="136" viewBox="0 0 136 136" fill="none" xmlns="http://www.w3.org/2000/svg" x="0"><rect x="3" y="3" width="130" height="130" rx="11" fill="#8CD598" /><rect x="3" y="3" width="130" height="130" rx="11" stroke="#8CD598" stroke-width="6" /><path d="M46.7266 117.281C46.7266 115.411 47.2474 113.956 48.2891 112.914C49.3307 111.872 50.7812 111.352 52.6406 111.352C54.5469 111.352 56.0156 111.865 57.0469 112.891C58.0781 113.911 58.5938 115.344 58.5938 117.188C58.5938 118.526 58.3672 119.625 57.9141 120.484C57.4661 121.339 56.8151 122.005 55.9609 122.484C55.112 122.958 54.0521 123.195 52.7812 123.195C51.4896 123.195 50.4193 122.99 49.5703 122.578C48.7266 122.167 48.0417 121.516 47.5156 120.625C46.9896 119.734 46.7266 118.62 46.7266 117.281ZM50.2656 117.297C50.2656 118.453 50.4792 119.284 50.9062 119.789C51.3385 120.294 51.9245 120.547 52.6641 120.547C53.4245 120.547 54.013 120.299 54.4297 119.805C54.8464 119.31 55.0547 118.422 55.0547 117.141C55.0547 116.062 54.8359 115.276 54.3984 114.781C53.9661 114.281 53.3776 114.031 52.6328 114.031C51.9193 114.031 51.3464 114.284 50.9141 114.789C50.4818 115.294 50.2656 116.13 50.2656 117.297ZM64.0469 115.961H65.9375C67.6719 115.961 68.9583 116.268 69.7969 116.883C70.6354 117.492 71.0547 118.443 71.0547 119.734C71.0547 120.792 70.6693 121.602 69.8984 122.164C69.1328 122.721 68.0312 123 66.5938 123H60.5156V111.547H70.1562V113.867H64.0469V115.961ZM64.0469 120.539H65.8594C66.9688 120.539 67.5234 120.138 67.5234 119.336C67.5234 118.633 66.9688 118.281 65.8594 118.281H64.0469V120.539ZM80.1328 116.773C81.5078 117.143 82.1953 118.008 82.1953 119.367C82.1953 120.487 81.763 121.406 80.8984 122.125C80.0391 122.839 78.8229 123.195 77.25 123.195C74.5625 123.195 72.8932 122.068 72.2422 119.812L75.5859 119.562C75.7734 120.359 76.3073 120.758 77.1875 120.758C77.6771 120.758 78.0469 120.635 78.2969 120.391C78.5521 120.146 78.6797 119.805 78.6797 119.367C78.6797 118.945 78.5208 118.604 78.2031 118.344C77.8854 118.078 77.4505 117.945 76.8984 117.945H75.9375V115.898H76.6953C77.1484 115.898 77.5026 115.781 77.7578 115.547C78.0182 115.307 78.1484 114.977 78.1484 114.555C78.1484 113.935 77.7604 113.625 76.9844 113.625C76.1823 113.625 75.7161 113.982 75.5859 114.695L72.4219 114.328C72.9375 112.344 74.4792 111.352 77.0469 111.352C78.4688 111.352 79.5833 111.628 80.3906 112.18C81.1979 112.732 81.6016 113.474 81.6016 114.406C81.6016 115.531 81.112 116.32 80.1328 116.773ZM83.9531 111.547H89.8359C91.1172 111.547 92.0755 111.852 92.7109 112.461C93.3516 113.07 93.6719 113.938 93.6719 115.062C93.6719 116.219 93.3229 117.122 92.625 117.773C91.9323 118.424 90.8724 118.75 89.4453 118.75H87.5078V123H83.9531V111.547ZM87.5078 116.43H88.375C89.0573 116.43 89.5365 116.312 89.8125 116.078C90.0885 115.839 90.2266 115.534 90.2266 115.164C90.2266 114.805 90.1068 114.5 89.8672 114.25C89.6276 114 89.1771 113.875 88.5156 113.875H87.5078V116.43Z" fill="#F0F0F0" /><path d="M80.6837 31.9475C73.9832 21.8424 63.0169 21.8424 56.3164 31.9475L30.86 70.3311C24.1594 80.4362 29.6407 88.707 43.0418 88.707H93.9546C107.359 88.707 112.841 80.4362 106.14 70.3311L80.6837 31.9475Z" fill="#F2F2F3" /><path d="M62.3536 37.9408L63.023 63.0715H74.0362L74.644 37.9408H62.3536ZM68.5006 81.082C70.5267 81.082 72.1693 80.4742 73.4284 79.2586C74.6838 78.0393 75.3134 76.4401 75.3134 74.4502C75.3134 72.5037 74.6838 70.9226 73.4284 69.7034C72.1693 68.4877 70.5267 67.8799 68.5006 67.8799C66.4709 67.8799 64.8283 68.4877 63.5693 69.7034C62.3138 70.9226 61.6843 72.5037 61.6843 74.4502C61.6843 76.4401 62.3138 78.0393 63.5693 79.2586C64.8283 80.4742 66.4709 81.082 68.5006 81.082Z" fill="#8CD598" /></svg><svg width="136" height="136" viewBox="0 0 136 136" fill="none" xmlns="http://www.w3.org/2000/svg" x="136"><rect x="3" y="3" width="130" height="130" rx="11" fill="#F2F2F3" /><rect x="3" y="3" width="130" height="130" rx="11" stroke="#8CD598" stroke-width="6" /><path d="M46.7266 117.281C46.7266 115.411 47.2474 113.956 48.2891 112.914C49.3307 111.872 50.7812 111.352 52.6406 111.352C54.5469 111.352 56.0156 111.865 57.0469 112.891C58.0781 113.911 58.5938 115.344 58.5938 117.188C58.5938 118.526 58.3672 119.625 57.9141 120.484C57.4661 121.339 56.8151 122.005 55.9609 122.484C55.112 122.958 54.0521 123.195 52.7812 123.195C51.4896 123.195 50.4193 122.99 49.5703 122.578C48.7266 122.167 48.0417 121.516 47.5156 120.625C46.9896 119.734 46.7266 118.62 46.7266 117.281ZM50.2656 117.297C50.2656 118.453 50.4792 119.284 50.9062 119.789C51.3385 120.294 51.9245 120.547 52.6641 120.547C53.4245 120.547 54.013 120.299 54.4297 119.805C54.8464 119.31 55.0547 118.422 55.0547 117.141C55.0547 116.062 54.8359 115.276 54.3984 114.781C53.9661 114.281 53.3776 114.031 52.6328 114.031C51.9193 114.031 51.3464 114.284 50.9141 114.789C50.4818 115.294 50.2656 116.13 50.2656 117.297ZM64.0469 115.961H65.9375C67.6719 115.961 68.9583 116.268 69.7969 116.883C70.6354 117.492 71.0547 118.443 71.0547 119.734C71.0547 120.792 70.6693 121.602 69.8984 122.164C69.1328 122.721 68.0312 123 66.5938 123H60.5156V111.547H70.1562V113.867H64.0469V115.961ZM64.0469 120.539H65.8594C66.9688 120.539 67.5234 120.138 67.5234 119.336C67.5234 118.633 66.9688 118.281 65.8594 118.281H64.0469V120.539ZM80.1328 116.773C81.5078 117.143 82.1953 118.008 82.1953 119.367C82.1953 120.487 81.763 121.406 80.8984 122.125C80.0391 122.839 78.8229 123.195 77.25 123.195C74.5625 123.195 72.8932 122.068 72.2422 119.812L75.5859 119.562C75.7734 120.359 76.3073 120.758 77.1875 120.758C77.6771 120.758 78.0469 120.635 78.2969 120.391C78.5521 120.146 78.6797 119.805 78.6797 119.367C78.6797 118.945 78.5208 118.604 78.2031 118.344C77.8854 118.078 77.4505 117.945 76.8984 117.945H75.9375V115.898H76.6953C77.1484 115.898 77.5026 115.781 77.7578 115.547C78.0182 115.307 78.1484 114.977 78.1484 114.555C78.1484 113.935 77.7604 113.625 76.9844 113.625C76.1823 113.625 75.7161 113.982 75.5859 114.695L72.4219 114.328C72.9375 112.344 74.4792 111.352 77.0469 111.352C78.4688 111.352 79.5833 111.628 80.3906 112.18C81.1979 112.732 81.6016 113.474 81.6016 114.406C81.6016 115.531 81.112 116.32 80.1328 116.773ZM83.9531 111.547H89.8359C91.1172 111.547 92.0755 111.852 92.7109 112.461C93.3516 113.07 93.6719 113.938 93.6719 115.062C93.6719 116.219 93.3229 117.122 92.625 117.773C91.9323 118.424 90.8724 118.75 89.4453 118.75H87.5078V123H83.9531V111.547ZM87.5078 116.43H88.375C89.0573 116.43 89.5365 116.312 89.8125 116.078C90.0885 115.839 90.2266 115.534 90.2266 115.164C90.2266 114.805 90.1068 114.5 89.8672 114.25C89.6276 114 89.1771 113.875 88.5156 113.875H87.5078V116.43Z" fill="#8CD598" /><path d="M80.6837 31.9475C73.9832 21.8424 63.0169 21.8424 56.3164 31.9475L30.86 70.3311C24.1594 80.4362 29.6407 88.707 43.0418 88.707H93.9546C107.359 88.707 112.841 80.4362 106.14 70.3311L80.6837 31.9475Z" fill="#8CD598" /><path d="M62.3536 37.9408L63.023 63.0715H74.0362L74.644 37.9408H62.3536ZM68.5006 81.082C70.5267 81.082 72.1693 80.4742 73.4284 79.2586C74.6838 78.0393 75.3134 76.4401 75.3134 74.4502C75.3134 72.5037 74.6838 70.9226 73.4284 69.7034C72.1693 68.4877 70.5267 67.8799 68.5006 67.8799C66.4709 67.8799 64.8283 68.4877 63.5693 69.7034C62.3138 70.9226 61.6843 72.5037 61.6843 74.4502C61.6843 76.4401 62.3138 78.0393 63.5693 79.2586C64.8283 80.4742 66.4709 81.082 68.5006 81.082Z" fill="#F2F2F3" /></svg><svg width="136" height="136" viewBox="0 0 136 136" fill="none" xmlns="http://www.w3.org/2000/svg" x="272"><rect x="3" y="3" width="130" height="130" rx="11" fill="#F2F2F3" /><rect x="3" y="3" width="130" height="130" rx="11" stroke="#6FAF7C" stroke-width="6" /><path d="M46.7266 117.281C46.7266 115.411 47.2474 113.956 48.2891 112.914C49.3307 111.872 50.7812 111.352 52.6406 111.352C54.5469 111.352 56.0156 111.865 57.0469 112.891C58.0781 113.911 58.5938 115.344 58.5938 117.188C58.5938 118.526 58.3672 119.625 57.9141 120.484C57.4661 121.339 56.8151 122.005 55.9609 122.484C55.112 122.958 54.0521 123.195 52.7812 123.195C51.4896 123.195 50.4193 122.99 49.5703 122.578C48.7266 122.167 48.0417 121.516 47.5156 120.625C46.9896 119.734 46.7266 118.62 46.7266 117.281ZM50.2656 117.297C50.2656 118.453 50.4792 119.284 50.9062 119.789C51.3385 120.294 51.9245 120.547 52.6641 120.547C53.4245 120.547 54.013 120.299 54.4297 119.805C54.8464 119.31 55.0547 118.422 55.0547 117.141C55.0547 116.062 54.8359 115.276 54.3984 114.781C53.9661 114.281 53.3776 114.031 52.6328 114.031C51.9193 114.031 51.3464 114.284 50.9141 114.789C50.4818 115.294 50.2656 116.13 50.2656 117.297ZM64.0469 115.961H65.9375C67.6719 115.961 68.9583 116.268 69.7969 116.883C70.6354 117.492 71.0547 118.443 71.0547 119.734C71.0547 120.792 70.6693 121.602 69.8984 122.164C69.1328 122.721 68.0312 123 66.5938 123H60.5156V111.547H70.1562V113.867H64.0469V115.961ZM64.0469 120.539H65.8594C66.9688 120.539 67.5234 120.138 67.5234 119.336C67.5234 118.633 66.9688 118.281 65.8594 118.281H64.0469V120.539ZM80.1328 116.773C81.5078 117.143 82.1953 118.008 82.1953 119.367C82.1953 120.487 81.763 121.406 80.8984 122.125C80.0391 122.839 78.8229 123.195 77.25 123.195C74.5625 123.195 72.8932 122.068 72.2422 119.812L75.5859 119.562C75.7734 120.359 76.3073 120.758 77.1875 120.758C77.6771 120.758 78.0469 120.635 78.2969 120.391C78.5521 120.146 78.6797 119.805 78.6797 119.367C78.6797 118.945 78.5208 118.604 78.2031 118.344C77.8854 118.078 77.4505 117.945 76.8984 117.945H75.9375V115.898H76.6953C77.1484 115.898 77.5026 115.781 77.7578 115.547C78.0182 115.307 78.1484 114.977 78.1484 114.555C78.1484 113.935 77.7604 113.625 76.9844 113.625C76.1823 113.625 75.7161 113.982 75.5859 114.695L72.4219 114.328C72.9375 112.344 74.4792 111.352 77.0469 111.352C78.4688 111.352 79.5833 111.628 80.3906 112.18C81.1979 112.732 81.6016 113.474 81.6016 114.406C81.6016 115.531 81.112 116.32 80.1328 116.773ZM83.9531 111.547H89.8359C91.1172 111.547 92.0755 111.852 92.7109 112.461C93.3516 113.07 93.6719 113.938 93.6719 115.062C93.6719 116.219 93.3229 117.122 92.625 117.773C91.9323 118.424 90.8724 118.75 89.4453 118.75H87.5078V123H83.9531V111.547ZM87.5078 116.43H88.375C89.0573 116.43 89.5365 116.312 89.8125 116.078C90.0885 115.839 90.2266 115.534 90.2266 115.164C90.2266 114.805 90.1068 114.5 89.8672 114.25C89.6276 114 89.1771 113.875 88.5156 113.875H87.5078V116.43Z" fill="#6FAF7C" /><path d="M80.6837 31.9475C73.9832 21.8424 63.0169 21.8424 56.3164 31.9475L30.86 70.3311C24.1594 80.4362 29.6407 88.707 43.0418 88.707H93.9546C107.359 88.707 112.841 80.4362 106.14 70.3311L80.6837 31.9475Z" fill="#6FAF7C" /><path d="M62.3536 37.9408L63.023 63.0715H74.0362L74.644 37.9408H62.3536ZM68.5006 81.082C70.5267 81.082 72.1693 80.4742 73.4284 79.2586C74.6838 78.0393 75.3134 76.4401 75.3134 74.4502C75.3134 72.5037 74.6838 70.9226 73.4284 69.7034C72.1693 68.4877 70.5267 67.8799 68.5006 67.8799C66.4709 67.8799 64.8283 68.4877 63.5693 69.7034C62.3138 70.9226 61.6843 72.5037 61.6843 74.4502C61.6843 76.4401 62.3138 78.0393 63.5693 79.2586C64.8283 80.4742 66.4709 81.082 68.5006 81.082Z" fill="#F2F2F3" /></svg></svg>