<svg xmlns="http://www.w3.org/2000/svg" viewBox="0 0 408 136"><svg width="136" height="136" viewBox="0 0 136 136" fill="none" xmlns="http://www.w3.org/2000/svg" x="0"><g clip-path="url(#clip0_135_761)"><rect x="6" y="6" width="124" height="124" rx="8" fill="#FF41AF" /><path d="M17.9609 104.391L14.9219 104.07C15.0365 103.539 15.2005 103.122 15.4141 102.82C15.6328 102.513 15.9453 102.247 16.3516 102.023C16.6432 101.862 17.0443 101.737 17.5547 101.648C18.0651 101.56 18.6172 101.516 19.2109 101.516C20.1641 101.516 20.9297 101.57 21.5078 101.68C22.0859 101.784 22.5677 102.005 22.9531 102.344C23.224 102.578 23.4375 102.911 23.5938 103.344C23.75 103.771 23.8281 104.18 23.8281 104.57V108.234C23.8281 108.625 23.8516 108.932 23.8984 109.156C23.9505 109.375 24.0599 109.656 24.2266 110H21.2422C21.1224 109.786 21.0443 109.625 21.0078 109.516C20.9714 109.401 20.9349 109.224 20.8984 108.984C20.4818 109.385 20.0677 109.672 19.6562 109.844C19.0938 110.073 18.4401 110.188 17.6953 110.188C16.7057 110.188 15.9531 109.958 15.4375 109.5C14.9271 109.042 14.6719 108.477 14.6719 107.805C14.6719 107.174 14.8568 106.656 15.2266 106.25C15.5964 105.844 16.2786 105.542 17.2734 105.344C18.4661 105.104 19.2396 104.938 19.5938 104.844C19.9479 104.745 20.3229 104.617 20.7188 104.461C20.7188 104.07 20.638 103.797 20.4766 103.641C20.3151 103.484 20.0312 103.406 19.625 103.406C19.1042 103.406 18.7135 103.49 18.4531 103.656C18.25 103.786 18.0859 104.031 17.9609 104.391ZM20.7188 106.062C20.2812 106.219 19.8255 106.357 19.3516 106.477C18.7057 106.648 18.2969 106.818 18.125 106.984C17.9479 107.156 17.8594 107.352 17.8594 107.57C17.8594 107.82 17.9453 108.026 18.1172 108.188C18.2943 108.344 18.5521 108.422 18.8906 108.422C19.2448 108.422 19.5729 108.336 19.875 108.164C20.1823 107.992 20.3984 107.784 20.5234 107.539C20.6536 107.289 20.7188 106.966 20.7188 106.57V106.062ZM35.1094 110H31.9219V106.867H29.0312V110H25.8438V101.711H29.0312V104.547H31.9219V101.711H35.1094V110ZM43.9688 104.031H40.4375V110H37.25V101.711H43.9688V104.031ZM54.7969 110H51.6172V104.031H49.2031V107.508C49.2031 108.435 49.013 109.122 48.6328 109.57C48.2578 110.018 47.6797 110.242 46.8984 110.242C46.013 110.242 45.2188 110.161 44.5156 110V107.648C44.8906 107.763 45.1771 107.82 45.375 107.82C45.8021 107.82 46.0156 107.503 46.0156 106.867V101.711H54.7969V110ZM65.9844 110H62.9766V105.922L59.8516 110H56.8281V101.711H59.8359V105.844L62.9922 101.711H65.9844V110ZM77.2812 110H74.2734V105.922L71.1484 110H68.125V101.711H71.1328V105.844L74.2891 101.711H77.2812V110ZM75.2656 98.3516C75.25 99.1068 74.987 99.6875 74.4766 100.094C73.9661 100.5 73.3594 100.703 72.6562 100.703C71.8333 100.703 71.1901 100.497 70.7266 100.086C70.263 99.6693 70 99.0911 69.9375 98.3516H71.2812C71.4375 98.9089 71.875 99.1875 72.5938 99.1875C72.9896 99.1875 73.2995 99.1328 73.5234 99.0234C73.7526 98.9089 73.9062 98.6849 73.9844 98.3516H75.2656ZM85.5 106.758L88.5234 107.102C88.3568 107.732 88.0833 108.279 87.7031 108.742C87.3229 109.201 86.8359 109.557 86.2422 109.812C85.6536 110.068 84.9036 110.195 83.9922 110.195C83.112 110.195 82.3776 110.115 81.7891 109.953C81.2057 109.786 80.7031 109.521 80.2812 109.156C79.8594 108.786 79.5286 108.354 79.2891 107.859C79.0495 107.365 78.9297 106.708 78.9297 105.891C78.9297 105.036 79.0755 104.326 79.3672 103.758C79.5807 103.341 79.8724 102.969 80.2422 102.641C80.612 102.307 80.9922 102.06 81.3828 101.898C82.0026 101.643 82.7969 101.516 83.7656 101.516C85.1198 101.516 86.151 101.758 86.8594 102.242C87.5729 102.727 88.0729 103.435 88.3594 104.367L85.3672 104.766C85.2734 104.411 85.1016 104.146 84.8516 103.969C84.6068 103.786 84.276 103.695 83.8594 103.695C83.3333 103.695 82.9062 103.885 82.5781 104.266C82.2552 104.641 82.0938 105.211 82.0938 105.977C82.0938 106.659 82.2552 107.177 82.5781 107.531C82.901 107.885 83.3125 108.062 83.8125 108.062C84.2292 108.062 84.5781 107.956 84.8594 107.742C85.1458 107.529 85.3594 107.201 85.5 106.758ZM99.2188 110H95.6328L94.4141 107.711C94.2214 107.346 94.0312 107.117 93.8438 107.023C93.6615 106.93 93.4349 106.883 93.1641 106.883V110H89.9844V101.711H93.1641V104.703C93.4245 104.677 93.6172 104.591 93.7422 104.445C93.8672 104.299 94.0469 103.979 94.2812 103.484C94.5208 102.99 94.7344 102.628 94.9219 102.398C95.1094 102.169 95.349 101.997 95.6406 101.883C95.9323 101.768 96.2969 101.695 96.7344 101.664C97.1719 101.633 97.8229 101.617 98.6875 101.617V103.875H98.5469C98.1198 103.875 97.7943 103.893 97.5703 103.93C97.3464 103.961 97.1667 104.031 97.0312 104.141C96.8958 104.25 96.7396 104.474 96.5625 104.812C96.3854 105.151 96.237 105.388 96.1172 105.523C96.0026 105.654 95.8307 105.742 95.6016 105.789C96.0443 105.831 96.3854 105.927 96.625 106.078C96.8646 106.224 97.2266 106.701 97.7109 107.508L99.2188 110ZM109.531 110H106.523V105.922L103.398 110H100.375V101.711H103.383V105.844L106.539 101.711H109.531V110ZM120.828 110H117.82V105.922L114.695 110H111.672V101.711H114.68V105.844L117.836 101.711H120.828V110ZM118.812 98.3516C118.797 99.1068 118.534 99.6875 118.023 100.094C117.513 100.5 116.906 100.703 116.203 100.703C115.38 100.703 114.737 100.497 114.273 100.086C113.81 99.6693 113.547 99.0911 113.484 98.3516H114.828C114.984 98.9089 115.422 99.1875 116.141 99.1875C116.536 99.1875 116.846 99.1328 117.07 99.0234C117.299 98.9089 117.453 98.6849 117.531 98.3516H118.812ZM56.8594 125H53.6797V121.781H53.5625C53.3385 121.781 53.1615 121.844 53.0312 121.969C52.9062 122.089 52.7786 122.273 52.6484 122.523L51.375 125H47.8516L49.0859 122.602C49.4505 121.888 49.9297 121.497 50.5234 121.43C49.8516 121.326 49.3385 121.047 48.9844 120.594C48.6354 120.135 48.4609 119.635 48.4609 119.094C48.4609 118.557 48.5938 118.083 48.8594 117.672C49.1302 117.255 49.5208 116.992 50.0312 116.883C50.5469 116.768 51.1953 116.711 51.9766 116.711H56.8594V125ZM53.6797 119.898V118.602H52.6875C52.2188 118.602 51.9271 118.659 51.8125 118.773C51.6979 118.883 51.6406 119.039 51.6406 119.242C51.6406 119.68 52.026 119.898 52.7969 119.898H53.6797ZM66.4609 120.711C66.9557 120.867 67.349 121.112 67.6406 121.445C67.9323 121.773 68.0781 122.138 68.0781 122.539C68.0781 123.404 67.6641 124.062 66.8359 124.516C66.0078 124.969 64.7995 125.195 63.2109 125.195C61.8776 125.195 60.8281 124.951 60.0625 124.461C59.3021 123.966 58.7526 123.224 58.4141 122.234L61.4375 121.898C61.5417 122.19 61.7552 122.451 62.0781 122.68C62.4062 122.904 62.7786 123.016 63.1953 123.016C64.263 123.016 64.7969 122.75 64.7969 122.219C64.7969 122.036 64.6953 121.891 64.4922 121.781C64.2891 121.667 64.0234 121.609 63.6953 121.609H62.3125V119.977H63.7266C64.0026 119.977 64.2552 119.919 64.4844 119.805C64.7135 119.69 64.8281 119.544 64.8281 119.367C64.8281 119.169 64.6927 119.008 64.4219 118.883C64.1562 118.758 63.7839 118.695 63.3047 118.695C62.8359 118.695 62.4401 118.794 62.1172 118.992C61.7943 119.185 61.5885 119.417 61.5 119.688L58.5703 119.289C58.8568 118.346 59.3802 117.651 60.1406 117.203C60.901 116.75 61.9505 116.523 63.2891 116.523C64.6797 116.523 65.7682 116.75 66.5547 117.203C67.3464 117.656 67.7422 118.229 67.7422 118.922C67.7422 119.755 67.3151 120.352 66.4609 120.711ZM72.9375 119.656H74.3906C76.8438 119.656 78.0703 120.552 78.0703 122.344C78.0703 124.115 76.875 125 74.4844 125H69.75V116.711H72.9375V119.656ZM72.9375 123.047H73.9766C74.237 123.047 74.4479 122.987 74.6094 122.867C74.776 122.747 74.8594 122.573 74.8594 122.344C74.8594 121.844 74.5651 121.594 73.9766 121.594H72.9375V123.047ZM78.9766 116.703H82.1562V125H78.9766V116.703ZM93.4219 125H89.8359L88.6172 122.711C88.4245 122.346 88.2344 122.117 88.0469 122.023C87.8646 121.93 87.638 121.883 87.3672 121.883V125H84.1875V116.711H87.3672V119.703C87.6276 119.677 87.8203 119.591 87.9453 119.445C88.0703 119.299 88.25 118.979 88.4844 118.484C88.724 117.99 88.9375 117.628 89.125 117.398C89.3125 117.169 89.5521 116.997 89.8438 116.883C90.1354 116.768 90.5 116.695 90.9375 116.664C91.375 116.633 92.026 116.617 92.8906 116.617V118.875H92.75C92.3229 118.875 91.9974 118.893 91.7734 118.93C91.5495 118.961 91.3698 119.031 91.2344 119.141C91.099 119.25 90.9427 119.474 90.7656 119.812C90.5885 120.151 90.4401 120.388 90.3203 120.523C90.2057 120.654 90.0339 120.742 89.8047 120.789C90.2474 120.831 90.5885 120.927 90.8281 121.078C91.0677 121.224 91.4297 121.701 91.9141 122.508L93.4219 125Z" fill="#F0F0F0" /><path d="M41.8672 70.0547L58.7031 69C59.0677 71.7344 59.8099 73.8177 60.9297 75.25C62.7526 77.5677 65.3568 78.7266 68.7422 78.7266C71.2682 78.7266 73.2083 78.1406 74.5625 76.9688C75.9427 75.7708 76.6328 74.3906 76.6328 72.8281C76.6328 71.3438 75.9818 70.0156 74.6797 68.8438C73.3776 67.6719 70.3568 66.5651 65.6172 65.5234C57.8568 63.7786 52.3229 61.4609 49.0156 58.5703C45.6823 55.6797 44.0156 51.9948 44.0156 47.5156C44.0156 44.5729 44.862 41.7995 46.5547 39.1953C48.2734 36.5651 50.8385 34.5078 54.25 33.0234C57.6875 31.513 62.388 30.7578 68.3516 30.7578C75.6693 30.7578 81.2422 32.125 85.0703 34.8594C88.9245 37.5677 91.2161 41.8906 91.9453 47.8281L75.2656 48.8047C74.8229 46.2266 73.8854 44.3516 72.4531 43.1797C71.0469 42.0078 69.0938 41.4219 66.5938 41.4219C64.5365 41.4219 62.987 41.8646 61.9453 42.75C60.9036 43.6094 60.3828 44.6641 60.3828 45.9141C60.3828 46.8255 60.8125 47.6458 61.6719 48.375C62.5052 49.1302 64.4844 49.8333 67.6094 50.4844C75.3438 52.151 80.8776 53.8438 84.2109 55.5625C87.5703 57.2552 90.0052 59.3646 91.5156 61.8906C93.0521 64.4167 93.8203 67.2422 93.8203 70.3672C93.8203 74.0391 92.8047 77.4245 90.7734 80.5234C88.7422 83.6224 85.9036 85.9792 82.2578 87.5938C78.612 89.1823 74.0156 89.9766 68.4688 89.9766C58.7292 89.9766 51.9844 88.1016 48.2344 84.3516C44.4844 80.6016 42.362 75.8359 41.8672 70.0547Z" fill="#F0F0F0" /></g><rect x="3" y="3" width="130" height="130" rx="11" stroke="#FF41AF" stroke-width="6" /><defs><clipPath id="clip0_135_761"><rect x="6" y="6" width="124" height="124" rx="8" fill="white" /></clipPath></defs></svg><svg width="136" height="136" viewBox="0 0 136 136" fill="none" xmlns="http://www.w3.org/2000/svg" x="136"><g clip-path="url(#clip0_230_1093)"><rect x="6" y="6" width="124" height="124" rx="8" fill="#F0F0F0" /><path d="M17.9609 104.391L14.9219 104.07C15.0365 103.539 15.2005 103.122 15.4141 102.82C15.6328 102.513 15.9453 102.247 16.3516 102.023C16.6432 101.862 17.0443 101.737 17.5547 101.648C18.0651 101.56 18.6172 101.516 19.2109 101.516C20.1641 101.516 20.9297 101.57 21.5078 101.68C22.0859 101.784 22.5677 102.005 22.9531 102.344C23.224 102.578 23.4375 102.911 23.5938 103.344C23.75 103.771 23.8281 104.18 23.8281 104.57V108.234C23.8281 108.625 23.8516 108.932 23.8984 109.156C23.9505 109.375 24.0599 109.656 24.2266 110H21.2422C21.1224 109.786 21.0443 109.625 21.0078 109.516C20.9714 109.401 20.9349 109.224 20.8984 108.984C20.4818 109.385 20.0677 109.672 19.6562 109.844C19.0938 110.073 18.4401 110.188 17.6953 110.188C16.7057 110.188 15.9531 109.958 15.4375 109.5C14.9271 109.042 14.6719 108.477 14.6719 107.805C14.6719 107.174 14.8568 106.656 15.2266 106.25C15.5964 105.844 16.2786 105.542 17.2734 105.344C18.4661 105.104 19.2396 104.938 19.5938 104.844C19.9479 104.745 20.3229 104.617 20.7188 104.461C20.7188 104.07 20.638 103.797 20.4766 103.641C20.3151 103.484 20.0312 103.406 19.625 103.406C19.1042 103.406 18.7135 103.49 18.4531 103.656C18.25 103.786 18.0859 104.031 17.9609 104.391ZM20.7188 106.062C20.2812 106.219 19.8255 106.357 19.3516 106.477C18.7057 106.648 18.2969 106.818 18.125 106.984C17.9479 107.156 17.8594 107.352 17.8594 107.57C17.8594 107.82 17.9453 108.026 18.1172 108.188C18.2943 108.344 18.5521 108.422 18.8906 108.422C19.2448 108.422 19.5729 108.336 19.875 108.164C20.1823 107.992 20.3984 107.784 20.5234 107.539C20.6536 107.289 20.7188 106.966 20.7188 106.57V106.062ZM35.1094 110H31.9219V106.867H29.0312V110H25.8438V101.711H29.0312V104.547H31.9219V101.711H35.1094V110ZM43.9688 104.031H40.4375V110H37.25V101.711H43.9688V104.031ZM54.7969 110H51.6172V104.031H49.2031V107.508C49.2031 108.435 49.013 109.122 48.6328 109.57C48.2578 110.018 47.6797 110.242 46.8984 110.242C46.013 110.242 45.2188 110.161 44.5156 110V107.648C44.8906 107.763 45.1771 107.82 45.375 107.82C45.8021 107.82 46.0156 107.503 46.0156 106.867V101.711H54.7969V110ZM65.9844 110H62.9766V105.922L59.8516 110H56.8281V101.711H59.8359V105.844L62.9922 101.711H65.9844V110ZM77.2812 110H74.2734V105.922L71.1484 110H68.125V101.711H71.1328V105.844L74.2891 101.711H77.2812V110ZM75.2656 98.3516C75.25 99.1068 74.987 99.6875 74.4766 100.094C73.9661 100.5 73.3594 100.703 72.6562 100.703C71.8333 100.703 71.1901 100.497 70.7266 100.086C70.263 99.6693 70 99.0911 69.9375 98.3516H71.2812C71.4375 98.9089 71.875 99.1875 72.5938 99.1875C72.9896 99.1875 73.2995 99.1328 73.5234 99.0234C73.7526 98.9089 73.9062 98.6849 73.9844 98.3516H75.2656ZM85.5 106.758L88.5234 107.102C88.3568 107.732 88.0833 108.279 87.7031 108.742C87.3229 109.201 86.8359 109.557 86.2422 109.812C85.6536 110.068 84.9036 110.195 83.9922 110.195C83.112 110.195 82.3776 110.115 81.7891 109.953C81.2057 109.786 80.7031 109.521 80.2812 109.156C79.8594 108.786 79.5286 108.354 79.2891 107.859C79.0495 107.365 78.9297 106.708 78.9297 105.891C78.9297 105.036 79.0755 104.326 79.3672 103.758C79.5807 103.341 79.8724 102.969 80.2422 102.641C80.612 102.307 80.9922 102.06 81.3828 101.898C82.0026 101.643 82.7969 101.516 83.7656 101.516C85.1198 101.516 86.151 101.758 86.8594 102.242C87.5729 102.727 88.0729 103.435 88.3594 104.367L85.3672 104.766C85.2734 104.411 85.1016 104.146 84.8516 103.969C84.6068 103.786 84.276 103.695 83.8594 103.695C83.3333 103.695 82.9062 103.885 82.5781 104.266C82.2552 104.641 82.0938 105.211 82.0938 105.977C82.0938 106.659 82.2552 107.177 82.5781 107.531C82.901 107.885 83.3125 108.062 83.8125 108.062C84.2292 108.062 84.5781 107.956 84.8594 107.742C85.1458 107.529 85.3594 107.201 85.5 106.758ZM99.2188 110H95.6328L94.4141 107.711C94.2214 107.346 94.0312 107.117 93.8438 107.023C93.6615 106.93 93.4349 106.883 93.1641 106.883V110H89.9844V101.711H93.1641V104.703C93.4245 104.677 93.6172 104.591 93.7422 104.445C93.8672 104.299 94.0469 103.979 94.2812 103.484C94.5208 102.99 94.7344 102.628 94.9219 102.398C95.1094 102.169 95.349 101.997 95.6406 101.883C95.9323 101.768 96.2969 101.695 96.7344 101.664C97.1719 101.633 97.8229 101.617 98.6875 101.617V103.875H98.5469C98.1198 103.875 97.7943 103.893 97.5703 103.93C97.3464 103.961 97.1667 104.031 97.0312 104.141C96.8958 104.25 96.7396 104.474 96.5625 104.812C96.3854 105.151 96.237 105.388 96.1172 105.523C96.0026 105.654 95.8307 105.742 95.6016 105.789C96.0443 105.831 96.3854 105.927 96.625 106.078C96.8646 106.224 97.2266 106.701 97.7109 107.508L99.2188 110ZM109.531 110H106.523V105.922L103.398 110H100.375V101.711H103.383V105.844L106.539 101.711H109.531V110ZM120.828 110H117.82V105.922L114.695 110H111.672V101.711H114.68V105.844L117.836 101.711H120.828V110ZM118.812 98.3516C118.797 99.1068 118.534 99.6875 118.023 100.094C117.513 100.5 116.906 100.703 116.203 100.703C115.38 100.703 114.737 100.497 114.273 100.086C113.81 99.6693 113.547 99.0911 113.484 98.3516H114.828C114.984 98.9089 115.422 99.1875 116.141 99.1875C116.536 99.1875 116.846 99.1328 117.07 99.0234C117.299 98.9089 117.453 98.6849 117.531 98.3516H118.812ZM56.8594 125H53.6797V121.781H53.5625C53.3385 121.781 53.1615 121.844 53.0312 121.969C52.9062 122.089 52.7786 122.273 52.6484 122.523L51.375 125H47.8516L49.0859 122.602C49.4505 121.888 49.9297 121.497 50.5234 121.43C49.8516 121.326 49.3385 121.047 48.9844 120.594C48.6354 120.135 48.4609 119.635 48.4609 119.094C48.4609 118.557 48.5938 118.083 48.8594 117.672C49.1302 117.255 49.5208 116.992 50.0312 116.883C50.5469 116.768 51.1953 116.711 51.9766 116.711H56.8594V125ZM53.6797 119.898V118.602H52.6875C52.2188 118.602 51.9271 118.659 51.8125 118.773C51.6979 118.883 51.6406 119.039 51.6406 119.242C51.6406 119.68 52.026 119.898 52.7969 119.898H53.6797ZM66.4609 120.711C66.9557 120.867 67.349 121.112 67.6406 121.445C67.9323 121.773 68.0781 122.138 68.0781 122.539C68.0781 123.404 67.6641 124.062 66.8359 124.516C66.0078 124.969 64.7995 125.195 63.2109 125.195C61.8776 125.195 60.8281 124.951 60.0625 124.461C59.3021 123.966 58.7526 123.224 58.4141 122.234L61.4375 121.898C61.5417 122.19 61.7552 122.451 62.0781 122.68C62.4062 122.904 62.7786 123.016 63.1953 123.016C64.263 123.016 64.7969 122.75 64.7969 122.219C64.7969 122.036 64.6953 121.891 64.4922 121.781C64.2891 121.667 64.0234 121.609 63.6953 121.609H62.3125V119.977H63.7266C64.0026 119.977 64.2552 119.919 64.4844 119.805C64.7135 119.69 64.8281 119.544 64.8281 119.367C64.8281 119.169 64.6927 119.008 64.4219 118.883C64.1562 118.758 63.7839 118.695 63.3047 118.695C62.8359 118.695 62.4401 118.794 62.1172 118.992C61.7943 119.185 61.5885 119.417 61.5 119.688L58.5703 119.289C58.8568 118.346 59.3802 117.651 60.1406 117.203C60.901 116.75 61.9505 116.523 63.2891 116.523C64.6797 116.523 65.7682 116.75 66.5547 117.203C67.3464 117.656 67.7422 118.229 67.7422 118.922C67.7422 119.755 67.3151 120.352 66.4609 120.711ZM72.9375 119.656H74.3906C76.8438 119.656 78.0703 120.552 78.0703 122.344C78.0703 124.115 76.875 125 74.4844 125H69.75V116.711H72.9375V119.656ZM72.9375 123.047H73.9766C74.237 123.047 74.4479 122.987 74.6094 122.867C74.776 122.747 74.8594 122.573 74.8594 122.344C74.8594 121.844 74.5651 121.594 73.9766 121.594H72.9375V123.047ZM78.9766 116.703H82.1562V125H78.9766V116.703ZM93.4219 125H89.8359L88.6172 122.711C88.4245 122.346 88.2344 122.117 88.0469 122.023C87.8646 121.93 87.638 121.883 87.3672 121.883V125H84.1875V116.711H87.3672V119.703C87.6276 119.677 87.8203 119.591 87.9453 119.445C88.0703 119.299 88.25 118.979 88.4844 118.484C88.724 117.99 88.9375 117.628 89.125 117.398C89.3125 117.169 89.5521 116.997 89.8438 116.883C90.1354 116.768 90.5 116.695 90.9375 116.664C91.375 116.633 92.026 116.617 92.8906 116.617V118.875H92.75C92.3229 118.875 91.9974 118.893 91.7734 118.93C91.5495 118.961 91.3698 119.031 91.2344 119.141C91.099 119.25 90.9427 119.474 90.7656 119.812C90.5885 120.151 90.4401 120.388 90.3203 120.523C90.2057 120.654 90.0339 120.742 89.8047 120.789C90.2474 120.831 90.5885 120.927 90.8281 121.078C91.0677 121.224 91.4297 121.701 91.9141 122.508L93.4219 125Z" fill="#FF41AF" /><path d="M41.8672 70.0547L58.7031 69C59.0677 71.7344 59.8099 73.8177 60.9297 75.25C62.7526 77.5677 65.3568 78.7266 68.7422 78.7266C71.2682 78.7266 73.2083 78.1406 74.5625 76.9688C75.9427 75.7708 76.6328 74.3906 76.6328 72.8281C76.6328 71.3438 75.9818 70.0156 74.6797 68.8438C73.3776 67.6719 70.3568 66.5651 65.6172 65.5234C57.8568 63.7786 52.3229 61.4609 49.0156 58.5703C45.6823 55.6797 44.0156 51.9948 44.0156 47.5156C44.0156 44.5729 44.862 41.7995 46.5547 39.1953C48.2734 36.5651 50.8385 34.5078 54.25 33.0234C57.6875 31.513 62.388 30.7578 68.3516 30.7578C75.6693 30.7578 81.2422 32.125 85.0703 34.8594C88.9245 37.5677 91.2161 41.8906 91.9453 47.8281L75.2656 48.8047C74.8229 46.2266 73.8854 44.3516 72.4531 43.1797C71.0469 42.0078 69.0938 41.4219 66.5938 41.4219C64.5365 41.4219 62.987 41.8646 61.9453 42.75C60.9036 43.6094 60.3828 44.6641 60.3828 45.9141C60.3828 46.8255 60.8125 47.6458 61.6719 48.375C62.5052 49.1302 64.4844 49.8333 67.6094 50.4844C75.3438 52.151 80.8776 53.8438 84.2109 55.5625C87.5703 57.2552 90.0052 59.3646 91.5156 61.8906C93.0521 64.4167 93.8203 67.2422 93.8203 70.3672C93.8203 74.0391 92.8047 77.4245 90.7734 80.5234C88.7422 83.6224 85.9036 85.9792 82.2578 87.5938C78.612 89.1823 74.0156 89.9766 68.4688 89.9766C58.7292 89.9766 51.9844 88.1016 48.2344 84.3516C44.4844 80.6016 42.362 75.8359 41.8672 70.0547Z" fill="#FF41AF" /></g><rect x="3" y="3" width="130" height="130" rx="11" stroke="#FF41AF" stroke-width="6" /><defs><clipPath id="clip0_230_1093"><rect x="6" y="6" width="124" height="124" rx="8" fill="white" /></clipPath></defs></svg><svg width="136" height="136" viewBox="0 0 136 136" fill="none" xmlns="http://www.w3.org/2000/svg" x="272"><g clip-path="url(#clip0_230_1092)"><rect x="6" y="6" width="124" height="124" rx="8" fill="#F0F0F0" /><path d="M17.9609 104.391L14.9219 104.07C15.0365 103.539 15.2005 103.122 15.4141 102.82C15.6328 102.513 15.9453 102.247 16.3516 102.023C16.6432 101.862 17.0443 101.737 17.5547 101.648C18.0651 101.56 18.6172 101.516 19.2109 101.516C20.1641 101.516 20.9297 101.57 21.5078 101.68C22.0859 101.784 22.5677 102.005 22.9531 102.344C23.224 102.578 23.4375 102.911 23.5938 103.344C23.75 103.771 23.8281 104.18 23.8281 104.57V108.234C23.8281 108.625 23.8516 108.932 23.8984 109.156C23.9505 109.375 24.0599 109.656 24.2266 110H21.2422C21.1224 109.786 21.0443 109.625 21.0078 109.516C20.9714 109.401 20.9349 109.224 20.8984 108.984C20.4818 109.385 20.0677 109.672 19.6562 109.844C19.0938 110.073 18.4401 110.188 17.6953 110.188C16.7057 110.188 15.9531 109.958 15.4375 109.5C14.9271 109.042 14.6719 108.477 14.6719 107.805C14.6719 107.174 14.8568 106.656 15.2266 106.25C15.5964 105.844 16.2786 105.542 17.2734 105.344C18.4661 105.104 19.2396 104.938 19.5938 104.844C19.9479 104.745 20.3229 104.617 20.7188 104.461C20.7188 104.07 20.638 103.797 20.4766 103.641C20.3151 103.484 20.0312 103.406 19.625 103.406C19.1042 103.406 18.7135 103.49 18.4531 103.656C18.25 103.786 18.0859 104.031 17.9609 104.391ZM20.7188 106.062C20.2812 106.219 19.8255 106.357 19.3516 106.477C18.7057 106.648 18.2969 106.818 18.125 106.984C17.9479 107.156 17.8594 107.352 17.8594 107.57C17.8594 107.82 17.9453 108.026 18.1172 108.188C18.2943 108.344 18.5521 108.422 18.8906 108.422C19.2448 108.422 19.5729 108.336 19.875 108.164C20.1823 107.992 20.3984 107.784 20.5234 107.539C20.6536 107.289 20.7188 106.966 20.7188 106.57V106.062ZM35.1094 110H31.9219V106.867H29.0312V110H25.8438V101.711H29.0312V104.547H31.9219V101.711H35.1094V110ZM43.9688 104.031H40.4375V110H37.25V101.711H43.9688V104.031ZM54.7969 110H51.6172V104.031H49.2031V107.508C49.2031 108.435 49.013 109.122 48.6328 109.57C48.2578 110.018 47.6797 110.242 46.8984 110.242C46.013 110.242 45.2188 110.161 44.5156 110V107.648C44.8906 107.763 45.1771 107.82 45.375 107.82C45.8021 107.82 46.0156 107.503 46.0156 106.867V101.711H54.7969V110ZM65.9844 110H62.9766V105.922L59.8516 110H56.8281V101.711H59.8359V105.844L62.9922 101.711H65.9844V110ZM77.2812 110H74.2734V105.922L71.1484 110H68.125V101.711H71.1328V105.844L74.2891 101.711H77.2812V110ZM75.2656 98.3516C75.25 99.1068 74.987 99.6875 74.4766 100.094C73.9661 100.5 73.3594 100.703 72.6562 100.703C71.8333 100.703 71.1901 100.497 70.7266 100.086C70.263 99.6693 70 99.0911 69.9375 98.3516H71.2812C71.4375 98.9089 71.875 99.1875 72.5938 99.1875C72.9896 99.1875 73.2995 99.1328 73.5234 99.0234C73.7526 98.9089 73.9062 98.6849 73.9844 98.3516H75.2656ZM85.5 106.758L88.5234 107.102C88.3568 107.732 88.0833 108.279 87.7031 108.742C87.3229 109.201 86.8359 109.557 86.2422 109.812C85.6536 110.068 84.9036 110.195 83.9922 110.195C83.112 110.195 82.3776 110.115 81.7891 109.953C81.2057 109.786 80.7031 109.521 80.2812 109.156C79.8594 108.786 79.5286 108.354 79.2891 107.859C79.0495 107.365 78.9297 106.708 78.9297 105.891C78.9297 105.036 79.0755 104.326 79.3672 103.758C79.5807 103.341 79.8724 102.969 80.2422 102.641C80.612 102.307 80.9922 102.06 81.3828 101.898C82.0026 101.643 82.7969 101.516 83.7656 101.516C85.1198 101.516 86.151 101.758 86.8594 102.242C87.5729 102.727 88.0729 103.435 88.3594 104.367L85.3672 104.766C85.2734 104.411 85.1016 104.146 84.8516 103.969C84.6068 103.786 84.276 103.695 83.8594 103.695C83.3333 103.695 82.9062 103.885 82.5781 104.266C82.2552 104.641 82.0938 105.211 82.0938 105.977C82.0938 106.659 82.2552 107.177 82.5781 107.531C82.901 107.885 83.3125 108.062 83.8125 108.062C84.2292 108.062 84.5781 107.956 84.8594 107.742C85.1458 107.529 85.3594 107.201 85.5 106.758ZM99.2188 110H95.6328L94.4141 107.711C94.2214 107.346 94.0312 107.117 93.8438 107.023C93.6615 106.93 93.4349 106.883 93.1641 106.883V110H89.9844V101.711H93.1641V104.703C93.4245 104.677 93.6172 104.591 93.7422 104.445C93.8672 104.299 94.0469 103.979 94.2812 103.484C94.5208 102.99 94.7344 102.628 94.9219 102.398C95.1094 102.169 95.349 101.997 95.6406 101.883C95.9323 101.768 96.2969 101.695 96.7344 101.664C97.1719 101.633 97.8229 101.617 98.6875 101.617V103.875H98.5469C98.1198 103.875 97.7943 103.893 97.5703 103.93C97.3464 103.961 97.1667 104.031 97.0312 104.141C96.8958 104.25 96.7396 104.474 96.5625 104.812C96.3854 105.151 96.237 105.388 96.1172 105.523C96.0026 105.654 95.8307 105.742 95.6016 105.789C96.0443 105.831 96.3854 105.927 96.625 106.078C96.8646 106.224 97.2266 106.701 97.7109 107.508L99.2188 110ZM109.531 110H106.523V105.922L103.398 110H100.375V101.711H103.383V105.844L106.539 101.711H109.531V110ZM120.828 110H117.82V105.922L114.695 110H111.672V101.711H114.68V105.844L117.836 101.711H120.828V110ZM118.812 98.3516C118.797 99.1068 118.534 99.6875 118.023 100.094C117.513 100.5 116.906 100.703 116.203 100.703C115.38 100.703 114.737 100.497 114.273 100.086C113.81 99.6693 113.547 99.0911 113.484 98.3516H114.828C114.984 98.9089 115.422 99.1875 116.141 99.1875C116.536 99.1875 116.846 99.1328 117.07 99.0234C117.299 98.9089 117.453 98.6849 117.531 98.3516H118.812ZM56.8594 125H53.6797V121.781H53.5625C53.3385 121.781 53.1615 121.844 53.0312 121.969C52.9062 122.089 52.7786 122.273 52.6484 122.523L51.375 125H47.8516L49.0859 122.602C49.4505 121.888 49.9297 121.497 50.5234 121.43C49.8516 121.326 49.3385 121.047 48.9844 120.594C48.6354 120.135 48.4609 119.635 48.4609 119.094C48.4609 118.557 48.5938 118.083 48.8594 117.672C49.1302 117.255 49.5208 116.992 50.0312 116.883C50.5469 116.768 51.1953 116.711 51.9766 116.711H56.8594V125ZM53.6797 119.898V118.602H52.6875C52.2188 118.602 51.9271 118.659 51.8125 118.773C51.6979 118.883 51.6406 119.039 51.6406 119.242C51.6406 119.68 52.026 119.898 52.7969 119.898H53.6797ZM66.4609 120.711C66.9557 120.867 67.349 121.112 67.6406 121.445C67.9323 121.773 68.0781 122.138 68.0781 122.539C68.0781 123.404 67.6641 124.062 66.8359 124.516C66.0078 124.969 64.7995 125.195 63.2109 125.195C61.8776 125.195 60.8281 124.951 60.0625 124.461C59.3021 123.966 58.7526 123.224 58.4141 122.234L61.4375 121.898C61.5417 122.19 61.7552 122.451 62.0781 122.68C62.4062 122.904 62.7786 123.016 63.1953 123.016C64.263 123.016 64.7969 122.75 64.7969 122.219C64.7969 122.036 64.6953 121.891 64.4922 121.781C64.2891 121.667 64.0234 121.609 63.6953 121.609H62.3125V119.977H63.7266C64.0026 119.977 64.2552 119.919 64.4844 119.805C64.7135 119.69 64.8281 119.544 64.8281 119.367C64.8281 119.169 64.6927 119.008 64.4219 118.883C64.1562 118.758 63.7839 118.695 63.3047 118.695C62.8359 118.695 62.4401 118.794 62.1172 118.992C61.7943 119.185 61.5885 119.417 61.5 119.688L58.5703 119.289C58.8568 118.346 59.3802 117.651 60.1406 117.203C60.901 116.75 61.9505 116.523 63.2891 116.523C64.6797 116.523 65.7682 116.75 66.5547 117.203C67.3464 117.656 67.7422 118.229 67.7422 118.922C67.7422 119.755 67.3151 120.352 66.4609 120.711ZM72.9375 119.656H74.3906C76.8438 119.656 78.0703 120.552 78.0703 122.344C78.0703 124.115 76.875 125 74.4844 125H69.75V116.711H72.9375V119.656ZM72.9375 123.047H73.9766C74.237 123.047 74.4479 122.987 74.6094 122.867C74.776 122.747 74.8594 122.573 74.8594 122.344C74.8594 121.844 74.5651 121.594 73.9766 121.594H72.9375V123.047ZM78.9766 116.703H82.1562V125H78.9766V116.703ZM93.4219 125H89.8359L88.6172 122.711C88.4245 122.346 88.2344 122.117 88.0469 122.023C87.8646 121.93 87.638 121.883 87.3672 121.883V125H84.1875V116.711H87.3672V119.703C87.6276 119.677 87.8203 119.591 87.9453 119.445C88.0703 119.299 88.25 118.979 88.4844 118.484C88.724 117.99 88.9375 117.628 89.125 117.398C89.3125 117.169 89.5521 116.997 89.8438 116.883C90.1354 116.768 90.5 116.695 90.9375 116.664C91.375 116.633 92.026 116.617 92.8906 116.617V118.875H92.75C92.3229 118.875 91.9974 118.893 91.7734 118.93C91.5495 118.961 91.3698 119.031 91.2344 119.141C91.099 119.25 90.9427 119.474 90.7656 119.812C90.5885 120.151 90.4401 120.388 90.3203 120.523C90.2057 120.654 90.0339 120.742 89.8047 120.789C90.2474 120.831 90.5885 120.927 90.8281 121.078C91.0677 121.224 91.4297 121.701 91.9141 122.508L93.4219 125Z" fill="#BB3B85" /><path d="M41.8672 70.0547L58.7031 69C59.0677 71.7344 59.8099 73.8177 60.9297 75.25C62.7526 77.5677 65.3568 78.7266 68.7422 78.7266C71.2682 78.7266 73.2083 78.1406 74.5625 76.9688C75.9427 75.7708 76.6328 74.3906 76.6328 72.8281C76.6328 71.3438 75.9818 70.0156 74.6797 68.8438C73.3776 67.6719 70.3568 66.5651 65.6172 65.5234C57.8568 63.7786 52.3229 61.4609 49.0156 58.5703C45.6823 55.6797 44.0156 51.9948 44.0156 47.5156C44.0156 44.5729 44.862 41.7995 46.5547 39.1953C48.2734 36.5651 50.8385 34.5078 54.25 33.0234C57.6875 31.513 62.388 30.7578 68.3516 30.7578C75.6693 30.7578 81.2422 32.125 85.0703 34.8594C88.9245 37.5677 91.2161 41.8906 91.9453 47.8281L75.2656 48.8047C74.8229 46.2266 73.8854 44.3516 72.4531 43.1797C71.0469 42.0078 69.0938 41.4219 66.5938 41.4219C64.5365 41.4219 62.987 41.8646 61.9453 42.75C60.9036 43.6094 60.3828 44.6641 60.3828 45.9141C60.3828 46.8255 60.8125 47.6458 61.6719 48.375C62.5052 49.1302 64.4844 49.8333 67.6094 50.4844C75.3438 52.151 80.8776 53.8438 84.2109 55.5625C87.5703 57.2552 90.0052 59.3646 91.5156 61.8906C93.0521 64.4167 93.8203 67.2422 93.8203 70.3672C93.8203 74.0391 92.8047 77.4245 90.7734 80.5234C88.7422 83.6224 85.9036 85.9792 82.2578 87.5938C78.612 89.1823 74.0156 89.9766 68.4688 89.9766C58.7292 89.9766 51.9844 88.1016 48.2344 84.3516C44.4844 80.6016 42.362 75.8359 41.8672 70.0547Z" fill="#BB3B85" /></g><rect x="3" y="3" width="130" height="130" rx="11" stroke="#BB3B85" stroke-width="6" /><defs><clipPath id="clip0_230_1092"><rect x="6" y="6" width="124" height="124" rx="8" fill="white" /></clipPath></defs></svg></svg>