<svg xmlns="http://www.w3.org/2000/svg" viewBox="0 0 408 136"><svg width="136" height="136" viewBox="0 0 136 136" fill="none" xmlns="http://www.w3.org/2000/svg" x="0"><rect x="3" y="3" width="130" height="130" rx="11" fill="#FF41AF" /><rect x="3" y="3" width="130" height="130" rx="11" stroke="#FF41AF" stroke-width="6" /><path d="M18.6562 115.367C18.9531 114.393 19.4688 113.677 20.2031 113.219C20.9375 112.755 21.9531 112.523 23.25 112.523C24.2135 112.523 25.0104 112.651 25.6406 112.906C26.2708 113.156 26.8359 113.609 27.3359 114.266C27.8411 114.917 28.0938 115.792 28.0938 116.891C28.0938 118.188 27.6979 119.229 26.9062 120.016C26.1146 120.802 24.8203 121.195 23.0234 121.195C20.5703 121.195 19.0599 120.154 18.4922 118.07L21.5234 117.734C21.7786 118.589 22.3438 119.016 23.2188 119.016C24.1094 119.016 24.6536 118.573 24.8516 117.688H22.3984V116.055H24.7969C24.5677 115.148 24.0182 114.695 23.1484 114.695C22.3151 114.695 21.8151 115.052 21.6484 115.766L18.6562 115.367ZM38.8672 121H35.2812L34.0625 118.711C33.8698 118.346 33.6797 118.117 33.4922 118.023C33.3099 117.93 33.0833 117.883 32.8125 117.883V121H29.6328V112.711H32.8125V115.703C33.0729 115.677 33.2656 115.591 33.3906 115.445C33.5156 115.299 33.6953 114.979 33.9297 114.484C34.1693 113.99 34.3828 113.628 34.5703 113.398C34.7578 113.169 34.9974 112.997 35.2891 112.883C35.5807 112.768 35.9453 112.695 36.3828 112.664C36.8203 112.633 37.4714 112.617 38.3359 112.617V114.875H38.1953C37.7682 114.875 37.4427 114.893 37.2188 114.93C36.9948 114.961 36.8151 115.031 36.6797 115.141C36.5443 115.25 36.388 115.474 36.2109 115.812C36.0339 116.151 35.8854 116.388 35.7656 116.523C35.651 116.654 35.4792 116.742 35.25 116.789C35.6927 116.831 36.0339 116.927 36.2734 117.078C36.513 117.224 36.875 117.701 37.3594 118.508L38.8672 121ZM39.5234 116.875C39.5234 115.609 39.9505 114.568 40.8047 113.75C41.6589 112.927 42.8125 112.516 44.2656 112.516C45.9271 112.516 47.1823 112.997 48.0312 113.961C48.7135 114.737 49.0547 115.693 49.0547 116.828C49.0547 118.104 48.6302 119.151 47.7812 119.969C46.9375 120.781 45.7682 121.188 44.2734 121.188C42.9401 121.188 41.862 120.849 41.0391 120.172C40.0286 119.333 39.5234 118.234 39.5234 116.875ZM42.7109 116.867C42.7109 117.607 42.8594 118.154 43.1562 118.508C43.4583 118.862 43.8359 119.039 44.2891 119.039C44.7474 119.039 45.1224 118.865 45.4141 118.516C45.7109 118.167 45.8594 117.607 45.8594 116.836C45.8594 116.117 45.7109 115.583 45.4141 115.234C45.1172 114.88 44.75 114.703 44.3125 114.703C43.849 114.703 43.4661 114.883 43.1641 115.242C42.862 115.596 42.7109 116.138 42.7109 116.867ZM59.9609 121H56.7734V117.867H53.8828V121H50.6953V112.711H53.8828V115.547H56.7734V112.711H59.9609V121ZM61.6016 116.875C61.6016 115.609 62.0286 114.568 62.8828 113.75C63.737 112.927 64.8906 112.516 66.3438 112.516C68.0052 112.516 69.2604 112.997 70.1094 113.961C70.7917 114.737 71.1328 115.693 71.1328 116.828C71.1328 118.104 70.7083 119.151 69.8594 119.969C69.0156 120.781 67.8464 121.188 66.3516 121.188C65.0182 121.188 63.9401 120.849 63.1172 120.172C62.1068 119.333 61.6016 118.234 61.6016 116.875ZM64.7891 116.867C64.7891 117.607 64.9375 118.154 65.2344 118.508C65.5365 118.862 65.9141 119.039 66.3672 119.039C66.8255 119.039 67.2005 118.865 67.4922 118.516C67.7891 118.167 67.9375 117.607 67.9375 116.836C67.9375 116.117 67.7891 115.583 67.4922 115.234C67.1953 114.88 66.8281 114.703 66.3906 114.703C65.9271 114.703 65.5443 114.883 65.2422 115.242C64.9401 115.596 64.7891 116.138 64.7891 116.867ZM84.1641 121H81.4766V115.797L79.5078 121H77.5938L75.4609 115.797V121H72.7734V112.711H76.5703L78.5547 117.477L80.375 112.711H84.1641V121ZM95.4766 121H92.4688V116.922L89.3438 121H86.3203V112.711H89.3281V116.844L92.4844 112.711H95.4766V121ZM106.742 121H103.156L101.938 118.711C101.745 118.346 101.555 118.117 101.367 118.023C101.185 117.93 100.958 117.883 100.688 117.883V121H97.5078V112.711H100.688V115.703C100.948 115.677 101.141 115.591 101.266 115.445C101.391 115.299 101.57 114.979 101.805 114.484C102.044 113.99 102.258 113.628 102.445 113.398C102.633 113.169 102.872 112.997 103.164 112.883C103.456 112.768 103.82 112.695 104.258 112.664C104.695 112.633 105.346 112.617 106.211 112.617V114.875H106.07C105.643 114.875 105.318 114.893 105.094 114.93C104.87 114.961 104.69 115.031 104.555 115.141C104.419 115.25 104.263 115.474 104.086 115.812C103.909 116.151 103.76 116.388 103.641 116.523C103.526 116.654 103.354 116.742 103.125 116.789C103.568 116.831 103.909 116.927 104.148 117.078C104.388 117.224 104.75 117.701 105.234 118.508L106.742 121ZM110.688 115.391L107.648 115.07C107.763 114.539 107.927 114.122 108.141 113.82C108.359 113.513 108.672 113.247 109.078 113.023C109.37 112.862 109.771 112.737 110.281 112.648C110.792 112.56 111.344 112.516 111.938 112.516C112.891 112.516 113.656 112.57 114.234 112.68C114.812 112.784 115.294 113.005 115.68 113.344C115.951 113.578 116.164 113.911 116.32 114.344C116.477 114.771 116.555 115.18 116.555 115.57V119.234C116.555 119.625 116.578 119.932 116.625 120.156C116.677 120.375 116.786 120.656 116.953 121H113.969C113.849 120.786 113.771 120.625 113.734 120.516C113.698 120.401 113.661 120.224 113.625 119.984C113.208 120.385 112.794 120.672 112.383 120.844C111.82 121.073 111.167 121.188 110.422 121.188C109.432 121.188 108.68 120.958 108.164 120.5C107.654 120.042 107.398 119.477 107.398 118.805C107.398 118.174 107.583 117.656 107.953 117.25C108.323 116.844 109.005 116.542 110 116.344C111.193 116.104 111.966 115.938 112.32 115.844C112.674 115.745 113.049 115.617 113.445 115.461C113.445 115.07 113.365 114.797 113.203 114.641C113.042 114.484 112.758 114.406 112.352 114.406C111.831 114.406 111.44 114.49 111.18 114.656C110.977 114.786 110.812 115.031 110.688 115.391ZM113.445 117.062C113.008 117.219 112.552 117.357 112.078 117.477C111.432 117.648 111.023 117.818 110.852 117.984C110.674 118.156 110.586 118.352 110.586 118.57C110.586 118.82 110.672 119.026 110.844 119.188C111.021 119.344 111.279 119.422 111.617 119.422C111.971 119.422 112.299 119.336 112.602 119.164C112.909 118.992 113.125 118.784 113.25 118.539C113.38 118.289 113.445 117.966 113.445 117.57V117.062Z" fill="#F0F0F0" /><path d="M101 57.1474V56.7427C101 51.2225 99.6456 46.3903 96.94 42.2524C94.2344 38.1115 90.3923 34.9046 85.4138 32.6317C84.7693 32.3391 84.0719 32.1149 83.3994 31.8596V19.8103H71.3564V29.3719C70.2386 29.3034 69.1302 29.2225 67.9595 29.2225C66.82 29.2225 65.7365 29.3034 64.6436 29.3719V19.8103H52.6006V31.8907C51.9561 32.1367 51.2867 32.3484 50.6671 32.6317C45.6886 34.9046 41.8341 38.124 39.1005 42.2929C36.3668 46.4588 35 51.2754 35 56.7427V57.1474C35 62.6147 36.3668 67.4313 39.1005 71.5972C41.8341 75.7662 45.6886 78.9731 50.6671 81.2179C51.2867 81.4981 51.9561 81.7067 52.6006 81.9527V94.002H64.6436V84.4404C65.7365 84.5089 66.82 84.5867 67.9595 84.5867C69.1302 84.5867 70.2386 84.5089 71.3564 84.4404V94.002H83.3994V81.9807C84.0719 81.7285 84.7693 81.5075 85.4138 81.2179C90.3923 78.9731 94.2344 75.7786 96.94 71.6408C99.6456 67.4998 101 62.6677 101 57.1474ZM84.3583 57.3934C84.3583 61.4503 83.032 64.4673 80.3793 66.4444C77.7297 68.4214 73.5887 69.4053 67.9595 69.4053C62.4922 69.4053 58.4073 68.4214 55.7017 66.4444C52.996 64.4673 51.6417 61.4503 51.6417 57.3934V56.5777C51.6417 52.5768 53.0209 49.5443 55.7826 47.4862C58.5443 45.4313 62.6012 44.4039 67.9595 44.4039C78.891 44.4039 84.3583 48.4608 84.3583 56.5777V57.3934Z" fill="#F0F0F0" /></svg><svg width="136" height="136" viewBox="0 0 136 136" fill="none" xmlns="http://www.w3.org/2000/svg" x="136"><rect x="3" y="3" width="130" height="130" rx="11" fill="#F2F2F3" /><rect x="3" y="3" width="130" height="130" rx="11" stroke="#FF41AF" stroke-width="6" /><path d="M18.6562 115.367C18.9531 114.393 19.4688 113.677 20.2031 113.219C20.9375 112.755 21.9531 112.523 23.25 112.523C24.2135 112.523 25.0104 112.651 25.6406 112.906C26.2708 113.156 26.8359 113.609 27.3359 114.266C27.8411 114.917 28.0938 115.792 28.0938 116.891C28.0938 118.188 27.6979 119.229 26.9062 120.016C26.1146 120.802 24.8203 121.195 23.0234 121.195C20.5703 121.195 19.0599 120.154 18.4922 118.07L21.5234 117.734C21.7786 118.589 22.3438 119.016 23.2188 119.016C24.1094 119.016 24.6536 118.573 24.8516 117.688H22.3984V116.055H24.7969C24.5677 115.148 24.0182 114.695 23.1484 114.695C22.3151 114.695 21.8151 115.052 21.6484 115.766L18.6562 115.367ZM38.8672 121H35.2812L34.0625 118.711C33.8698 118.346 33.6797 118.117 33.4922 118.023C33.3099 117.93 33.0833 117.883 32.8125 117.883V121H29.6328V112.711H32.8125V115.703C33.0729 115.677 33.2656 115.591 33.3906 115.445C33.5156 115.299 33.6953 114.979 33.9297 114.484C34.1693 113.99 34.3828 113.628 34.5703 113.398C34.7578 113.169 34.9974 112.997 35.2891 112.883C35.5807 112.768 35.9453 112.695 36.3828 112.664C36.8203 112.633 37.4714 112.617 38.3359 112.617V114.875H38.1953C37.7682 114.875 37.4427 114.893 37.2188 114.93C36.9948 114.961 36.8151 115.031 36.6797 115.141C36.5443 115.25 36.388 115.474 36.2109 115.812C36.0339 116.151 35.8854 116.388 35.7656 116.523C35.651 116.654 35.4792 116.742 35.25 116.789C35.6927 116.831 36.0339 116.927 36.2734 117.078C36.513 117.224 36.875 117.701 37.3594 118.508L38.8672 121ZM39.5234 116.875C39.5234 115.609 39.9505 114.568 40.8047 113.75C41.6589 112.927 42.8125 112.516 44.2656 112.516C45.9271 112.516 47.1823 112.997 48.0312 113.961C48.7135 114.737 49.0547 115.693 49.0547 116.828C49.0547 118.104 48.6302 119.151 47.7812 119.969C46.9375 120.781 45.7682 121.188 44.2734 121.188C42.9401 121.188 41.862 120.849 41.0391 120.172C40.0286 119.333 39.5234 118.234 39.5234 116.875ZM42.7109 116.867C42.7109 117.607 42.8594 118.154 43.1562 118.508C43.4583 118.862 43.8359 119.039 44.2891 119.039C44.7474 119.039 45.1224 118.865 45.4141 118.516C45.7109 118.167 45.8594 117.607 45.8594 116.836C45.8594 116.117 45.7109 115.583 45.4141 115.234C45.1172 114.88 44.75 114.703 44.3125 114.703C43.849 114.703 43.4661 114.883 43.1641 115.242C42.862 115.596 42.7109 116.138 42.7109 116.867ZM59.9609 121H56.7734V117.867H53.8828V121H50.6953V112.711H53.8828V115.547H56.7734V112.711H59.9609V121ZM61.6016 116.875C61.6016 115.609 62.0286 114.568 62.8828 113.75C63.737 112.927 64.8906 112.516 66.3438 112.516C68.0052 112.516 69.2604 112.997 70.1094 113.961C70.7917 114.737 71.1328 115.693 71.1328 116.828C71.1328 118.104 70.7083 119.151 69.8594 119.969C69.0156 120.781 67.8464 121.188 66.3516 121.188C65.0182 121.188 63.9401 120.849 63.1172 120.172C62.1068 119.333 61.6016 118.234 61.6016 116.875ZM64.7891 116.867C64.7891 117.607 64.9375 118.154 65.2344 118.508C65.5365 118.862 65.9141 119.039 66.3672 119.039C66.8255 119.039 67.2005 118.865 67.4922 118.516C67.7891 118.167 67.9375 117.607 67.9375 116.836C67.9375 116.117 67.7891 115.583 67.4922 115.234C67.1953 114.88 66.8281 114.703 66.3906 114.703C65.9271 114.703 65.5443 114.883 65.2422 115.242C64.9401 115.596 64.7891 116.138 64.7891 116.867ZM84.1641 121H81.4766V115.797L79.5078 121H77.5938L75.4609 115.797V121H72.7734V112.711H76.5703L78.5547 117.477L80.375 112.711H84.1641V121ZM95.4766 121H92.4688V116.922L89.3438 121H86.3203V112.711H89.3281V116.844L92.4844 112.711H95.4766V121ZM106.742 121H103.156L101.938 118.711C101.745 118.346 101.555 118.117 101.367 118.023C101.185 117.93 100.958 117.883 100.688 117.883V121H97.5078V112.711H100.688V115.703C100.948 115.677 101.141 115.591 101.266 115.445C101.391 115.299 101.57 114.979 101.805 114.484C102.044 113.99 102.258 113.628 102.445 113.398C102.633 113.169 102.872 112.997 103.164 112.883C103.456 112.768 103.82 112.695 104.258 112.664C104.695 112.633 105.346 112.617 106.211 112.617V114.875H106.07C105.643 114.875 105.318 114.893 105.094 114.93C104.87 114.961 104.69 115.031 104.555 115.141C104.419 115.25 104.263 115.474 104.086 115.812C103.909 116.151 103.76 116.388 103.641 116.523C103.526 116.654 103.354 116.742 103.125 116.789C103.568 116.831 103.909 116.927 104.148 117.078C104.388 117.224 104.75 117.701 105.234 118.508L106.742 121ZM110.688 115.391L107.648 115.07C107.763 114.539 107.927 114.122 108.141 113.82C108.359 113.513 108.672 113.247 109.078 113.023C109.37 112.862 109.771 112.737 110.281 112.648C110.792 112.56 111.344 112.516 111.938 112.516C112.891 112.516 113.656 112.57 114.234 112.68C114.812 112.784 115.294 113.005 115.68 113.344C115.951 113.578 116.164 113.911 116.32 114.344C116.477 114.771 116.555 115.18 116.555 115.57V119.234C116.555 119.625 116.578 119.932 116.625 120.156C116.677 120.375 116.786 120.656 116.953 121H113.969C113.849 120.786 113.771 120.625 113.734 120.516C113.698 120.401 113.661 120.224 113.625 119.984C113.208 120.385 112.794 120.672 112.383 120.844C111.82 121.073 111.167 121.188 110.422 121.188C109.432 121.188 108.68 120.958 108.164 120.5C107.654 120.042 107.398 119.477 107.398 118.805C107.398 118.174 107.583 117.656 107.953 117.25C108.323 116.844 109.005 116.542 110 116.344C111.193 116.104 111.966 115.938 112.32 115.844C112.674 115.745 113.049 115.617 113.445 115.461C113.445 115.07 113.365 114.797 113.203 114.641C113.042 114.484 112.758 114.406 112.352 114.406C111.831 114.406 111.44 114.49 111.18 114.656C110.977 114.786 110.812 115.031 110.688 115.391ZM113.445 117.062C113.008 117.219 112.552 117.357 112.078 117.477C111.432 117.648 111.023 117.818 110.852 117.984C110.674 118.156 110.586 118.352 110.586 118.57C110.586 118.82 110.672 119.026 110.844 119.188C111.021 119.344 111.279 119.422 111.617 119.422C111.971 119.422 112.299 119.336 112.602 119.164C112.909 118.992 113.125 118.784 113.25 118.539C113.38 118.289 113.445 117.966 113.445 117.57V117.062Z" fill="#FF41AF" /><path d="M101 57.1474V56.7427C101 51.2225 99.6456 46.3903 96.94 42.2524C94.2344 38.1115 90.3923 34.9046 85.4138 32.6317C84.7693 32.3391 84.0719 32.1149 83.3994 31.8596V19.8103H71.3564V29.3719C70.2386 29.3034 69.1302 29.2225 67.9595 29.2225C66.82 29.2225 65.7365 29.3034 64.6436 29.3719V19.8103H52.6006V31.8907C51.9561 32.1367 51.2867 32.3484 50.6671 32.6317C45.6886 34.9046 41.8341 38.124 39.1005 42.2929C36.3668 46.4588 35 51.2754 35 56.7427V57.1474C35 62.6147 36.3668 67.4313 39.1005 71.5972C41.8341 75.7662 45.6886 78.9731 50.6671 81.2179C51.2867 81.4981 51.9561 81.7067 52.6006 81.9527V94.002H64.6436V84.4404C65.7365 84.5089 66.82 84.5867 67.9595 84.5867C69.1302 84.5867 70.2386 84.5089 71.3564 84.4404V94.002H83.3994V81.9807C84.0719 81.7285 84.7693 81.5075 85.4138 81.2179C90.3923 78.9731 94.2344 75.7786 96.94 71.6408C99.6456 67.4998 101 62.6677 101 57.1474ZM84.3583 57.3934C84.3583 61.4503 83.032 64.4673 80.3793 66.4444C77.7297 68.4214 73.5887 69.4053 67.9595 69.4053C62.4922 69.4053 58.4073 68.4214 55.7017 66.4444C52.996 64.4673 51.6417 61.4503 51.6417 57.3934V56.5777C51.6417 52.5768 53.0209 49.5443 55.7826 47.4862C58.5443 45.4313 62.6012 44.4039 67.9595 44.4039C78.891 44.4039 84.3583 48.4608 84.3583 56.5777V57.3934Z" fill="#FF41AF" /></svg><svg width="136" height="136" viewBox="0 0 136 136" fill="none" xmlns="http://www.w3.org/2000/svg" x="272"><rect x="3" y="3" width="130" height="130" rx="11" fill="#F2F2F3" /><rect x="3" y="3" width="130" height="130" rx="11" stroke="#BB3B85" stroke-width="6" /><path d="M18.6562 115.367C18.9531 114.393 19.4688 113.677 20.2031 113.219C20.9375 112.755 21.9531 112.523 23.25 112.523C24.2135 112.523 25.0104 112.651 25.6406 112.906C26.2708 113.156 26.8359 113.609 27.3359 114.266C27.8411 114.917 28.0938 115.792 28.0938 116.891C28.0938 118.188 27.6979 119.229 26.9062 120.016C26.1146 120.802 24.8203 121.195 23.0234 121.195C20.5703 121.195 19.0599 120.154 18.4922 118.07L21.5234 117.734C21.7786 118.589 22.3438 119.016 23.2188 119.016C24.1094 119.016 24.6536 118.573 24.8516 117.688H22.3984V116.055H24.7969C24.5677 115.148 24.0182 114.695 23.1484 114.695C22.3151 114.695 21.8151 115.052 21.6484 115.766L18.6562 115.367ZM38.8672 121H35.2812L34.0625 118.711C33.8698 118.346 33.6797 118.117 33.4922 118.023C33.3099 117.93 33.0833 117.883 32.8125 117.883V121H29.6328V112.711H32.8125V115.703C33.0729 115.677 33.2656 115.591 33.3906 115.445C33.5156 115.299 33.6953 114.979 33.9297 114.484C34.1693 113.99 34.3828 113.628 34.5703 113.398C34.7578 113.169 34.9974 112.997 35.2891 112.883C35.5807 112.768 35.9453 112.695 36.3828 112.664C36.8203 112.633 37.4714 112.617 38.3359 112.617V114.875H38.1953C37.7682 114.875 37.4427 114.893 37.2188 114.93C36.9948 114.961 36.8151 115.031 36.6797 115.141C36.5443 115.25 36.388 115.474 36.2109 115.812C36.0339 116.151 35.8854 116.388 35.7656 116.523C35.651 116.654 35.4792 116.742 35.25 116.789C35.6927 116.831 36.0339 116.927 36.2734 117.078C36.513 117.224 36.875 117.701 37.3594 118.508L38.8672 121ZM39.5234 116.875C39.5234 115.609 39.9505 114.568 40.8047 113.75C41.6589 112.927 42.8125 112.516 44.2656 112.516C45.9271 112.516 47.1823 112.997 48.0312 113.961C48.7135 114.737 49.0547 115.693 49.0547 116.828C49.0547 118.104 48.6302 119.151 47.7812 119.969C46.9375 120.781 45.7682 121.188 44.2734 121.188C42.9401 121.188 41.862 120.849 41.0391 120.172C40.0286 119.333 39.5234 118.234 39.5234 116.875ZM42.7109 116.867C42.7109 117.607 42.8594 118.154 43.1562 118.508C43.4583 118.862 43.8359 119.039 44.2891 119.039C44.7474 119.039 45.1224 118.865 45.4141 118.516C45.7109 118.167 45.8594 117.607 45.8594 116.836C45.8594 116.117 45.7109 115.583 45.4141 115.234C45.1172 114.88 44.75 114.703 44.3125 114.703C43.849 114.703 43.4661 114.883 43.1641 115.242C42.862 115.596 42.7109 116.138 42.7109 116.867ZM59.9609 121H56.7734V117.867H53.8828V121H50.6953V112.711H53.8828V115.547H56.7734V112.711H59.9609V121ZM61.6016 116.875C61.6016 115.609 62.0286 114.568 62.8828 113.75C63.737 112.927 64.8906 112.516 66.3438 112.516C68.0052 112.516 69.2604 112.997 70.1094 113.961C70.7917 114.737 71.1328 115.693 71.1328 116.828C71.1328 118.104 70.7083 119.151 69.8594 119.969C69.0156 120.781 67.8464 121.188 66.3516 121.188C65.0182 121.188 63.9401 120.849 63.1172 120.172C62.1068 119.333 61.6016 118.234 61.6016 116.875ZM64.7891 116.867C64.7891 117.607 64.9375 118.154 65.2344 118.508C65.5365 118.862 65.9141 119.039 66.3672 119.039C66.8255 119.039 67.2005 118.865 67.4922 118.516C67.7891 118.167 67.9375 117.607 67.9375 116.836C67.9375 116.117 67.7891 115.583 67.4922 115.234C67.1953 114.88 66.8281 114.703 66.3906 114.703C65.9271 114.703 65.5443 114.883 65.2422 115.242C64.9401 115.596 64.7891 116.138 64.7891 116.867ZM84.1641 121H81.4766V115.797L79.5078 121H77.5938L75.4609 115.797V121H72.7734V112.711H76.5703L78.5547 117.477L80.375 112.711H84.1641V121ZM95.4766 121H92.4688V116.922L89.3438 121H86.3203V112.711H89.3281V116.844L92.4844 112.711H95.4766V121ZM106.742 121H103.156L101.938 118.711C101.745 118.346 101.555 118.117 101.367 118.023C101.185 117.93 100.958 117.883 100.688 117.883V121H97.5078V112.711H100.688V115.703C100.948 115.677 101.141 115.591 101.266 115.445C101.391 115.299 101.57 114.979 101.805 114.484C102.044 113.99 102.258 113.628 102.445 113.398C102.633 113.169 102.872 112.997 103.164 112.883C103.456 112.768 103.82 112.695 104.258 112.664C104.695 112.633 105.346 112.617 106.211 112.617V114.875H106.07C105.643 114.875 105.318 114.893 105.094 114.93C104.87 114.961 104.69 115.031 104.555 115.141C104.419 115.25 104.263 115.474 104.086 115.812C103.909 116.151 103.76 116.388 103.641 116.523C103.526 116.654 103.354 116.742 103.125 116.789C103.568 116.831 103.909 116.927 104.148 117.078C104.388 117.224 104.75 117.701 105.234 118.508L106.742 121ZM110.688 115.391L107.648 115.07C107.763 114.539 107.927 114.122 108.141 113.82C108.359 113.513 108.672 113.247 109.078 113.023C109.37 112.862 109.771 112.737 110.281 112.648C110.792 112.56 111.344 112.516 111.938 112.516C112.891 112.516 113.656 112.57 114.234 112.68C114.812 112.784 115.294 113.005 115.68 113.344C115.951 113.578 116.164 113.911 116.32 114.344C116.477 114.771 116.555 115.18 116.555 115.57V119.234C116.555 119.625 116.578 119.932 116.625 120.156C116.677 120.375 116.786 120.656 116.953 121H113.969C113.849 120.786 113.771 120.625 113.734 120.516C113.698 120.401 113.661 120.224 113.625 119.984C113.208 120.385 112.794 120.672 112.383 120.844C111.82 121.073 111.167 121.188 110.422 121.188C109.432 121.188 108.68 120.958 108.164 120.5C107.654 120.042 107.398 119.477 107.398 118.805C107.398 118.174 107.583 117.656 107.953 117.25C108.323 116.844 109.005 116.542 110 116.344C111.193 116.104 111.966 115.938 112.32 115.844C112.674 115.745 113.049 115.617 113.445 115.461C113.445 115.07 113.365 114.797 113.203 114.641C113.042 114.484 112.758 114.406 112.352 114.406C111.831 114.406 111.44 114.49 111.18 114.656C110.977 114.786 110.812 115.031 110.688 115.391ZM113.445 117.062C113.008 117.219 112.552 117.357 112.078 117.477C111.432 117.648 111.023 117.818 110.852 117.984C110.674 118.156 110.586 118.352 110.586 118.57C110.586 118.82 110.672 119.026 110.844 119.188C111.021 119.344 111.279 119.422 111.617 119.422C111.971 119.422 112.299 119.336 112.602 119.164C112.909 118.992 113.125 118.784 113.25 118.539C113.38 118.289 113.445 117.966 113.445 117.57V117.062Z" fill="#BB3B85" /><path d="M101 57.1474V56.7427C101 51.2225 99.6456 46.3903 96.94 42.2524C94.2344 38.1115 90.3923 34.9046 85.4138 32.6317C84.7693 32.3391 84.0719 32.1149 83.3994 31.8596V19.8103H71.3564V29.3719C70.2386 29.3034 69.1302 29.2225 67.9595 29.2225C66.82 29.2225 65.7365 29.3034 64.6436 29.3719V19.8103H52.6006V31.8907C51.9561 32.1367 51.2867 32.3484 50.6671 32.6317C45.6886 34.9046 41.8341 38.124 39.1005 42.2929C36.3668 46.4588 35 51.2754 35 56.7427V57.1474C35 62.6147 36.3668 67.4313 39.1005 71.5972C41.8341 75.7662 45.6886 78.9731 50.6671 81.2179C51.2867 81.4981 51.9561 81.7067 52.6006 81.9527V94.002H64.6436V84.4404C65.7365 84.5089 66.82 84.5867 67.9595 84.5867C69.1302 84.5867 70.2386 84.5089 71.3564 84.4404V94.002H83.3994V81.9807C84.0719 81.7285 84.7693 81.5075 85.4138 81.2179C90.3923 78.9731 94.2344 75.7786 96.94 71.6408C99.6456 67.4998 101 62.6677 101 57.1474ZM84.3583 57.3934C84.3583 61.4503 83.032 64.4673 80.3793 66.4444C77.7297 68.4214 73.5887 69.4053 67.9595 69.4053C62.4922 69.4053 58.4073 68.4214 55.7017 66.4444C52.996 64.4673 51.6417 61.4503 51.6417 57.3934V56.5777C51.6417 52.5768 53.0209 49.5443 55.7826 47.4862C58.5443 45.4313 62.6012 44.4039 67.9595 44.4039C78.891 44.4039 84.3583 48.4608 84.3583 56.5777V57.3934Z" fill="#BB3B85" /></svg></svg>