<svg xmlns="http://www.w3.org/2000/svg" viewBox="0 0 408 136"><svg width="136" height="136" viewBox="0 0 136 136" fill="none" xmlns="http://www.w3.org/2000/svg" x="0"><rect x="3" y="3" width="130" height="130" rx="11" fill="#FF41AF" /><rect x="3" y="3" width="130" height="130" rx="11" stroke="#FF41AF" stroke-width="6" /><path d="M7.46338 118.648C7.46338 117.62 7.81038 116.774 8.50439 116.109C9.1984 115.441 10.1357 115.106 11.3164 115.106C12.6663 115.106 13.6862 115.498 14.376 116.281C14.9303 116.911 15.2075 117.688 15.2075 118.61C15.2075 119.647 14.8626 120.498 14.1729 121.162C13.4873 121.822 12.5373 122.152 11.3228 122.152C10.2394 122.152 9.36344 121.877 8.69482 121.327C7.87386 120.646 7.46338 119.753 7.46338 118.648ZM10.0532 118.642C10.0532 119.243 10.1738 119.687 10.415 119.975C10.6605 120.263 10.9673 120.407 11.3354 120.407C11.7078 120.407 12.0125 120.265 12.2495 119.981C12.4907 119.698 12.6113 119.243 12.6113 118.617C12.6113 118.033 12.4907 117.599 12.2495 117.315C12.0083 117.028 11.71 116.884 11.3545 116.884C10.9779 116.884 10.6668 117.03 10.4214 117.322C10.1759 117.61 10.0532 118.05 10.0532 118.642ZM18.4514 115.462C18.7603 115.229 19.1856 115.113 19.7273 115.113C20.9926 115.113 21.9553 115.447 22.6155 116.116C23.2799 116.78 23.6121 117.61 23.6121 118.604C23.6121 119.59 23.282 120.43 22.6218 121.124C21.9659 121.814 21.0011 122.159 19.7273 122.159C18.4578 122.159 17.4993 121.812 16.8518 121.118C16.2044 120.419 15.8806 119.283 15.8806 117.709C15.8806 116.253 16.1599 115.077 16.7185 114.18C17.2771 113.283 18.0811 112.817 19.1306 112.783L19.9114 112.758C20.6096 112.728 20.9947 112.637 21.0667 112.485H23.117C23.117 113.716 22.4251 114.357 21.0413 114.408C20.106 114.442 19.4713 114.535 19.137 114.688C18.8027 114.836 18.5741 115.094 18.4514 115.462ZM19.74 120.388C20.1547 120.388 20.4721 120.235 20.6921 119.931C20.9164 119.626 21.0286 119.19 21.0286 118.623C21.0286 118.06 20.9143 117.629 20.6858 117.328C20.4573 117.028 20.1505 116.877 19.7654 116.877C19.338 116.877 19.0143 117.042 18.7942 117.373C18.5741 117.698 18.4641 118.124 18.4641 118.648C18.4641 119.194 18.572 119.622 18.7879 119.931C19.0079 120.235 19.3253 120.388 19.74 120.388ZM36.1997 123.923H34.4033V122H24.5645V115.265H27.148V120.115H28.5952V115.265H31.1787V120.115H32.6196V115.265H35.2095V120.115H36.1997V123.923ZM44.3313 119.271H39.1516C39.1982 119.685 39.3103 119.994 39.4881 120.197C39.7377 120.489 40.0636 120.635 40.4656 120.635C40.7195 120.635 40.9607 120.572 41.1892 120.445C41.3289 120.364 41.4791 120.223 41.6399 120.02L44.1853 120.254C43.796 120.931 43.3263 121.418 42.7762 121.714C42.226 122.006 41.4368 122.152 40.4085 122.152C39.5156 122.152 38.8131 122.028 38.3011 121.778C37.789 121.524 37.3637 121.124 37.0252 120.578C36.6909 120.028 36.5237 119.383 36.5237 118.642C36.5237 117.588 36.8601 116.736 37.533 116.084C38.2101 115.432 39.1432 115.106 40.3323 115.106C41.2971 115.106 42.0589 115.252 42.6175 115.544C43.1761 115.836 43.6013 116.26 43.8933 116.814C44.1853 117.368 44.3313 118.09 44.3313 118.979V119.271ZM41.7034 118.033C41.6526 117.533 41.5172 117.176 41.2971 116.96C41.0813 116.744 40.7957 116.636 40.4402 116.636C40.0297 116.636 39.7018 116.799 39.4563 117.125C39.2998 117.328 39.2003 117.631 39.158 118.033H41.7034ZM50.2857 119.366L52.7422 119.645C52.6068 120.157 52.3846 120.601 52.0757 120.978C51.7668 121.35 51.3711 121.64 50.8887 121.848C50.4105 122.055 49.8011 122.159 49.0606 122.159C48.3454 122.159 47.7487 122.093 47.2705 121.962C46.7966 121.826 46.3882 121.611 46.0454 121.314C45.7027 121.014 45.434 120.663 45.2393 120.261C45.0446 119.859 44.9473 119.326 44.9473 118.661C44.9473 117.967 45.0658 117.389 45.3028 116.928C45.4763 116.59 45.7133 116.287 46.0137 116.021C46.3142 115.75 46.6231 115.549 46.9405 115.417C47.444 115.21 48.0894 115.106 48.8765 115.106C49.9768 115.106 50.8147 115.303 51.3902 115.697C51.9699 116.09 52.3762 116.666 52.6089 117.423L50.1778 117.747C50.1016 117.459 49.962 117.243 49.7588 117.1C49.5599 116.951 49.2912 116.877 48.9527 116.877C48.5253 116.877 48.1783 117.032 47.9117 117.341C47.6493 117.646 47.5181 118.109 47.5181 118.731C47.5181 119.285 47.6493 119.706 47.9117 119.994C48.174 120.282 48.5083 120.426 48.9146 120.426C49.2531 120.426 49.5367 120.339 49.7652 120.166C49.9979 119.992 50.1714 119.725 50.2857 119.366ZM59.3504 117.15H57.4778V122H54.888V117.15H53.0154V115.265H59.3504V117.15ZM65.0953 118.414C65.6073 118.464 66.0136 118.634 66.314 118.921C66.6187 119.209 66.7711 119.594 66.7711 120.077C66.7711 120.72 66.5595 121.202 66.1363 121.524C65.7131 121.841 64.9535 122 63.8575 122H60.0108V115.265H64.1685C64.9218 115.265 65.4952 115.409 65.8887 115.697C66.2865 115.985 66.4854 116.387 66.4854 116.903C66.4854 117.267 66.3563 117.584 66.0982 117.855C65.8401 118.122 65.5058 118.299 65.0953 118.388V118.414ZM62.5943 117.83H63.2481C63.6797 117.83 63.8956 117.633 63.8956 117.239C63.8956 116.922 63.667 116.763 63.21 116.763H62.5943V117.83ZM62.5943 120.413H63.4449C63.6565 120.413 63.8279 120.364 63.959 120.267C64.0902 120.17 64.1558 120.028 64.1558 119.842C64.1558 119.436 63.9188 119.232 63.4449 119.232H62.5943V120.413ZM67.4315 118.648C67.4315 117.62 67.7785 116.774 68.4725 116.109C69.1665 115.441 70.1038 115.106 71.2845 115.106C72.6344 115.106 73.6543 115.498 74.3441 116.281C74.8984 116.911 75.1756 117.688 75.1756 118.61C75.1756 119.647 74.8307 120.498 74.1409 121.162C73.4554 121.822 72.5054 122.152 71.2908 122.152C70.2075 122.152 69.3315 121.877 68.6629 121.327C67.8419 120.646 67.4315 119.753 67.4315 118.648ZM70.0213 118.642C70.0213 119.243 70.1419 119.687 70.3831 119.975C70.6286 120.263 70.9354 120.407 71.3035 120.407C71.6759 120.407 71.9806 120.265 72.2176 119.981C72.4588 119.698 72.5794 119.243 72.5794 118.617C72.5794 118.033 72.4588 117.599 72.2176 117.315C71.9764 117.028 71.678 116.884 71.3226 116.884C70.946 116.884 70.6349 117.03 70.3895 117.322C70.144 117.61 70.0213 118.05 70.0213 118.642ZM82.3995 118.515C82.8015 118.642 83.121 118.841 83.358 119.112C83.595 119.378 83.7135 119.675 83.7135 120C83.7135 120.703 83.377 121.238 82.7042 121.606C82.0313 121.975 81.0496 122.159 79.7589 122.159C78.6755 122.159 77.8228 121.96 77.2008 121.562C76.5829 121.16 76.1365 120.557 75.8614 119.753L78.3179 119.48C78.4026 119.717 78.5761 119.929 78.8385 120.115C79.1051 120.297 79.4076 120.388 79.7462 120.388C80.6137 120.388 81.0474 120.172 81.0474 119.74C81.0474 119.592 80.9649 119.474 80.7999 119.385C80.6348 119.292 80.419 119.245 80.1524 119.245H79.0289V117.918H80.1778C80.4021 117.918 80.6073 117.872 80.7935 117.779C80.9797 117.686 81.0728 117.567 81.0728 117.423C81.0728 117.263 80.9628 117.131 80.7428 117.03C80.5269 116.928 80.2244 116.877 79.835 116.877C79.4542 116.877 79.1326 116.958 78.8702 117.119C78.6078 117.275 78.4407 117.464 78.3687 117.684L75.9884 117.36C76.2211 116.594 76.6464 116.029 77.2642 115.665C77.8821 115.297 78.7348 115.113 79.8223 115.113C80.9522 115.113 81.8367 115.297 82.4757 115.665C83.1189 116.033 83.4405 116.499 83.4405 117.062C83.4405 117.739 83.0935 118.223 82.3995 118.515ZM92.3402 122H89.7503V119.455H87.4017V122H84.8119V115.265H87.4017V117.569H89.7503V115.265H92.3402V122ZM96.0855 117.442L93.6163 117.182C93.7094 116.75 93.8427 116.412 94.0162 116.167C94.1939 115.917 94.4479 115.701 94.7779 115.519C95.0149 115.388 95.3408 115.286 95.7555 115.214C96.1702 115.142 96.6188 115.106 97.1012 115.106C97.8756 115.106 98.4977 115.151 98.9674 115.24C99.4371 115.324 99.8285 115.504 100.142 115.779C100.362 115.97 100.535 116.241 100.662 116.592C100.789 116.939 100.853 117.271 100.853 117.588V120.565C100.853 120.883 100.872 121.132 100.91 121.314C100.952 121.492 101.041 121.721 101.176 122H98.7516C98.6542 121.826 98.5908 121.695 98.5611 121.606C98.5315 121.513 98.5019 121.369 98.4723 121.175C98.1337 121.501 97.7973 121.733 97.463 121.873C97.006 122.059 96.4749 122.152 95.8697 122.152C95.0657 122.152 94.4542 121.966 94.0353 121.594C93.6205 121.221 93.4132 120.762 93.4132 120.216C93.4132 119.704 93.5634 119.283 93.8639 118.953C94.1643 118.623 94.7187 118.378 95.527 118.217C96.496 118.022 97.1244 117.887 97.4122 117.811C97.7 117.73 98.0047 117.626 98.3263 117.5C98.3263 117.182 98.2607 116.96 98.1295 116.833C97.9983 116.706 97.7677 116.643 97.4376 116.643C97.0144 116.643 96.697 116.71 96.4855 116.846C96.3204 116.951 96.1871 117.15 96.0855 117.442ZM98.3263 118.801C97.9708 118.928 97.6005 119.04 97.2154 119.137C96.6907 119.277 96.3585 119.414 96.2188 119.55C96.075 119.689 96.003 119.848 96.003 120.026C96.003 120.229 96.0729 120.396 96.2125 120.527C96.3564 120.654 96.5659 120.718 96.8409 120.718C97.1287 120.718 97.3953 120.648 97.6407 120.508C97.8904 120.369 98.066 120.199 98.1676 120C98.2734 119.797 98.3263 119.535 98.3263 119.213V118.801ZM109.759 122H107.169V119.455H104.82V122H102.23V115.265H104.82V117.569H107.169V115.265H109.759V122ZM118.677 122H116.234V118.687L113.694 122H111.238V115.265H113.682V118.623L116.246 115.265H118.677V122ZM127.552 119.271H122.372C122.419 119.685 122.531 119.994 122.708 120.197C122.958 120.489 123.284 120.635 123.686 120.635C123.94 120.635 124.181 120.572 124.41 120.445C124.549 120.364 124.699 120.223 124.86 120.02L127.406 120.254C127.016 120.931 126.547 121.418 125.996 121.714C125.446 122.006 124.657 122.152 123.629 122.152C122.736 122.152 122.033 122.028 121.521 121.778C121.009 121.524 120.584 121.124 120.245 120.578C119.911 120.028 119.744 119.383 119.744 118.642C119.744 117.588 120.08 116.736 120.753 116.084C121.43 115.432 122.363 115.106 123.553 115.106C124.517 115.106 125.279 115.252 125.838 115.544C126.396 115.836 126.822 116.26 127.114 116.814C127.406 117.368 127.552 118.09 127.552 118.979V119.271ZM124.924 118.033C124.873 117.533 124.738 117.176 124.517 116.96C124.302 116.744 124.016 116.636 123.661 116.636C123.25 116.636 122.922 116.799 122.677 117.125C122.52 117.328 122.421 117.631 122.378 118.033H124.924Z" fill="#F0F0F0" /><path d="M53.2561 44.0355V62.1465L67.705 75.9402L113 25.0002H95.3973L66.9659 57.1198L53.2561 44.0355Z" fill="#F0F0F0" /><path d="M89.4645 78.0371H45.7159V40.6185H74.2549L84.4951 28.7236H33V90H102.765V45.6917L89.4645 60.6964V78.0371Z" fill="#F0F0F0" /></svg><svg width="136" height="136" viewBox="0 0 136 136" fill="none" xmlns="http://www.w3.org/2000/svg" x="136"><rect x="3" y="3" width="130" height="130" rx="11" fill="#F0F0F0" /><rect x="3" y="3" width="130" height="130" rx="11" stroke="#FF41AF" stroke-width="6" /><path d="M7.46338 118.648C7.46338 117.62 7.81038 116.774 8.50439 116.109C9.1984 115.441 10.1357 115.106 11.3164 115.106C12.6663 115.106 13.6862 115.498 14.376 116.281C14.9303 116.911 15.2075 117.688 15.2075 118.61C15.2075 119.647 14.8626 120.498 14.1729 121.162C13.4873 121.822 12.5373 122.152 11.3228 122.152C10.2394 122.152 9.36344 121.877 8.69482 121.327C7.87386 120.646 7.46338 119.753 7.46338 118.648ZM10.0532 118.642C10.0532 119.243 10.1738 119.687 10.415 119.975C10.6605 120.263 10.9673 120.407 11.3354 120.407C11.7078 120.407 12.0125 120.265 12.2495 119.981C12.4907 119.698 12.6113 119.243 12.6113 118.617C12.6113 118.033 12.4907 117.599 12.2495 117.315C12.0083 117.028 11.71 116.884 11.3545 116.884C10.9779 116.884 10.6668 117.03 10.4214 117.322C10.1759 117.61 10.0532 118.05 10.0532 118.642ZM18.4514 115.462C18.7603 115.229 19.1856 115.113 19.7273 115.113C20.9926 115.113 21.9553 115.447 22.6155 116.116C23.2799 116.78 23.6121 117.61 23.6121 118.604C23.6121 119.59 23.282 120.43 22.6218 121.124C21.9659 121.814 21.0011 122.159 19.7273 122.159C18.4578 122.159 17.4993 121.812 16.8518 121.118C16.2044 120.419 15.8806 119.283 15.8806 117.709C15.8806 116.253 16.1599 115.077 16.7185 114.18C17.2771 113.283 18.0811 112.817 19.1306 112.783L19.9114 112.758C20.6096 112.728 20.9947 112.637 21.0667 112.485H23.117C23.117 113.716 22.4251 114.357 21.0413 114.408C20.106 114.442 19.4713 114.535 19.137 114.688C18.8027 114.836 18.5741 115.094 18.4514 115.462ZM19.74 120.388C20.1547 120.388 20.4721 120.235 20.6921 119.931C20.9164 119.626 21.0286 119.19 21.0286 118.623C21.0286 118.06 20.9143 117.629 20.6858 117.328C20.4573 117.028 20.1505 116.877 19.7654 116.877C19.338 116.877 19.0143 117.042 18.7942 117.373C18.5741 117.698 18.4641 118.124 18.4641 118.648C18.4641 119.194 18.572 119.622 18.7879 119.931C19.0079 120.235 19.3253 120.388 19.74 120.388ZM36.1997 123.923H34.4033V122H24.5645V115.265H27.148V120.115H28.5952V115.265H31.1787V120.115H32.6196V115.265H35.2095V120.115H36.1997V123.923ZM44.3313 119.271H39.1516C39.1982 119.685 39.3103 119.994 39.4881 120.197C39.7377 120.489 40.0636 120.635 40.4656 120.635C40.7195 120.635 40.9607 120.572 41.1892 120.445C41.3289 120.364 41.4791 120.223 41.6399 120.02L44.1853 120.254C43.796 120.931 43.3263 121.418 42.7762 121.714C42.226 122.006 41.4368 122.152 40.4085 122.152C39.5156 122.152 38.8131 122.028 38.3011 121.778C37.789 121.524 37.3637 121.124 37.0252 120.578C36.6909 120.028 36.5237 119.383 36.5237 118.642C36.5237 117.588 36.8601 116.736 37.533 116.084C38.2101 115.432 39.1432 115.106 40.3323 115.106C41.2971 115.106 42.0589 115.252 42.6175 115.544C43.1761 115.836 43.6013 116.26 43.8933 116.814C44.1853 117.368 44.3313 118.09 44.3313 118.979V119.271ZM41.7034 118.033C41.6526 117.533 41.5172 117.176 41.2971 116.96C41.0813 116.744 40.7957 116.636 40.4402 116.636C40.0297 116.636 39.7018 116.799 39.4563 117.125C39.2998 117.328 39.2003 117.631 39.158 118.033H41.7034ZM50.2857 119.366L52.7422 119.645C52.6068 120.157 52.3846 120.601 52.0757 120.978C51.7668 121.35 51.3711 121.64 50.8887 121.848C50.4105 122.055 49.8011 122.159 49.0606 122.159C48.3454 122.159 47.7487 122.093 47.2705 121.962C46.7966 121.826 46.3882 121.611 46.0454 121.314C45.7027 121.014 45.434 120.663 45.2393 120.261C45.0446 119.859 44.9473 119.326 44.9473 118.661C44.9473 117.967 45.0658 117.389 45.3028 116.928C45.4763 116.59 45.7133 116.287 46.0137 116.021C46.3142 115.75 46.6231 115.549 46.9405 115.417C47.444 115.21 48.0894 115.106 48.8765 115.106C49.9768 115.106 50.8147 115.303 51.3902 115.697C51.9699 116.09 52.3762 116.666 52.6089 117.423L50.1778 117.747C50.1016 117.459 49.962 117.243 49.7588 117.1C49.5599 116.951 49.2912 116.877 48.9527 116.877C48.5253 116.877 48.1783 117.032 47.9117 117.341C47.6493 117.646 47.5181 118.109 47.5181 118.731C47.5181 119.285 47.6493 119.706 47.9117 119.994C48.174 120.282 48.5083 120.426 48.9146 120.426C49.2531 120.426 49.5367 120.339 49.7652 120.166C49.9979 119.992 50.1714 119.725 50.2857 119.366ZM59.3504 117.15H57.4778V122H54.888V117.15H53.0154V115.265H59.3504V117.15ZM65.0953 118.414C65.6073 118.464 66.0136 118.634 66.314 118.921C66.6187 119.209 66.7711 119.594 66.7711 120.077C66.7711 120.72 66.5595 121.202 66.1363 121.524C65.7131 121.841 64.9535 122 63.8575 122H60.0108V115.265H64.1685C64.9218 115.265 65.4952 115.409 65.8887 115.697C66.2865 115.985 66.4854 116.387 66.4854 116.903C66.4854 117.267 66.3563 117.584 66.0982 117.855C65.8401 118.122 65.5058 118.299 65.0953 118.388V118.414ZM62.5943 117.83H63.2481C63.6797 117.83 63.8956 117.633 63.8956 117.239C63.8956 116.922 63.667 116.763 63.21 116.763H62.5943V117.83ZM62.5943 120.413H63.4449C63.6565 120.413 63.8279 120.364 63.959 120.267C64.0902 120.17 64.1558 120.028 64.1558 119.842C64.1558 119.436 63.9188 119.232 63.4449 119.232H62.5943V120.413ZM67.4315 118.648C67.4315 117.62 67.7785 116.774 68.4725 116.109C69.1665 115.441 70.1038 115.106 71.2845 115.106C72.6344 115.106 73.6543 115.498 74.3441 116.281C74.8984 116.911 75.1756 117.688 75.1756 118.61C75.1756 119.647 74.8307 120.498 74.1409 121.162C73.4554 121.822 72.5054 122.152 71.2908 122.152C70.2075 122.152 69.3315 121.877 68.6629 121.327C67.8419 120.646 67.4315 119.753 67.4315 118.648ZM70.0213 118.642C70.0213 119.243 70.1419 119.687 70.3831 119.975C70.6286 120.263 70.9354 120.407 71.3035 120.407C71.6759 120.407 71.9806 120.265 72.2176 119.981C72.4588 119.698 72.5794 119.243 72.5794 118.617C72.5794 118.033 72.4588 117.599 72.2176 117.315C71.9764 117.028 71.678 116.884 71.3226 116.884C70.946 116.884 70.6349 117.03 70.3895 117.322C70.144 117.61 70.0213 118.05 70.0213 118.642ZM82.3995 118.515C82.8015 118.642 83.121 118.841 83.358 119.112C83.595 119.378 83.7135 119.675 83.7135 120C83.7135 120.703 83.377 121.238 82.7042 121.606C82.0313 121.975 81.0496 122.159 79.7589 122.159C78.6755 122.159 77.8228 121.96 77.2008 121.562C76.5829 121.16 76.1365 120.557 75.8614 119.753L78.3179 119.48C78.4026 119.717 78.5761 119.929 78.8385 120.115C79.1051 120.297 79.4076 120.388 79.7462 120.388C80.6137 120.388 81.0474 120.172 81.0474 119.74C81.0474 119.592 80.9649 119.474 80.7999 119.385C80.6348 119.292 80.419 119.245 80.1524 119.245H79.0289V117.918H80.1778C80.4021 117.918 80.6073 117.872 80.7935 117.779C80.9797 117.686 81.0728 117.567 81.0728 117.423C81.0728 117.263 80.9628 117.131 80.7428 117.03C80.5269 116.928 80.2244 116.877 79.835 116.877C79.4542 116.877 79.1326 116.958 78.8702 117.119C78.6078 117.275 78.4407 117.464 78.3687 117.684L75.9884 117.36C76.2211 116.594 76.6464 116.029 77.2642 115.665C77.8821 115.297 78.7348 115.113 79.8223 115.113C80.9522 115.113 81.8367 115.297 82.4757 115.665C83.1189 116.033 83.4405 116.499 83.4405 117.062C83.4405 117.739 83.0935 118.223 82.3995 118.515ZM92.3402 122H89.7503V119.455H87.4017V122H84.8119V115.265H87.4017V117.569H89.7503V115.265H92.3402V122ZM96.0855 117.442L93.6163 117.182C93.7094 116.75 93.8427 116.412 94.0162 116.167C94.1939 115.917 94.4479 115.701 94.7779 115.519C95.0149 115.388 95.3408 115.286 95.7555 115.214C96.1702 115.142 96.6188 115.106 97.1012 115.106C97.8756 115.106 98.4977 115.151 98.9674 115.24C99.4371 115.324 99.8285 115.504 100.142 115.779C100.362 115.97 100.535 116.241 100.662 116.592C100.789 116.939 100.853 117.271 100.853 117.588V120.565C100.853 120.883 100.872 121.132 100.91 121.314C100.952 121.492 101.041 121.721 101.176 122H98.7516C98.6542 121.826 98.5908 121.695 98.5611 121.606C98.5315 121.513 98.5019 121.369 98.4723 121.175C98.1337 121.501 97.7973 121.733 97.463 121.873C97.006 122.059 96.4749 122.152 95.8697 122.152C95.0657 122.152 94.4542 121.966 94.0353 121.594C93.6205 121.221 93.4132 120.762 93.4132 120.216C93.4132 119.704 93.5634 119.283 93.8639 118.953C94.1643 118.623 94.7187 118.378 95.527 118.217C96.496 118.022 97.1244 117.887 97.4122 117.811C97.7 117.73 98.0047 117.626 98.3263 117.5C98.3263 117.182 98.2607 116.96 98.1295 116.833C97.9983 116.706 97.7677 116.643 97.4376 116.643C97.0144 116.643 96.697 116.71 96.4855 116.846C96.3204 116.951 96.1871 117.15 96.0855 117.442ZM98.3263 118.801C97.9708 118.928 97.6005 119.04 97.2154 119.137C96.6907 119.277 96.3585 119.414 96.2188 119.55C96.075 119.689 96.003 119.848 96.003 120.026C96.003 120.229 96.0729 120.396 96.2125 120.527C96.3564 120.654 96.5659 120.718 96.8409 120.718C97.1287 120.718 97.3953 120.648 97.6407 120.508C97.8904 120.369 98.066 120.199 98.1676 120C98.2734 119.797 98.3263 119.535 98.3263 119.213V118.801ZM109.759 122H107.169V119.455H104.82V122H102.23V115.265H104.82V117.569H107.169V115.265H109.759V122ZM118.677 122H116.234V118.687L113.694 122H111.238V115.265H113.682V118.623L116.246 115.265H118.677V122ZM127.552 119.271H122.372C122.419 119.685 122.531 119.994 122.708 120.197C122.958 120.489 123.284 120.635 123.686 120.635C123.94 120.635 124.181 120.572 124.41 120.445C124.549 120.364 124.699 120.223 124.86 120.02L127.406 120.254C127.016 120.931 126.547 121.418 125.996 121.714C125.446 122.006 124.657 122.152 123.629 122.152C122.736 122.152 122.033 122.028 121.521 121.778C121.009 121.524 120.584 121.124 120.245 120.578C119.911 120.028 119.744 119.383 119.744 118.642C119.744 117.588 120.08 116.736 120.753 116.084C121.43 115.432 122.363 115.106 123.553 115.106C124.517 115.106 125.279 115.252 125.838 115.544C126.396 115.836 126.822 116.26 127.114 116.814C127.406 117.368 127.552 118.09 127.552 118.979V119.271ZM124.924 118.033C124.873 117.533 124.738 117.176 124.517 116.96C124.302 116.744 124.016 116.636 123.661 116.636C123.25 116.636 122.922 116.799 122.677 117.125C122.52 117.328 122.421 117.631 122.378 118.033H124.924Z" fill="#FF41AF" /><path d="M53.2561 44.0354V62.1463L67.705 75.9401L113 25H95.3973L66.9659 57.1197L53.2561 44.0354Z" fill="#FF41AF" /><path d="M89.4645 78.0371H45.7159V40.6185H74.2549L84.4951 28.7236H33V90H102.765V45.6917L89.4645 60.6964V78.0371Z" fill="#FF41AF" /></svg><svg width="136" height="136" viewBox="0 0 136 136" fill="none" xmlns="http://www.w3.org/2000/svg" x="272"><rect x="3" y="3" width="130" height="130" rx="11" fill="#F0F0F0" /><rect x="3" y="3" width="130" height="130" rx="11" stroke="#BB3B85" stroke-width="6" /><path d="M7.46338 118.648C7.46338 117.62 7.81038 116.774 8.50439 116.109C9.1984 115.441 10.1357 115.106 11.3164 115.106C12.6663 115.106 13.6862 115.498 14.376 116.281C14.9303 116.911 15.2075 117.688 15.2075 118.61C15.2075 119.647 14.8626 120.498 14.1729 121.162C13.4873 121.822 12.5373 122.152 11.3228 122.152C10.2394 122.152 9.36344 121.877 8.69482 121.327C7.87386 120.646 7.46338 119.753 7.46338 118.648ZM10.0532 118.642C10.0532 119.243 10.1738 119.687 10.415 119.975C10.6605 120.263 10.9673 120.407 11.3354 120.407C11.7078 120.407 12.0125 120.265 12.2495 119.981C12.4907 119.698 12.6113 119.243 12.6113 118.617C12.6113 118.033 12.4907 117.599 12.2495 117.315C12.0083 117.028 11.71 116.884 11.3545 116.884C10.9779 116.884 10.6668 117.03 10.4214 117.322C10.1759 117.61 10.0532 118.05 10.0532 118.642ZM18.4514 115.462C18.7603 115.229 19.1856 115.113 19.7273 115.113C20.9926 115.113 21.9553 115.447 22.6155 116.116C23.2799 116.78 23.6121 117.61 23.6121 118.604C23.6121 119.59 23.282 120.43 22.6218 121.124C21.9659 121.814 21.0011 122.159 19.7273 122.159C18.4578 122.159 17.4993 121.812 16.8518 121.118C16.2044 120.419 15.8806 119.283 15.8806 117.709C15.8806 116.253 16.1599 115.077 16.7185 114.18C17.2771 113.283 18.0811 112.817 19.1306 112.783L19.9114 112.758C20.6096 112.728 20.9947 112.637 21.0667 112.485H23.117C23.117 113.716 22.4251 114.357 21.0413 114.408C20.106 114.442 19.4713 114.535 19.137 114.688C18.8027 114.836 18.5741 115.094 18.4514 115.462ZM19.74 120.388C20.1547 120.388 20.4721 120.235 20.6921 119.931C20.9164 119.626 21.0286 119.19 21.0286 118.623C21.0286 118.06 20.9143 117.629 20.6858 117.328C20.4573 117.028 20.1505 116.877 19.7654 116.877C19.338 116.877 19.0143 117.042 18.7942 117.373C18.5741 117.698 18.4641 118.124 18.4641 118.648C18.4641 119.194 18.572 119.622 18.7879 119.931C19.0079 120.235 19.3253 120.388 19.74 120.388ZM36.1997 123.923H34.4033V122H24.5645V115.265H27.148V120.115H28.5952V115.265H31.1787V120.115H32.6196V115.265H35.2095V120.115H36.1997V123.923ZM44.3313 119.271H39.1516C39.1982 119.685 39.3103 119.994 39.4881 120.197C39.7377 120.489 40.0636 120.635 40.4656 120.635C40.7195 120.635 40.9607 120.572 41.1892 120.445C41.3289 120.364 41.4791 120.223 41.6399 120.02L44.1853 120.254C43.796 120.931 43.3263 121.418 42.7762 121.714C42.226 122.006 41.4368 122.152 40.4085 122.152C39.5156 122.152 38.8131 122.028 38.3011 121.778C37.789 121.524 37.3637 121.124 37.0252 120.578C36.6909 120.028 36.5237 119.383 36.5237 118.642C36.5237 117.588 36.8601 116.736 37.533 116.084C38.2101 115.432 39.1432 115.106 40.3323 115.106C41.2971 115.106 42.0589 115.252 42.6175 115.544C43.1761 115.836 43.6013 116.26 43.8933 116.814C44.1853 117.368 44.3313 118.09 44.3313 118.979V119.271ZM41.7034 118.033C41.6526 117.533 41.5172 117.176 41.2971 116.96C41.0813 116.744 40.7957 116.636 40.4402 116.636C40.0297 116.636 39.7018 116.799 39.4563 117.125C39.2998 117.328 39.2003 117.631 39.158 118.033H41.7034ZM50.2857 119.366L52.7422 119.645C52.6068 120.157 52.3846 120.601 52.0757 120.978C51.7668 121.35 51.3711 121.64 50.8887 121.848C50.4105 122.055 49.8011 122.159 49.0606 122.159C48.3454 122.159 47.7487 122.093 47.2705 121.962C46.7966 121.826 46.3882 121.611 46.0454 121.314C45.7027 121.014 45.434 120.663 45.2393 120.261C45.0446 119.859 44.9473 119.326 44.9473 118.661C44.9473 117.967 45.0658 117.389 45.3028 116.928C45.4763 116.59 45.7133 116.287 46.0137 116.021C46.3142 115.75 46.6231 115.549 46.9405 115.417C47.444 115.21 48.0894 115.106 48.8765 115.106C49.9768 115.106 50.8147 115.303 51.3902 115.697C51.9699 116.09 52.3762 116.666 52.6089 117.423L50.1778 117.747C50.1016 117.459 49.962 117.243 49.7588 117.1C49.5599 116.951 49.2912 116.877 48.9527 116.877C48.5253 116.877 48.1783 117.032 47.9117 117.341C47.6493 117.646 47.5181 118.109 47.5181 118.731C47.5181 119.285 47.6493 119.706 47.9117 119.994C48.174 120.282 48.5083 120.426 48.9146 120.426C49.2531 120.426 49.5367 120.339 49.7652 120.166C49.9979 119.992 50.1714 119.725 50.2857 119.366ZM59.3504 117.15H57.4778V122H54.888V117.15H53.0154V115.265H59.3504V117.15ZM65.0953 118.414C65.6073 118.464 66.0136 118.634 66.314 118.921C66.6187 119.209 66.7711 119.594 66.7711 120.077C66.7711 120.72 66.5595 121.202 66.1363 121.524C65.7131 121.841 64.9535 122 63.8575 122H60.0108V115.265H64.1685C64.9218 115.265 65.4952 115.409 65.8887 115.697C66.2865 115.985 66.4854 116.387 66.4854 116.903C66.4854 117.267 66.3563 117.584 66.0982 117.855C65.8401 118.122 65.5058 118.299 65.0953 118.388V118.414ZM62.5943 117.83H63.2481C63.6797 117.83 63.8956 117.633 63.8956 117.239C63.8956 116.922 63.667 116.763 63.21 116.763H62.5943V117.83ZM62.5943 120.413H63.4449C63.6565 120.413 63.8279 120.364 63.959 120.267C64.0902 120.17 64.1558 120.028 64.1558 119.842C64.1558 119.436 63.9188 119.232 63.4449 119.232H62.5943V120.413ZM67.4315 118.648C67.4315 117.62 67.7785 116.774 68.4725 116.109C69.1665 115.441 70.1038 115.106 71.2845 115.106C72.6344 115.106 73.6543 115.498 74.3441 116.281C74.8984 116.911 75.1756 117.688 75.1756 118.61C75.1756 119.647 74.8307 120.498 74.1409 121.162C73.4554 121.822 72.5054 122.152 71.2908 122.152C70.2075 122.152 69.3315 121.877 68.6629 121.327C67.8419 120.646 67.4315 119.753 67.4315 118.648ZM70.0213 118.642C70.0213 119.243 70.1419 119.687 70.3831 119.975C70.6286 120.263 70.9354 120.407 71.3035 120.407C71.6759 120.407 71.9806 120.265 72.2176 119.981C72.4588 119.698 72.5794 119.243 72.5794 118.617C72.5794 118.033 72.4588 117.599 72.2176 117.315C71.9764 117.028 71.678 116.884 71.3226 116.884C70.946 116.884 70.6349 117.03 70.3895 117.322C70.144 117.61 70.0213 118.05 70.0213 118.642ZM82.3995 118.515C82.8015 118.642 83.121 118.841 83.358 119.112C83.595 119.378 83.7135 119.675 83.7135 120C83.7135 120.703 83.377 121.238 82.7042 121.606C82.0313 121.975 81.0496 122.159 79.7589 122.159C78.6755 122.159 77.8228 121.96 77.2008 121.562C76.5829 121.16 76.1365 120.557 75.8614 119.753L78.3179 119.48C78.4026 119.717 78.5761 119.929 78.8385 120.115C79.1051 120.297 79.4076 120.388 79.7462 120.388C80.6137 120.388 81.0474 120.172 81.0474 119.74C81.0474 119.592 80.9649 119.474 80.7999 119.385C80.6348 119.292 80.419 119.245 80.1524 119.245H79.0289V117.918H80.1778C80.4021 117.918 80.6073 117.872 80.7935 117.779C80.9797 117.686 81.0728 117.567 81.0728 117.423C81.0728 117.263 80.9628 117.131 80.7428 117.03C80.5269 116.928 80.2244 116.877 79.835 116.877C79.4542 116.877 79.1326 116.958 78.8702 117.119C78.6078 117.275 78.4407 117.464 78.3687 117.684L75.9884 117.36C76.2211 116.594 76.6464 116.029 77.2642 115.665C77.8821 115.297 78.7348 115.113 79.8223 115.113C80.9522 115.113 81.8367 115.297 82.4757 115.665C83.1189 116.033 83.4405 116.499 83.4405 117.062C83.4405 117.739 83.0935 118.223 82.3995 118.515ZM92.3402 122H89.7503V119.455H87.4017V122H84.8119V115.265H87.4017V117.569H89.7503V115.265H92.3402V122ZM96.0855 117.442L93.6163 117.182C93.7094 116.75 93.8427 116.412 94.0162 116.167C94.1939 115.917 94.4479 115.701 94.7779 115.519C95.0149 115.388 95.3408 115.286 95.7555 115.214C96.1702 115.142 96.6188 115.106 97.1012 115.106C97.8756 115.106 98.4977 115.151 98.9674 115.24C99.4371 115.324 99.8285 115.504 100.142 115.779C100.362 115.97 100.535 116.241 100.662 116.592C100.789 116.939 100.853 117.271 100.853 117.588V120.565C100.853 120.883 100.872 121.132 100.91 121.314C100.952 121.492 101.041 121.721 101.176 122H98.7516C98.6542 121.826 98.5908 121.695 98.5611 121.606C98.5315 121.513 98.5019 121.369 98.4723 121.175C98.1337 121.501 97.7973 121.733 97.463 121.873C97.006 122.059 96.4749 122.152 95.8697 122.152C95.0657 122.152 94.4542 121.966 94.0353 121.594C93.6205 121.221 93.4132 120.762 93.4132 120.216C93.4132 119.704 93.5634 119.283 93.8639 118.953C94.1643 118.623 94.7187 118.378 95.527 118.217C96.496 118.022 97.1244 117.887 97.4122 117.811C97.7 117.73 98.0047 117.626 98.3263 117.5C98.3263 117.182 98.2607 116.96 98.1295 116.833C97.9983 116.706 97.7677 116.643 97.4376 116.643C97.0144 116.643 96.697 116.71 96.4855 116.846C96.3204 116.951 96.1871 117.15 96.0855 117.442ZM98.3263 118.801C97.9708 118.928 97.6005 119.04 97.2154 119.137C96.6907 119.277 96.3585 119.414 96.2188 119.55C96.075 119.689 96.003 119.848 96.003 120.026C96.003 120.229 96.0729 120.396 96.2125 120.527C96.3564 120.654 96.5659 120.718 96.8409 120.718C97.1287 120.718 97.3953 120.648 97.6407 120.508C97.8904 120.369 98.066 120.199 98.1676 120C98.2734 119.797 98.3263 119.535 98.3263 119.213V118.801ZM109.759 122H107.169V119.455H104.82V122H102.23V115.265H104.82V117.569H107.169V115.265H109.759V122ZM118.677 122H116.234V118.687L113.694 122H111.238V115.265H113.682V118.623L116.246 115.265H118.677V122ZM127.552 119.271H122.372C122.419 119.685 122.531 119.994 122.708 120.197C122.958 120.489 123.284 120.635 123.686 120.635C123.94 120.635 124.181 120.572 124.41 120.445C124.549 120.364 124.699 120.223 124.86 120.02L127.406 120.254C127.016 120.931 126.547 121.418 125.996 121.714C125.446 122.006 124.657 122.152 123.629 122.152C122.736 122.152 122.033 122.028 121.521 121.778C121.009 121.524 120.584 121.124 120.245 120.578C119.911 120.028 119.744 119.383 119.744 118.642C119.744 117.588 120.08 116.736 120.753 116.084C121.43 115.432 122.363 115.106 123.553 115.106C124.517 115.106 125.279 115.252 125.838 115.544C126.396 115.836 126.822 116.26 127.114 116.814C127.406 117.368 127.552 118.09 127.552 118.979V119.271ZM124.924 118.033C124.873 117.533 124.738 117.176 124.517 116.96C124.302 116.744 124.016 116.636 123.661 116.636C123.25 116.636 122.922 116.799 122.677 117.125C122.52 117.328 122.421 117.631 122.378 118.033H124.924Z" fill="#BB3B85" /><path d="M53.2561 44.0354V62.1463L67.705 75.9401L113 25H95.3973L66.9659 57.1197L53.2561 44.0354Z" fill="#BB3B85" /><path d="M89.4645 78.0371H45.7159V40.6185H74.2549L84.4951 28.7236H33V90H102.765V45.6917L89.4645 60.6964V78.0371Z" fill="#BB3B85" /></svg></svg>