<svg xmlns="http://www.w3.org/2000/svg" viewBox="0 0 408 136"><svg width="136" height="136" viewBox="0 0 136 136" fill="none" xmlns="http://www.w3.org/2000/svg" x="0"><rect x="3" y="3" width="130" height="130" rx="11" fill="#8CD598" /><rect x="3" y="3" width="130" height="130" rx="11" stroke="#8CD598" stroke-width="6" /><path d="M23.9531 115.031H21.6484V121H18.4609V115.031H16.1562V112.711H23.9531V115.031ZM34.2969 117.641H27.9219C27.9792 118.151 28.1172 118.531 28.3359 118.781C28.6432 119.141 29.0443 119.32 29.5391 119.32C29.8516 119.32 30.1484 119.242 30.4297 119.086C30.6016 118.987 30.7865 118.812 30.9844 118.562L34.1172 118.852C33.638 119.685 33.0599 120.284 32.3828 120.648C31.7057 121.008 30.7344 121.188 29.4688 121.188C28.3698 121.188 27.5052 121.034 26.875 120.727C26.2448 120.414 25.7214 119.922 25.3047 119.25C24.8932 118.573 24.6875 117.779 24.6875 116.867C24.6875 115.57 25.1016 114.521 25.9297 113.719C26.763 112.917 27.9115 112.516 29.375 112.516C30.5625 112.516 31.5 112.695 32.1875 113.055C32.875 113.414 33.3984 113.935 33.7578 114.617C34.1172 115.299 34.2969 116.188 34.2969 117.281V117.641ZM31.0625 116.117C31 115.503 30.8333 115.062 30.5625 114.797C30.2969 114.531 29.9453 114.398 29.5078 114.398C29.0026 114.398 28.599 114.599 28.2969 115C28.1042 115.25 27.9818 115.622 27.9297 116.117H31.0625ZM35.0391 112.703H38.8125L40.1328 115.016L41.6641 112.703H45.1719L42.3438 116.656L45.375 121H41.6641L40.1328 118.328L38.3281 121H34.8828L37.8984 116.656L35.0391 112.703ZM55.8047 121H52.6172V117.867H49.7266V121H46.5391V112.711H49.7266V115.547H52.6172V112.711H55.8047V121ZM57.4453 116.875C57.4453 115.609 57.8724 114.568 58.7266 113.75C59.5807 112.927 60.7344 112.516 62.1875 112.516C63.849 112.516 65.1042 112.997 65.9531 113.961C66.6354 114.737 66.9766 115.693 66.9766 116.828C66.9766 118.104 66.5521 119.151 65.7031 119.969C64.8594 120.781 63.6901 121.188 62.1953 121.188C60.862 121.188 59.7839 120.849 58.9609 120.172C57.9505 119.333 57.4453 118.234 57.4453 116.875ZM60.6328 116.867C60.6328 117.607 60.7812 118.154 61.0781 118.508C61.3802 118.862 61.7578 119.039 62.2109 119.039C62.6693 119.039 63.0443 118.865 63.3359 118.516C63.6328 118.167 63.7812 117.607 63.7812 116.836C63.7812 116.117 63.6328 115.583 63.3359 115.234C63.0391 114.88 62.6719 114.703 62.2344 114.703C61.7708 114.703 61.388 114.883 61.0859 115.242C60.7839 115.596 60.6328 116.138 60.6328 116.867ZM78.0391 121H74.8594V115.031H72.4453V118.508C72.4453 119.435 72.2552 120.122 71.875 120.57C71.5 121.018 70.9219 121.242 70.1406 121.242C69.2552 121.242 68.4609 121.161 67.7578 121V118.648C68.1328 118.763 68.4193 118.82 68.6172 118.82C69.0443 118.82 69.2578 118.503 69.2578 117.867V112.711H78.0391V121ZM79.5703 116.875C79.5703 115.609 79.9974 114.568 80.8516 113.75C81.7057 112.927 82.8594 112.516 84.3125 112.516C85.974 112.516 87.2292 112.997 88.0781 113.961C88.7604 114.737 89.1016 115.693 89.1016 116.828C89.1016 118.104 88.6771 119.151 87.8281 119.969C86.9844 120.781 85.8151 121.188 84.3203 121.188C82.987 121.188 81.9089 120.849 81.0859 120.172C80.0755 119.333 79.5703 118.234 79.5703 116.875ZM82.7578 116.867C82.7578 117.607 82.9062 118.154 83.2031 118.508C83.5052 118.862 83.8828 119.039 84.3359 119.039C84.7943 119.039 85.1693 118.865 85.4609 118.516C85.7578 118.167 85.9062 117.607 85.9062 116.836C85.9062 116.117 85.7578 115.583 85.4609 115.234C85.1641 114.88 84.7969 114.703 84.3594 114.703C83.8958 114.703 83.513 114.883 83.2109 115.242C82.9089 115.596 82.7578 116.138 82.7578 116.867ZM97.4609 115.031H93.9297V121H90.7422V112.711H97.4609V115.031ZM108.023 121H105.016V116.922L101.891 121H98.8672V112.711H101.875V116.844L105.031 112.711H108.023V121ZM118.117 121H114.938V117.781H114.82C114.596 117.781 114.419 117.844 114.289 117.969C114.164 118.089 114.036 118.273 113.906 118.523L112.633 121H109.109L110.344 118.602C110.708 117.888 111.188 117.497 111.781 117.43C111.109 117.326 110.596 117.047 110.242 116.594C109.893 116.135 109.719 115.635 109.719 115.094C109.719 114.557 109.852 114.083 110.117 113.672C110.388 113.255 110.779 112.992 111.289 112.883C111.805 112.768 112.453 112.711 113.234 112.711H118.117V121ZM114.938 115.898V114.602H113.945C113.477 114.602 113.185 114.659 113.07 114.773C112.956 114.883 112.898 115.039 112.898 115.242C112.898 115.68 113.284 115.898 114.055 115.898H114.938Z" fill="#F0F0F0" /><path d="M101 63.0744V54.597L93.5194 53.4056C93.2979 52.2545 93.0059 51.1202 92.6468 50.0127L98.5501 45.0894L94.4725 37.7463L87.4181 40.6057C86.6764 39.7264 85.8777 38.8975 85.032 38.1222L87.7806 30.7859L80.7194 26.5472L75.9874 32.6854C74.9202 32.3129 73.8295 32.0109 72.7254 31.7827L71.5742 24H63.4258L62.2746 31.7827C61.1705 32.0109 60.0798 32.3129 59.0159 32.6854L54.2806 26.5472L47.2228 30.7859L49.968 38.1222C49.1223 38.8975 48.3269 39.7264 47.5819 40.6057L40.5275 37.7463L36.4499 45.0894L42.3532 50.0127C41.9941 51.1202 41.7021 52.2545 41.484 53.4056L34 54.6004V63.0744L41.484 64.2691C41.7021 65.4169 41.9941 66.5512 42.3532 67.6621L36.4499 72.5854L40.5275 79.9251L47.5819 77.0691C48.3269 77.945 49.1223 78.7773 49.968 79.5492L47.2228 86.8855L54.2806 91.1242L59.0159 84.986C60.0798 85.3585 61.1705 85.6639 62.278 85.8921L63.4258 93.6748H71.5776L72.7254 85.8921C73.8295 85.6639 74.9202 85.3585 75.9874 84.986L80.7194 91.1242L87.7806 86.8855L85.032 79.5492C85.8777 78.7773 86.6764 77.945 87.4181 77.0691L94.4759 79.9251L98.5501 72.5854L92.6468 67.6621C93.0059 66.5512 93.2979 65.4202 93.5194 64.2691L101 63.0744Z" fill="#F2F2F3" /><path d="M67.5021 73.1604C75.4122 73.1604 81.8256 66.747 81.8256 58.8368C81.8256 50.9266 75.4122 44.5132 67.5021 44.5132C59.5919 44.5132 53.1785 50.9266 53.1785 58.8368C53.1785 66.747 59.5919 73.1604 67.5021 73.1604Z" fill="#8CD598" /></svg><svg width="136" height="136" viewBox="0 0 136 136" fill="none" xmlns="http://www.w3.org/2000/svg" x="136"><rect x="3" y="3" width="130" height="130" rx="11" fill="#F2F2F3" /><rect x="3" y="3" width="130" height="130" rx="11" stroke="#8CD598" stroke-width="6" /><path d="M22.9531 115.031H20.6484V121H17.4609V115.031H15.1562V112.711H22.9531V115.031ZM33.2969 117.641H26.9219C26.9792 118.151 27.1172 118.531 27.3359 118.781C27.6432 119.141 28.0443 119.32 28.5391 119.32C28.8516 119.32 29.1484 119.242 29.4297 119.086C29.6016 118.987 29.7865 118.812 29.9844 118.562L33.1172 118.852C32.638 119.685 32.0599 120.284 31.3828 120.648C30.7057 121.008 29.7344 121.188 28.4688 121.188C27.3698 121.188 26.5052 121.034 25.875 120.727C25.2448 120.414 24.7214 119.922 24.3047 119.25C23.8932 118.573 23.6875 117.779 23.6875 116.867C23.6875 115.57 24.1016 114.521 24.9297 113.719C25.763 112.917 26.9115 112.516 28.375 112.516C29.5625 112.516 30.5 112.695 31.1875 113.055C31.875 113.414 32.3984 113.935 32.7578 114.617C33.1172 115.299 33.2969 116.188 33.2969 117.281V117.641ZM30.0625 116.117C30 115.503 29.8333 115.062 29.5625 114.797C29.2969 114.531 28.9453 114.398 28.5078 114.398C28.0026 114.398 27.599 114.599 27.2969 115C27.1042 115.25 26.9818 115.622 26.9297 116.117H30.0625ZM34.0391 112.703H37.8125L39.1328 115.016L40.6641 112.703H44.1719L41.3438 116.656L44.375 121H40.6641L39.1328 118.328L37.3281 121H33.8828L36.8984 116.656L34.0391 112.703ZM54.8047 121H51.6172V117.867H48.7266V121H45.5391V112.711H48.7266V115.547H51.6172V112.711H54.8047V121ZM56.4453 116.875C56.4453 115.609 56.8724 114.568 57.7266 113.75C58.5807 112.927 59.7344 112.516 61.1875 112.516C62.849 112.516 64.1042 112.997 64.9531 113.961C65.6354 114.737 65.9766 115.693 65.9766 116.828C65.9766 118.104 65.5521 119.151 64.7031 119.969C63.8594 120.781 62.6901 121.188 61.1953 121.188C59.862 121.188 58.7839 120.849 57.9609 120.172C56.9505 119.333 56.4453 118.234 56.4453 116.875ZM59.6328 116.867C59.6328 117.607 59.7812 118.154 60.0781 118.508C60.3802 118.862 60.7578 119.039 61.2109 119.039C61.6693 119.039 62.0443 118.865 62.3359 118.516C62.6328 118.167 62.7812 117.607 62.7812 116.836C62.7812 116.117 62.6328 115.583 62.3359 115.234C62.0391 114.88 61.6719 114.703 61.2344 114.703C60.7708 114.703 60.388 114.883 60.0859 115.242C59.7839 115.596 59.6328 116.138 59.6328 116.867ZM77.0391 121H73.8594V115.031H71.4453V118.508C71.4453 119.435 71.2552 120.122 70.875 120.57C70.5 121.018 69.9219 121.242 69.1406 121.242C68.2552 121.242 67.4609 121.161 66.7578 121V118.648C67.1328 118.763 67.4193 118.82 67.6172 118.82C68.0443 118.82 68.2578 118.503 68.2578 117.867V112.711H77.0391V121ZM78.5703 116.875C78.5703 115.609 78.9974 114.568 79.8516 113.75C80.7057 112.927 81.8594 112.516 83.3125 112.516C84.974 112.516 86.2292 112.997 87.0781 113.961C87.7604 114.737 88.1016 115.693 88.1016 116.828C88.1016 118.104 87.6771 119.151 86.8281 119.969C85.9844 120.781 84.8151 121.188 83.3203 121.188C81.987 121.188 80.9089 120.849 80.0859 120.172C79.0755 119.333 78.5703 118.234 78.5703 116.875ZM81.7578 116.867C81.7578 117.607 81.9062 118.154 82.2031 118.508C82.5052 118.862 82.8828 119.039 83.3359 119.039C83.7943 119.039 84.1693 118.865 84.4609 118.516C84.7578 118.167 84.9062 117.607 84.9062 116.836C84.9062 116.117 84.7578 115.583 84.4609 115.234C84.1641 114.88 83.7969 114.703 83.3594 114.703C82.8958 114.703 82.513 114.883 82.2109 115.242C81.9089 115.596 81.7578 116.138 81.7578 116.867ZM96.4609 115.031H92.9297V121H89.7422V112.711H96.4609V115.031ZM107.023 121H104.016V116.922L100.891 121H97.8672V112.711H100.875V116.844L104.031 112.711H107.023V121ZM117.117 121H113.938V117.781H113.82C113.596 117.781 113.419 117.844 113.289 117.969C113.164 118.089 113.036 118.273 112.906 118.523L111.633 121H108.109L109.344 118.602C109.708 117.888 110.188 117.497 110.781 117.43C110.109 117.326 109.596 117.047 109.242 116.594C108.893 116.135 108.719 115.635 108.719 115.094C108.719 114.557 108.852 114.083 109.117 113.672C109.388 113.255 109.779 112.992 110.289 112.883C110.805 112.768 111.453 112.711 112.234 112.711H117.117V121ZM113.938 115.898V114.602H112.945C112.477 114.602 112.185 114.659 112.07 114.773C111.956 114.883 111.898 115.039 111.898 115.242C111.898 115.68 112.284 115.898 113.055 115.898H113.938Z" fill="#8CD598" /><path d="M101 63.0744V54.597L93.5194 53.4056C93.2979 52.2545 93.0059 51.1202 92.6468 50.0127L98.5501 45.0894L94.4725 37.7463L87.4181 40.6057C86.6764 39.7264 85.8777 38.8975 85.032 38.1222L87.7806 30.7859L80.7194 26.5472L75.9874 32.6854C74.9202 32.3129 73.8295 32.0109 72.7254 31.7827L71.5742 24H63.4258L62.2746 31.7827C61.1705 32.0109 60.0798 32.3129 59.0159 32.6854L54.2806 26.5472L47.2228 30.7859L49.968 38.1222C49.1223 38.8975 48.3269 39.7264 47.5819 40.6057L40.5275 37.7463L36.4499 45.0894L42.3532 50.0127C41.9941 51.1202 41.7021 52.2545 41.484 53.4056L34 54.6004V63.0744L41.484 64.2691C41.7021 65.4169 41.9941 66.5512 42.3532 67.6621L36.4499 72.5854L40.5275 79.9251L47.5819 77.0691C48.3269 77.945 49.1223 78.7773 49.968 79.5492L47.2228 86.8855L54.2806 91.1242L59.0159 84.986C60.0798 85.3585 61.1705 85.6639 62.278 85.8921L63.4258 93.6748H71.5776L72.7254 85.8921C73.8295 85.6639 74.9202 85.3585 75.9874 84.986L80.7194 91.1242L87.7806 86.8855L85.032 79.5492C85.8777 78.7773 86.6764 77.945 87.4181 77.0691L94.4759 79.9251L98.5501 72.5854L92.6468 67.6621C93.0059 66.5512 93.2979 65.4202 93.5194 64.2691L101 63.0744Z" fill="#8CD598" /><path d="M67.5021 73.1604C75.4122 73.1604 81.8256 66.747 81.8256 58.8368C81.8256 50.9266 75.4122 44.5132 67.5021 44.5132C59.5919 44.5132 53.1785 50.9266 53.1785 58.8368C53.1785 66.747 59.5919 73.1604 67.5021 73.1604Z" fill="#F2F2F3" /></svg><svg width="136" height="136" viewBox="0 0 136 136" fill="none" xmlns="http://www.w3.org/2000/svg" x="272"><rect x="3" y="3" width="130" height="130" rx="11" fill="#F2F2F3" /><rect x="3" y="3" width="130" height="130" rx="11" stroke="#6FAF7C" stroke-width="6" /><path d="M22.9531 115.031H20.6484V121H17.4609V115.031H15.1562V112.711H22.9531V115.031ZM33.2969 117.641H26.9219C26.9792 118.151 27.1172 118.531 27.3359 118.781C27.6432 119.141 28.0443 119.32 28.5391 119.32C28.8516 119.32 29.1484 119.242 29.4297 119.086C29.6016 118.987 29.7865 118.812 29.9844 118.562L33.1172 118.852C32.638 119.685 32.0599 120.284 31.3828 120.648C30.7057 121.008 29.7344 121.188 28.4688 121.188C27.3698 121.188 26.5052 121.034 25.875 120.727C25.2448 120.414 24.7214 119.922 24.3047 119.25C23.8932 118.573 23.6875 117.779 23.6875 116.867C23.6875 115.57 24.1016 114.521 24.9297 113.719C25.763 112.917 26.9115 112.516 28.375 112.516C29.5625 112.516 30.5 112.695 31.1875 113.055C31.875 113.414 32.3984 113.935 32.7578 114.617C33.1172 115.299 33.2969 116.188 33.2969 117.281V117.641ZM30.0625 116.117C30 115.503 29.8333 115.062 29.5625 114.797C29.2969 114.531 28.9453 114.398 28.5078 114.398C28.0026 114.398 27.599 114.599 27.2969 115C27.1042 115.25 26.9818 115.622 26.9297 116.117H30.0625ZM34.0391 112.703H37.8125L39.1328 115.016L40.6641 112.703H44.1719L41.3438 116.656L44.375 121H40.6641L39.1328 118.328L37.3281 121H33.8828L36.8984 116.656L34.0391 112.703ZM54.8047 121H51.6172V117.867H48.7266V121H45.5391V112.711H48.7266V115.547H51.6172V112.711H54.8047V121ZM56.4453 116.875C56.4453 115.609 56.8724 114.568 57.7266 113.75C58.5807 112.927 59.7344 112.516 61.1875 112.516C62.849 112.516 64.1042 112.997 64.9531 113.961C65.6354 114.737 65.9766 115.693 65.9766 116.828C65.9766 118.104 65.5521 119.151 64.7031 119.969C63.8594 120.781 62.6901 121.188 61.1953 121.188C59.862 121.188 58.7839 120.849 57.9609 120.172C56.9505 119.333 56.4453 118.234 56.4453 116.875ZM59.6328 116.867C59.6328 117.607 59.7812 118.154 60.0781 118.508C60.3802 118.862 60.7578 119.039 61.2109 119.039C61.6693 119.039 62.0443 118.865 62.3359 118.516C62.6328 118.167 62.7812 117.607 62.7812 116.836C62.7812 116.117 62.6328 115.583 62.3359 115.234C62.0391 114.88 61.6719 114.703 61.2344 114.703C60.7708 114.703 60.388 114.883 60.0859 115.242C59.7839 115.596 59.6328 116.138 59.6328 116.867ZM77.0391 121H73.8594V115.031H71.4453V118.508C71.4453 119.435 71.2552 120.122 70.875 120.57C70.5 121.018 69.9219 121.242 69.1406 121.242C68.2552 121.242 67.4609 121.161 66.7578 121V118.648C67.1328 118.763 67.4193 118.82 67.6172 118.82C68.0443 118.82 68.2578 118.503 68.2578 117.867V112.711H77.0391V121ZM78.5703 116.875C78.5703 115.609 78.9974 114.568 79.8516 113.75C80.7057 112.927 81.8594 112.516 83.3125 112.516C84.974 112.516 86.2292 112.997 87.0781 113.961C87.7604 114.737 88.1016 115.693 88.1016 116.828C88.1016 118.104 87.6771 119.151 86.8281 119.969C85.9844 120.781 84.8151 121.188 83.3203 121.188C81.987 121.188 80.9089 120.849 80.0859 120.172C79.0755 119.333 78.5703 118.234 78.5703 116.875ZM81.7578 116.867C81.7578 117.607 81.9062 118.154 82.2031 118.508C82.5052 118.862 82.8828 119.039 83.3359 119.039C83.7943 119.039 84.1693 118.865 84.4609 118.516C84.7578 118.167 84.9062 117.607 84.9062 116.836C84.9062 116.117 84.7578 115.583 84.4609 115.234C84.1641 114.88 83.7969 114.703 83.3594 114.703C82.8958 114.703 82.513 114.883 82.2109 115.242C81.9089 115.596 81.7578 116.138 81.7578 116.867ZM96.4609 115.031H92.9297V121H89.7422V112.711H96.4609V115.031ZM107.023 121H104.016V116.922L100.891 121H97.8672V112.711H100.875V116.844L104.031 112.711H107.023V121ZM117.117 121H113.938V117.781H113.82C113.596 117.781 113.419 117.844 113.289 117.969C113.164 118.089 113.036 118.273 112.906 118.523L111.633 121H108.109L109.344 118.602C109.708 117.888 110.188 117.497 110.781 117.43C110.109 117.326 109.596 117.047 109.242 116.594C108.893 116.135 108.719 115.635 108.719 115.094C108.719 114.557 108.852 114.083 109.117 113.672C109.388 113.255 109.779 112.992 110.289 112.883C110.805 112.768 111.453 112.711 112.234 112.711H117.117V121ZM113.938 115.898V114.602H112.945C112.477 114.602 112.185 114.659 112.07 114.773C111.956 114.883 111.898 115.039 111.898 115.242C111.898 115.68 112.284 115.898 113.055 115.898H113.938Z" fill="#6FAF7C" /><path d="M101 63.0744V54.597L93.5194 53.4056C93.2979 52.2545 93.0059 51.1202 92.6468 50.0127L98.5501 45.0894L94.4725 37.7463L87.4181 40.6057C86.6764 39.7264 85.8777 38.8975 85.032 38.1222L87.7806 30.7859L80.7194 26.5472L75.9874 32.6854C74.9202 32.3129 73.8295 32.0109 72.7254 31.7827L71.5742 24H63.4258L62.2746 31.7827C61.1705 32.0109 60.0798 32.3129 59.0159 32.6854L54.2806 26.5472L47.2228 30.7859L49.968 38.1222C49.1223 38.8975 48.3269 39.7264 47.5819 40.6057L40.5275 37.7463L36.4499 45.0894L42.3532 50.0127C41.9941 51.1202 41.7021 52.2545 41.484 53.4056L34 54.6004V63.0744L41.484 64.2691C41.7021 65.4169 41.9941 66.5512 42.3532 67.6621L36.4499 72.5854L40.5275 79.9251L47.5819 77.0691C48.3269 77.945 49.1223 78.7773 49.968 79.5492L47.2228 86.8855L54.2806 91.1242L59.0159 84.986C60.0798 85.3585 61.1705 85.6639 62.278 85.8921L63.4258 93.6748H71.5776L72.7254 85.8921C73.8295 85.6639 74.9202 85.3585 75.9874 84.986L80.7194 91.1242L87.7806 86.8855L85.032 79.5492C85.8777 78.7773 86.6764 77.945 87.4181 77.0691L94.4759 79.9251L98.5501 72.5854L92.6468 67.6621C93.0059 66.5512 93.2979 65.4202 93.5194 64.2691L101 63.0744Z" fill="#6FAF7C" /><path d="M67.5021 73.1604C75.4122 73.1604 81.8256 66.747 81.8256 58.8368C81.8256 50.9266 75.4122 44.5132 67.5021 44.5132C59.5919 44.5132 53.1785 50.9266 53.1785 58.8368C53.1785 66.747 59.5919 73.1604 67.5021 73.1604Z" fill="#F2F2F3" /></svg></svg>