<svg xmlns="http://www.w3.org/2000/svg" viewBox="0 0 408 136"><svg width="136" height="136" viewBox="0 0 136 136" fill="none" xmlns="http://www.w3.org/2000/svg" x="0"><g clip-path="url(#clip0_135_543)"><rect x="6" y="6" width="124" height="124" rx="8" fill="#0096DA" /><path d="M21.9482 122H19.3164V118.432L16.582 122H13.9365V114.747H16.5684V118.363L19.3301 114.747H21.9482V122ZM31.9287 122H29.1396V119.259H26.6104V122H23.8213V114.747H26.6104V117.229H29.1396V114.747H31.9287V122ZM41.3486 115.479C41.9046 114.882 42.6133 114.583 43.4746 114.583C44.4089 114.583 45.1517 114.945 45.7031 115.67C46.2546 116.39 46.5303 117.329 46.5303 118.486C46.5303 119.607 46.2546 120.503 45.7031 121.173C45.1517 121.838 44.4043 122.171 43.4609 122.171C42.5677 122.171 41.8636 121.882 41.3486 121.303V124.775H38.5664V121.316C37.9831 121.886 37.2721 122.171 36.4336 122.171C35.5039 122.171 34.7633 121.811 34.2119 121.091C33.6605 120.366 33.3848 119.423 33.3848 118.261C33.3848 117.14 33.6605 116.246 34.2119 115.581C34.7633 114.916 35.5085 114.583 36.4473 114.583C37.3359 114.583 38.0423 114.891 38.5664 115.506V111.979H41.3486V115.479ZM42.6064 120.113C42.971 120.113 43.2513 119.961 43.4473 119.655C43.6432 119.35 43.7412 118.942 43.7412 118.432C43.7412 117.238 43.3493 116.641 42.5654 116.641C42.2236 116.641 41.9297 116.771 41.6836 117.03C41.4421 117.29 41.3213 117.748 41.3213 118.404C41.3213 118.892 41.4307 119.3 41.6494 119.628C41.8682 119.951 42.1872 120.113 42.6064 120.113ZM37.3428 120.113C37.6891 120.113 37.9831 119.983 38.2246 119.724C38.4707 119.459 38.5938 118.999 38.5938 118.343C38.5938 117.855 38.4844 117.45 38.2656 117.126C38.0469 116.802 37.7256 116.641 37.3018 116.641C36.9417 116.641 36.6615 116.793 36.4609 117.099C36.265 117.399 36.167 117.805 36.167 118.315C36.167 119.514 36.5589 120.113 37.3428 120.113ZM47.5557 118.391C47.5557 117.283 47.9294 116.372 48.6768 115.656C49.4242 114.936 50.4336 114.576 51.7051 114.576C53.1589 114.576 54.2572 114.998 55 115.841C55.597 116.52 55.8955 117.356 55.8955 118.35C55.8955 119.466 55.5241 120.382 54.7812 121.098C54.043 121.809 53.0199 122.164 51.7119 122.164C50.5452 122.164 49.6019 121.868 48.8818 121.275C47.9977 120.542 47.5557 119.58 47.5557 118.391ZM50.3447 118.384C50.3447 119.031 50.4746 119.509 50.7344 119.819C50.9987 120.129 51.3291 120.284 51.7256 120.284C52.1266 120.284 52.4548 120.132 52.71 119.826C52.9697 119.521 53.0996 119.031 53.0996 118.356C53.0996 117.728 52.9697 117.26 52.71 116.955C52.4502 116.645 52.1289 116.49 51.7461 116.49C51.3405 116.49 51.0055 116.647 50.7412 116.962C50.4769 117.272 50.3447 117.746 50.3447 118.384ZM57.249 124.762V114.74H59.8535V115.813C60.2135 115.362 60.5439 115.057 60.8447 114.897C61.2503 114.683 61.6992 114.576 62.1914 114.576C63.1621 114.576 63.9118 114.948 64.4404 115.69C64.9736 116.433 65.2402 117.352 65.2402 118.445C65.2402 119.653 64.9508 120.576 64.3721 121.214C63.7933 121.847 63.0618 122.164 62.1777 122.164C61.7493 122.164 61.3574 122.091 61.002 121.945C60.651 121.799 60.3366 121.583 60.0586 121.296V124.762H57.249ZM60.0381 118.391C60.0381 118.965 60.1589 119.391 60.4004 119.669C60.6419 119.947 60.9473 120.086 61.3164 120.086C61.64 120.086 61.9111 119.954 62.1299 119.689C62.3486 119.421 62.458 118.967 62.458 118.329C62.458 117.741 62.3441 117.311 62.1162 117.037C61.8883 116.759 61.6104 116.62 61.2822 116.62C60.9268 116.62 60.6305 116.759 60.3936 117.037C60.1566 117.315 60.0381 117.766 60.0381 118.391ZM76.6357 122H74.2842V117.447L72.5615 122H70.8867L69.0205 117.447V122H66.6689V114.747H69.9912L71.7275 118.917L73.3203 114.747H76.6357V122ZM80.9629 117.092L78.3037 116.812C78.404 116.347 78.5475 115.982 78.7344 115.718C78.9258 115.449 79.1992 115.216 79.5547 115.021C79.8099 114.879 80.1608 114.77 80.6074 114.692C81.054 114.615 81.5371 114.576 82.0566 114.576C82.8906 114.576 83.5605 114.624 84.0664 114.72C84.5723 114.811 84.9938 115.005 85.3311 115.301C85.568 115.506 85.7549 115.798 85.8916 116.176C86.0283 116.549 86.0967 116.907 86.0967 117.249V120.455C86.0967 120.797 86.1172 121.066 86.1582 121.262C86.2038 121.453 86.2995 121.699 86.4453 122H83.834C83.7292 121.813 83.6608 121.672 83.6289 121.576C83.597 121.476 83.5651 121.321 83.5332 121.111C83.1686 121.462 82.8063 121.713 82.4463 121.863C81.9541 122.064 81.3822 122.164 80.7305 122.164C79.8646 122.164 79.2061 121.964 78.7549 121.562C78.3083 121.161 78.085 120.667 78.085 120.079C78.085 119.528 78.2467 119.074 78.5703 118.719C78.8939 118.363 79.4909 118.099 80.3613 117.926C81.4049 117.716 82.0817 117.57 82.3916 117.488C82.7015 117.402 83.0296 117.29 83.376 117.153C83.376 116.812 83.3053 116.572 83.1641 116.436C83.0228 116.299 82.7744 116.23 82.4189 116.23C81.9632 116.23 81.6214 116.303 81.3936 116.449C81.2158 116.563 81.0723 116.777 80.9629 117.092ZM83.376 118.555C82.9932 118.691 82.5944 118.812 82.1797 118.917C81.6146 119.067 81.2568 119.215 81.1064 119.361C80.9515 119.512 80.874 119.683 80.874 119.874C80.874 120.093 80.9492 120.273 81.0996 120.414C81.2546 120.551 81.4801 120.619 81.7764 120.619C82.0863 120.619 82.3734 120.544 82.6377 120.394C82.9066 120.243 83.0957 120.061 83.2051 119.847C83.319 119.628 83.376 119.345 83.376 118.999V118.555ZM93.8828 116.777H91.8662V122H89.0771V116.777H87.0605V114.747H93.8828V116.777ZM102.981 122H100.35V118.432L97.6152 122H94.9697V114.747H97.6016V118.363L100.363 114.747H102.981V122ZM112.839 122H109.701L108.635 119.997C108.466 119.678 108.3 119.478 108.136 119.396C107.976 119.313 107.778 119.272 107.541 119.272V122H104.759V114.747H107.541V117.365C107.769 117.342 107.938 117.267 108.047 117.14C108.156 117.012 108.313 116.732 108.519 116.299C108.728 115.866 108.915 115.549 109.079 115.349C109.243 115.148 109.453 114.998 109.708 114.897C109.963 114.797 110.282 114.733 110.665 114.706C111.048 114.679 111.618 114.665 112.374 114.665V116.641H112.251C111.877 116.641 111.592 116.657 111.396 116.688C111.201 116.716 111.043 116.777 110.925 116.873C110.806 116.969 110.67 117.165 110.515 117.461C110.36 117.757 110.23 117.965 110.125 118.083C110.025 118.197 109.874 118.274 109.674 118.315C110.061 118.352 110.36 118.436 110.569 118.568C110.779 118.696 111.096 119.113 111.52 119.819L112.839 122ZM116.291 117.092L113.632 116.812C113.732 116.347 113.876 115.982 114.062 115.718C114.254 115.449 114.527 115.216 114.883 115.021C115.138 114.879 115.489 114.77 115.936 114.692C116.382 114.615 116.865 114.576 117.385 114.576C118.219 114.576 118.889 114.624 119.395 114.72C119.9 114.811 120.322 115.005 120.659 115.301C120.896 115.506 121.083 115.798 121.22 116.176C121.356 116.549 121.425 116.907 121.425 117.249V120.455C121.425 120.797 121.445 121.066 121.486 121.262C121.532 121.453 121.628 121.699 121.773 122H119.162C119.057 121.813 118.989 121.672 118.957 121.576C118.925 121.476 118.893 121.321 118.861 121.111C118.497 121.462 118.134 121.713 117.774 121.863C117.282 122.064 116.71 122.164 116.059 122.164C115.193 122.164 114.534 121.964 114.083 121.562C113.636 121.161 113.413 120.667 113.413 120.079C113.413 119.528 113.575 119.074 113.898 118.719C114.222 118.363 114.819 118.099 115.689 117.926C116.733 117.716 117.41 117.57 117.72 117.488C118.03 117.402 118.358 117.29 118.704 117.153C118.704 116.812 118.633 116.572 118.492 116.436C118.351 116.299 118.103 116.23 117.747 116.23C117.291 116.23 116.95 116.303 116.722 116.449C116.544 116.563 116.4 116.777 116.291 117.092ZM118.704 118.555C118.321 118.691 117.923 118.812 117.508 118.917C116.943 119.067 116.585 119.215 116.435 119.361C116.28 119.512 116.202 119.683 116.202 119.874C116.202 120.093 116.277 120.273 116.428 120.414C116.583 120.551 116.808 120.619 117.104 120.619C117.414 120.619 117.701 120.544 117.966 120.394C118.235 120.243 118.424 120.061 118.533 119.847C118.647 119.628 118.704 119.345 118.704 118.999V118.555Z" fill="#F0F0F0" /><path d="M49.0039 26.8711H83.7852C89.582 26.8711 94.0254 28.3066 97.1152 31.1777C100.232 34.0488 101.791 37.6035 101.791 41.8418C101.791 45.3965 100.684 48.4453 98.4688 50.9883C96.9922 52.6836 94.832 54.0234 91.9883 55.0078C96.3086 56.0469 99.4805 57.8379 101.504 60.3809C103.555 62.8965 104.58 66.0684 104.58 69.8965C104.58 73.0137 103.855 75.8164 102.406 78.3047C100.957 80.793 98.9746 82.7617 96.459 84.2109C94.9004 85.1133 92.5488 85.7695 89.4043 86.1797C85.2207 86.7266 82.4453 87 81.0781 87H49.0039V26.8711ZM67.748 50.4551H75.8281C78.7266 50.4551 80.7363 49.9629 81.8574 48.9785C83.0059 47.9668 83.5801 46.5176 83.5801 44.6309C83.5801 42.8809 83.0059 41.5137 81.8574 40.5293C80.7363 39.5449 78.7676 39.0527 75.9512 39.0527H67.748V50.4551ZM67.748 74.0801H77.2227C80.4219 74.0801 82.6777 73.5195 83.9902 72.3984C85.3027 71.25 85.959 69.7188 85.959 67.8047C85.959 66.0273 85.3027 64.6055 83.9902 63.5391C82.7051 62.4453 80.4355 61.8984 77.1816 61.8984H67.748V74.0801Z" fill="#F0F0F0" /><line x1="30" y1="82" x2="46" y2="82" stroke="#F0F0F0" stroke-width="10" /></g><rect x="3" y="3" width="130" height="130" rx="11" stroke="#0096DA" stroke-width="6" /><defs><clipPath id="clip0_135_543"><rect x="6" y="6" width="124" height="124" rx="8" fill="white" /></clipPath></defs></svg><svg width="136" height="136" viewBox="0 0 136 136" fill="none" xmlns="http://www.w3.org/2000/svg" x="136"><g clip-path="url(#clip0_230_1118)"><rect x="6" y="6" width="124" height="124" rx="8" fill="#F0F0F0" /><path d="M21.9482 122H19.3164V118.432L16.582 122H13.9365V114.747H16.5684V118.363L19.3301 114.747H21.9482V122ZM31.9287 122H29.1396V119.259H26.6104V122H23.8213V114.747H26.6104V117.229H29.1396V114.747H31.9287V122ZM41.3486 115.479C41.9046 114.882 42.6133 114.583 43.4746 114.583C44.4089 114.583 45.1517 114.945 45.7031 115.67C46.2546 116.39 46.5303 117.329 46.5303 118.486C46.5303 119.607 46.2546 120.503 45.7031 121.173C45.1517 121.838 44.4043 122.171 43.4609 122.171C42.5677 122.171 41.8636 121.882 41.3486 121.303V124.775H38.5664V121.316C37.9831 121.886 37.2721 122.171 36.4336 122.171C35.5039 122.171 34.7633 121.811 34.2119 121.091C33.6605 120.366 33.3848 119.423 33.3848 118.261C33.3848 117.14 33.6605 116.246 34.2119 115.581C34.7633 114.916 35.5085 114.583 36.4473 114.583C37.3359 114.583 38.0423 114.891 38.5664 115.506V111.979H41.3486V115.479ZM42.6064 120.113C42.971 120.113 43.2513 119.961 43.4473 119.655C43.6432 119.35 43.7412 118.942 43.7412 118.432C43.7412 117.238 43.3493 116.641 42.5654 116.641C42.2236 116.641 41.9297 116.771 41.6836 117.03C41.4421 117.29 41.3213 117.748 41.3213 118.404C41.3213 118.892 41.4307 119.3 41.6494 119.628C41.8682 119.951 42.1872 120.113 42.6064 120.113ZM37.3428 120.113C37.6891 120.113 37.9831 119.983 38.2246 119.724C38.4707 119.459 38.5938 118.999 38.5938 118.343C38.5938 117.855 38.4844 117.45 38.2656 117.126C38.0469 116.802 37.7256 116.641 37.3018 116.641C36.9417 116.641 36.6615 116.793 36.4609 117.099C36.265 117.399 36.167 117.805 36.167 118.315C36.167 119.514 36.5589 120.113 37.3428 120.113ZM47.5557 118.391C47.5557 117.283 47.9294 116.372 48.6768 115.656C49.4242 114.936 50.4336 114.576 51.7051 114.576C53.1589 114.576 54.2572 114.998 55 115.841C55.597 116.52 55.8955 117.356 55.8955 118.35C55.8955 119.466 55.5241 120.382 54.7812 121.098C54.043 121.809 53.0199 122.164 51.7119 122.164C50.5452 122.164 49.6019 121.868 48.8818 121.275C47.9977 120.542 47.5557 119.58 47.5557 118.391ZM50.3447 118.384C50.3447 119.031 50.4746 119.509 50.7344 119.819C50.9987 120.129 51.3291 120.284 51.7256 120.284C52.1266 120.284 52.4548 120.132 52.71 119.826C52.9697 119.521 53.0996 119.031 53.0996 118.356C53.0996 117.728 52.9697 117.26 52.71 116.955C52.4502 116.645 52.1289 116.49 51.7461 116.49C51.3405 116.49 51.0055 116.647 50.7412 116.962C50.4769 117.272 50.3447 117.746 50.3447 118.384ZM57.249 124.762V114.74H59.8535V115.813C60.2135 115.362 60.5439 115.057 60.8447 114.897C61.2503 114.683 61.6992 114.576 62.1914 114.576C63.1621 114.576 63.9118 114.948 64.4404 115.69C64.9736 116.433 65.2402 117.352 65.2402 118.445C65.2402 119.653 64.9508 120.576 64.3721 121.214C63.7933 121.847 63.0618 122.164 62.1777 122.164C61.7493 122.164 61.3574 122.091 61.002 121.945C60.651 121.799 60.3366 121.583 60.0586 121.296V124.762H57.249ZM60.0381 118.391C60.0381 118.965 60.1589 119.391 60.4004 119.669C60.6419 119.947 60.9473 120.086 61.3164 120.086C61.64 120.086 61.9111 119.954 62.1299 119.689C62.3486 119.421 62.458 118.967 62.458 118.329C62.458 117.741 62.3441 117.311 62.1162 117.037C61.8883 116.759 61.6104 116.62 61.2822 116.62C60.9268 116.62 60.6305 116.759 60.3936 117.037C60.1566 117.315 60.0381 117.766 60.0381 118.391ZM76.6357 122H74.2842V117.447L72.5615 122H70.8867L69.0205 117.447V122H66.6689V114.747H69.9912L71.7275 118.917L73.3203 114.747H76.6357V122ZM80.9629 117.092L78.3037 116.812C78.404 116.347 78.5475 115.982 78.7344 115.718C78.9258 115.449 79.1992 115.216 79.5547 115.021C79.8099 114.879 80.1608 114.77 80.6074 114.692C81.054 114.615 81.5371 114.576 82.0566 114.576C82.8906 114.576 83.5605 114.624 84.0664 114.72C84.5723 114.811 84.9938 115.005 85.3311 115.301C85.568 115.506 85.7549 115.798 85.8916 116.176C86.0283 116.549 86.0967 116.907 86.0967 117.249V120.455C86.0967 120.797 86.1172 121.066 86.1582 121.262C86.2038 121.453 86.2995 121.699 86.4453 122H83.834C83.7292 121.813 83.6608 121.672 83.6289 121.576C83.597 121.476 83.5651 121.321 83.5332 121.111C83.1686 121.462 82.8063 121.713 82.4463 121.863C81.9541 122.064 81.3822 122.164 80.7305 122.164C79.8646 122.164 79.2061 121.964 78.7549 121.562C78.3083 121.161 78.085 120.667 78.085 120.079C78.085 119.528 78.2467 119.074 78.5703 118.719C78.8939 118.363 79.4909 118.099 80.3613 117.926C81.4049 117.716 82.0817 117.57 82.3916 117.488C82.7015 117.402 83.0296 117.29 83.376 117.153C83.376 116.812 83.3053 116.572 83.1641 116.436C83.0228 116.299 82.7744 116.23 82.4189 116.23C81.9632 116.23 81.6214 116.303 81.3936 116.449C81.2158 116.563 81.0723 116.777 80.9629 117.092ZM83.376 118.555C82.9932 118.691 82.5944 118.812 82.1797 118.917C81.6146 119.067 81.2568 119.215 81.1064 119.361C80.9515 119.512 80.874 119.683 80.874 119.874C80.874 120.093 80.9492 120.273 81.0996 120.414C81.2546 120.551 81.4801 120.619 81.7764 120.619C82.0863 120.619 82.3734 120.544 82.6377 120.394C82.9066 120.243 83.0957 120.061 83.2051 119.847C83.319 119.628 83.376 119.345 83.376 118.999V118.555ZM93.8828 116.777H91.8662V122H89.0771V116.777H87.0605V114.747H93.8828V116.777ZM102.981 122H100.35V118.432L97.6152 122H94.9697V114.747H97.6016V118.363L100.363 114.747H102.981V122ZM112.839 122H109.701L108.635 119.997C108.466 119.678 108.3 119.478 108.136 119.396C107.976 119.313 107.778 119.272 107.541 119.272V122H104.759V114.747H107.541V117.365C107.769 117.342 107.938 117.267 108.047 117.14C108.156 117.012 108.313 116.732 108.519 116.299C108.728 115.866 108.915 115.549 109.079 115.349C109.243 115.148 109.453 114.998 109.708 114.897C109.963 114.797 110.282 114.733 110.665 114.706C111.048 114.679 111.618 114.665 112.374 114.665V116.641H112.251C111.877 116.641 111.592 116.657 111.396 116.688C111.201 116.716 111.043 116.777 110.925 116.873C110.806 116.969 110.67 117.165 110.515 117.461C110.36 117.757 110.23 117.965 110.125 118.083C110.025 118.197 109.874 118.274 109.674 118.315C110.061 118.352 110.36 118.436 110.569 118.568C110.779 118.696 111.096 119.113 111.52 119.819L112.839 122ZM116.291 117.092L113.632 116.812C113.732 116.347 113.876 115.982 114.062 115.718C114.254 115.449 114.527 115.216 114.883 115.021C115.138 114.879 115.489 114.77 115.936 114.692C116.382 114.615 116.865 114.576 117.385 114.576C118.219 114.576 118.889 114.624 119.395 114.72C119.9 114.811 120.322 115.005 120.659 115.301C120.896 115.506 121.083 115.798 121.22 116.176C121.356 116.549 121.425 116.907 121.425 117.249V120.455C121.425 120.797 121.445 121.066 121.486 121.262C121.532 121.453 121.628 121.699 121.773 122H119.162C119.057 121.813 118.989 121.672 118.957 121.576C118.925 121.476 118.893 121.321 118.861 121.111C118.497 121.462 118.134 121.713 117.774 121.863C117.282 122.064 116.71 122.164 116.059 122.164C115.193 122.164 114.534 121.964 114.083 121.562C113.636 121.161 113.413 120.667 113.413 120.079C113.413 119.528 113.575 119.074 113.898 118.719C114.222 118.363 114.819 118.099 115.689 117.926C116.733 117.716 117.41 117.57 117.72 117.488C118.03 117.402 118.358 117.29 118.704 117.153C118.704 116.812 118.633 116.572 118.492 116.436C118.351 116.299 118.103 116.23 117.747 116.23C117.291 116.23 116.95 116.303 116.722 116.449C116.544 116.563 116.4 116.777 116.291 117.092ZM118.704 118.555C118.321 118.691 117.923 118.812 117.508 118.917C116.943 119.067 116.585 119.215 116.435 119.361C116.28 119.512 116.202 119.683 116.202 119.874C116.202 120.093 116.277 120.273 116.428 120.414C116.583 120.551 116.808 120.619 117.104 120.619C117.414 120.619 117.701 120.544 117.966 120.394C118.235 120.243 118.424 120.061 118.533 119.847C118.647 119.628 118.704 119.345 118.704 118.999V118.555Z" fill="#0096DA" /><path d="M49.0039 26.8711H83.7852C89.582 26.8711 94.0254 28.3066 97.1152 31.1777C100.232 34.0488 101.791 37.6035 101.791 41.8418C101.791 45.3965 100.684 48.4453 98.4688 50.9883C96.9922 52.6836 94.832 54.0234 91.9883 55.0078C96.3086 56.0469 99.4805 57.8379 101.504 60.3809C103.555 62.8965 104.58 66.0684 104.58 69.8965C104.58 73.0137 103.855 75.8164 102.406 78.3047C100.957 80.793 98.9746 82.7617 96.459 84.2109C94.9004 85.1133 92.5488 85.7695 89.4043 86.1797C85.2207 86.7266 82.4453 87 81.0781 87H49.0039V26.8711ZM67.748 50.4551H75.8281C78.7266 50.4551 80.7363 49.9629 81.8574 48.9785C83.0059 47.9668 83.5801 46.5176 83.5801 44.6309C83.5801 42.8809 83.0059 41.5137 81.8574 40.5293C80.7363 39.5449 78.7676 39.0527 75.9512 39.0527H67.748V50.4551ZM67.748 74.0801H77.2227C80.4219 74.0801 82.6777 73.5195 83.9902 72.3984C85.3027 71.25 85.959 69.7188 85.959 67.8047C85.959 66.0273 85.3027 64.6055 83.9902 63.5391C82.7051 62.4453 80.4355 61.8984 77.1816 61.8984H67.748V74.0801Z" fill="#0096DA" /><line x1="30" y1="82" x2="46" y2="82" stroke="#0096DA" stroke-width="10" /></g><rect x="3" y="3" width="130" height="130" rx="11" stroke="#0096DA" stroke-width="6" /><defs><clipPath id="clip0_230_1118"><rect x="6" y="6" width="124" height="124" rx="8" fill="white" /></clipPath></defs></svg><svg width="136" height="136" viewBox="0 0 136 136" fill="none" xmlns="http://www.w3.org/2000/svg" x="272"><g clip-path="url(#clip0_230_1117)"><rect x="6" y="6" width="124" height="124" rx="8" fill="#F0F0F0" /><path d="M21.9482 122H19.3164V118.432L16.582 122H13.9365V114.747H16.5684V118.363L19.3301 114.747H21.9482V122ZM31.9287 122H29.1396V119.259H26.6104V122H23.8213V114.747H26.6104V117.229H29.1396V114.747H31.9287V122ZM41.3486 115.479C41.9046 114.882 42.6133 114.583 43.4746 114.583C44.4089 114.583 45.1517 114.945 45.7031 115.67C46.2546 116.39 46.5303 117.329 46.5303 118.486C46.5303 119.607 46.2546 120.503 45.7031 121.173C45.1517 121.838 44.4043 122.171 43.4609 122.171C42.5677 122.171 41.8636 121.882 41.3486 121.303V124.775H38.5664V121.316C37.9831 121.886 37.2721 122.171 36.4336 122.171C35.5039 122.171 34.7633 121.811 34.2119 121.091C33.6605 120.366 33.3848 119.423 33.3848 118.261C33.3848 117.14 33.6605 116.246 34.2119 115.581C34.7633 114.916 35.5085 114.583 36.4473 114.583C37.3359 114.583 38.0423 114.891 38.5664 115.506V111.979H41.3486V115.479ZM42.6064 120.113C42.971 120.113 43.2513 119.961 43.4473 119.655C43.6432 119.35 43.7412 118.942 43.7412 118.432C43.7412 117.238 43.3493 116.641 42.5654 116.641C42.2236 116.641 41.9297 116.771 41.6836 117.03C41.4421 117.29 41.3213 117.748 41.3213 118.404C41.3213 118.892 41.4307 119.3 41.6494 119.628C41.8682 119.951 42.1872 120.113 42.6064 120.113ZM37.3428 120.113C37.6891 120.113 37.9831 119.983 38.2246 119.724C38.4707 119.459 38.5938 118.999 38.5938 118.343C38.5938 117.855 38.4844 117.45 38.2656 117.126C38.0469 116.802 37.7256 116.641 37.3018 116.641C36.9417 116.641 36.6615 116.793 36.4609 117.099C36.265 117.399 36.167 117.805 36.167 118.315C36.167 119.514 36.5589 120.113 37.3428 120.113ZM47.5557 118.391C47.5557 117.283 47.9294 116.372 48.6768 115.656C49.4242 114.936 50.4336 114.576 51.7051 114.576C53.1589 114.576 54.2572 114.998 55 115.841C55.597 116.52 55.8955 117.356 55.8955 118.35C55.8955 119.466 55.5241 120.382 54.7812 121.098C54.043 121.809 53.0199 122.164 51.7119 122.164C50.5452 122.164 49.6019 121.868 48.8818 121.275C47.9977 120.542 47.5557 119.58 47.5557 118.391ZM50.3447 118.384C50.3447 119.031 50.4746 119.509 50.7344 119.819C50.9987 120.129 51.3291 120.284 51.7256 120.284C52.1266 120.284 52.4548 120.132 52.71 119.826C52.9697 119.521 53.0996 119.031 53.0996 118.356C53.0996 117.728 52.9697 117.26 52.71 116.955C52.4502 116.645 52.1289 116.49 51.7461 116.49C51.3405 116.49 51.0055 116.647 50.7412 116.962C50.4769 117.272 50.3447 117.746 50.3447 118.384ZM57.249 124.762V114.74H59.8535V115.813C60.2135 115.362 60.5439 115.057 60.8447 114.897C61.2503 114.683 61.6992 114.576 62.1914 114.576C63.1621 114.576 63.9118 114.948 64.4404 115.69C64.9736 116.433 65.2402 117.352 65.2402 118.445C65.2402 119.653 64.9508 120.576 64.3721 121.214C63.7933 121.847 63.0618 122.164 62.1777 122.164C61.7493 122.164 61.3574 122.091 61.002 121.945C60.651 121.799 60.3366 121.583 60.0586 121.296V124.762H57.249ZM60.0381 118.391C60.0381 118.965 60.1589 119.391 60.4004 119.669C60.6419 119.947 60.9473 120.086 61.3164 120.086C61.64 120.086 61.9111 119.954 62.1299 119.689C62.3486 119.421 62.458 118.967 62.458 118.329C62.458 117.741 62.3441 117.311 62.1162 117.037C61.8883 116.759 61.6104 116.62 61.2822 116.62C60.9268 116.62 60.6305 116.759 60.3936 117.037C60.1566 117.315 60.0381 117.766 60.0381 118.391ZM76.6357 122H74.2842V117.447L72.5615 122H70.8867L69.0205 117.447V122H66.6689V114.747H69.9912L71.7275 118.917L73.3203 114.747H76.6357V122ZM80.9629 117.092L78.3037 116.812C78.404 116.347 78.5475 115.982 78.7344 115.718C78.9258 115.449 79.1992 115.216 79.5547 115.021C79.8099 114.879 80.1608 114.77 80.6074 114.692C81.054 114.615 81.5371 114.576 82.0566 114.576C82.8906 114.576 83.5605 114.624 84.0664 114.72C84.5723 114.811 84.9938 115.005 85.3311 115.301C85.568 115.506 85.7549 115.798 85.8916 116.176C86.0283 116.549 86.0967 116.907 86.0967 117.249V120.455C86.0967 120.797 86.1172 121.066 86.1582 121.262C86.2038 121.453 86.2995 121.699 86.4453 122H83.834C83.7292 121.813 83.6608 121.672 83.6289 121.576C83.597 121.476 83.5651 121.321 83.5332 121.111C83.1686 121.462 82.8063 121.713 82.4463 121.863C81.9541 122.064 81.3822 122.164 80.7305 122.164C79.8646 122.164 79.2061 121.964 78.7549 121.562C78.3083 121.161 78.085 120.667 78.085 120.079C78.085 119.528 78.2467 119.074 78.5703 118.719C78.8939 118.363 79.4909 118.099 80.3613 117.926C81.4049 117.716 82.0817 117.57 82.3916 117.488C82.7015 117.402 83.0296 117.29 83.376 117.153C83.376 116.812 83.3053 116.572 83.1641 116.436C83.0228 116.299 82.7744 116.23 82.4189 116.23C81.9632 116.23 81.6214 116.303 81.3936 116.449C81.2158 116.563 81.0723 116.777 80.9629 117.092ZM83.376 118.555C82.9932 118.691 82.5944 118.812 82.1797 118.917C81.6146 119.067 81.2568 119.215 81.1064 119.361C80.9515 119.512 80.874 119.683 80.874 119.874C80.874 120.093 80.9492 120.273 81.0996 120.414C81.2546 120.551 81.4801 120.619 81.7764 120.619C82.0863 120.619 82.3734 120.544 82.6377 120.394C82.9066 120.243 83.0957 120.061 83.2051 119.847C83.319 119.628 83.376 119.345 83.376 118.999V118.555ZM93.8828 116.777H91.8662V122H89.0771V116.777H87.0605V114.747H93.8828V116.777ZM102.981 122H100.35V118.432L97.6152 122H94.9697V114.747H97.6016V118.363L100.363 114.747H102.981V122ZM112.839 122H109.701L108.635 119.997C108.466 119.678 108.3 119.478 108.136 119.396C107.976 119.313 107.778 119.272 107.541 119.272V122H104.759V114.747H107.541V117.365C107.769 117.342 107.938 117.267 108.047 117.14C108.156 117.012 108.313 116.732 108.519 116.299C108.728 115.866 108.915 115.549 109.079 115.349C109.243 115.148 109.453 114.998 109.708 114.897C109.963 114.797 110.282 114.733 110.665 114.706C111.048 114.679 111.618 114.665 112.374 114.665V116.641H112.251C111.877 116.641 111.592 116.657 111.396 116.688C111.201 116.716 111.043 116.777 110.925 116.873C110.806 116.969 110.67 117.165 110.515 117.461C110.36 117.757 110.23 117.965 110.125 118.083C110.025 118.197 109.874 118.274 109.674 118.315C110.061 118.352 110.36 118.436 110.569 118.568C110.779 118.696 111.096 119.113 111.52 119.819L112.839 122ZM116.291 117.092L113.632 116.812C113.732 116.347 113.876 115.982 114.062 115.718C114.254 115.449 114.527 115.216 114.883 115.021C115.138 114.879 115.489 114.77 115.936 114.692C116.382 114.615 116.865 114.576 117.385 114.576C118.219 114.576 118.889 114.624 119.395 114.72C119.9 114.811 120.322 115.005 120.659 115.301C120.896 115.506 121.083 115.798 121.22 116.176C121.356 116.549 121.425 116.907 121.425 117.249V120.455C121.425 120.797 121.445 121.066 121.486 121.262C121.532 121.453 121.628 121.699 121.773 122H119.162C119.057 121.813 118.989 121.672 118.957 121.576C118.925 121.476 118.893 121.321 118.861 121.111C118.497 121.462 118.134 121.713 117.774 121.863C117.282 122.064 116.71 122.164 116.059 122.164C115.193 122.164 114.534 121.964 114.083 121.562C113.636 121.161 113.413 120.667 113.413 120.079C113.413 119.528 113.575 119.074 113.898 118.719C114.222 118.363 114.819 118.099 115.689 117.926C116.733 117.716 117.41 117.57 117.72 117.488C118.03 117.402 118.358 117.29 118.704 117.153C118.704 116.812 118.633 116.572 118.492 116.436C118.351 116.299 118.103 116.23 117.747 116.23C117.291 116.23 116.95 116.303 116.722 116.449C116.544 116.563 116.4 116.777 116.291 117.092ZM118.704 118.555C118.321 118.691 117.923 118.812 117.508 118.917C116.943 119.067 116.585 119.215 116.435 119.361C116.28 119.512 116.202 119.683 116.202 119.874C116.202 120.093 116.277 120.273 116.428 120.414C116.583 120.551 116.808 120.619 117.104 120.619C117.414 120.619 117.701 120.544 117.966 120.394C118.235 120.243 118.424 120.061 118.533 119.847C118.647 119.628 118.704 119.345 118.704 118.999V118.555Z" fill="#0072B1" /><path d="M49.0039 26.8711H83.7852C89.582 26.8711 94.0254 28.3066 97.1152 31.1777C100.232 34.0488 101.791 37.6035 101.791 41.8418C101.791 45.3965 100.684 48.4453 98.4688 50.9883C96.9922 52.6836 94.832 54.0234 91.9883 55.0078C96.3086 56.0469 99.4805 57.8379 101.504 60.3809C103.555 62.8965 104.58 66.0684 104.58 69.8965C104.58 73.0137 103.855 75.8164 102.406 78.3047C100.957 80.793 98.9746 82.7617 96.459 84.2109C94.9004 85.1133 92.5488 85.7695 89.4043 86.1797C85.2207 86.7266 82.4453 87 81.0781 87H49.0039V26.8711ZM67.748 50.4551H75.8281C78.7266 50.4551 80.7363 49.9629 81.8574 48.9785C83.0059 47.9668 83.5801 46.5176 83.5801 44.6309C83.5801 42.8809 83.0059 41.5137 81.8574 40.5293C80.7363 39.5449 78.7676 39.0527 75.9512 39.0527H67.748V50.4551ZM67.748 74.0801H77.2227C80.4219 74.0801 82.6777 73.5195 83.9902 72.3984C85.3027 71.25 85.959 69.7188 85.959 67.8047C85.959 66.0273 85.3027 64.6055 83.9902 63.5391C82.7051 62.4453 80.4355 61.8984 77.1816 61.8984H67.748V74.0801Z" fill="#0072B1" /><line x1="30" y1="82" x2="46" y2="82" stroke="#0072B1" stroke-width="10" /></g><rect x="3" y="3" width="130" height="130" rx="11" stroke="#0072B1" stroke-width="6" /><defs><clipPath id="clip0_230_1117"><rect x="6" y="6" width="124" height="124" rx="8" fill="white" /></clipPath></defs></svg></svg>