<svg xmlns="http://www.w3.org/2000/svg" viewBox="0 0 408 136"><svg width="136" height="136" viewBox="0 0 136 136" fill="none" xmlns="http://www.w3.org/2000/svg" x="0"><rect x="3" y="3" width="130" height="130" rx="11" fill="#0096DA" /><rect x="3" y="3" width="130" height="130" rx="11" stroke="#0096DA" stroke-width="6" /><path d="M42.6953 113.547C43.3307 112.865 44.1406 112.523 45.125 112.523C46.1927 112.523 47.0417 112.938 47.6719 113.766C48.3021 114.589 48.6172 115.661 48.6172 116.984C48.6172 118.266 48.3021 119.289 47.6719 120.055C47.0417 120.815 46.1875 121.195 45.1094 121.195C44.0885 121.195 43.2839 120.865 42.6953 120.203V124.172H39.5156V120.219C38.849 120.87 38.0365 121.195 37.0781 121.195C36.0156 121.195 35.1693 120.784 34.5391 119.961C33.9089 119.133 33.5938 118.055 33.5938 116.727C33.5938 115.445 33.9089 114.424 34.5391 113.664C35.1693 112.904 36.0208 112.523 37.0938 112.523C38.1094 112.523 38.9167 112.875 39.5156 113.578V109.547H42.6953V113.547ZM44.1328 118.844C44.5495 118.844 44.8698 118.669 45.0938 118.32C45.3177 117.971 45.4297 117.505 45.4297 116.922C45.4297 115.557 44.9818 114.875 44.0859 114.875C43.6953 114.875 43.3594 115.023 43.0781 115.32C42.8021 115.617 42.6641 116.141 42.6641 116.891C42.6641 117.448 42.7891 117.914 43.0391 118.289C43.2891 118.659 43.6536 118.844 44.1328 118.844ZM38.1172 118.844C38.513 118.844 38.849 118.695 39.125 118.398C39.4062 118.096 39.5469 117.57 39.5469 116.82C39.5469 116.263 39.4219 115.799 39.1719 115.43C38.9219 115.06 38.5547 114.875 38.0703 114.875C37.6589 114.875 37.3385 115.049 37.1094 115.398C36.8854 115.742 36.7734 116.206 36.7734 116.789C36.7734 118.159 37.2214 118.844 38.1172 118.844ZM59.4453 121H56.4375V116.922L53.3125 121H50.2891V112.711H53.2969V116.844L56.4531 112.711H59.4453V121ZM69.1562 116.711C69.651 116.867 70.0443 117.112 70.3359 117.445C70.6276 117.773 70.7734 118.138 70.7734 118.539C70.7734 119.404 70.3594 120.062 69.5312 120.516C68.7031 120.969 67.4948 121.195 65.9062 121.195C64.5729 121.195 63.5234 120.951 62.7578 120.461C61.9974 119.966 61.4479 119.224 61.1094 118.234L64.1328 117.898C64.237 118.19 64.4505 118.451 64.7734 118.68C65.1016 118.904 65.474 119.016 65.8906 119.016C66.9583 119.016 67.4922 118.75 67.4922 118.219C67.4922 118.036 67.3906 117.891 67.1875 117.781C66.9844 117.667 66.7188 117.609 66.3906 117.609H65.0078V115.977H66.4219C66.6979 115.977 66.9505 115.919 67.1797 115.805C67.4089 115.69 67.5234 115.544 67.5234 115.367C67.5234 115.169 67.388 115.008 67.1172 114.883C66.8516 114.758 66.4792 114.695 66 114.695C65.5312 114.695 65.1354 114.794 64.8125 114.992C64.4896 115.185 64.2839 115.417 64.1953 115.688L61.2656 115.289C61.5521 114.346 62.0755 113.651 62.8359 113.203C63.5964 112.75 64.6458 112.523 65.9844 112.523C67.375 112.523 68.4635 112.75 69.25 113.203C70.0417 113.656 70.4375 114.229 70.4375 114.922C70.4375 115.755 70.0104 116.352 69.1562 116.711ZM81.6016 121H78.5938V116.922L75.4688 121H72.4453V112.711H75.4531V116.844L78.6094 112.711H81.6016V121ZM92.8672 121H89.2812L88.0625 118.711C87.8698 118.346 87.6797 118.117 87.4922 118.023C87.3099 117.93 87.0833 117.883 86.8125 117.883V121H83.6328V112.711H86.8125V115.703C87.0729 115.677 87.2656 115.591 87.3906 115.445C87.5156 115.299 87.6953 114.979 87.9297 114.484C88.1693 113.99 88.3828 113.628 88.5703 113.398C88.7578 113.169 88.9974 112.997 89.2891 112.883C89.5807 112.768 89.9453 112.695 90.3828 112.664C90.8203 112.633 91.4714 112.617 92.3359 112.617V114.875H92.1953C91.7682 114.875 91.4427 114.893 91.2188 114.93C90.9948 114.961 90.8151 115.031 90.6797 115.141C90.5443 115.25 90.388 115.474 90.2109 115.812C90.0339 116.151 89.8854 116.388 89.7656 116.523C89.651 116.654 89.4792 116.742 89.25 116.789C89.6927 116.831 90.0339 116.927 90.2734 117.078C90.513 117.224 90.875 117.701 91.3594 118.508L92.8672 121ZM96.8125 115.391L93.7734 115.07C93.888 114.539 94.0521 114.122 94.2656 113.82C94.4844 113.513 94.7969 113.247 95.2031 113.023C95.4948 112.862 95.8958 112.737 96.4062 112.648C96.9167 112.56 97.4688 112.516 98.0625 112.516C99.0156 112.516 99.7812 112.57 100.359 112.68C100.938 112.784 101.419 113.005 101.805 113.344C102.076 113.578 102.289 113.911 102.445 114.344C102.602 114.771 102.68 115.18 102.68 115.57V119.234C102.68 119.625 102.703 119.932 102.75 120.156C102.802 120.375 102.911 120.656 103.078 121H100.094C99.974 120.786 99.8958 120.625 99.8594 120.516C99.8229 120.401 99.7865 120.224 99.75 119.984C99.3333 120.385 98.9193 120.672 98.5078 120.844C97.9453 121.073 97.2917 121.188 96.5469 121.188C95.5573 121.188 94.8047 120.958 94.2891 120.5C93.7786 120.042 93.5234 119.477 93.5234 118.805C93.5234 118.174 93.7083 117.656 94.0781 117.25C94.4479 116.844 95.1302 116.542 96.125 116.344C97.3177 116.104 98.0911 115.938 98.4453 115.844C98.7995 115.745 99.1745 115.617 99.5703 115.461C99.5703 115.07 99.4896 114.797 99.3281 114.641C99.1667 114.484 98.8828 114.406 98.4766 114.406C97.9557 114.406 97.5651 114.49 97.3047 114.656C97.1016 114.786 96.9375 115.031 96.8125 115.391ZM99.5703 117.062C99.1328 117.219 98.6771 117.357 98.2031 117.477C97.5573 117.648 97.1484 117.818 96.9766 117.984C96.7995 118.156 96.7109 118.352 96.7109 118.57C96.7109 118.82 96.7969 119.026 96.9688 119.188C97.1458 119.344 97.4036 119.422 97.7422 119.422C98.0964 119.422 98.4245 119.336 98.7266 119.164C99.0339 118.992 99.25 118.784 99.375 118.539C99.5052 118.289 99.5703 117.966 99.5703 117.57V117.062Z" fill="#F0F0F0" /><path d="M45.2695 75.293C42.8346 73.4883 40.5716 70.4948 38.4805 66.3125C36.418 62.1016 35.3867 57.9049 35.3867 53.7227C35.3867 44.8711 38.194 37.8672 43.8086 32.7109C49.4518 27.526 57.4727 24.9336 67.8711 24.9336C78.6133 24.9336 86.7487 27.4115 92.2773 32.3672C97.8346 37.3229 100.613 44.4414 100.613 53.7227C100.613 57.9049 99.5677 62.1016 97.4766 66.3125C95.4141 70.4948 93.1654 73.4883 90.7305 75.293H100.055V89H71.6523V75.293C77.9831 70.8529 81.1484 64.0924 81.1484 55.0117C81.1484 44.6992 76.7227 39.543 67.8711 39.543C63.6029 39.543 60.3659 40.918 58.1602 43.668C55.9544 46.418 54.8516 50.1992 54.8516 55.0117C54.8516 63.5195 58.0169 70.2799 64.3477 75.293V89H35.9023V75.293H45.2695Z" fill="#F0F0F0" /></svg><svg width="136" height="136" viewBox="0 0 136 136" fill="none" xmlns="http://www.w3.org/2000/svg" x="136"><rect x="3" y="3" width="130" height="130" rx="11" fill="#F0F0F0" /><rect x="3" y="3" width="130" height="130" rx="11" stroke="#0096DA" stroke-width="6" /><path d="M42.6953 113.547C43.3307 112.865 44.1406 112.523 45.125 112.523C46.1927 112.523 47.0417 112.938 47.6719 113.766C48.3021 114.589 48.6172 115.661 48.6172 116.984C48.6172 118.266 48.3021 119.289 47.6719 120.055C47.0417 120.815 46.1875 121.195 45.1094 121.195C44.0885 121.195 43.2839 120.865 42.6953 120.203V124.172H39.5156V120.219C38.849 120.87 38.0365 121.195 37.0781 121.195C36.0156 121.195 35.1693 120.784 34.5391 119.961C33.9089 119.133 33.5938 118.055 33.5938 116.727C33.5938 115.445 33.9089 114.424 34.5391 113.664C35.1693 112.904 36.0208 112.523 37.0938 112.523C38.1094 112.523 38.9167 112.875 39.5156 113.578V109.547H42.6953V113.547ZM44.1328 118.844C44.5495 118.844 44.8698 118.669 45.0938 118.32C45.3177 117.971 45.4297 117.505 45.4297 116.922C45.4297 115.557 44.9818 114.875 44.0859 114.875C43.6953 114.875 43.3594 115.023 43.0781 115.32C42.8021 115.617 42.6641 116.141 42.6641 116.891C42.6641 117.448 42.7891 117.914 43.0391 118.289C43.2891 118.659 43.6536 118.844 44.1328 118.844ZM38.1172 118.844C38.513 118.844 38.849 118.695 39.125 118.398C39.4062 118.096 39.5469 117.57 39.5469 116.82C39.5469 116.263 39.4219 115.799 39.1719 115.43C38.9219 115.06 38.5547 114.875 38.0703 114.875C37.6589 114.875 37.3385 115.049 37.1094 115.398C36.8854 115.742 36.7734 116.206 36.7734 116.789C36.7734 118.159 37.2214 118.844 38.1172 118.844ZM59.4453 121H56.4375V116.922L53.3125 121H50.2891V112.711H53.2969V116.844L56.4531 112.711H59.4453V121ZM69.1562 116.711C69.651 116.867 70.0443 117.112 70.3359 117.445C70.6276 117.773 70.7734 118.138 70.7734 118.539C70.7734 119.404 70.3594 120.062 69.5312 120.516C68.7031 120.969 67.4948 121.195 65.9062 121.195C64.5729 121.195 63.5234 120.951 62.7578 120.461C61.9974 119.966 61.4479 119.224 61.1094 118.234L64.1328 117.898C64.237 118.19 64.4505 118.451 64.7734 118.68C65.1016 118.904 65.474 119.016 65.8906 119.016C66.9583 119.016 67.4922 118.75 67.4922 118.219C67.4922 118.036 67.3906 117.891 67.1875 117.781C66.9844 117.667 66.7188 117.609 66.3906 117.609H65.0078V115.977H66.4219C66.6979 115.977 66.9505 115.919 67.1797 115.805C67.4089 115.69 67.5234 115.544 67.5234 115.367C67.5234 115.169 67.388 115.008 67.1172 114.883C66.8516 114.758 66.4792 114.695 66 114.695C65.5312 114.695 65.1354 114.794 64.8125 114.992C64.4896 115.185 64.2839 115.417 64.1953 115.688L61.2656 115.289C61.5521 114.346 62.0755 113.651 62.8359 113.203C63.5964 112.75 64.6458 112.523 65.9844 112.523C67.375 112.523 68.4635 112.75 69.25 113.203C70.0417 113.656 70.4375 114.229 70.4375 114.922C70.4375 115.755 70.0104 116.352 69.1562 116.711ZM81.6016 121H78.5938V116.922L75.4688 121H72.4453V112.711H75.4531V116.844L78.6094 112.711H81.6016V121ZM92.8672 121H89.2812L88.0625 118.711C87.8698 118.346 87.6797 118.117 87.4922 118.023C87.3099 117.93 87.0833 117.883 86.8125 117.883V121H83.6328V112.711H86.8125V115.703C87.0729 115.677 87.2656 115.591 87.3906 115.445C87.5156 115.299 87.6953 114.979 87.9297 114.484C88.1693 113.99 88.3828 113.628 88.5703 113.398C88.7578 113.169 88.9974 112.997 89.2891 112.883C89.5807 112.768 89.9453 112.695 90.3828 112.664C90.8203 112.633 91.4714 112.617 92.3359 112.617V114.875H92.1953C91.7682 114.875 91.4427 114.893 91.2188 114.93C90.9948 114.961 90.8151 115.031 90.6797 115.141C90.5443 115.25 90.388 115.474 90.2109 115.812C90.0339 116.151 89.8854 116.388 89.7656 116.523C89.651 116.654 89.4792 116.742 89.25 116.789C89.6927 116.831 90.0339 116.927 90.2734 117.078C90.513 117.224 90.875 117.701 91.3594 118.508L92.8672 121ZM96.8125 115.391L93.7734 115.07C93.888 114.539 94.0521 114.122 94.2656 113.82C94.4844 113.513 94.7969 113.247 95.2031 113.023C95.4948 112.862 95.8958 112.737 96.4062 112.648C96.9167 112.56 97.4688 112.516 98.0625 112.516C99.0156 112.516 99.7812 112.57 100.359 112.68C100.938 112.784 101.419 113.005 101.805 113.344C102.076 113.578 102.289 113.911 102.445 114.344C102.602 114.771 102.68 115.18 102.68 115.57V119.234C102.68 119.625 102.703 119.932 102.75 120.156C102.802 120.375 102.911 120.656 103.078 121H100.094C99.974 120.786 99.8958 120.625 99.8594 120.516C99.8229 120.401 99.7865 120.224 99.75 119.984C99.3333 120.385 98.9193 120.672 98.5078 120.844C97.9453 121.073 97.2917 121.188 96.5469 121.188C95.5573 121.188 94.8047 120.958 94.2891 120.5C93.7786 120.042 93.5234 119.477 93.5234 118.805C93.5234 118.174 93.7083 117.656 94.0781 117.25C94.4479 116.844 95.1302 116.542 96.125 116.344C97.3177 116.104 98.0911 115.938 98.4453 115.844C98.7995 115.745 99.1745 115.617 99.5703 115.461C99.5703 115.07 99.4896 114.797 99.3281 114.641C99.1667 114.484 98.8828 114.406 98.4766 114.406C97.9557 114.406 97.5651 114.49 97.3047 114.656C97.1016 114.786 96.9375 115.031 96.8125 115.391ZM99.5703 117.062C99.1328 117.219 98.6771 117.357 98.2031 117.477C97.5573 117.648 97.1484 117.818 96.9766 117.984C96.7995 118.156 96.7109 118.352 96.7109 118.57C96.7109 118.82 96.7969 119.026 96.9688 119.188C97.1458 119.344 97.4036 119.422 97.7422 119.422C98.0964 119.422 98.4245 119.336 98.7266 119.164C99.0339 118.992 99.25 118.784 99.375 118.539C99.5052 118.289 99.5703 117.966 99.5703 117.57V117.062Z" fill="#0096DA" /><path d="M45.2695 75.293C42.8346 73.4883 40.5716 70.4948 38.4805 66.3125C36.418 62.1016 35.3867 57.9049 35.3867 53.7227C35.3867 44.8711 38.194 37.8672 43.8086 32.7109C49.4518 27.526 57.4727 24.9336 67.8711 24.9336C78.6133 24.9336 86.7487 27.4115 92.2773 32.3672C97.8346 37.3229 100.613 44.4414 100.613 53.7227C100.613 57.9049 99.5677 62.1016 97.4766 66.3125C95.4141 70.4948 93.1654 73.4883 90.7305 75.293H100.055V89H71.6523V75.293C77.9831 70.8529 81.1484 64.0924 81.1484 55.0117C81.1484 44.6992 76.7227 39.543 67.8711 39.543C63.6029 39.543 60.3659 40.918 58.1602 43.668C55.9544 46.418 54.8516 50.1992 54.8516 55.0117C54.8516 63.5195 58.0169 70.2799 64.3477 75.293V89H35.9023V75.293H45.2695Z" fill="#0096DA" /></svg><svg width="136" height="136" viewBox="0 0 136 136" fill="none" xmlns="http://www.w3.org/2000/svg" x="272"><rect x="3" y="3" width="130" height="130" rx="11" fill="#F0F0F0" /><rect x="3" y="3" width="130" height="130" rx="11" stroke="#0072B1" stroke-width="6" /><path d="M42.6953 113.547C43.3307 112.865 44.1406 112.523 45.125 112.523C46.1927 112.523 47.0417 112.938 47.6719 113.766C48.3021 114.589 48.6172 115.661 48.6172 116.984C48.6172 118.266 48.3021 119.289 47.6719 120.055C47.0417 120.815 46.1875 121.195 45.1094 121.195C44.0885 121.195 43.2839 120.865 42.6953 120.203V124.172H39.5156V120.219C38.849 120.87 38.0365 121.195 37.0781 121.195C36.0156 121.195 35.1693 120.784 34.5391 119.961C33.9089 119.133 33.5938 118.055 33.5938 116.727C33.5938 115.445 33.9089 114.424 34.5391 113.664C35.1693 112.904 36.0208 112.523 37.0938 112.523C38.1094 112.523 38.9167 112.875 39.5156 113.578V109.547H42.6953V113.547ZM44.1328 118.844C44.5495 118.844 44.8698 118.669 45.0938 118.32C45.3177 117.971 45.4297 117.505 45.4297 116.922C45.4297 115.557 44.9818 114.875 44.0859 114.875C43.6953 114.875 43.3594 115.023 43.0781 115.32C42.8021 115.617 42.6641 116.141 42.6641 116.891C42.6641 117.448 42.7891 117.914 43.0391 118.289C43.2891 118.659 43.6536 118.844 44.1328 118.844ZM38.1172 118.844C38.513 118.844 38.849 118.695 39.125 118.398C39.4062 118.096 39.5469 117.57 39.5469 116.82C39.5469 116.263 39.4219 115.799 39.1719 115.43C38.9219 115.06 38.5547 114.875 38.0703 114.875C37.6589 114.875 37.3385 115.049 37.1094 115.398C36.8854 115.742 36.7734 116.206 36.7734 116.789C36.7734 118.159 37.2214 118.844 38.1172 118.844ZM59.4453 121H56.4375V116.922L53.3125 121H50.2891V112.711H53.2969V116.844L56.4531 112.711H59.4453V121ZM69.1562 116.711C69.651 116.867 70.0443 117.112 70.3359 117.445C70.6276 117.773 70.7734 118.138 70.7734 118.539C70.7734 119.404 70.3594 120.062 69.5312 120.516C68.7031 120.969 67.4948 121.195 65.9062 121.195C64.5729 121.195 63.5234 120.951 62.7578 120.461C61.9974 119.966 61.4479 119.224 61.1094 118.234L64.1328 117.898C64.237 118.19 64.4505 118.451 64.7734 118.68C65.1016 118.904 65.474 119.016 65.8906 119.016C66.9583 119.016 67.4922 118.75 67.4922 118.219C67.4922 118.036 67.3906 117.891 67.1875 117.781C66.9844 117.667 66.7188 117.609 66.3906 117.609H65.0078V115.977H66.4219C66.6979 115.977 66.9505 115.919 67.1797 115.805C67.4089 115.69 67.5234 115.544 67.5234 115.367C67.5234 115.169 67.388 115.008 67.1172 114.883C66.8516 114.758 66.4792 114.695 66 114.695C65.5312 114.695 65.1354 114.794 64.8125 114.992C64.4896 115.185 64.2839 115.417 64.1953 115.688L61.2656 115.289C61.5521 114.346 62.0755 113.651 62.8359 113.203C63.5964 112.75 64.6458 112.523 65.9844 112.523C67.375 112.523 68.4635 112.75 69.25 113.203C70.0417 113.656 70.4375 114.229 70.4375 114.922C70.4375 115.755 70.0104 116.352 69.1562 116.711ZM81.6016 121H78.5938V116.922L75.4688 121H72.4453V112.711H75.4531V116.844L78.6094 112.711H81.6016V121ZM92.8672 121H89.2812L88.0625 118.711C87.8698 118.346 87.6797 118.117 87.4922 118.023C87.3099 117.93 87.0833 117.883 86.8125 117.883V121H83.6328V112.711H86.8125V115.703C87.0729 115.677 87.2656 115.591 87.3906 115.445C87.5156 115.299 87.6953 114.979 87.9297 114.484C88.1693 113.99 88.3828 113.628 88.5703 113.398C88.7578 113.169 88.9974 112.997 89.2891 112.883C89.5807 112.768 89.9453 112.695 90.3828 112.664C90.8203 112.633 91.4714 112.617 92.3359 112.617V114.875H92.1953C91.7682 114.875 91.4427 114.893 91.2188 114.93C90.9948 114.961 90.8151 115.031 90.6797 115.141C90.5443 115.25 90.388 115.474 90.2109 115.812C90.0339 116.151 89.8854 116.388 89.7656 116.523C89.651 116.654 89.4792 116.742 89.25 116.789C89.6927 116.831 90.0339 116.927 90.2734 117.078C90.513 117.224 90.875 117.701 91.3594 118.508L92.8672 121ZM96.8125 115.391L93.7734 115.07C93.888 114.539 94.0521 114.122 94.2656 113.82C94.4844 113.513 94.7969 113.247 95.2031 113.023C95.4948 112.862 95.8958 112.737 96.4062 112.648C96.9167 112.56 97.4688 112.516 98.0625 112.516C99.0156 112.516 99.7812 112.57 100.359 112.68C100.938 112.784 101.419 113.005 101.805 113.344C102.076 113.578 102.289 113.911 102.445 114.344C102.602 114.771 102.68 115.18 102.68 115.57V119.234C102.68 119.625 102.703 119.932 102.75 120.156C102.802 120.375 102.911 120.656 103.078 121H100.094C99.974 120.786 99.8958 120.625 99.8594 120.516C99.8229 120.401 99.7865 120.224 99.75 119.984C99.3333 120.385 98.9193 120.672 98.5078 120.844C97.9453 121.073 97.2917 121.188 96.5469 121.188C95.5573 121.188 94.8047 120.958 94.2891 120.5C93.7786 120.042 93.5234 119.477 93.5234 118.805C93.5234 118.174 93.7083 117.656 94.0781 117.25C94.4479 116.844 95.1302 116.542 96.125 116.344C97.3177 116.104 98.0911 115.938 98.4453 115.844C98.7995 115.745 99.1745 115.617 99.5703 115.461C99.5703 115.07 99.4896 114.797 99.3281 114.641C99.1667 114.484 98.8828 114.406 98.4766 114.406C97.9557 114.406 97.5651 114.49 97.3047 114.656C97.1016 114.786 96.9375 115.031 96.8125 115.391ZM99.5703 117.062C99.1328 117.219 98.6771 117.357 98.2031 117.477C97.5573 117.648 97.1484 117.818 96.9766 117.984C96.7995 118.156 96.7109 118.352 96.7109 118.57C96.7109 118.82 96.7969 119.026 96.9688 119.188C97.1458 119.344 97.4036 119.422 97.7422 119.422C98.0964 119.422 98.4245 119.336 98.7266 119.164C99.0339 118.992 99.25 118.784 99.375 118.539C99.5052 118.289 99.5703 117.966 99.5703 117.57V117.062Z" fill="#0072B1" /><path d="M45.2695 75.293C42.8346 73.4883 40.5716 70.4948 38.4805 66.3125C36.418 62.1016 35.3867 57.9049 35.3867 53.7227C35.3867 44.8711 38.194 37.8672 43.8086 32.7109C49.4518 27.526 57.4727 24.9336 67.8711 24.9336C78.6133 24.9336 86.7487 27.4115 92.2773 32.3672C97.8346 37.3229 100.613 44.4414 100.613 53.7227C100.613 57.9049 99.5677 62.1016 97.4766 66.3125C95.4141 70.4948 93.1654 73.4883 90.7305 75.293H100.055V89H71.6523V75.293C77.9831 70.8529 81.1484 64.0924 81.1484 55.0117C81.1484 44.6992 76.7227 39.543 67.8711 39.543C63.6029 39.543 60.3659 40.918 58.1602 43.668C55.9544 46.418 54.8516 50.1992 54.8516 55.0117C54.8516 63.5195 58.0169 70.2799 64.3477 75.293V89H35.9023V75.293H45.2695Z" fill="#0072B1" /></svg></svg>