<svg xmlns="http://www.w3.org/2000/svg" viewBox="0 0 408 136"><svg width="136" height="136" viewBox="0 0 136 136" fill="none" xmlns="http://www.w3.org/2000/svg" x="0"><g clip-path="url(#clip0_167_448)"><rect x="6" y="6" width="124" height="124" rx="8" fill="#FF41AF" /><path d="M26.4922 121H23.3125V115.031H20.8984V118.508C20.8984 119.435 20.7083 120.122 20.3281 120.57C19.9531 121.018 19.375 121.242 18.5938 121.242C17.7083 121.242 16.9141 121.161 16.2109 121V118.648C16.5859 118.763 16.8724 118.82 17.0703 118.82C17.4974 118.82 17.7109 118.503 17.7109 117.867V112.711H26.4922V121ZM37.6797 121H34.6719V116.922L31.5469 121H28.5234V112.711H31.5312V116.844L34.6875 112.711H37.6797V121ZM46.7031 115.031H44.3984V121H41.2109V115.031H38.9062V112.711H46.7031V115.031ZM57.0469 117.641H50.6719C50.7292 118.151 50.8672 118.531 51.0859 118.781C51.3932 119.141 51.7943 119.32 52.2891 119.32C52.6016 119.32 52.8984 119.242 53.1797 119.086C53.3516 118.987 53.5365 118.812 53.7344 118.562L56.8672 118.852C56.388 119.685 55.8099 120.284 55.1328 120.648C54.4557 121.008 53.4844 121.188 52.2188 121.188C51.1198 121.188 50.2552 121.034 49.625 120.727C48.9948 120.414 48.4714 119.922 48.0547 119.25C47.6432 118.573 47.4375 117.779 47.4375 116.867C47.4375 115.57 47.8516 114.521 48.6797 113.719C49.513 112.917 50.6615 112.516 52.125 112.516C53.3125 112.516 54.25 112.695 54.9375 113.055C55.625 113.414 56.1484 113.935 56.5078 114.617C56.8672 115.299 57.0469 116.188 57.0469 117.281V117.641ZM53.8125 116.117C53.75 115.503 53.5833 115.062 53.3125 114.797C53.0469 114.531 52.6953 114.398 52.2578 114.398C51.7526 114.398 51.349 114.599 51.0469 115C50.8542 115.25 50.7318 115.622 50.6797 116.117H53.8125ZM58.5234 124.156V112.703H61.5V113.93C61.9115 113.414 62.2891 113.065 62.6328 112.883C63.0964 112.638 63.6094 112.516 64.1719 112.516C65.2812 112.516 66.138 112.94 66.7422 113.789C67.3516 114.638 67.6562 115.688 67.6562 116.938C67.6562 118.318 67.3255 119.372 66.6641 120.102C66.0026 120.826 65.1667 121.188 64.1562 121.188C63.6667 121.188 63.2188 121.104 62.8125 120.938C62.4115 120.771 62.0521 120.523 61.7344 120.195V124.156H58.5234ZM61.7109 116.875C61.7109 117.531 61.849 118.018 62.125 118.336C62.401 118.654 62.75 118.812 63.1719 118.812C63.5417 118.812 63.8516 118.661 64.1016 118.359C64.3516 118.052 64.4766 117.534 64.4766 116.805C64.4766 116.133 64.3464 115.641 64.0859 115.328C63.8255 115.01 63.5078 114.852 63.1328 114.852C62.7266 114.852 62.388 115.01 62.1172 115.328C61.8464 115.646 61.7109 116.161 61.7109 116.875ZM72.0781 115.391L69.0391 115.07C69.1536 114.539 69.3177 114.122 69.5312 113.82C69.75 113.513 70.0625 113.247 70.4688 113.023C70.7604 112.862 71.1615 112.737 71.6719 112.648C72.1823 112.56 72.7344 112.516 73.3281 112.516C74.2812 112.516 75.0469 112.57 75.625 112.68C76.2031 112.784 76.6849 113.005 77.0703 113.344C77.3411 113.578 77.5547 113.911 77.7109 114.344C77.8672 114.771 77.9453 115.18 77.9453 115.57V119.234C77.9453 119.625 77.9688 119.932 78.0156 120.156C78.0677 120.375 78.1771 120.656 78.3438 121H75.3594C75.2396 120.786 75.1615 120.625 75.125 120.516C75.0885 120.401 75.0521 120.224 75.0156 119.984C74.599 120.385 74.1849 120.672 73.7734 120.844C73.2109 121.073 72.5573 121.188 71.8125 121.188C70.8229 121.188 70.0703 120.958 69.5547 120.5C69.0443 120.042 68.7891 119.477 68.7891 118.805C68.7891 118.174 68.974 117.656 69.3438 117.25C69.7135 116.844 70.3958 116.542 71.3906 116.344C72.5833 116.104 73.3568 115.938 73.7109 115.844C74.0651 115.745 74.4401 115.617 74.8359 115.461C74.8359 115.07 74.7552 114.797 74.5938 114.641C74.4323 114.484 74.1484 114.406 73.7422 114.406C73.2214 114.406 72.8307 114.49 72.5703 114.656C72.3672 114.786 72.2031 115.031 72.0781 115.391ZM74.8359 117.062C74.3984 117.219 73.9427 117.357 73.4688 117.477C72.8229 117.648 72.4141 117.818 72.2422 117.984C72.0651 118.156 71.9766 118.352 71.9766 118.57C71.9766 118.82 72.0625 119.026 72.2344 119.188C72.4115 119.344 72.6693 119.422 73.0078 119.422C73.362 119.422 73.6901 119.336 73.9922 119.164C74.2995 118.992 74.5156 118.784 74.6406 118.539C74.7708 118.289 74.8359 117.966 74.8359 117.57V117.062ZM86.8438 115.031H84.5391V121H81.3516V115.031H79.0469V112.711H86.8438V115.031ZM87.0547 112.703H90.4141L92.125 118.227L93.7109 112.703H96.8438L93.5547 121.57C93.1797 122.581 92.7969 123.263 92.4062 123.617C91.8542 124.117 91.013 124.367 89.8828 124.367C89.4245 124.367 88.7161 124.305 87.7578 124.18L87.5078 121.961C87.9661 122.107 88.4766 122.18 89.0391 122.18C89.4141 122.18 89.7161 122.094 89.9453 121.922C90.1797 121.75 90.3776 121.443 90.5391 121L87.0547 112.703ZM97.7734 124.156V112.703H100.75V113.93C101.161 113.414 101.539 113.065 101.883 112.883C102.346 112.638 102.859 112.516 103.422 112.516C104.531 112.516 105.388 112.94 105.992 113.789C106.602 114.638 106.906 115.688 106.906 116.938C106.906 118.318 106.576 119.372 105.914 120.102C105.253 120.826 104.417 121.188 103.406 121.188C102.917 121.188 102.469 121.104 102.062 120.938C101.661 120.771 101.302 120.523 100.984 120.195V124.156H97.7734ZM100.961 116.875C100.961 117.531 101.099 118.018 101.375 118.336C101.651 118.654 102 118.812 102.422 118.812C102.792 118.812 103.102 118.661 103.352 118.359C103.602 118.052 103.727 117.534 103.727 116.805C103.727 116.133 103.596 115.641 103.336 115.328C103.076 115.01 102.758 114.852 102.383 114.852C101.977 114.852 101.638 115.01 101.367 115.328C101.096 115.646 100.961 116.161 100.961 116.875ZM111.328 115.391L108.289 115.07C108.404 114.539 108.568 114.122 108.781 113.82C109 113.513 109.312 113.247 109.719 113.023C110.01 112.862 110.411 112.737 110.922 112.648C111.432 112.56 111.984 112.516 112.578 112.516C113.531 112.516 114.297 112.57 114.875 112.68C115.453 112.784 115.935 113.005 116.32 113.344C116.591 113.578 116.805 113.911 116.961 114.344C117.117 114.771 117.195 115.18 117.195 115.57V119.234C117.195 119.625 117.219 119.932 117.266 120.156C117.318 120.375 117.427 120.656 117.594 121H114.609C114.49 120.786 114.411 120.625 114.375 120.516C114.339 120.401 114.302 120.224 114.266 119.984C113.849 120.385 113.435 120.672 113.023 120.844C112.461 121.073 111.807 121.188 111.062 121.188C110.073 121.188 109.32 120.958 108.805 120.5C108.294 120.042 108.039 119.477 108.039 118.805C108.039 118.174 108.224 117.656 108.594 117.25C108.964 116.844 109.646 116.542 110.641 116.344C111.833 116.104 112.607 115.938 112.961 115.844C113.315 115.745 113.69 115.617 114.086 115.461C114.086 115.07 114.005 114.797 113.844 114.641C113.682 114.484 113.398 114.406 112.992 114.406C112.471 114.406 112.081 114.49 111.82 114.656C111.617 114.786 111.453 115.031 111.328 115.391ZM114.086 117.062C113.648 117.219 113.193 117.357 112.719 117.477C112.073 117.648 111.664 117.818 111.492 117.984C111.315 118.156 111.227 118.352 111.227 118.57C111.227 118.82 111.312 119.026 111.484 119.188C111.661 119.344 111.919 119.422 112.258 119.422C112.612 119.422 112.94 119.336 113.242 119.164C113.549 118.992 113.766 118.784 113.891 118.539C114.021 118.289 114.086 117.966 114.086 117.57V117.062Z" fill="#F0F0F0" /><path d="M28.5167 61.2422H73.548V70.7812H28.5167V61.2422ZM83.9911 26.0078H102.683V40.3594L99.0731 69.1914H87.5145L83.9911 40.3594V26.0078ZM84.6356 73.5742H102.081V89H84.6356V73.5742Z" fill="#F0F0F0" /></g><rect x="3" y="3" width="130" height="130" rx="11" stroke="#FF41AF" stroke-width="6" /><defs><clipPath id="clip0_167_448"><rect x="6" y="6" width="124" height="124" rx="8" fill="white" /></clipPath></defs></svg><svg width="136" height="136" viewBox="0 0 136 136" fill="none" xmlns="http://www.w3.org/2000/svg" x="136"><g clip-path="url(#clip0_230_1110)"><rect x="6" y="6" width="124" height="124" rx="8" fill="#F0F0F0" /><path d="M26.4922 121H23.3125V115.031H20.8984V118.508C20.8984 119.435 20.7083 120.122 20.3281 120.57C19.9531 121.018 19.375 121.242 18.5938 121.242C17.7083 121.242 16.9141 121.161 16.2109 121V118.648C16.5859 118.763 16.8724 118.82 17.0703 118.82C17.4974 118.82 17.7109 118.503 17.7109 117.867V112.711H26.4922V121ZM37.6797 121H34.6719V116.922L31.5469 121H28.5234V112.711H31.5312V116.844L34.6875 112.711H37.6797V121ZM46.7031 115.031H44.3984V121H41.2109V115.031H38.9062V112.711H46.7031V115.031ZM57.0469 117.641H50.6719C50.7292 118.151 50.8672 118.531 51.0859 118.781C51.3932 119.141 51.7943 119.32 52.2891 119.32C52.6016 119.32 52.8984 119.242 53.1797 119.086C53.3516 118.987 53.5365 118.812 53.7344 118.562L56.8672 118.852C56.388 119.685 55.8099 120.284 55.1328 120.648C54.4557 121.008 53.4844 121.188 52.2188 121.188C51.1198 121.188 50.2552 121.034 49.625 120.727C48.9948 120.414 48.4714 119.922 48.0547 119.25C47.6432 118.573 47.4375 117.779 47.4375 116.867C47.4375 115.57 47.8516 114.521 48.6797 113.719C49.513 112.917 50.6615 112.516 52.125 112.516C53.3125 112.516 54.25 112.695 54.9375 113.055C55.625 113.414 56.1484 113.935 56.5078 114.617C56.8672 115.299 57.0469 116.188 57.0469 117.281V117.641ZM53.8125 116.117C53.75 115.503 53.5833 115.062 53.3125 114.797C53.0469 114.531 52.6953 114.398 52.2578 114.398C51.7526 114.398 51.349 114.599 51.0469 115C50.8542 115.25 50.7318 115.622 50.6797 116.117H53.8125ZM58.5234 124.156V112.703H61.5V113.93C61.9115 113.414 62.2891 113.065 62.6328 112.883C63.0964 112.638 63.6094 112.516 64.1719 112.516C65.2812 112.516 66.138 112.94 66.7422 113.789C67.3516 114.638 67.6562 115.688 67.6562 116.938C67.6562 118.318 67.3255 119.372 66.6641 120.102C66.0026 120.826 65.1667 121.188 64.1562 121.188C63.6667 121.188 63.2188 121.104 62.8125 120.938C62.4115 120.771 62.0521 120.523 61.7344 120.195V124.156H58.5234ZM61.7109 116.875C61.7109 117.531 61.849 118.018 62.125 118.336C62.401 118.654 62.75 118.812 63.1719 118.812C63.5417 118.812 63.8516 118.661 64.1016 118.359C64.3516 118.052 64.4766 117.534 64.4766 116.805C64.4766 116.133 64.3464 115.641 64.0859 115.328C63.8255 115.01 63.5078 114.852 63.1328 114.852C62.7266 114.852 62.388 115.01 62.1172 115.328C61.8464 115.646 61.7109 116.161 61.7109 116.875ZM72.0781 115.391L69.0391 115.07C69.1536 114.539 69.3177 114.122 69.5312 113.82C69.75 113.513 70.0625 113.247 70.4688 113.023C70.7604 112.862 71.1615 112.737 71.6719 112.648C72.1823 112.56 72.7344 112.516 73.3281 112.516C74.2812 112.516 75.0469 112.57 75.625 112.68C76.2031 112.784 76.6849 113.005 77.0703 113.344C77.3411 113.578 77.5547 113.911 77.7109 114.344C77.8672 114.771 77.9453 115.18 77.9453 115.57V119.234C77.9453 119.625 77.9688 119.932 78.0156 120.156C78.0677 120.375 78.1771 120.656 78.3438 121H75.3594C75.2396 120.786 75.1615 120.625 75.125 120.516C75.0885 120.401 75.0521 120.224 75.0156 119.984C74.599 120.385 74.1849 120.672 73.7734 120.844C73.2109 121.073 72.5573 121.188 71.8125 121.188C70.8229 121.188 70.0703 120.958 69.5547 120.5C69.0443 120.042 68.7891 119.477 68.7891 118.805C68.7891 118.174 68.974 117.656 69.3438 117.25C69.7135 116.844 70.3958 116.542 71.3906 116.344C72.5833 116.104 73.3568 115.938 73.7109 115.844C74.0651 115.745 74.4401 115.617 74.8359 115.461C74.8359 115.07 74.7552 114.797 74.5938 114.641C74.4323 114.484 74.1484 114.406 73.7422 114.406C73.2214 114.406 72.8307 114.49 72.5703 114.656C72.3672 114.786 72.2031 115.031 72.0781 115.391ZM74.8359 117.062C74.3984 117.219 73.9427 117.357 73.4688 117.477C72.8229 117.648 72.4141 117.818 72.2422 117.984C72.0651 118.156 71.9766 118.352 71.9766 118.57C71.9766 118.82 72.0625 119.026 72.2344 119.188C72.4115 119.344 72.6693 119.422 73.0078 119.422C73.362 119.422 73.6901 119.336 73.9922 119.164C74.2995 118.992 74.5156 118.784 74.6406 118.539C74.7708 118.289 74.8359 117.966 74.8359 117.57V117.062ZM86.8438 115.031H84.5391V121H81.3516V115.031H79.0469V112.711H86.8438V115.031ZM87.0547 112.703H90.4141L92.125 118.227L93.7109 112.703H96.8438L93.5547 121.57C93.1797 122.581 92.7969 123.263 92.4062 123.617C91.8542 124.117 91.013 124.367 89.8828 124.367C89.4245 124.367 88.7161 124.305 87.7578 124.18L87.5078 121.961C87.9661 122.107 88.4766 122.18 89.0391 122.18C89.4141 122.18 89.7161 122.094 89.9453 121.922C90.1797 121.75 90.3776 121.443 90.5391 121L87.0547 112.703ZM97.7734 124.156V112.703H100.75V113.93C101.161 113.414 101.539 113.065 101.883 112.883C102.346 112.638 102.859 112.516 103.422 112.516C104.531 112.516 105.388 112.94 105.992 113.789C106.602 114.638 106.906 115.688 106.906 116.938C106.906 118.318 106.576 119.372 105.914 120.102C105.253 120.826 104.417 121.188 103.406 121.188C102.917 121.188 102.469 121.104 102.062 120.938C101.661 120.771 101.302 120.523 100.984 120.195V124.156H97.7734ZM100.961 116.875C100.961 117.531 101.099 118.018 101.375 118.336C101.651 118.654 102 118.812 102.422 118.812C102.792 118.812 103.102 118.661 103.352 118.359C103.602 118.052 103.727 117.534 103.727 116.805C103.727 116.133 103.596 115.641 103.336 115.328C103.076 115.01 102.758 114.852 102.383 114.852C101.977 114.852 101.638 115.01 101.367 115.328C101.096 115.646 100.961 116.161 100.961 116.875ZM111.328 115.391L108.289 115.07C108.404 114.539 108.568 114.122 108.781 113.82C109 113.513 109.312 113.247 109.719 113.023C110.01 112.862 110.411 112.737 110.922 112.648C111.432 112.56 111.984 112.516 112.578 112.516C113.531 112.516 114.297 112.57 114.875 112.68C115.453 112.784 115.935 113.005 116.32 113.344C116.591 113.578 116.805 113.911 116.961 114.344C117.117 114.771 117.195 115.18 117.195 115.57V119.234C117.195 119.625 117.219 119.932 117.266 120.156C117.318 120.375 117.427 120.656 117.594 121H114.609C114.49 120.786 114.411 120.625 114.375 120.516C114.339 120.401 114.302 120.224 114.266 119.984C113.849 120.385 113.435 120.672 113.023 120.844C112.461 121.073 111.807 121.188 111.062 121.188C110.073 121.188 109.32 120.958 108.805 120.5C108.294 120.042 108.039 119.477 108.039 118.805C108.039 118.174 108.224 117.656 108.594 117.25C108.964 116.844 109.646 116.542 110.641 116.344C111.833 116.104 112.607 115.938 112.961 115.844C113.315 115.745 113.69 115.617 114.086 115.461C114.086 115.07 114.005 114.797 113.844 114.641C113.682 114.484 113.398 114.406 112.992 114.406C112.471 114.406 112.081 114.49 111.82 114.656C111.617 114.786 111.453 115.031 111.328 115.391ZM114.086 117.062C113.648 117.219 113.193 117.357 112.719 117.477C112.073 117.648 111.664 117.818 111.492 117.984C111.315 118.156 111.227 118.352 111.227 118.57C111.227 118.82 111.312 119.026 111.484 119.188C111.661 119.344 111.919 119.422 112.258 119.422C112.612 119.422 112.94 119.336 113.242 119.164C113.549 118.992 113.766 118.784 113.891 118.539C114.021 118.289 114.086 117.966 114.086 117.57V117.062Z" fill="#FF41AF" /><path d="M28.5167 61.2422H73.548V70.7812H28.5167V61.2422ZM83.9911 26.0078H102.683V40.3594L99.0731 69.1914H87.5145L83.9911 40.3594V26.0078ZM84.6356 73.5742H102.081V89H84.6356V73.5742Z" fill="#FF41AF" /></g><rect x="3" y="3" width="130" height="130" rx="11" stroke="#FF41AF" stroke-width="6" /><defs><clipPath id="clip0_230_1110"><rect x="6" y="6" width="124" height="124" rx="8" fill="white" /></clipPath></defs></svg><svg width="136" height="136" viewBox="0 0 136 136" fill="none" xmlns="http://www.w3.org/2000/svg" x="272"><g clip-path="url(#clip0_230_1109)"><rect x="6" y="6" width="124" height="124" rx="8" fill="#F0F0F0" /><path d="M26.4922 121H23.3125V115.031H20.8984V118.508C20.8984 119.435 20.7083 120.122 20.3281 120.57C19.9531 121.018 19.375 121.242 18.5938 121.242C17.7083 121.242 16.9141 121.161 16.2109 121V118.648C16.5859 118.763 16.8724 118.82 17.0703 118.82C17.4974 118.82 17.7109 118.503 17.7109 117.867V112.711H26.4922V121ZM37.6797 121H34.6719V116.922L31.5469 121H28.5234V112.711H31.5312V116.844L34.6875 112.711H37.6797V121ZM46.7031 115.031H44.3984V121H41.2109V115.031H38.9062V112.711H46.7031V115.031ZM57.0469 117.641H50.6719C50.7292 118.151 50.8672 118.531 51.0859 118.781C51.3932 119.141 51.7943 119.32 52.2891 119.32C52.6016 119.32 52.8984 119.242 53.1797 119.086C53.3516 118.987 53.5365 118.812 53.7344 118.562L56.8672 118.852C56.388 119.685 55.8099 120.284 55.1328 120.648C54.4557 121.008 53.4844 121.188 52.2188 121.188C51.1198 121.188 50.2552 121.034 49.625 120.727C48.9948 120.414 48.4714 119.922 48.0547 119.25C47.6432 118.573 47.4375 117.779 47.4375 116.867C47.4375 115.57 47.8516 114.521 48.6797 113.719C49.513 112.917 50.6615 112.516 52.125 112.516C53.3125 112.516 54.25 112.695 54.9375 113.055C55.625 113.414 56.1484 113.935 56.5078 114.617C56.8672 115.299 57.0469 116.188 57.0469 117.281V117.641ZM53.8125 116.117C53.75 115.503 53.5833 115.062 53.3125 114.797C53.0469 114.531 52.6953 114.398 52.2578 114.398C51.7526 114.398 51.349 114.599 51.0469 115C50.8542 115.25 50.7318 115.622 50.6797 116.117H53.8125ZM58.5234 124.156V112.703H61.5V113.93C61.9115 113.414 62.2891 113.065 62.6328 112.883C63.0964 112.638 63.6094 112.516 64.1719 112.516C65.2812 112.516 66.138 112.94 66.7422 113.789C67.3516 114.638 67.6562 115.688 67.6562 116.938C67.6562 118.318 67.3255 119.372 66.6641 120.102C66.0026 120.826 65.1667 121.188 64.1562 121.188C63.6667 121.188 63.2188 121.104 62.8125 120.938C62.4115 120.771 62.0521 120.523 61.7344 120.195V124.156H58.5234ZM61.7109 116.875C61.7109 117.531 61.849 118.018 62.125 118.336C62.401 118.654 62.75 118.812 63.1719 118.812C63.5417 118.812 63.8516 118.661 64.1016 118.359C64.3516 118.052 64.4766 117.534 64.4766 116.805C64.4766 116.133 64.3464 115.641 64.0859 115.328C63.8255 115.01 63.5078 114.852 63.1328 114.852C62.7266 114.852 62.388 115.01 62.1172 115.328C61.8464 115.646 61.7109 116.161 61.7109 116.875ZM72.0781 115.391L69.0391 115.07C69.1536 114.539 69.3177 114.122 69.5312 113.82C69.75 113.513 70.0625 113.247 70.4688 113.023C70.7604 112.862 71.1615 112.737 71.6719 112.648C72.1823 112.56 72.7344 112.516 73.3281 112.516C74.2812 112.516 75.0469 112.57 75.625 112.68C76.2031 112.784 76.6849 113.005 77.0703 113.344C77.3411 113.578 77.5547 113.911 77.7109 114.344C77.8672 114.771 77.9453 115.18 77.9453 115.57V119.234C77.9453 119.625 77.9688 119.932 78.0156 120.156C78.0677 120.375 78.1771 120.656 78.3438 121H75.3594C75.2396 120.786 75.1615 120.625 75.125 120.516C75.0885 120.401 75.0521 120.224 75.0156 119.984C74.599 120.385 74.1849 120.672 73.7734 120.844C73.2109 121.073 72.5573 121.188 71.8125 121.188C70.8229 121.188 70.0703 120.958 69.5547 120.5C69.0443 120.042 68.7891 119.477 68.7891 118.805C68.7891 118.174 68.974 117.656 69.3438 117.25C69.7135 116.844 70.3958 116.542 71.3906 116.344C72.5833 116.104 73.3568 115.938 73.7109 115.844C74.0651 115.745 74.4401 115.617 74.8359 115.461C74.8359 115.07 74.7552 114.797 74.5938 114.641C74.4323 114.484 74.1484 114.406 73.7422 114.406C73.2214 114.406 72.8307 114.49 72.5703 114.656C72.3672 114.786 72.2031 115.031 72.0781 115.391ZM74.8359 117.062C74.3984 117.219 73.9427 117.357 73.4688 117.477C72.8229 117.648 72.4141 117.818 72.2422 117.984C72.0651 118.156 71.9766 118.352 71.9766 118.57C71.9766 118.82 72.0625 119.026 72.2344 119.188C72.4115 119.344 72.6693 119.422 73.0078 119.422C73.362 119.422 73.6901 119.336 73.9922 119.164C74.2995 118.992 74.5156 118.784 74.6406 118.539C74.7708 118.289 74.8359 117.966 74.8359 117.57V117.062ZM86.8438 115.031H84.5391V121H81.3516V115.031H79.0469V112.711H86.8438V115.031ZM87.0547 112.703H90.4141L92.125 118.227L93.7109 112.703H96.8438L93.5547 121.57C93.1797 122.581 92.7969 123.263 92.4062 123.617C91.8542 124.117 91.013 124.367 89.8828 124.367C89.4245 124.367 88.7161 124.305 87.7578 124.18L87.5078 121.961C87.9661 122.107 88.4766 122.18 89.0391 122.18C89.4141 122.18 89.7161 122.094 89.9453 121.922C90.1797 121.75 90.3776 121.443 90.5391 121L87.0547 112.703ZM97.7734 124.156V112.703H100.75V113.93C101.161 113.414 101.539 113.065 101.883 112.883C102.346 112.638 102.859 112.516 103.422 112.516C104.531 112.516 105.388 112.94 105.992 113.789C106.602 114.638 106.906 115.688 106.906 116.938C106.906 118.318 106.576 119.372 105.914 120.102C105.253 120.826 104.417 121.188 103.406 121.188C102.917 121.188 102.469 121.104 102.062 120.938C101.661 120.771 101.302 120.523 100.984 120.195V124.156H97.7734ZM100.961 116.875C100.961 117.531 101.099 118.018 101.375 118.336C101.651 118.654 102 118.812 102.422 118.812C102.792 118.812 103.102 118.661 103.352 118.359C103.602 118.052 103.727 117.534 103.727 116.805C103.727 116.133 103.596 115.641 103.336 115.328C103.076 115.01 102.758 114.852 102.383 114.852C101.977 114.852 101.638 115.01 101.367 115.328C101.096 115.646 100.961 116.161 100.961 116.875ZM111.328 115.391L108.289 115.07C108.404 114.539 108.568 114.122 108.781 113.82C109 113.513 109.312 113.247 109.719 113.023C110.01 112.862 110.411 112.737 110.922 112.648C111.432 112.56 111.984 112.516 112.578 112.516C113.531 112.516 114.297 112.57 114.875 112.68C115.453 112.784 115.935 113.005 116.32 113.344C116.591 113.578 116.805 113.911 116.961 114.344C117.117 114.771 117.195 115.18 117.195 115.57V119.234C117.195 119.625 117.219 119.932 117.266 120.156C117.318 120.375 117.427 120.656 117.594 121H114.609C114.49 120.786 114.411 120.625 114.375 120.516C114.339 120.401 114.302 120.224 114.266 119.984C113.849 120.385 113.435 120.672 113.023 120.844C112.461 121.073 111.807 121.188 111.062 121.188C110.073 121.188 109.32 120.958 108.805 120.5C108.294 120.042 108.039 119.477 108.039 118.805C108.039 118.174 108.224 117.656 108.594 117.25C108.964 116.844 109.646 116.542 110.641 116.344C111.833 116.104 112.607 115.938 112.961 115.844C113.315 115.745 113.69 115.617 114.086 115.461C114.086 115.07 114.005 114.797 113.844 114.641C113.682 114.484 113.398 114.406 112.992 114.406C112.471 114.406 112.081 114.49 111.82 114.656C111.617 114.786 111.453 115.031 111.328 115.391ZM114.086 117.062C113.648 117.219 113.193 117.357 112.719 117.477C112.073 117.648 111.664 117.818 111.492 117.984C111.315 118.156 111.227 118.352 111.227 118.57C111.227 118.82 111.312 119.026 111.484 119.188C111.661 119.344 111.919 119.422 112.258 119.422C112.612 119.422 112.94 119.336 113.242 119.164C113.549 118.992 113.766 118.784 113.891 118.539C114.021 118.289 114.086 117.966 114.086 117.57V117.062Z" fill="#BB3B85" /><path d="M28.5167 61.2422H73.548V70.7812H28.5167V61.2422ZM83.9911 26.0078H102.683V40.3594L99.0731 69.1914H87.5145L83.9911 40.3594V26.0078ZM84.6356 73.5742H102.081V89H84.6356V73.5742Z" fill="#BB3B85" /></g><rect x="3" y="3" width="130" height="130" rx="11" stroke="#BB3B85" stroke-width="6" /><defs><clipPath id="clip0_230_1109"><rect x="6" y="6" width="124" height="124" rx="8" fill="white" /></clipPath></defs></svg></svg>