<svg xmlns="http://www.w3.org/2000/svg" viewBox="0 0 408 136"><svg width="136" height="136" viewBox="0 0 136 136" fill="none" xmlns="http://www.w3.org/2000/svg" x="0"><rect x="3" y="3" width="130" height="130" rx="11" fill="#FF41AF" /><rect x="3" y="3" width="130" height="130" rx="11" stroke="#FF41AF" stroke-width="6" /><path d="M30.5859 110H27L25.7812 107.711C25.5885 107.346 25.3984 107.117 25.2109 107.023C25.0286 106.93 24.8021 106.883 24.5312 106.883V110H21.3516V101.711H24.5312V104.703C24.7917 104.677 24.9844 104.591 25.1094 104.445C25.2344 104.299 25.4141 103.979 25.6484 103.484C25.888 102.99 26.1016 102.628 26.2891 102.398C26.4766 102.169 26.7161 101.997 27.0078 101.883C27.2995 101.768 27.6641 101.695 28.1016 101.664C28.5391 101.633 29.1901 101.617 30.0547 101.617V103.875H29.9141C29.487 103.875 29.1615 103.893 28.9375 103.93C28.7135 103.961 28.5339 104.031 28.3984 104.141C28.263 104.25 28.1068 104.474 27.9297 104.812C27.7526 105.151 27.6042 105.388 27.4844 105.523C27.3698 105.654 27.1979 105.742 26.9688 105.789C27.4115 105.831 27.7526 105.927 27.9922 106.078C28.2318 106.224 28.5938 106.701 29.0781 107.508L30.5859 110ZM40.8984 110H37.8906V105.922L34.7656 110H31.7422V101.711H34.75V105.844L37.9062 101.711H40.8984V110ZM49.9219 104.031H47.6172V110H44.4297V104.031H42.125V101.711H49.9219V104.031ZM53.9531 104.391L50.9141 104.07C51.0286 103.539 51.1927 103.122 51.4062 102.82C51.625 102.513 51.9375 102.247 52.3438 102.023C52.6354 101.862 53.0365 101.737 53.5469 101.648C54.0573 101.56 54.6094 101.516 55.2031 101.516C56.1562 101.516 56.9219 101.57 57.5 101.68C58.0781 101.784 58.5599 102.005 58.9453 102.344C59.2161 102.578 59.4297 102.911 59.5859 103.344C59.7422 103.771 59.8203 104.18 59.8203 104.57V108.234C59.8203 108.625 59.8438 108.932 59.8906 109.156C59.9427 109.375 60.0521 109.656 60.2188 110H57.2344C57.1146 109.786 57.0365 109.625 57 109.516C56.9635 109.401 56.9271 109.224 56.8906 108.984C56.474 109.385 56.0599 109.672 55.6484 109.844C55.0859 110.073 54.4323 110.188 53.6875 110.188C52.6979 110.188 51.9453 109.958 51.4297 109.5C50.9193 109.042 50.6641 108.477 50.6641 107.805C50.6641 107.174 50.849 106.656 51.2188 106.25C51.5885 105.844 52.2708 105.542 53.2656 105.344C54.4583 105.104 55.2318 104.938 55.5859 104.844C55.9401 104.745 56.3151 104.617 56.7109 104.461C56.7109 104.07 56.6302 103.797 56.4688 103.641C56.3073 103.484 56.0234 103.406 55.6172 103.406C55.0964 103.406 54.7057 103.49 54.4453 103.656C54.2422 103.786 54.0781 104.031 53.9531 104.391ZM56.7109 106.062C56.2734 106.219 55.8177 106.357 55.3438 106.477C54.6979 106.648 54.2891 106.818 54.1172 106.984C53.9401 107.156 53.8516 107.352 53.8516 107.57C53.8516 107.82 53.9375 108.026 54.1094 108.188C54.2865 108.344 54.5443 108.422 54.8828 108.422C55.237 108.422 55.5651 108.336 55.8672 108.164C56.1745 107.992 56.3906 107.784 56.5156 107.539C56.6458 107.289 56.7109 106.966 56.7109 106.57V106.062ZM70.9922 110H67.9844V105.922L64.8594 110H61.8359V101.711H64.8438V105.844L68 101.711H70.9922V110ZM68.9766 98.3516C68.9609 99.1068 68.6979 99.6875 68.1875 100.094C67.6771 100.5 67.0703 100.703 66.3672 100.703C65.5443 100.703 64.901 100.497 64.4375 100.086C63.974 99.6693 63.7109 99.0911 63.6484 98.3516H64.9922C65.1484 98.9089 65.5859 99.1875 66.3047 99.1875C66.7005 99.1875 67.0104 99.1328 67.2344 99.0234C67.4635 98.9089 67.6172 98.6849 67.6953 98.3516H68.9766ZM79.2109 106.758L82.2344 107.102C82.0677 107.732 81.7943 108.279 81.4141 108.742C81.0339 109.201 80.5469 109.557 79.9531 109.812C79.3646 110.068 78.6146 110.195 77.7031 110.195C76.8229 110.195 76.0885 110.115 75.5 109.953C74.9167 109.786 74.4141 109.521 73.9922 109.156C73.5703 108.786 73.2396 108.354 73 107.859C72.7604 107.365 72.6406 106.708 72.6406 105.891C72.6406 105.036 72.7865 104.326 73.0781 103.758C73.2917 103.341 73.5833 102.969 73.9531 102.641C74.3229 102.307 74.7031 102.06 75.0938 101.898C75.7135 101.643 76.5078 101.516 77.4766 101.516C78.8307 101.516 79.862 101.758 80.5703 102.242C81.2839 102.727 81.7839 103.435 82.0703 104.367L79.0781 104.766C78.9844 104.411 78.8125 104.146 78.5625 103.969C78.3177 103.786 77.987 103.695 77.5703 103.695C77.0443 103.695 76.6172 103.885 76.2891 104.266C75.9661 104.641 75.8047 105.211 75.8047 105.977C75.8047 106.659 75.9661 107.177 76.2891 107.531C76.612 107.885 77.0234 108.062 77.5234 108.062C77.9401 108.062 78.2891 107.956 78.5703 107.742C78.8568 107.529 79.0703 107.201 79.2109 106.758ZM92.9297 110H89.3438L88.125 107.711C87.9323 107.346 87.7422 107.117 87.5547 107.023C87.3724 106.93 87.1458 106.883 86.875 106.883V110H83.6953V101.711H86.875V104.703C87.1354 104.677 87.3281 104.591 87.4531 104.445C87.5781 104.299 87.7578 103.979 87.9922 103.484C88.2318 102.99 88.4453 102.628 88.6328 102.398C88.8203 102.169 89.0599 101.997 89.3516 101.883C89.6432 101.768 90.0078 101.695 90.4453 101.664C90.8828 101.633 91.5339 101.617 92.3984 101.617V103.875H92.2578C91.8307 103.875 91.5052 103.893 91.2812 103.93C91.0573 103.961 90.8776 104.031 90.7422 104.141C90.6068 104.25 90.4505 104.474 90.2734 104.812C90.0964 105.151 89.9479 105.388 89.8281 105.523C89.7135 105.654 89.5417 105.742 89.3125 105.789C89.7552 105.831 90.0964 105.927 90.3359 106.078C90.5755 106.224 90.9375 106.701 91.4219 107.508L92.9297 110ZM103.242 110H100.234V105.922L97.1094 110H94.0859V101.711H97.0938V105.844L100.25 101.711H103.242V110ZM114.539 110H111.531V105.922L108.406 110H105.383V101.711H108.391V105.844L111.547 101.711H114.539V110ZM112.523 98.3516C112.508 99.1068 112.245 99.6875 111.734 100.094C111.224 100.5 110.617 100.703 109.914 100.703C109.091 100.703 108.448 100.497 107.984 100.086C107.521 99.6693 107.258 99.0911 107.195 98.3516H108.539C108.695 98.9089 109.133 99.1875 109.852 99.1875C110.247 99.1875 110.557 99.1328 110.781 99.0234C111.01 98.9089 111.164 98.6849 111.242 98.3516H112.523ZM56.8594 125H53.6797V121.781H53.5625C53.3385 121.781 53.1615 121.844 53.0312 121.969C52.9062 122.089 52.7786 122.273 52.6484 122.523L51.375 125H47.8516L49.0859 122.602C49.4505 121.888 49.9297 121.497 50.5234 121.43C49.8516 121.326 49.3385 121.047 48.9844 120.594C48.6354 120.135 48.4609 119.635 48.4609 119.094C48.4609 118.557 48.5938 118.083 48.8594 117.672C49.1302 117.255 49.5208 116.992 50.0312 116.883C50.5469 116.768 51.1953 116.711 51.9766 116.711H56.8594V125ZM53.6797 119.898V118.602H52.6875C52.2188 118.602 51.9271 118.659 51.8125 118.773C51.6979 118.883 51.6406 119.039 51.6406 119.242C51.6406 119.68 52.026 119.898 52.7969 119.898H53.6797ZM66.4609 120.711C66.9557 120.867 67.349 121.112 67.6406 121.445C67.9323 121.773 68.0781 122.138 68.0781 122.539C68.0781 123.404 67.6641 124.062 66.8359 124.516C66.0078 124.969 64.7995 125.195 63.2109 125.195C61.8776 125.195 60.8281 124.951 60.0625 124.461C59.3021 123.966 58.7526 123.224 58.4141 122.234L61.4375 121.898C61.5417 122.19 61.7552 122.451 62.0781 122.68C62.4062 122.904 62.7786 123.016 63.1953 123.016C64.263 123.016 64.7969 122.75 64.7969 122.219C64.7969 122.036 64.6953 121.891 64.4922 121.781C64.2891 121.667 64.0234 121.609 63.6953 121.609H62.3125V119.977H63.7266C64.0026 119.977 64.2552 119.919 64.4844 119.805C64.7135 119.69 64.8281 119.544 64.8281 119.367C64.8281 119.169 64.6927 119.008 64.4219 118.883C64.1562 118.758 63.7839 118.695 63.3047 118.695C62.8359 118.695 62.4401 118.794 62.1172 118.992C61.7943 119.185 61.5885 119.417 61.5 119.688L58.5703 119.289C58.8568 118.346 59.3802 117.651 60.1406 117.203C60.901 116.75 61.9505 116.523 63.2891 116.523C64.6797 116.523 65.7682 116.75 66.5547 117.203C67.3464 117.656 67.7422 118.229 67.7422 118.922C67.7422 119.755 67.3151 120.352 66.4609 120.711ZM72.9375 119.656H74.3906C76.8438 119.656 78.0703 120.552 78.0703 122.344C78.0703 124.115 76.875 125 74.4844 125H69.75V116.711H72.9375V119.656ZM72.9375 123.047H73.9766C74.237 123.047 74.4479 122.987 74.6094 122.867C74.776 122.747 74.8594 122.573 74.8594 122.344C74.8594 121.844 74.5651 121.594 73.9766 121.594H72.9375V123.047ZM78.9766 116.703H82.1562V125H78.9766V116.703ZM93.4219 125H89.8359L88.6172 122.711C88.4245 122.346 88.2344 122.117 88.0469 122.023C87.8646 121.93 87.638 121.883 87.3672 121.883V125H84.1875V116.711H87.3672V119.703C87.6276 119.677 87.8203 119.591 87.9453 119.445C88.0703 119.299 88.25 118.979 88.4844 118.484C88.724 117.99 88.9375 117.628 89.125 117.398C89.3125 117.169 89.5521 116.997 89.8438 116.883C90.1354 116.768 90.5 116.695 90.9375 116.664C91.375 116.633 92.026 116.617 92.8906 116.617V118.875H92.75C92.3229 118.875 91.9974 118.893 91.7734 118.93C91.5495 118.961 91.3698 119.031 91.2344 119.141C91.099 119.25 90.9427 119.474 90.7656 119.812C90.5885 120.151 90.4401 120.388 90.3203 120.523C90.2057 120.654 90.0339 120.742 89.8047 120.789C90.2474 120.831 90.5885 120.927 90.8281 121.078C91.0677 121.224 91.4297 121.701 91.9141 122.508L93.4219 125Z" fill="#F0F0F0" /><path d="M61.1622 82.7142L58.6556 77.3985L56.6064 78.476C55.3852 79.1263 54.3455 79.667 53.4117 80.1396V67.2737H36.6592V72.4571H45.4003V83.5498C45.3436 83.5876 45.2453 83.6481 45.0865 83.7199L43.3549 84.5063L47.0374 88.96L48.5686 88.4005C52.614 86.9184 56.3267 85.2738 59.9259 83.3683L61.1622 82.7142Z" fill="#F0F0F0" /><path d="M46.8035 55.3098L40.8639 58.6482L43.484 59.7899C47.0908 61.359 49.9604 62.8561 52.0171 64.2361L53.0379 64.9204L58.6675 61.635L56.7431 60.4138C54.1268 58.7578 51.0946 57.1737 47.7222 55.7105L46.8035 55.3098Z" fill="#F0F0F0" /><path d="M103.639 85.1305C101.382 82.7751 98.1758 80.0643 93.8317 76.8431L93.0226 76.242L86.4516 78.4537L88.4252 79.9471C92.2324 82.8469 95.3251 85.5728 97.62 88.0492L98.4517 88.9453L105 86.5445L103.639 85.1305Z" fill="#F0F0F0" /><path d="M75.8381 77.1157C73.3844 80.129 70.3673 82.7414 66.8739 84.8813L64.5828 86.284L71.5356 88.9608L72.3976 88.3899C76.1519 85.887 79.4374 82.9078 82.1708 79.5354L83.4336 77.9739L76.564 76.2197L75.8381 77.1157Z" fill="#F0F0F0" /><path d="M71.5617 73.6709H98.3483V55.8183H71.5617V73.6709ZM91.1081 68.4649H78.8017V60.9941H91.1081V68.4649Z" fill="#F0F0F0" /><path d="M34.7373 51.5446L32 52.5616L38.1097 56.418C38.1097 56.418 44.5294 53.8282 50.3177 49.6467C54.0682 53.1855 60.6051 56.6146 60.6051 56.6146L65.9738 52.3915L64.3443 51.3518C60.8471 49.1325 58.1968 47.0569 54.6051 45.1476C54.6353 45.0644 54.5748 43.9415 54.6051 43.8584L64.745 43.8054V38.7014H55.0437C55.2024 37.7033 55.3159 35.5407 55.3839 34.4556H64.2082V29.3554H48.0984C48.4311 28.8148 48.7525 28.2552 49.0625 27.6805L50.0342 25.8885L41.8186 25L41.2591 26.0889C39.535 29.4764 34.1815 34.225 34.1286 34.2704L33.4064 34.9093L40.9717 37.3668L41.3384 37.0795C41.4103 37.0266 42.9604 35.8129 44.261 34.4556H47.1079C47.0285 35.5747 46.8961 37.7411 46.7109 38.7014H34.2987V43.8054H45.0436C45.0096 43.8811 46.0644 43.7941 46.0304 43.8584C44.3782 46.7771 41.0057 49.2081 34.7373 51.5446Z" fill="#F0F0F0" /><path d="M80.7104 50.0904H89.6216V52.0526H98.6463V28.612H71.7576V52.1131H80.7104V50.0904ZM89.6216 45.0582H80.7104V33.6441H89.6216V45.0582Z" fill="#F0F0F0" /><path d="M61.1622 82.7142L58.6556 77.3985L56.6064 78.476C55.3852 79.1263 54.3455 79.667 53.4117 80.1396V67.2737H36.6592V72.4571H45.4003V83.5498C45.3436 83.5876 45.2453 83.6481 45.0865 83.7199L43.3549 84.5063L47.0374 88.96L48.5686 88.4005C52.614 86.9184 56.3267 85.2738 59.9259 83.3683L61.1622 82.7142Z" stroke="#F0F0F0" stroke-width="1.89037" stroke-miterlimit="10" /><path d="M46.8035 55.3098L40.8639 58.6482L43.484 59.7899C47.0908 61.359 49.9604 62.8561 52.0171 64.2361L53.0379 64.9204L58.6675 61.635L56.7431 60.4138C54.1268 58.7578 51.0946 57.1737 47.7222 55.7105L46.8035 55.3098Z" stroke="#F0F0F0" stroke-width="1.89037" stroke-miterlimit="10" /><path d="M103.639 85.1305C101.382 82.7751 98.1758 80.0643 93.8317 76.8431L93.0226 76.242L86.4516 78.4537L88.4252 79.9471C92.2324 82.8469 95.3251 85.5728 97.62 88.0492L98.4517 88.9453L105 86.5445L103.639 85.1305Z" stroke="#F0F0F0" stroke-width="1.89037" stroke-miterlimit="10" /><path d="M75.8381 77.1157C73.3844 80.129 70.3673 82.7414 66.8739 84.8813L64.5828 86.284L71.5356 88.9608L72.3976 88.3899C76.1519 85.887 79.4374 82.9078 82.1708 79.5354L83.4336 77.9739L76.564 76.2197L75.8381 77.1157Z" stroke="#F0F0F0" stroke-width="1.89037" stroke-miterlimit="10" /><path d="M71.5617 73.6709H98.3483V55.8183H71.5617V73.6709ZM91.1081 68.4649H78.8017V60.9941H91.1081V68.4649Z" stroke="#F0F0F0" stroke-width="1.89037" stroke-miterlimit="10" /><path d="M34.7373 51.5446L32 52.5616L38.1097 56.418C38.1097 56.418 44.5294 53.8282 50.3177 49.6467C54.0682 53.1855 60.6051 56.6146 60.6051 56.6146L65.9738 52.3915L64.3443 51.3518C60.8471 49.1325 58.1968 47.0569 54.6051 45.1476C54.6353 45.0644 54.5748 43.9415 54.6051 43.8584L64.745 43.8054V38.7014H55.0437C55.2024 37.7033 55.3159 35.5407 55.3839 34.4556H64.2082V29.3554H48.0984C48.4311 28.8148 48.7525 28.2552 49.0625 27.6805L50.0342 25.8885L41.8186 25L41.2591 26.0889C39.535 29.4764 34.1815 34.225 34.1286 34.2704L33.4064 34.9093L40.9717 37.3668L41.3384 37.0795C41.4103 37.0266 42.9604 35.8129 44.261 34.4556H47.1079C47.0285 35.5747 46.8961 37.7411 46.7109 38.7014H34.2987V43.8054H45.0436C45.0096 43.8811 46.0644 43.7941 46.0304 43.8584C44.3782 46.7771 41.0057 49.2081 34.7373 51.5446Z" stroke="#F0F0F0" stroke-width="1.89037" stroke-miterlimit="10" /><path d="M80.7104 50.0904H89.6216V52.0526H98.6463V28.612H71.7576V52.1131H80.7104V50.0904ZM89.6216 45.0582H80.7104V33.6441H89.6216V45.0582Z" stroke="#F0F0F0" stroke-width="1.89037" stroke-miterlimit="10" /></svg><svg width="136" height="136" viewBox="0 0 136 136" fill="none" xmlns="http://www.w3.org/2000/svg" x="136"><rect x="3" y="3" width="130" height="130" rx="11" fill="#F0F0F0" /><rect x="3" y="3" width="130" height="130" rx="11" stroke="#FF41AF" stroke-width="6" /><path d="M30.5859 110H27L25.7812 107.711C25.5885 107.346 25.3984 107.117 25.2109 107.023C25.0286 106.93 24.8021 106.883 24.5312 106.883V110H21.3516V101.711H24.5312V104.703C24.7917 104.677 24.9844 104.591 25.1094 104.445C25.2344 104.299 25.4141 103.979 25.6484 103.484C25.888 102.99 26.1016 102.628 26.2891 102.398C26.4766 102.169 26.7161 101.997 27.0078 101.883C27.2995 101.768 27.6641 101.695 28.1016 101.664C28.5391 101.633 29.1901 101.617 30.0547 101.617V103.875H29.9141C29.487 103.875 29.1615 103.893 28.9375 103.93C28.7135 103.961 28.5339 104.031 28.3984 104.141C28.263 104.25 28.1068 104.474 27.9297 104.812C27.7526 105.151 27.6042 105.388 27.4844 105.523C27.3698 105.654 27.1979 105.742 26.9688 105.789C27.4115 105.831 27.7526 105.927 27.9922 106.078C28.2318 106.224 28.5938 106.701 29.0781 107.508L30.5859 110ZM40.8984 110H37.8906V105.922L34.7656 110H31.7422V101.711H34.75V105.844L37.9062 101.711H40.8984V110ZM49.9219 104.031H47.6172V110H44.4297V104.031H42.125V101.711H49.9219V104.031ZM53.9531 104.391L50.9141 104.07C51.0286 103.539 51.1927 103.122 51.4062 102.82C51.625 102.513 51.9375 102.247 52.3438 102.023C52.6354 101.862 53.0365 101.737 53.5469 101.648C54.0573 101.56 54.6094 101.516 55.2031 101.516C56.1562 101.516 56.9219 101.57 57.5 101.68C58.0781 101.784 58.5599 102.005 58.9453 102.344C59.2161 102.578 59.4297 102.911 59.5859 103.344C59.7422 103.771 59.8203 104.18 59.8203 104.57V108.234C59.8203 108.625 59.8438 108.932 59.8906 109.156C59.9427 109.375 60.0521 109.656 60.2188 110H57.2344C57.1146 109.786 57.0365 109.625 57 109.516C56.9635 109.401 56.9271 109.224 56.8906 108.984C56.474 109.385 56.0599 109.672 55.6484 109.844C55.0859 110.073 54.4323 110.188 53.6875 110.188C52.6979 110.188 51.9453 109.958 51.4297 109.5C50.9193 109.042 50.6641 108.477 50.6641 107.805C50.6641 107.174 50.849 106.656 51.2188 106.25C51.5885 105.844 52.2708 105.542 53.2656 105.344C54.4583 105.104 55.2318 104.938 55.5859 104.844C55.9401 104.745 56.3151 104.617 56.7109 104.461C56.7109 104.07 56.6302 103.797 56.4688 103.641C56.3073 103.484 56.0234 103.406 55.6172 103.406C55.0964 103.406 54.7057 103.49 54.4453 103.656C54.2422 103.786 54.0781 104.031 53.9531 104.391ZM56.7109 106.062C56.2734 106.219 55.8177 106.357 55.3438 106.477C54.6979 106.648 54.2891 106.818 54.1172 106.984C53.9401 107.156 53.8516 107.352 53.8516 107.57C53.8516 107.82 53.9375 108.026 54.1094 108.188C54.2865 108.344 54.5443 108.422 54.8828 108.422C55.237 108.422 55.5651 108.336 55.8672 108.164C56.1745 107.992 56.3906 107.784 56.5156 107.539C56.6458 107.289 56.7109 106.966 56.7109 106.57V106.062ZM70.9922 110H67.9844V105.922L64.8594 110H61.8359V101.711H64.8438V105.844L68 101.711H70.9922V110ZM68.9766 98.3516C68.9609 99.1068 68.6979 99.6875 68.1875 100.094C67.6771 100.5 67.0703 100.703 66.3672 100.703C65.5443 100.703 64.901 100.497 64.4375 100.086C63.974 99.6693 63.7109 99.0911 63.6484 98.3516H64.9922C65.1484 98.9089 65.5859 99.1875 66.3047 99.1875C66.7005 99.1875 67.0104 99.1328 67.2344 99.0234C67.4635 98.9089 67.6172 98.6849 67.6953 98.3516H68.9766ZM79.2109 106.758L82.2344 107.102C82.0677 107.732 81.7943 108.279 81.4141 108.742C81.0339 109.201 80.5469 109.557 79.9531 109.812C79.3646 110.068 78.6146 110.195 77.7031 110.195C76.8229 110.195 76.0885 110.115 75.5 109.953C74.9167 109.786 74.4141 109.521 73.9922 109.156C73.5703 108.786 73.2396 108.354 73 107.859C72.7604 107.365 72.6406 106.708 72.6406 105.891C72.6406 105.036 72.7865 104.326 73.0781 103.758C73.2917 103.341 73.5833 102.969 73.9531 102.641C74.3229 102.307 74.7031 102.06 75.0938 101.898C75.7135 101.643 76.5078 101.516 77.4766 101.516C78.8307 101.516 79.862 101.758 80.5703 102.242C81.2839 102.727 81.7839 103.435 82.0703 104.367L79.0781 104.766C78.9844 104.411 78.8125 104.146 78.5625 103.969C78.3177 103.786 77.987 103.695 77.5703 103.695C77.0443 103.695 76.6172 103.885 76.2891 104.266C75.9661 104.641 75.8047 105.211 75.8047 105.977C75.8047 106.659 75.9661 107.177 76.2891 107.531C76.612 107.885 77.0234 108.062 77.5234 108.062C77.9401 108.062 78.2891 107.956 78.5703 107.742C78.8568 107.529 79.0703 107.201 79.2109 106.758ZM92.9297 110H89.3438L88.125 107.711C87.9323 107.346 87.7422 107.117 87.5547 107.023C87.3724 106.93 87.1458 106.883 86.875 106.883V110H83.6953V101.711H86.875V104.703C87.1354 104.677 87.3281 104.591 87.4531 104.445C87.5781 104.299 87.7578 103.979 87.9922 103.484C88.2318 102.99 88.4453 102.628 88.6328 102.398C88.8203 102.169 89.0599 101.997 89.3516 101.883C89.6432 101.768 90.0078 101.695 90.4453 101.664C90.8828 101.633 91.5339 101.617 92.3984 101.617V103.875H92.2578C91.8307 103.875 91.5052 103.893 91.2812 103.93C91.0573 103.961 90.8776 104.031 90.7422 104.141C90.6068 104.25 90.4505 104.474 90.2734 104.812C90.0964 105.151 89.9479 105.388 89.8281 105.523C89.7135 105.654 89.5417 105.742 89.3125 105.789C89.7552 105.831 90.0964 105.927 90.3359 106.078C90.5755 106.224 90.9375 106.701 91.4219 107.508L92.9297 110ZM103.242 110H100.234V105.922L97.1094 110H94.0859V101.711H97.0938V105.844L100.25 101.711H103.242V110ZM114.539 110H111.531V105.922L108.406 110H105.383V101.711H108.391V105.844L111.547 101.711H114.539V110ZM112.523 98.3516C112.508 99.1068 112.245 99.6875 111.734 100.094C111.224 100.5 110.617 100.703 109.914 100.703C109.091 100.703 108.448 100.497 107.984 100.086C107.521 99.6693 107.258 99.0911 107.195 98.3516H108.539C108.695 98.9089 109.133 99.1875 109.852 99.1875C110.247 99.1875 110.557 99.1328 110.781 99.0234C111.01 98.9089 111.164 98.6849 111.242 98.3516H112.523ZM56.8594 125H53.6797V121.781H53.5625C53.3385 121.781 53.1615 121.844 53.0312 121.969C52.9062 122.089 52.7786 122.273 52.6484 122.523L51.375 125H47.8516L49.0859 122.602C49.4505 121.888 49.9297 121.497 50.5234 121.43C49.8516 121.326 49.3385 121.047 48.9844 120.594C48.6354 120.135 48.4609 119.635 48.4609 119.094C48.4609 118.557 48.5938 118.083 48.8594 117.672C49.1302 117.255 49.5208 116.992 50.0312 116.883C50.5469 116.768 51.1953 116.711 51.9766 116.711H56.8594V125ZM53.6797 119.898V118.602H52.6875C52.2188 118.602 51.9271 118.659 51.8125 118.773C51.6979 118.883 51.6406 119.039 51.6406 119.242C51.6406 119.68 52.026 119.898 52.7969 119.898H53.6797ZM66.4609 120.711C66.9557 120.867 67.349 121.112 67.6406 121.445C67.9323 121.773 68.0781 122.138 68.0781 122.539C68.0781 123.404 67.6641 124.062 66.8359 124.516C66.0078 124.969 64.7995 125.195 63.2109 125.195C61.8776 125.195 60.8281 124.951 60.0625 124.461C59.3021 123.966 58.7526 123.224 58.4141 122.234L61.4375 121.898C61.5417 122.19 61.7552 122.451 62.0781 122.68C62.4062 122.904 62.7786 123.016 63.1953 123.016C64.263 123.016 64.7969 122.75 64.7969 122.219C64.7969 122.036 64.6953 121.891 64.4922 121.781C64.2891 121.667 64.0234 121.609 63.6953 121.609H62.3125V119.977H63.7266C64.0026 119.977 64.2552 119.919 64.4844 119.805C64.7135 119.69 64.8281 119.544 64.8281 119.367C64.8281 119.169 64.6927 119.008 64.4219 118.883C64.1562 118.758 63.7839 118.695 63.3047 118.695C62.8359 118.695 62.4401 118.794 62.1172 118.992C61.7943 119.185 61.5885 119.417 61.5 119.688L58.5703 119.289C58.8568 118.346 59.3802 117.651 60.1406 117.203C60.901 116.75 61.9505 116.523 63.2891 116.523C64.6797 116.523 65.7682 116.75 66.5547 117.203C67.3464 117.656 67.7422 118.229 67.7422 118.922C67.7422 119.755 67.3151 120.352 66.4609 120.711ZM72.9375 119.656H74.3906C76.8438 119.656 78.0703 120.552 78.0703 122.344C78.0703 124.115 76.875 125 74.4844 125H69.75V116.711H72.9375V119.656ZM72.9375 123.047H73.9766C74.237 123.047 74.4479 122.987 74.6094 122.867C74.776 122.747 74.8594 122.573 74.8594 122.344C74.8594 121.844 74.5651 121.594 73.9766 121.594H72.9375V123.047ZM78.9766 116.703H82.1562V125H78.9766V116.703ZM93.4219 125H89.8359L88.6172 122.711C88.4245 122.346 88.2344 122.117 88.0469 122.023C87.8646 121.93 87.638 121.883 87.3672 121.883V125H84.1875V116.711H87.3672V119.703C87.6276 119.677 87.8203 119.591 87.9453 119.445C88.0703 119.299 88.25 118.979 88.4844 118.484C88.724 117.99 88.9375 117.628 89.125 117.398C89.3125 117.169 89.5521 116.997 89.8438 116.883C90.1354 116.768 90.5 116.695 90.9375 116.664C91.375 116.633 92.026 116.617 92.8906 116.617V118.875H92.75C92.3229 118.875 91.9974 118.893 91.7734 118.93C91.5495 118.961 91.3698 119.031 91.2344 119.141C91.099 119.25 90.9427 119.474 90.7656 119.812C90.5885 120.151 90.4401 120.388 90.3203 120.523C90.2057 120.654 90.0339 120.742 89.8047 120.789C90.2474 120.831 90.5885 120.927 90.8281 121.078C91.0677 121.224 91.4297 121.701 91.9141 122.508L93.4219 125Z" fill="#FF41AF" /><path d="M61.1622 82.7142L58.6556 77.3985L56.6064 78.476C55.3852 79.1263 54.3455 79.667 53.4117 80.1396V67.2737H36.6592V72.4571H45.4003V83.5498C45.3436 83.5876 45.2453 83.6481 45.0865 83.7199L43.3549 84.5063L47.0374 88.96L48.5686 88.4005C52.614 86.9184 56.3267 85.2738 59.9259 83.3683L61.1622 82.7142Z" fill="#FF41AF" /><path d="M46.8035 55.3098L40.8639 58.6482L43.484 59.7899C47.0908 61.359 49.9604 62.8561 52.0171 64.2361L53.0379 64.9204L58.6675 61.635L56.7431 60.4138C54.1268 58.7578 51.0946 57.1737 47.7222 55.7105L46.8035 55.3098Z" fill="#FF41AF" /><path d="M103.639 85.1305C101.382 82.7751 98.1758 80.0643 93.8317 76.8431L93.0226 76.242L86.4516 78.4537L88.4252 79.9471C92.2324 82.8469 95.3251 85.5728 97.62 88.0492L98.4517 88.9453L105 86.5445L103.639 85.1305Z" fill="#FF41AF" /><path d="M75.8381 77.1157C73.3844 80.129 70.3673 82.7414 66.8739 84.8813L64.5828 86.284L71.5356 88.9608L72.3976 88.3899C76.1519 85.887 79.4374 82.9078 82.1708 79.5354L83.4336 77.9739L76.564 76.2197L75.8381 77.1157Z" fill="#FF41AF" /><path d="M71.5617 73.6709H98.3483V55.8183H71.5617V73.6709ZM91.1081 68.4649H78.8017V60.9941H91.1081V68.4649Z" fill="#FF41AF" /><path d="M34.7373 51.5446L32 52.5616L38.1097 56.418C38.1097 56.418 44.5294 53.8282 50.3177 49.6467C54.0682 53.1855 60.6051 56.6146 60.6051 56.6146L65.9738 52.3915L64.3443 51.3518C60.8471 49.1325 58.1968 47.0569 54.6051 45.1476C54.6353 45.0644 54.5748 43.9415 54.6051 43.8584L64.745 43.8054V38.7014H55.0437C55.2024 37.7033 55.3159 35.5407 55.3839 34.4556H64.2082V29.3554H48.0984C48.4311 28.8148 48.7525 28.2552 49.0625 27.6805L50.0342 25.8885L41.8186 25L41.2591 26.0889C39.535 29.4764 34.1815 34.225 34.1286 34.2704L33.4064 34.9093L40.9717 37.3668L41.3384 37.0795C41.4103 37.0266 42.9604 35.8129 44.261 34.4556H47.1079C47.0285 35.5747 46.8961 37.7411 46.7109 38.7014H34.2987V43.8054H45.0436C45.0096 43.8811 46.0644 43.7941 46.0304 43.8584C44.3782 46.7771 41.0057 49.2081 34.7373 51.5446Z" fill="#FF41AF" /><path d="M80.7104 50.0904H89.6216V52.0526H98.6463V28.612H71.7576V52.1131H80.7104V50.0904ZM89.6216 45.0582H80.7104V33.6441H89.6216V45.0582Z" fill="#FF41AF" /><path d="M61.1622 82.7142L58.6556 77.3985L56.6064 78.476C55.3852 79.1263 54.3455 79.667 53.4117 80.1396V67.2737H36.6592V72.4571H45.4003V83.5498C45.3436 83.5876 45.2453 83.6481 45.0865 83.7199L43.3549 84.5063L47.0374 88.96L48.5686 88.4005C52.614 86.9184 56.3267 85.2738 59.9259 83.3683L61.1622 82.7142Z" stroke="#FF41AF" stroke-width="1.89037" stroke-miterlimit="10" /><path d="M46.8035 55.3098L40.8639 58.6482L43.484 59.7899C47.0908 61.359 49.9604 62.8561 52.0171 64.2361L53.0379 64.9204L58.6675 61.635L56.7431 60.4138C54.1268 58.7578 51.0946 57.1737 47.7222 55.7105L46.8035 55.3098Z" stroke="#FF41AF" stroke-width="1.89037" stroke-miterlimit="10" /><path d="M103.639 85.1305C101.382 82.7751 98.1758 80.0643 93.8317 76.8431L93.0226 76.242L86.4516 78.4537L88.4252 79.9471C92.2324 82.8469 95.3251 85.5728 97.62 88.0492L98.4517 88.9453L105 86.5445L103.639 85.1305Z" stroke="#FF41AF" stroke-width="1.89037" stroke-miterlimit="10" /><path d="M75.8381 77.1157C73.3844 80.129 70.3673 82.7414 66.8739 84.8813L64.5828 86.284L71.5356 88.9608L72.3976 88.3899C76.1519 85.887 79.4374 82.9078 82.1708 79.5354L83.4336 77.9739L76.564 76.2197L75.8381 77.1157Z" stroke="#FF41AF" stroke-width="1.89037" stroke-miterlimit="10" /><path d="M71.5617 73.6709H98.3483V55.8183H71.5617V73.6709ZM91.1081 68.4649H78.8017V60.9941H91.1081V68.4649Z" stroke="#FF41AF" stroke-width="1.89037" stroke-miterlimit="10" /><path d="M34.7373 51.5446L32 52.5616L38.1097 56.418C38.1097 56.418 44.5294 53.8282 50.3177 49.6467C54.0682 53.1855 60.6051 56.6146 60.6051 56.6146L65.9738 52.3915L64.3443 51.3518C60.8471 49.1325 58.1968 47.0569 54.6051 45.1476C54.6353 45.0644 54.5748 43.9415 54.6051 43.8584L64.745 43.8054V38.7014H55.0437C55.2024 37.7033 55.3159 35.5407 55.3839 34.4556H64.2082V29.3554H48.0984C48.4311 28.8148 48.7525 28.2552 49.0625 27.6805L50.0342 25.8885L41.8186 25L41.2591 26.0889C39.535 29.4764 34.1815 34.225 34.1286 34.2704L33.4064 34.9093L40.9717 37.3668L41.3384 37.0795C41.4103 37.0266 42.9604 35.8129 44.261 34.4556H47.1079C47.0285 35.5747 46.8961 37.7411 46.7109 38.7014H34.2987V43.8054H45.0436C45.0096 43.8811 46.0644 43.7941 46.0304 43.8584C44.3782 46.7771 41.0057 49.2081 34.7373 51.5446Z" stroke="#FF41AF" stroke-width="1.89037" stroke-miterlimit="10" /><path d="M80.7104 50.0904H89.6216V52.0526H98.6463V28.612H71.7576V52.1131H80.7104V50.0904ZM89.6216 45.0582H80.7104V33.6441H89.6216V45.0582Z" stroke="#FF41AF" stroke-width="1.89037" stroke-miterlimit="10" /></svg><svg width="136" height="136" viewBox="0 0 136 136" fill="none" xmlns="http://www.w3.org/2000/svg" x="272"><rect x="3" y="3" width="130" height="130" rx="11" fill="#F0F0F0" /><rect x="3" y="3" width="130" height="130" rx="11" stroke="#BB3B85" stroke-width="6" /><path d="M30.5859 110H27L25.7812 107.711C25.5885 107.346 25.3984 107.117 25.2109 107.023C25.0286 106.93 24.8021 106.883 24.5312 106.883V110H21.3516V101.711H24.5312V104.703C24.7917 104.677 24.9844 104.591 25.1094 104.445C25.2344 104.299 25.4141 103.979 25.6484 103.484C25.888 102.99 26.1016 102.628 26.2891 102.398C26.4766 102.169 26.7161 101.997 27.0078 101.883C27.2995 101.768 27.6641 101.695 28.1016 101.664C28.5391 101.633 29.1901 101.617 30.0547 101.617V103.875H29.9141C29.487 103.875 29.1615 103.893 28.9375 103.93C28.7135 103.961 28.5339 104.031 28.3984 104.141C28.263 104.25 28.1068 104.474 27.9297 104.812C27.7526 105.151 27.6042 105.388 27.4844 105.523C27.3698 105.654 27.1979 105.742 26.9688 105.789C27.4115 105.831 27.7526 105.927 27.9922 106.078C28.2318 106.224 28.5938 106.701 29.0781 107.508L30.5859 110ZM40.8984 110H37.8906V105.922L34.7656 110H31.7422V101.711H34.75V105.844L37.9062 101.711H40.8984V110ZM49.9219 104.031H47.6172V110H44.4297V104.031H42.125V101.711H49.9219V104.031ZM53.9531 104.391L50.9141 104.07C51.0286 103.539 51.1927 103.122 51.4062 102.82C51.625 102.513 51.9375 102.247 52.3438 102.023C52.6354 101.862 53.0365 101.737 53.5469 101.648C54.0573 101.56 54.6094 101.516 55.2031 101.516C56.1562 101.516 56.9219 101.57 57.5 101.68C58.0781 101.784 58.5599 102.005 58.9453 102.344C59.2161 102.578 59.4297 102.911 59.5859 103.344C59.7422 103.771 59.8203 104.18 59.8203 104.57V108.234C59.8203 108.625 59.8438 108.932 59.8906 109.156C59.9427 109.375 60.0521 109.656 60.2188 110H57.2344C57.1146 109.786 57.0365 109.625 57 109.516C56.9635 109.401 56.9271 109.224 56.8906 108.984C56.474 109.385 56.0599 109.672 55.6484 109.844C55.0859 110.073 54.4323 110.188 53.6875 110.188C52.6979 110.188 51.9453 109.958 51.4297 109.5C50.9193 109.042 50.6641 108.477 50.6641 107.805C50.6641 107.174 50.849 106.656 51.2188 106.25C51.5885 105.844 52.2708 105.542 53.2656 105.344C54.4583 105.104 55.2318 104.938 55.5859 104.844C55.9401 104.745 56.3151 104.617 56.7109 104.461C56.7109 104.07 56.6302 103.797 56.4688 103.641C56.3073 103.484 56.0234 103.406 55.6172 103.406C55.0964 103.406 54.7057 103.49 54.4453 103.656C54.2422 103.786 54.0781 104.031 53.9531 104.391ZM56.7109 106.062C56.2734 106.219 55.8177 106.357 55.3438 106.477C54.6979 106.648 54.2891 106.818 54.1172 106.984C53.9401 107.156 53.8516 107.352 53.8516 107.57C53.8516 107.82 53.9375 108.026 54.1094 108.188C54.2865 108.344 54.5443 108.422 54.8828 108.422C55.237 108.422 55.5651 108.336 55.8672 108.164C56.1745 107.992 56.3906 107.784 56.5156 107.539C56.6458 107.289 56.7109 106.966 56.7109 106.57V106.062ZM70.9922 110H67.9844V105.922L64.8594 110H61.8359V101.711H64.8438V105.844L68 101.711H70.9922V110ZM68.9766 98.3516C68.9609 99.1068 68.6979 99.6875 68.1875 100.094C67.6771 100.5 67.0703 100.703 66.3672 100.703C65.5443 100.703 64.901 100.497 64.4375 100.086C63.974 99.6693 63.7109 99.0911 63.6484 98.3516H64.9922C65.1484 98.9089 65.5859 99.1875 66.3047 99.1875C66.7005 99.1875 67.0104 99.1328 67.2344 99.0234C67.4635 98.9089 67.6172 98.6849 67.6953 98.3516H68.9766ZM79.2109 106.758L82.2344 107.102C82.0677 107.732 81.7943 108.279 81.4141 108.742C81.0339 109.201 80.5469 109.557 79.9531 109.812C79.3646 110.068 78.6146 110.195 77.7031 110.195C76.8229 110.195 76.0885 110.115 75.5 109.953C74.9167 109.786 74.4141 109.521 73.9922 109.156C73.5703 108.786 73.2396 108.354 73 107.859C72.7604 107.365 72.6406 106.708 72.6406 105.891C72.6406 105.036 72.7865 104.326 73.0781 103.758C73.2917 103.341 73.5833 102.969 73.9531 102.641C74.3229 102.307 74.7031 102.06 75.0938 101.898C75.7135 101.643 76.5078 101.516 77.4766 101.516C78.8307 101.516 79.862 101.758 80.5703 102.242C81.2839 102.727 81.7839 103.435 82.0703 104.367L79.0781 104.766C78.9844 104.411 78.8125 104.146 78.5625 103.969C78.3177 103.786 77.987 103.695 77.5703 103.695C77.0443 103.695 76.6172 103.885 76.2891 104.266C75.9661 104.641 75.8047 105.211 75.8047 105.977C75.8047 106.659 75.9661 107.177 76.2891 107.531C76.612 107.885 77.0234 108.062 77.5234 108.062C77.9401 108.062 78.2891 107.956 78.5703 107.742C78.8568 107.529 79.0703 107.201 79.2109 106.758ZM92.9297 110H89.3438L88.125 107.711C87.9323 107.346 87.7422 107.117 87.5547 107.023C87.3724 106.93 87.1458 106.883 86.875 106.883V110H83.6953V101.711H86.875V104.703C87.1354 104.677 87.3281 104.591 87.4531 104.445C87.5781 104.299 87.7578 103.979 87.9922 103.484C88.2318 102.99 88.4453 102.628 88.6328 102.398C88.8203 102.169 89.0599 101.997 89.3516 101.883C89.6432 101.768 90.0078 101.695 90.4453 101.664C90.8828 101.633 91.5339 101.617 92.3984 101.617V103.875H92.2578C91.8307 103.875 91.5052 103.893 91.2812 103.93C91.0573 103.961 90.8776 104.031 90.7422 104.141C90.6068 104.25 90.4505 104.474 90.2734 104.812C90.0964 105.151 89.9479 105.388 89.8281 105.523C89.7135 105.654 89.5417 105.742 89.3125 105.789C89.7552 105.831 90.0964 105.927 90.3359 106.078C90.5755 106.224 90.9375 106.701 91.4219 107.508L92.9297 110ZM103.242 110H100.234V105.922L97.1094 110H94.0859V101.711H97.0938V105.844L100.25 101.711H103.242V110ZM114.539 110H111.531V105.922L108.406 110H105.383V101.711H108.391V105.844L111.547 101.711H114.539V110ZM112.523 98.3516C112.508 99.1068 112.245 99.6875 111.734 100.094C111.224 100.5 110.617 100.703 109.914 100.703C109.091 100.703 108.448 100.497 107.984 100.086C107.521 99.6693 107.258 99.0911 107.195 98.3516H108.539C108.695 98.9089 109.133 99.1875 109.852 99.1875C110.247 99.1875 110.557 99.1328 110.781 99.0234C111.01 98.9089 111.164 98.6849 111.242 98.3516H112.523ZM56.8594 125H53.6797V121.781H53.5625C53.3385 121.781 53.1615 121.844 53.0312 121.969C52.9062 122.089 52.7786 122.273 52.6484 122.523L51.375 125H47.8516L49.0859 122.602C49.4505 121.888 49.9297 121.497 50.5234 121.43C49.8516 121.326 49.3385 121.047 48.9844 120.594C48.6354 120.135 48.4609 119.635 48.4609 119.094C48.4609 118.557 48.5938 118.083 48.8594 117.672C49.1302 117.255 49.5208 116.992 50.0312 116.883C50.5469 116.768 51.1953 116.711 51.9766 116.711H56.8594V125ZM53.6797 119.898V118.602H52.6875C52.2188 118.602 51.9271 118.659 51.8125 118.773C51.6979 118.883 51.6406 119.039 51.6406 119.242C51.6406 119.68 52.026 119.898 52.7969 119.898H53.6797ZM66.4609 120.711C66.9557 120.867 67.349 121.112 67.6406 121.445C67.9323 121.773 68.0781 122.138 68.0781 122.539C68.0781 123.404 67.6641 124.062 66.8359 124.516C66.0078 124.969 64.7995 125.195 63.2109 125.195C61.8776 125.195 60.8281 124.951 60.0625 124.461C59.3021 123.966 58.7526 123.224 58.4141 122.234L61.4375 121.898C61.5417 122.19 61.7552 122.451 62.0781 122.68C62.4062 122.904 62.7786 123.016 63.1953 123.016C64.263 123.016 64.7969 122.75 64.7969 122.219C64.7969 122.036 64.6953 121.891 64.4922 121.781C64.2891 121.667 64.0234 121.609 63.6953 121.609H62.3125V119.977H63.7266C64.0026 119.977 64.2552 119.919 64.4844 119.805C64.7135 119.69 64.8281 119.544 64.8281 119.367C64.8281 119.169 64.6927 119.008 64.4219 118.883C64.1562 118.758 63.7839 118.695 63.3047 118.695C62.8359 118.695 62.4401 118.794 62.1172 118.992C61.7943 119.185 61.5885 119.417 61.5 119.688L58.5703 119.289C58.8568 118.346 59.3802 117.651 60.1406 117.203C60.901 116.75 61.9505 116.523 63.2891 116.523C64.6797 116.523 65.7682 116.75 66.5547 117.203C67.3464 117.656 67.7422 118.229 67.7422 118.922C67.7422 119.755 67.3151 120.352 66.4609 120.711ZM72.9375 119.656H74.3906C76.8438 119.656 78.0703 120.552 78.0703 122.344C78.0703 124.115 76.875 125 74.4844 125H69.75V116.711H72.9375V119.656ZM72.9375 123.047H73.9766C74.237 123.047 74.4479 122.987 74.6094 122.867C74.776 122.747 74.8594 122.573 74.8594 122.344C74.8594 121.844 74.5651 121.594 73.9766 121.594H72.9375V123.047ZM78.9766 116.703H82.1562V125H78.9766V116.703ZM93.4219 125H89.8359L88.6172 122.711C88.4245 122.346 88.2344 122.117 88.0469 122.023C87.8646 121.93 87.638 121.883 87.3672 121.883V125H84.1875V116.711H87.3672V119.703C87.6276 119.677 87.8203 119.591 87.9453 119.445C88.0703 119.299 88.25 118.979 88.4844 118.484C88.724 117.99 88.9375 117.628 89.125 117.398C89.3125 117.169 89.5521 116.997 89.8438 116.883C90.1354 116.768 90.5 116.695 90.9375 116.664C91.375 116.633 92.026 116.617 92.8906 116.617V118.875H92.75C92.3229 118.875 91.9974 118.893 91.7734 118.93C91.5495 118.961 91.3698 119.031 91.2344 119.141C91.099 119.25 90.9427 119.474 90.7656 119.812C90.5885 120.151 90.4401 120.388 90.3203 120.523C90.2057 120.654 90.0339 120.742 89.8047 120.789C90.2474 120.831 90.5885 120.927 90.8281 121.078C91.0677 121.224 91.4297 121.701 91.9141 122.508L93.4219 125Z" fill="#BB3B85" /><path d="M61.1622 82.7142L58.6556 77.3985L56.6064 78.476C55.3852 79.1263 54.3455 79.667 53.4117 80.1396V67.2737H36.6592V72.4571H45.4003V83.5498C45.3436 83.5876 45.2453 83.6481 45.0865 83.7199L43.3549 84.5063L47.0374 88.96L48.5686 88.4005C52.614 86.9184 56.3267 85.2738 59.9259 83.3683L61.1622 82.7142Z" fill="#BB3B85" /><path d="M46.8035 55.3098L40.8639 58.6482L43.484 59.7899C47.0908 61.359 49.9604 62.8561 52.0171 64.2361L53.0379 64.9204L58.6675 61.635L56.7431 60.4138C54.1268 58.7578 51.0946 57.1737 47.7222 55.7105L46.8035 55.3098Z" fill="#BB3B85" /><path d="M103.639 85.1305C101.382 82.7751 98.1758 80.0643 93.8317 76.8431L93.0226 76.242L86.4516 78.4537L88.4252 79.9471C92.2324 82.8469 95.3251 85.5728 97.62 88.0492L98.4517 88.9453L105 86.5445L103.639 85.1305Z" fill="#BB3B85" /><path d="M75.8381 77.1157C73.3844 80.129 70.3673 82.7414 66.8739 84.8813L64.5828 86.284L71.5356 88.9608L72.3976 88.3899C76.1519 85.887 79.4374 82.9078 82.1708 79.5354L83.4336 77.9739L76.564 76.2197L75.8381 77.1157Z" fill="#BB3B85" /><path d="M71.5617 73.6709H98.3483V55.8183H71.5617V73.6709ZM91.1081 68.4649H78.8017V60.9941H91.1081V68.4649Z" fill="#BB3B85" /><path d="M34.7373 51.5446L32 52.5616L38.1097 56.418C38.1097 56.418 44.5294 53.8282 50.3177 49.6467C54.0682 53.1855 60.6051 56.6146 60.6051 56.6146L65.9738 52.3915L64.3443 51.3518C60.8471 49.1325 58.1968 47.0569 54.6051 45.1476C54.6353 45.0644 54.5748 43.9415 54.6051 43.8584L64.745 43.8054V38.7014H55.0437C55.2024 37.7033 55.3159 35.5407 55.3839 34.4556H64.2082V29.3554H48.0984C48.4311 28.8148 48.7525 28.2552 49.0625 27.6805L50.0342 25.8885L41.8186 25L41.2591 26.0889C39.535 29.4764 34.1815 34.225 34.1286 34.2704L33.4064 34.9093L40.9717 37.3668L41.3384 37.0795C41.4103 37.0266 42.9604 35.8129 44.261 34.4556H47.1079C47.0285 35.5747 46.8961 37.7411 46.7109 38.7014H34.2987V43.8054H45.0436C45.0096 43.8811 46.0644 43.7941 46.0304 43.8584C44.3782 46.7771 41.0057 49.2081 34.7373 51.5446Z" fill="#BB3B85" /><path d="M80.7104 50.0904H89.6216V52.0526H98.6463V28.612H71.7576V52.1131H80.7104V50.0904ZM89.6216 45.0582H80.7104V33.6441H89.6216V45.0582Z" fill="#BB3B85" /><path d="M61.1622 82.7142L58.6556 77.3985L56.6064 78.476C55.3852 79.1263 54.3455 79.667 53.4117 80.1396V67.2737H36.6592V72.4571H45.4003V83.5498C45.3436 83.5876 45.2453 83.6481 45.0865 83.7199L43.3549 84.5063L47.0374 88.96L48.5686 88.4005C52.614 86.9184 56.3267 85.2738 59.9259 83.3683L61.1622 82.7142Z" stroke="#BB3B85" stroke-width="1.89037" stroke-miterlimit="10" /><path d="M46.8035 55.3098L40.8639 58.6482L43.484 59.7899C47.0908 61.359 49.9604 62.8561 52.0171 64.2361L53.0379 64.9204L58.6675 61.635L56.7431 60.4138C54.1268 58.7578 51.0946 57.1737 47.7222 55.7105L46.8035 55.3098Z" stroke="#BB3B85" stroke-width="1.89037" stroke-miterlimit="10" /><path d="M103.639 85.1305C101.382 82.7751 98.1758 80.0643 93.8317 76.8431L93.0226 76.242L86.4516 78.4537L88.4252 79.9471C92.2324 82.8469 95.3251 85.5728 97.62 88.0492L98.4517 88.9453L105 86.5445L103.639 85.1305Z" stroke="#BB3B85" stroke-width="1.89037" stroke-miterlimit="10" /><path d="M75.8381 77.1157C73.3844 80.129 70.3673 82.7414 66.8739 84.8813L64.5828 86.284L71.5356 88.9608L72.3976 88.3899C76.1519 85.887 79.4374 82.9078 82.1708 79.5354L83.4336 77.9739L76.564 76.2197L75.8381 77.1157Z" stroke="#BB3B85" stroke-width="1.89037" stroke-miterlimit="10" /><path d="M71.5617 73.6709H98.3483V55.8183H71.5617V73.6709ZM91.1081 68.4649H78.8017V60.9941H91.1081V68.4649Z" stroke="#BB3B85" stroke-width="1.89037" stroke-miterlimit="10" /><path d="M34.7373 51.5446L32 52.5616L38.1097 56.418C38.1097 56.418 44.5294 53.8282 50.3177 49.6467C54.0682 53.1855 60.6051 56.6146 60.6051 56.6146L65.9738 52.3915L64.3443 51.3518C60.8471 49.1325 58.1968 47.0569 54.6051 45.1476C54.6353 45.0644 54.5748 43.9415 54.6051 43.8584L64.745 43.8054V38.7014H55.0437C55.2024 37.7033 55.3159 35.5407 55.3839 34.4556H64.2082V29.3554H48.0984C48.4311 28.8148 48.7525 28.2552 49.0625 27.6805L50.0342 25.8885L41.8186 25L41.2591 26.0889C39.535 29.4764 34.1815 34.225 34.1286 34.2704L33.4064 34.9093L40.9717 37.3668L41.3384 37.0795C41.4103 37.0266 42.9604 35.8129 44.261 34.4556H47.1079C47.0285 35.5747 46.8961 37.7411 46.7109 38.7014H34.2987V43.8054H45.0436C45.0096 43.8811 46.0644 43.7941 46.0304 43.8584C44.3782 46.7771 41.0057 49.2081 34.7373 51.5446Z" stroke="#BB3B85" stroke-width="1.89037" stroke-miterlimit="10" /><path d="M80.7104 50.0904H89.6216V52.0526H98.6463V28.612H71.7576V52.1131H80.7104V50.0904ZM89.6216 45.0582H80.7104V33.6441H89.6216V45.0582Z" stroke="#BB3B85" stroke-width="1.89037" stroke-miterlimit="10" /></svg></svg>