<svg xmlns="http://www.w3.org/2000/svg" viewBox="0 0 408 136"><svg width="136" height="136" viewBox="0 0 136 136" fill="none" xmlns="http://www.w3.org/2000/svg" x="0"><rect x="3" y="3" width="130" height="130" rx="11" fill="#FF41AF" /><rect x="3" y="3" width="130" height="130" rx="11" stroke="#FF41AF" stroke-width="6" /><path d="M33.7266 110H30.5391V106.867H27.6484V110H24.4609V101.711H27.6484V104.547H30.5391V101.711H33.7266V110ZM44.9688 106.641H38.5938C38.651 107.151 38.7891 107.531 39.0078 107.781C39.3151 108.141 39.7161 108.32 40.2109 108.32C40.5234 108.32 40.8203 108.242 41.1016 108.086C41.2734 107.987 41.4583 107.812 41.6562 107.562L44.7891 107.852C44.3099 108.685 43.7318 109.284 43.0547 109.648C42.3776 110.008 41.4062 110.188 40.1406 110.188C39.0417 110.188 38.1771 110.034 37.5469 109.727C36.9167 109.414 36.3932 108.922 35.9766 108.25C35.5651 107.573 35.3594 106.779 35.3594 105.867C35.3594 104.57 35.7734 103.521 36.6016 102.719C37.4349 101.917 38.5833 101.516 40.0469 101.516C41.2344 101.516 42.1719 101.695 42.8594 102.055C43.5469 102.414 44.0703 102.935 44.4297 103.617C44.7891 104.299 44.9688 105.188 44.9688 106.281V106.641ZM41.7344 105.117C41.6719 104.503 41.5052 104.062 41.2344 103.797C40.9688 103.531 40.6172 103.398 40.1797 103.398C39.6745 103.398 39.2708 103.599 38.9688 104C38.776 104.25 38.6536 104.622 38.6016 105.117H41.7344ZM57.9297 110H55.2422V104.797L53.2734 110H51.3594L49.2266 104.797V110H46.5391V101.711H50.3359L52.3203 106.477L54.1406 101.711H57.9297V110ZM69.1875 106.641H62.8125C62.8698 107.151 63.0078 107.531 63.2266 107.781C63.5339 108.141 63.9349 108.32 64.4297 108.32C64.7422 108.32 65.0391 108.242 65.3203 108.086C65.4922 107.987 65.6771 107.812 65.875 107.562L69.0078 107.852C68.5286 108.685 67.9505 109.284 67.2734 109.648C66.5964 110.008 65.625 110.188 64.3594 110.188C63.2604 110.188 62.3958 110.034 61.7656 109.727C61.1354 109.414 60.612 108.922 60.1953 108.25C59.7839 107.573 59.5781 106.779 59.5781 105.867C59.5781 104.57 59.9922 103.521 60.8203 102.719C61.6536 101.917 62.8021 101.516 64.2656 101.516C65.4531 101.516 66.3906 101.695 67.0781 102.055C67.7656 102.414 68.2891 102.935 68.6484 103.617C69.0078 104.299 69.1875 105.188 69.1875 106.281V106.641ZM65.9531 105.117C65.8906 104.503 65.724 104.062 65.4531 103.797C65.1875 103.531 64.8359 103.398 64.3984 103.398C63.8932 103.398 63.4896 103.599 63.1875 104C62.9948 104.25 62.8724 104.622 62.8203 105.117H65.9531ZM80.6016 112.367H78.3906V110H70.6016V101.711H73.7812V107.68H76.2031V101.711H79.3828V107.68H80.6016V112.367ZM90.9297 110H87.3438L86.125 107.711C85.9323 107.346 85.7422 107.117 85.5547 107.023C85.3724 106.93 85.1458 106.883 84.875 106.883V110H81.6953V101.711H84.875V104.703C85.1354 104.677 85.3281 104.591 85.4531 104.445C85.5781 104.299 85.7578 103.979 85.9922 103.484C86.2318 102.99 86.4453 102.628 86.6328 102.398C86.8203 102.169 87.0599 101.997 87.3516 101.883C87.6432 101.768 88.0078 101.695 88.4453 101.664C88.8828 101.633 89.5339 101.617 90.3984 101.617V103.875H90.2578C89.8307 103.875 89.5052 103.893 89.2812 103.93C89.0573 103.961 88.8776 104.031 88.7422 104.141C88.6068 104.25 88.4505 104.474 88.2734 104.812C88.0964 105.151 87.9479 105.388 87.8281 105.523C87.7135 105.654 87.5417 105.742 87.3125 105.789C87.7552 105.831 88.0964 105.927 88.3359 106.078C88.5755 106.224 88.9375 106.701 89.4219 107.508L90.9297 110ZM101.242 110H98.2344V105.922L95.1094 110H92.0859V101.711H95.0938V105.844L98.25 101.711H101.242V110ZM112.539 110H109.531V105.922L106.406 110H103.383V101.711H106.391V105.844L109.547 101.711H112.539V110ZM110.523 98.3516C110.508 99.1068 110.245 99.6875 109.734 100.094C109.224 100.5 108.617 100.703 107.914 100.703C107.091 100.703 106.448 100.497 105.984 100.086C105.521 99.6693 105.258 99.0911 105.195 98.3516H106.539C106.695 98.9089 107.133 99.1875 107.852 99.1875C108.247 99.1875 108.557 99.1328 108.781 99.0234C109.01 98.9089 109.164 98.6849 109.242 98.3516H110.523ZM57.3594 125H54.1797V121.781H54.0625C53.8385 121.781 53.6615 121.844 53.5312 121.969C53.4062 122.089 53.2786 122.273 53.1484 122.523L51.875 125H48.3516L49.5859 122.602C49.9505 121.888 50.4297 121.497 51.0234 121.43C50.3516 121.326 49.8385 121.047 49.4844 120.594C49.1354 120.135 48.9609 119.635 48.9609 119.094C48.9609 118.557 49.0938 118.083 49.3594 117.672C49.6302 117.255 50.0208 116.992 50.5312 116.883C51.0469 116.768 51.6953 116.711 52.4766 116.711H57.3594V125ZM54.1797 119.898V118.602H53.1875C52.7188 118.602 52.4271 118.659 52.3125 118.773C52.1979 118.883 52.1406 119.039 52.1406 119.242C52.1406 119.68 52.526 119.898 53.2969 119.898H54.1797ZM66.9609 120.711C67.4557 120.867 67.849 121.112 68.1406 121.445C68.4323 121.773 68.5781 122.138 68.5781 122.539C68.5781 123.404 68.1641 124.062 67.3359 124.516C66.5078 124.969 65.2995 125.195 63.7109 125.195C62.3776 125.195 61.3281 124.951 60.5625 124.461C59.8021 123.966 59.2526 123.224 58.9141 122.234L61.9375 121.898C62.0417 122.19 62.2552 122.451 62.5781 122.68C62.9062 122.904 63.2786 123.016 63.6953 123.016C64.763 123.016 65.2969 122.75 65.2969 122.219C65.2969 122.036 65.1953 121.891 64.9922 121.781C64.7891 121.667 64.5234 121.609 64.1953 121.609H62.8125V119.977H64.2266C64.5026 119.977 64.7552 119.919 64.9844 119.805C65.2135 119.69 65.3281 119.544 65.3281 119.367C65.3281 119.169 65.1927 119.008 64.9219 118.883C64.6562 118.758 64.2839 118.695 63.8047 118.695C63.3359 118.695 62.9401 118.794 62.6172 118.992C62.2943 119.185 62.0885 119.417 62 119.688L59.0703 119.289C59.3568 118.346 59.8802 117.651 60.6406 117.203C61.401 116.75 62.4505 116.523 63.7891 116.523C65.1797 116.523 66.2682 116.75 67.0547 117.203C67.8464 117.656 68.2422 118.229 68.2422 118.922C68.2422 119.755 67.8151 120.352 66.9609 120.711ZM73.4375 119.656H74.8906C77.3438 119.656 78.5703 120.552 78.5703 122.344C78.5703 124.115 77.375 125 74.9844 125H70.25V116.711H73.4375V119.656ZM73.4375 123.047H74.4766C74.737 123.047 74.9479 122.987 75.1094 122.867C75.276 122.747 75.3594 122.573 75.3594 122.344C75.3594 121.844 75.0651 121.594 74.4766 121.594H73.4375V123.047ZM79.4766 116.703H82.6562V125H79.4766V116.703ZM93.9219 125H90.3359L89.1172 122.711C88.9245 122.346 88.7344 122.117 88.5469 122.023C88.3646 121.93 88.138 121.883 87.8672 121.883V125H84.6875V116.711H87.8672V119.703C88.1276 119.677 88.3203 119.591 88.4453 119.445C88.5703 119.299 88.75 118.979 88.9844 118.484C89.224 117.99 89.4375 117.628 89.625 117.398C89.8125 117.169 90.0521 116.997 90.3438 116.883C90.6354 116.768 91 116.695 91.4375 116.664C91.875 116.633 92.526 116.617 93.3906 116.617V118.875H93.25C92.8229 118.875 92.4974 118.893 92.2734 118.93C92.0495 118.961 91.8698 119.031 91.7344 119.141C91.599 119.25 91.4427 119.474 91.2656 119.812C91.0885 120.151 90.9401 120.388 90.8203 120.523C90.7057 120.654 90.5339 120.742 90.3047 120.789C90.7474 120.831 91.0885 120.927 91.3281 121.078C91.5677 121.224 91.9297 121.701 92.4141 122.508L93.9219 125Z" fill="#F0F0F0" /><path d="M67.9632 90.5368C74.0153 90.5368 79.3024 89.514 83.8302 87.4626C88.3551 85.4169 91.8487 82.5013 94.3081 78.7244C96.7675 74.9475 98 70.5416 98 65.5066V65.1354C98 60.1005 96.7675 55.6946 94.3081 51.9176C91.8487 48.1407 88.3551 45.2167 83.8302 43.1426C79.3024 41.0686 74.0153 40.0344 67.9632 40.0344C62.0102 40.0344 56.7713 41.0686 52.2435 43.1426C47.7157 45.2167 44.2108 48.1549 41.7287 51.9545C39.2439 55.7569 38 60.1515 38 65.1354V65.5066C38 70.4934 39.2439 74.888 41.7287 78.6876C44.2108 82.49 47.7157 85.4169 52.2435 87.4626C56.7713 89.514 62.0102 90.5368 67.9632 90.5368ZM67.9632 76.69C62.9934 76.69 59.2788 75.789 56.8194 73.987C54.36 72.1849 53.1303 69.4309 53.1303 65.7304V64.9881C53.1303 61.3358 54.3855 58.5705 56.8931 56.6947C59.4035 54.819 63.0926 53.8812 67.9632 53.8812C77.8999 53.8812 82.8697 57.5844 82.8697 64.9881V65.7304C82.8697 69.4309 81.6655 72.1849 79.2543 73.987C76.843 75.789 73.0803 76.69 67.9632 76.69ZM58.5903 37.5892C60.8542 37.5892 62.6987 36.912 64.1267 35.5519C65.5519 34.1947 66.266 32.4324 66.266 30.2592C66.266 28.0859 65.5519 26.3321 64.1267 25.0004C62.6987 23.6687 60.8542 23 58.5903 23C56.2782 23 54.3969 23.6687 52.9462 25.0004C51.4926 26.3321 50.7673 28.0859 50.7673 30.2592C50.7673 32.4324 51.4926 34.1947 52.9462 35.5519C54.3969 36.912 56.2782 37.5892 58.5903 37.5892ZM77.8517 37.5892C80.1156 37.5892 81.9601 36.912 83.3882 35.5519C84.8134 34.1947 85.5274 32.4324 85.5274 30.2592C85.5274 28.0859 84.8247 26.3321 83.425 25.0004C82.0225 23.6687 80.1638 23 77.8517 23C75.5397 23 73.6696 23.6687 72.2444 25.0004C70.8164 26.3321 70.1024 28.0859 70.1024 30.2592C70.1024 32.4324 70.8164 34.1947 72.2444 35.5519C73.6696 36.912 75.5397 37.5892 77.8517 37.5892Z" fill="#F0F0F0" /></svg><svg width="136" height="136" viewBox="0 0 136 136" fill="none" xmlns="http://www.w3.org/2000/svg" x="136"><rect x="3" y="3" width="130" height="130" rx="11" fill="#F0F0F0" /><rect x="3" y="3" width="130" height="130" rx="11" stroke="#FF41AF" stroke-width="6" /><path d="M33.7266 110H30.5391V106.867H27.6484V110H24.4609V101.711H27.6484V104.547H30.5391V101.711H33.7266V110ZM44.9688 106.641H38.5938C38.651 107.151 38.7891 107.531 39.0078 107.781C39.3151 108.141 39.7161 108.32 40.2109 108.32C40.5234 108.32 40.8203 108.242 41.1016 108.086C41.2734 107.987 41.4583 107.812 41.6562 107.562L44.7891 107.852C44.3099 108.685 43.7318 109.284 43.0547 109.648C42.3776 110.008 41.4062 110.188 40.1406 110.188C39.0417 110.188 38.1771 110.034 37.5469 109.727C36.9167 109.414 36.3932 108.922 35.9766 108.25C35.5651 107.573 35.3594 106.779 35.3594 105.867C35.3594 104.57 35.7734 103.521 36.6016 102.719C37.4349 101.917 38.5833 101.516 40.0469 101.516C41.2344 101.516 42.1719 101.695 42.8594 102.055C43.5469 102.414 44.0703 102.935 44.4297 103.617C44.7891 104.299 44.9688 105.188 44.9688 106.281V106.641ZM41.7344 105.117C41.6719 104.503 41.5052 104.062 41.2344 103.797C40.9688 103.531 40.6172 103.398 40.1797 103.398C39.6745 103.398 39.2708 103.599 38.9688 104C38.776 104.25 38.6536 104.622 38.6016 105.117H41.7344ZM57.9297 110H55.2422V104.797L53.2734 110H51.3594L49.2266 104.797V110H46.5391V101.711H50.3359L52.3203 106.477L54.1406 101.711H57.9297V110ZM69.1875 106.641H62.8125C62.8698 107.151 63.0078 107.531 63.2266 107.781C63.5339 108.141 63.9349 108.32 64.4297 108.32C64.7422 108.32 65.0391 108.242 65.3203 108.086C65.4922 107.987 65.6771 107.812 65.875 107.562L69.0078 107.852C68.5286 108.685 67.9505 109.284 67.2734 109.648C66.5964 110.008 65.625 110.188 64.3594 110.188C63.2604 110.188 62.3958 110.034 61.7656 109.727C61.1354 109.414 60.612 108.922 60.1953 108.25C59.7839 107.573 59.5781 106.779 59.5781 105.867C59.5781 104.57 59.9922 103.521 60.8203 102.719C61.6536 101.917 62.8021 101.516 64.2656 101.516C65.4531 101.516 66.3906 101.695 67.0781 102.055C67.7656 102.414 68.2891 102.935 68.6484 103.617C69.0078 104.299 69.1875 105.188 69.1875 106.281V106.641ZM65.9531 105.117C65.8906 104.503 65.724 104.062 65.4531 103.797C65.1875 103.531 64.8359 103.398 64.3984 103.398C63.8932 103.398 63.4896 103.599 63.1875 104C62.9948 104.25 62.8724 104.622 62.8203 105.117H65.9531ZM80.6016 112.367H78.3906V110H70.6016V101.711H73.7812V107.68H76.2031V101.711H79.3828V107.68H80.6016V112.367ZM90.9297 110H87.3438L86.125 107.711C85.9323 107.346 85.7422 107.117 85.5547 107.023C85.3724 106.93 85.1458 106.883 84.875 106.883V110H81.6953V101.711H84.875V104.703C85.1354 104.677 85.3281 104.591 85.4531 104.445C85.5781 104.299 85.7578 103.979 85.9922 103.484C86.2318 102.99 86.4453 102.628 86.6328 102.398C86.8203 102.169 87.0599 101.997 87.3516 101.883C87.6432 101.768 88.0078 101.695 88.4453 101.664C88.8828 101.633 89.5339 101.617 90.3984 101.617V103.875H90.2578C89.8307 103.875 89.5052 103.893 89.2812 103.93C89.0573 103.961 88.8776 104.031 88.7422 104.141C88.6068 104.25 88.4505 104.474 88.2734 104.812C88.0964 105.151 87.9479 105.388 87.8281 105.523C87.7135 105.654 87.5417 105.742 87.3125 105.789C87.7552 105.831 88.0964 105.927 88.3359 106.078C88.5755 106.224 88.9375 106.701 89.4219 107.508L90.9297 110ZM101.242 110H98.2344V105.922L95.1094 110H92.0859V101.711H95.0938V105.844L98.25 101.711H101.242V110ZM112.539 110H109.531V105.922L106.406 110H103.383V101.711H106.391V105.844L109.547 101.711H112.539V110ZM110.523 98.3516C110.508 99.1068 110.245 99.6875 109.734 100.094C109.224 100.5 108.617 100.703 107.914 100.703C107.091 100.703 106.448 100.497 105.984 100.086C105.521 99.6693 105.258 99.0911 105.195 98.3516H106.539C106.695 98.9089 107.133 99.1875 107.852 99.1875C108.247 99.1875 108.557 99.1328 108.781 99.0234C109.01 98.9089 109.164 98.6849 109.242 98.3516H110.523ZM57.3594 125H54.1797V121.781H54.0625C53.8385 121.781 53.6615 121.844 53.5312 121.969C53.4062 122.089 53.2786 122.273 53.1484 122.523L51.875 125H48.3516L49.5859 122.602C49.9505 121.888 50.4297 121.497 51.0234 121.43C50.3516 121.326 49.8385 121.047 49.4844 120.594C49.1354 120.135 48.9609 119.635 48.9609 119.094C48.9609 118.557 49.0938 118.083 49.3594 117.672C49.6302 117.255 50.0208 116.992 50.5312 116.883C51.0469 116.768 51.6953 116.711 52.4766 116.711H57.3594V125ZM54.1797 119.898V118.602H53.1875C52.7188 118.602 52.4271 118.659 52.3125 118.773C52.1979 118.883 52.1406 119.039 52.1406 119.242C52.1406 119.68 52.526 119.898 53.2969 119.898H54.1797ZM66.9609 120.711C67.4557 120.867 67.849 121.112 68.1406 121.445C68.4323 121.773 68.5781 122.138 68.5781 122.539C68.5781 123.404 68.1641 124.062 67.3359 124.516C66.5078 124.969 65.2995 125.195 63.7109 125.195C62.3776 125.195 61.3281 124.951 60.5625 124.461C59.8021 123.966 59.2526 123.224 58.9141 122.234L61.9375 121.898C62.0417 122.19 62.2552 122.451 62.5781 122.68C62.9062 122.904 63.2786 123.016 63.6953 123.016C64.763 123.016 65.2969 122.75 65.2969 122.219C65.2969 122.036 65.1953 121.891 64.9922 121.781C64.7891 121.667 64.5234 121.609 64.1953 121.609H62.8125V119.977H64.2266C64.5026 119.977 64.7552 119.919 64.9844 119.805C65.2135 119.69 65.3281 119.544 65.3281 119.367C65.3281 119.169 65.1927 119.008 64.9219 118.883C64.6562 118.758 64.2839 118.695 63.8047 118.695C63.3359 118.695 62.9401 118.794 62.6172 118.992C62.2943 119.185 62.0885 119.417 62 119.688L59.0703 119.289C59.3568 118.346 59.8802 117.651 60.6406 117.203C61.401 116.75 62.4505 116.523 63.7891 116.523C65.1797 116.523 66.2682 116.75 67.0547 117.203C67.8464 117.656 68.2422 118.229 68.2422 118.922C68.2422 119.755 67.8151 120.352 66.9609 120.711ZM73.4375 119.656H74.8906C77.3438 119.656 78.5703 120.552 78.5703 122.344C78.5703 124.115 77.375 125 74.9844 125H70.25V116.711H73.4375V119.656ZM73.4375 123.047H74.4766C74.737 123.047 74.9479 122.987 75.1094 122.867C75.276 122.747 75.3594 122.573 75.3594 122.344C75.3594 121.844 75.0651 121.594 74.4766 121.594H73.4375V123.047ZM79.4766 116.703H82.6562V125H79.4766V116.703ZM93.9219 125H90.3359L89.1172 122.711C88.9245 122.346 88.7344 122.117 88.5469 122.023C88.3646 121.93 88.138 121.883 87.8672 121.883V125H84.6875V116.711H87.8672V119.703C88.1276 119.677 88.3203 119.591 88.4453 119.445C88.5703 119.299 88.75 118.979 88.9844 118.484C89.224 117.99 89.4375 117.628 89.625 117.398C89.8125 117.169 90.0521 116.997 90.3438 116.883C90.6354 116.768 91 116.695 91.4375 116.664C91.875 116.633 92.526 116.617 93.3906 116.617V118.875H93.25C92.8229 118.875 92.4974 118.893 92.2734 118.93C92.0495 118.961 91.8698 119.031 91.7344 119.141C91.599 119.25 91.4427 119.474 91.2656 119.812C91.0885 120.151 90.9401 120.388 90.8203 120.523C90.7057 120.654 90.5339 120.742 90.3047 120.789C90.7474 120.831 91.0885 120.927 91.3281 121.078C91.5677 121.224 91.9297 121.701 92.4141 122.508L93.9219 125Z" fill="#FF41AF" /><path d="M67.9632 90.5368C74.0153 90.5368 79.3024 89.514 83.8302 87.4626C88.3551 85.4169 91.8487 82.5013 94.3081 78.7244C96.7675 74.9475 98 70.5416 98 65.5066V65.1354C98 60.1005 96.7675 55.6946 94.3081 51.9176C91.8487 48.1407 88.3551 45.2167 83.8302 43.1426C79.3024 41.0686 74.0153 40.0344 67.9632 40.0344C62.0102 40.0344 56.7713 41.0686 52.2435 43.1426C47.7157 45.2167 44.2108 48.1549 41.7287 51.9545C39.2439 55.7569 38 60.1515 38 65.1354V65.5066C38 70.4934 39.2439 74.888 41.7287 78.6876C44.2108 82.49 47.7157 85.4169 52.2435 87.4626C56.7713 89.514 62.0102 90.5368 67.9632 90.5368ZM67.9632 76.69C62.9934 76.69 59.2788 75.789 56.8194 73.987C54.36 72.1849 53.1303 69.4309 53.1303 65.7304V64.9881C53.1303 61.3358 54.3855 58.5705 56.8931 56.6947C59.4035 54.819 63.0926 53.8812 67.9632 53.8812C77.8999 53.8812 82.8697 57.5844 82.8697 64.9881V65.7304C82.8697 69.4309 81.6655 72.1849 79.2543 73.987C76.843 75.789 73.0803 76.69 67.9632 76.69ZM58.5903 37.5892C60.8542 37.5892 62.6987 36.912 64.1267 35.5519C65.5519 34.1947 66.266 32.4324 66.266 30.2592C66.266 28.0859 65.5519 26.3321 64.1267 25.0004C62.6987 23.6687 60.8542 23 58.5903 23C56.2782 23 54.3969 23.6687 52.9462 25.0004C51.4926 26.3321 50.7673 28.0859 50.7673 30.2592C50.7673 32.4324 51.4926 34.1947 52.9462 35.5519C54.3969 36.912 56.2782 37.5892 58.5903 37.5892ZM77.8517 37.5892C80.1156 37.5892 81.9601 36.912 83.3882 35.5519C84.8134 34.1947 85.5274 32.4324 85.5274 30.2592C85.5274 28.0859 84.8247 26.3321 83.425 25.0004C82.0225 23.6687 80.1638 23 77.8517 23C75.5397 23 73.6696 23.6687 72.2444 25.0004C70.8164 26.3321 70.1024 28.0859 70.1024 30.2592C70.1024 32.4324 70.8164 34.1947 72.2444 35.5519C73.6696 36.912 75.5397 37.5892 77.8517 37.5892Z" fill="#FF41AF" /></svg><svg width="136" height="136" viewBox="0 0 136 136" fill="none" xmlns="http://www.w3.org/2000/svg" x="272"><rect x="3" y="3" width="130" height="130" rx="11" fill="#F0F0F0" /><rect x="3" y="3" width="130" height="130" rx="11" stroke="#BB3B85" stroke-width="6" /><path d="M33.7266 110H30.5391V106.867H27.6484V110H24.4609V101.711H27.6484V104.547H30.5391V101.711H33.7266V110ZM44.9688 106.641H38.5938C38.651 107.151 38.7891 107.531 39.0078 107.781C39.3151 108.141 39.7161 108.32 40.2109 108.32C40.5234 108.32 40.8203 108.242 41.1016 108.086C41.2734 107.987 41.4583 107.812 41.6562 107.562L44.7891 107.852C44.3099 108.685 43.7318 109.284 43.0547 109.648C42.3776 110.008 41.4062 110.188 40.1406 110.188C39.0417 110.188 38.1771 110.034 37.5469 109.727C36.9167 109.414 36.3932 108.922 35.9766 108.25C35.5651 107.573 35.3594 106.779 35.3594 105.867C35.3594 104.57 35.7734 103.521 36.6016 102.719C37.4349 101.917 38.5833 101.516 40.0469 101.516C41.2344 101.516 42.1719 101.695 42.8594 102.055C43.5469 102.414 44.0703 102.935 44.4297 103.617C44.7891 104.299 44.9688 105.188 44.9688 106.281V106.641ZM41.7344 105.117C41.6719 104.503 41.5052 104.062 41.2344 103.797C40.9688 103.531 40.6172 103.398 40.1797 103.398C39.6745 103.398 39.2708 103.599 38.9688 104C38.776 104.25 38.6536 104.622 38.6016 105.117H41.7344ZM57.9297 110H55.2422V104.797L53.2734 110H51.3594L49.2266 104.797V110H46.5391V101.711H50.3359L52.3203 106.477L54.1406 101.711H57.9297V110ZM69.1875 106.641H62.8125C62.8698 107.151 63.0078 107.531 63.2266 107.781C63.5339 108.141 63.9349 108.32 64.4297 108.32C64.7422 108.32 65.0391 108.242 65.3203 108.086C65.4922 107.987 65.6771 107.812 65.875 107.562L69.0078 107.852C68.5286 108.685 67.9505 109.284 67.2734 109.648C66.5964 110.008 65.625 110.188 64.3594 110.188C63.2604 110.188 62.3958 110.034 61.7656 109.727C61.1354 109.414 60.612 108.922 60.1953 108.25C59.7839 107.573 59.5781 106.779 59.5781 105.867C59.5781 104.57 59.9922 103.521 60.8203 102.719C61.6536 101.917 62.8021 101.516 64.2656 101.516C65.4531 101.516 66.3906 101.695 67.0781 102.055C67.7656 102.414 68.2891 102.935 68.6484 103.617C69.0078 104.299 69.1875 105.188 69.1875 106.281V106.641ZM65.9531 105.117C65.8906 104.503 65.724 104.062 65.4531 103.797C65.1875 103.531 64.8359 103.398 64.3984 103.398C63.8932 103.398 63.4896 103.599 63.1875 104C62.9948 104.25 62.8724 104.622 62.8203 105.117H65.9531ZM80.6016 112.367H78.3906V110H70.6016V101.711H73.7812V107.68H76.2031V101.711H79.3828V107.68H80.6016V112.367ZM90.9297 110H87.3438L86.125 107.711C85.9323 107.346 85.7422 107.117 85.5547 107.023C85.3724 106.93 85.1458 106.883 84.875 106.883V110H81.6953V101.711H84.875V104.703C85.1354 104.677 85.3281 104.591 85.4531 104.445C85.5781 104.299 85.7578 103.979 85.9922 103.484C86.2318 102.99 86.4453 102.628 86.6328 102.398C86.8203 102.169 87.0599 101.997 87.3516 101.883C87.6432 101.768 88.0078 101.695 88.4453 101.664C88.8828 101.633 89.5339 101.617 90.3984 101.617V103.875H90.2578C89.8307 103.875 89.5052 103.893 89.2812 103.93C89.0573 103.961 88.8776 104.031 88.7422 104.141C88.6068 104.25 88.4505 104.474 88.2734 104.812C88.0964 105.151 87.9479 105.388 87.8281 105.523C87.7135 105.654 87.5417 105.742 87.3125 105.789C87.7552 105.831 88.0964 105.927 88.3359 106.078C88.5755 106.224 88.9375 106.701 89.4219 107.508L90.9297 110ZM101.242 110H98.2344V105.922L95.1094 110H92.0859V101.711H95.0938V105.844L98.25 101.711H101.242V110ZM112.539 110H109.531V105.922L106.406 110H103.383V101.711H106.391V105.844L109.547 101.711H112.539V110ZM110.523 98.3516C110.508 99.1068 110.245 99.6875 109.734 100.094C109.224 100.5 108.617 100.703 107.914 100.703C107.091 100.703 106.448 100.497 105.984 100.086C105.521 99.6693 105.258 99.0911 105.195 98.3516H106.539C106.695 98.9089 107.133 99.1875 107.852 99.1875C108.247 99.1875 108.557 99.1328 108.781 99.0234C109.01 98.9089 109.164 98.6849 109.242 98.3516H110.523ZM57.3594 125H54.1797V121.781H54.0625C53.8385 121.781 53.6615 121.844 53.5312 121.969C53.4062 122.089 53.2786 122.273 53.1484 122.523L51.875 125H48.3516L49.5859 122.602C49.9505 121.888 50.4297 121.497 51.0234 121.43C50.3516 121.326 49.8385 121.047 49.4844 120.594C49.1354 120.135 48.9609 119.635 48.9609 119.094C48.9609 118.557 49.0938 118.083 49.3594 117.672C49.6302 117.255 50.0208 116.992 50.5312 116.883C51.0469 116.768 51.6953 116.711 52.4766 116.711H57.3594V125ZM54.1797 119.898V118.602H53.1875C52.7188 118.602 52.4271 118.659 52.3125 118.773C52.1979 118.883 52.1406 119.039 52.1406 119.242C52.1406 119.68 52.526 119.898 53.2969 119.898H54.1797ZM66.9609 120.711C67.4557 120.867 67.849 121.112 68.1406 121.445C68.4323 121.773 68.5781 122.138 68.5781 122.539C68.5781 123.404 68.1641 124.062 67.3359 124.516C66.5078 124.969 65.2995 125.195 63.7109 125.195C62.3776 125.195 61.3281 124.951 60.5625 124.461C59.8021 123.966 59.2526 123.224 58.9141 122.234L61.9375 121.898C62.0417 122.19 62.2552 122.451 62.5781 122.68C62.9062 122.904 63.2786 123.016 63.6953 123.016C64.763 123.016 65.2969 122.75 65.2969 122.219C65.2969 122.036 65.1953 121.891 64.9922 121.781C64.7891 121.667 64.5234 121.609 64.1953 121.609H62.8125V119.977H64.2266C64.5026 119.977 64.7552 119.919 64.9844 119.805C65.2135 119.69 65.3281 119.544 65.3281 119.367C65.3281 119.169 65.1927 119.008 64.9219 118.883C64.6562 118.758 64.2839 118.695 63.8047 118.695C63.3359 118.695 62.9401 118.794 62.6172 118.992C62.2943 119.185 62.0885 119.417 62 119.688L59.0703 119.289C59.3568 118.346 59.8802 117.651 60.6406 117.203C61.401 116.75 62.4505 116.523 63.7891 116.523C65.1797 116.523 66.2682 116.75 67.0547 117.203C67.8464 117.656 68.2422 118.229 68.2422 118.922C68.2422 119.755 67.8151 120.352 66.9609 120.711ZM73.4375 119.656H74.8906C77.3438 119.656 78.5703 120.552 78.5703 122.344C78.5703 124.115 77.375 125 74.9844 125H70.25V116.711H73.4375V119.656ZM73.4375 123.047H74.4766C74.737 123.047 74.9479 122.987 75.1094 122.867C75.276 122.747 75.3594 122.573 75.3594 122.344C75.3594 121.844 75.0651 121.594 74.4766 121.594H73.4375V123.047ZM79.4766 116.703H82.6562V125H79.4766V116.703ZM93.9219 125H90.3359L89.1172 122.711C88.9245 122.346 88.7344 122.117 88.5469 122.023C88.3646 121.93 88.138 121.883 87.8672 121.883V125H84.6875V116.711H87.8672V119.703C88.1276 119.677 88.3203 119.591 88.4453 119.445C88.5703 119.299 88.75 118.979 88.9844 118.484C89.224 117.99 89.4375 117.628 89.625 117.398C89.8125 117.169 90.0521 116.997 90.3438 116.883C90.6354 116.768 91 116.695 91.4375 116.664C91.875 116.633 92.526 116.617 93.3906 116.617V118.875H93.25C92.8229 118.875 92.4974 118.893 92.2734 118.93C92.0495 118.961 91.8698 119.031 91.7344 119.141C91.599 119.25 91.4427 119.474 91.2656 119.812C91.0885 120.151 90.9401 120.388 90.8203 120.523C90.7057 120.654 90.5339 120.742 90.3047 120.789C90.7474 120.831 91.0885 120.927 91.3281 121.078C91.5677 121.224 91.9297 121.701 92.4141 122.508L93.9219 125Z" fill="#BB3B85" /><path d="M67.9632 90.5368C74.0153 90.5368 79.3024 89.514 83.8302 87.4626C88.3551 85.4169 91.8487 82.5013 94.3081 78.7244C96.7675 74.9475 98 70.5416 98 65.5066V65.1354C98 60.1005 96.7675 55.6946 94.3081 51.9176C91.8487 48.1407 88.3551 45.2167 83.8302 43.1426C79.3024 41.0686 74.0153 40.0344 67.9632 40.0344C62.0102 40.0344 56.7713 41.0686 52.2435 43.1426C47.7157 45.2167 44.2108 48.1549 41.7287 51.9545C39.2439 55.7569 38 60.1515 38 65.1354V65.5066C38 70.4934 39.2439 74.888 41.7287 78.6876C44.2108 82.49 47.7157 85.4169 52.2435 87.4626C56.7713 89.514 62.0102 90.5368 67.9632 90.5368ZM67.9632 76.69C62.9934 76.69 59.2788 75.789 56.8194 73.987C54.36 72.1849 53.1303 69.4309 53.1303 65.7304V64.9881C53.1303 61.3358 54.3855 58.5705 56.8931 56.6947C59.4035 54.819 63.0926 53.8812 67.9632 53.8812C77.8999 53.8812 82.8697 57.5844 82.8697 64.9881V65.7304C82.8697 69.4309 81.6655 72.1849 79.2543 73.987C76.843 75.789 73.0803 76.69 67.9632 76.69ZM58.5903 37.5892C60.8542 37.5892 62.6987 36.912 64.1267 35.5519C65.5519 34.1947 66.266 32.4324 66.266 30.2592C66.266 28.0859 65.5519 26.3321 64.1267 25.0004C62.6987 23.6687 60.8542 23 58.5903 23C56.2782 23 54.3969 23.6687 52.9462 25.0004C51.4926 26.3321 50.7673 28.0859 50.7673 30.2592C50.7673 32.4324 51.4926 34.1947 52.9462 35.5519C54.3969 36.912 56.2782 37.5892 58.5903 37.5892ZM77.8517 37.5892C80.1156 37.5892 81.9601 36.912 83.3882 35.5519C84.8134 34.1947 85.5274 32.4324 85.5274 30.2592C85.5274 28.0859 84.8247 26.3321 83.425 25.0004C82.0225 23.6687 80.1638 23 77.8517 23C75.5397 23 73.6696 23.6687 72.2444 25.0004C70.8164 26.3321 70.1024 28.0859 70.1024 30.2592C70.1024 32.4324 70.8164 34.1947 72.2444 35.5519C73.6696 36.912 75.5397 37.5892 77.8517 37.5892Z" fill="#BB3B85" /></svg></svg>