<svg xmlns="http://www.w3.org/2000/svg" viewBox="0 0 408 136"><svg width="136" height="136" viewBox="0 0 136 136" fill="none" xmlns="http://www.w3.org/2000/svg" x="0"><rect x="3" y="3" width="130" height="130" rx="11" fill="#FF41AF" /><rect x="3" y="3" width="130" height="130" rx="11" stroke="#FF41AF" stroke-width="6" /><path d="M20.5156 110H17.5078V105.922L14.3828 110H11.3594V101.711H14.3672V105.844L17.5234 101.711H20.5156V110ZM29.5391 104.031H27.2344V110H24.0469V104.031H21.7422V101.711H29.5391V104.031ZM33.5703 104.391L30.5312 104.07C30.6458 103.539 30.8099 103.122 31.0234 102.82C31.2422 102.513 31.5547 102.247 31.9609 102.023C32.2526 101.862 32.6536 101.737 33.1641 101.648C33.6745 101.56 34.2266 101.516 34.8203 101.516C35.7734 101.516 36.5391 101.57 37.1172 101.68C37.6953 101.784 38.1771 102.005 38.5625 102.344C38.8333 102.578 39.0469 102.911 39.2031 103.344C39.3594 103.771 39.4375 104.18 39.4375 104.57V108.234C39.4375 108.625 39.4609 108.932 39.5078 109.156C39.5599 109.375 39.6693 109.656 39.8359 110H36.8516C36.7318 109.786 36.6536 109.625 36.6172 109.516C36.5807 109.401 36.5443 109.224 36.5078 108.984C36.0911 109.385 35.6771 109.672 35.2656 109.844C34.7031 110.073 34.0495 110.188 33.3047 110.188C32.3151 110.188 31.5625 109.958 31.0469 109.5C30.5365 109.042 30.2812 108.477 30.2812 107.805C30.2812 107.174 30.4661 106.656 30.8359 106.25C31.2057 105.844 31.888 105.542 32.8828 105.344C34.0755 105.104 34.849 104.938 35.2031 104.844C35.5573 104.745 35.9323 104.617 36.3281 104.461C36.3281 104.07 36.2474 103.797 36.0859 103.641C35.9245 103.484 35.6406 103.406 35.2344 103.406C34.7135 103.406 34.3229 103.49 34.0625 103.656C33.8594 103.786 33.6953 104.031 33.5703 104.391ZM36.3281 106.062C35.8906 106.219 35.4349 106.357 34.9609 106.477C34.3151 106.648 33.9062 106.818 33.7344 106.984C33.5573 107.156 33.4688 107.352 33.4688 107.57C33.4688 107.82 33.5547 108.026 33.7266 108.188C33.9036 108.344 34.1615 108.422 34.5 108.422C34.8542 108.422 35.1823 108.336 35.4844 108.164C35.7917 107.992 36.0078 107.784 36.1328 107.539C36.263 107.289 36.3281 106.966 36.3281 106.57V106.062ZM50.875 110H47.6953V104.031H45.2812V107.508C45.2812 108.435 45.0911 109.122 44.7109 109.57C44.3359 110.018 43.7578 110.242 42.9766 110.242C42.0911 110.242 41.2969 110.161 40.5938 110V107.648C40.9688 107.763 41.2552 107.82 41.4531 107.82C41.8802 107.82 42.0938 107.503 42.0938 106.867V101.711H50.875V110ZM56.0938 104.656H57.5469C60 104.656 61.2266 105.552 61.2266 107.344C61.2266 109.115 60.0312 110 57.6406 110H52.9062V101.711H56.0938V104.656ZM56.0938 108.047H57.1328C57.3932 108.047 57.6042 107.987 57.7656 107.867C57.9323 107.747 58.0156 107.573 58.0156 107.344C58.0156 106.844 57.7214 106.594 57.1328 106.594H56.0938V108.047ZM70.7969 110H67.6172V106.781H67.5C67.276 106.781 67.099 106.844 66.9688 106.969C66.8438 107.089 66.7161 107.273 66.5859 107.523L65.3125 110H61.7891L63.0234 107.602C63.388 106.888 63.8672 106.497 64.4609 106.43C63.7891 106.326 63.276 106.047 62.9219 105.594C62.5729 105.135 62.3984 104.635 62.3984 104.094C62.3984 103.557 62.5312 103.083 62.7969 102.672C63.0677 102.255 63.4583 101.992 63.9688 101.883C64.4844 101.768 65.1328 101.711 65.9141 101.711H70.7969V110ZM67.6172 104.898V103.602H66.625C66.1562 103.602 65.8646 103.659 65.75 103.773C65.6354 103.883 65.5781 104.039 65.5781 104.242C65.5781 104.68 65.9635 104.898 66.7344 104.898H67.6172ZM82.0938 110H78.9062V106.867H76.0156V110H72.8281V101.711H76.0156V104.547H78.9062V101.711H82.0938V110ZM90.3125 106.758L93.3359 107.102C93.1693 107.732 92.8958 108.279 92.5156 108.742C92.1354 109.201 91.6484 109.557 91.0547 109.812C90.4661 110.068 89.7161 110.195 88.8047 110.195C87.9245 110.195 87.1901 110.115 86.6016 109.953C86.0182 109.786 85.5156 109.521 85.0938 109.156C84.6719 108.786 84.3411 108.354 84.1016 107.859C83.862 107.365 83.7422 106.708 83.7422 105.891C83.7422 105.036 83.888 104.326 84.1797 103.758C84.3932 103.341 84.6849 102.969 85.0547 102.641C85.4245 102.307 85.8047 102.06 86.1953 101.898C86.8151 101.643 87.6094 101.516 88.5781 101.516C89.9323 101.516 90.9635 101.758 91.6719 102.242C92.3854 102.727 92.8854 103.435 93.1719 104.367L90.1797 104.766C90.0859 104.411 89.9141 104.146 89.6641 103.969C89.4193 103.786 89.0885 103.695 88.6719 103.695C88.1458 103.695 87.7188 103.885 87.3906 104.266C87.0677 104.641 86.9062 105.211 86.9062 105.977C86.9062 106.659 87.0677 107.177 87.3906 107.531C87.7135 107.885 88.125 108.062 88.625 108.062C89.0417 108.062 89.3906 107.956 89.6719 107.742C89.9583 107.529 90.1719 107.201 90.3125 106.758ZM104.031 110H100.445L99.2266 107.711C99.0339 107.346 98.8438 107.117 98.6562 107.023C98.474 106.93 98.2474 106.883 97.9766 106.883V110H94.7969V101.711H97.9766V104.703C98.237 104.677 98.4297 104.591 98.5547 104.445C98.6797 104.299 98.8594 103.979 99.0938 103.484C99.3333 102.99 99.5469 102.628 99.7344 102.398C99.9219 102.169 100.161 101.997 100.453 101.883C100.745 101.768 101.109 101.695 101.547 101.664C101.984 101.633 102.635 101.617 103.5 101.617V103.875H103.359C102.932 103.875 102.607 103.893 102.383 103.93C102.159 103.961 101.979 104.031 101.844 104.141C101.708 104.25 101.552 104.474 101.375 104.812C101.198 105.151 101.049 105.388 100.93 105.523C100.815 105.654 100.643 105.742 100.414 105.789C100.857 105.831 101.198 105.927 101.438 106.078C101.677 106.224 102.039 106.701 102.523 107.508L104.031 110ZM114.344 110H111.336V105.922L108.211 110H105.188V101.711H108.195V105.844L111.352 101.711H114.344V110ZM125.641 110H122.633V105.922L119.508 110H116.484V101.711H119.492V105.844L122.648 101.711H125.641V110ZM123.625 98.3516C123.609 99.1068 123.346 99.6875 122.836 100.094C122.326 100.5 121.719 100.703 121.016 100.703C120.193 100.703 119.549 100.497 119.086 100.086C118.622 99.6693 118.359 99.0911 118.297 98.3516H119.641C119.797 98.9089 120.234 99.1875 120.953 99.1875C121.349 99.1875 121.659 99.1328 121.883 99.0234C122.112 98.9089 122.266 98.6849 122.344 98.3516H123.625ZM57.3594 125H54.1797V121.781H54.0625C53.8385 121.781 53.6615 121.844 53.5312 121.969C53.4062 122.089 53.2786 122.273 53.1484 122.523L51.875 125H48.3516L49.5859 122.602C49.9505 121.888 50.4297 121.497 51.0234 121.43C50.3516 121.326 49.8385 121.047 49.4844 120.594C49.1354 120.135 48.9609 119.635 48.9609 119.094C48.9609 118.557 49.0938 118.083 49.3594 117.672C49.6302 117.255 50.0208 116.992 50.5312 116.883C51.0469 116.768 51.6953 116.711 52.4766 116.711H57.3594V125ZM54.1797 119.898V118.602H53.1875C52.7188 118.602 52.4271 118.659 52.3125 118.773C52.1979 118.883 52.1406 119.039 52.1406 119.242C52.1406 119.68 52.526 119.898 53.2969 119.898H54.1797ZM66.9609 120.711C67.4557 120.867 67.849 121.112 68.1406 121.445C68.4323 121.773 68.5781 122.138 68.5781 122.539C68.5781 123.404 68.1641 124.062 67.3359 124.516C66.5078 124.969 65.2995 125.195 63.7109 125.195C62.3776 125.195 61.3281 124.951 60.5625 124.461C59.8021 123.966 59.2526 123.224 58.9141 122.234L61.9375 121.898C62.0417 122.19 62.2552 122.451 62.5781 122.68C62.9062 122.904 63.2786 123.016 63.6953 123.016C64.763 123.016 65.2969 122.75 65.2969 122.219C65.2969 122.036 65.1953 121.891 64.9922 121.781C64.7891 121.667 64.5234 121.609 64.1953 121.609H62.8125V119.977H64.2266C64.5026 119.977 64.7552 119.919 64.9844 119.805C65.2135 119.69 65.3281 119.544 65.3281 119.367C65.3281 119.169 65.1927 119.008 64.9219 118.883C64.6562 118.758 64.2839 118.695 63.8047 118.695C63.3359 118.695 62.9401 118.794 62.6172 118.992C62.2943 119.185 62.0885 119.417 62 119.688L59.0703 119.289C59.3568 118.346 59.8802 117.651 60.6406 117.203C61.401 116.75 62.4505 116.523 63.7891 116.523C65.1797 116.523 66.2682 116.75 67.0547 117.203C67.8464 117.656 68.2422 118.229 68.2422 118.922C68.2422 119.755 67.8151 120.352 66.9609 120.711ZM73.4375 119.656H74.8906C77.3438 119.656 78.5703 120.552 78.5703 122.344C78.5703 124.115 77.375 125 74.9844 125H70.25V116.711H73.4375V119.656ZM73.4375 123.047H74.4766C74.737 123.047 74.9479 122.987 75.1094 122.867C75.276 122.747 75.3594 122.573 75.3594 122.344C75.3594 121.844 75.0651 121.594 74.4766 121.594H73.4375V123.047ZM79.4766 116.703H82.6562V125H79.4766V116.703ZM93.9219 125H90.3359L89.1172 122.711C88.9245 122.346 88.7344 122.117 88.5469 122.023C88.3646 121.93 88.138 121.883 87.8672 121.883V125H84.6875V116.711H87.8672V119.703C88.1276 119.677 88.3203 119.591 88.4453 119.445C88.5703 119.299 88.75 118.979 88.9844 118.484C89.224 117.99 89.4375 117.628 89.625 117.398C89.8125 117.169 90.0521 116.997 90.3438 116.883C90.6354 116.768 91 116.695 91.4375 116.664C91.875 116.633 92.526 116.617 93.3906 116.617V118.875H93.25C92.8229 118.875 92.4974 118.893 92.2734 118.93C92.0495 118.961 91.8698 119.031 91.7344 119.141C91.599 119.25 91.4427 119.474 91.2656 119.812C91.0885 120.151 90.9401 120.388 90.8203 120.523C90.7057 120.654 90.5339 120.742 90.3047 120.789C90.7474 120.831 91.0885 120.927 91.3281 121.078C91.5677 121.224 91.9297 121.701 92.4141 122.508L93.9219 125Z" fill="#F0F0F0" /><g clip-path="url(#clip0_143_637)"><path d="M92.7444 32.6746V71.0052H74.462H55.5559H42.0932V32.6746H25.9149V85.4951H108.926V32.6746H92.7444Z" fill="#F0F0F0" /><mask id="mask0_143_637" style="mask-type:luminance" maskUnits="userSpaceOnUse" x="-1517" y="-1323" width="2816" height="1761"><path d="M-1516.83 437.273H1298.26V-1322.16H-1516.83V437.273Z" fill="white" /></mask><g mask="url(#mask0_143_637)"><path d="M64.3384 41.3395L64.9436 35.8837C64.9839 35.4896 65.3346 35.2009 65.7257 35.2413C66.1198 35.2785 66.4084 35.6292 66.3712 36.0203L65.7815 41.4761L68.6057 41.7399L69.2108 36.2934C69.2481 35.8992 69.5988 35.6137 69.9929 35.6509C70.387 35.6882 70.6756 36.0389 70.6384 36.433L70.0457 41.8733L72.9287 42.1464L73.5277 36.7527C73.5681 36.3585 73.9187 36.073 74.3098 36.1102C74.7039 36.1475 74.9925 36.4982 74.9553 36.8923L74.3687 42.2799L77.9594 42.6182L78.968 33.103L76.1098 32.8206L69.9836 32.2092L61.7471 31.3899L60.7291 41.0013L64.3384 41.3395Z" fill="#F0F0F0" /></g><mask id="mask1_143_637" style="mask-type:luminance" maskUnits="userSpaceOnUse" x="-1517" y="-1323" width="2816" height="1761"><path d="M-1516.83 437.274H1298.26V-1322.16H-1516.83V437.274Z" fill="white" /></mask><g mask="url(#mask1_143_637)"><path d="M63.1391 52.2619L63.7443 46.8061C63.7846 46.4119 64.1353 46.1233 64.5263 46.1636C64.9205 46.2009 65.2091 46.5516 65.1718 46.9426L64.5822 52.3985L67.4063 52.6623L68.0115 47.2157C68.0487 46.8216 68.3994 46.5361 68.7936 46.5733C69.1877 46.6105 69.4763 46.9612 69.4391 47.3554L68.8463 52.7957L71.7294 53.0688L72.3284 47.675C72.3687 47.2809 72.7194 46.9954 73.1104 47.0326C73.5046 47.0699 73.7932 47.4205 73.756 47.8147L73.1694 53.2023L76.7601 53.5405L77.7687 44.0254L74.9104 43.743L68.7842 43.1316L60.5477 42.3123L59.5298 51.9236L63.1391 52.2619Z" fill="#F0F0F0" /></g><mask id="mask2_143_637" style="mask-type:luminance" maskUnits="userSpaceOnUse" x="-1517" y="-1323" width="2816" height="1761"><path d="M-1516.83 437.274H1298.26V-1322.16H-1516.83V437.274Z" fill="white" /></mask><g mask="url(#mask2_143_637)"><path d="M61.9404 63.184L62.5455 57.7282C62.5859 57.334 62.9366 57.0454 63.3276 57.0858C63.7217 57.123 64.0103 57.4737 63.9731 57.8647L63.3835 63.3206L66.2076 63.5844L66.8128 58.1378C66.85 57.7437 67.2007 57.4582 67.5948 57.4954C67.989 57.5327 68.2776 57.8834 68.2403 58.2775L67.6476 63.7178L70.5307 63.9909L71.1296 58.5971C71.17 58.2061 71.5207 57.9175 71.9117 57.9547C72.3058 57.992 72.5945 58.3427 72.5572 58.7368L71.9707 64.1244L75.5614 64.4626L76.57 54.9475L73.7117 54.6651L67.5855 54.0537L59.349 53.2344L58.3311 62.8458L61.9404 63.184Z" fill="#F0F0F0" /></g><mask id="mask3_143_637" style="mask-type:luminance" maskUnits="userSpaceOnUse" x="-1517" y="-1323" width="2816" height="1761"><path d="M-1516.83 437.274H1298.26V-1322.16H-1516.83V437.274Z" fill="white" /></mask><g mask="url(#mask3_143_637)"><path d="M60.637 74.2788L61.2422 68.8229C61.2825 68.4288 61.6332 68.1402 62.0242 68.1805C62.4184 68.2177 62.707 68.5684 62.6698 68.9595L62.0801 74.4153L64.9042 74.6791L65.5094 69.2326C65.5467 68.8384 65.8973 68.5529 66.2915 68.5901C66.6856 68.6274 66.9742 68.9781 66.937 69.3722L66.3442 74.8125L69.2273 75.0857L69.8263 69.6919C69.8666 69.3008 70.2173 69.0122 70.6084 69.0495C71.0025 69.0867 71.2911 69.4374 71.2539 69.8315L70.6673 75.2191L74.258 75.5574L75.2666 66.0422L72.4084 65.7598L66.2822 65.1484L58.0456 64.3291L57.0277 73.9405L60.637 74.2788Z" fill="#F0F0F0" /></g></g><defs><clipPath id="clip0_143_637"><rect width="83" height="54.1583" fill="white" transform="translate(26 31.3899)" /></clipPath></defs></svg><svg width="136" height="136" viewBox="0 0 136 136" fill="none" xmlns="http://www.w3.org/2000/svg" x="136"><rect x="3" y="3" width="130" height="130" rx="11" fill="#F0F0F0" /><rect x="3" y="3" width="130" height="130" rx="11" stroke="#FF41AF" stroke-width="6" /><path d="M20.5156 110H17.5078V105.922L14.3828 110H11.3594V101.711H14.3672V105.844L17.5234 101.711H20.5156V110ZM29.5391 104.031H27.2344V110H24.0469V104.031H21.7422V101.711H29.5391V104.031ZM33.5703 104.391L30.5312 104.07C30.6458 103.539 30.8099 103.122 31.0234 102.82C31.2422 102.513 31.5547 102.247 31.9609 102.023C32.2526 101.862 32.6536 101.737 33.1641 101.648C33.6745 101.56 34.2266 101.516 34.8203 101.516C35.7734 101.516 36.5391 101.57 37.1172 101.68C37.6953 101.784 38.1771 102.005 38.5625 102.344C38.8333 102.578 39.0469 102.911 39.2031 103.344C39.3594 103.771 39.4375 104.18 39.4375 104.57V108.234C39.4375 108.625 39.4609 108.932 39.5078 109.156C39.5599 109.375 39.6693 109.656 39.8359 110H36.8516C36.7318 109.786 36.6536 109.625 36.6172 109.516C36.5807 109.401 36.5443 109.224 36.5078 108.984C36.0911 109.385 35.6771 109.672 35.2656 109.844C34.7031 110.073 34.0495 110.188 33.3047 110.188C32.3151 110.188 31.5625 109.958 31.0469 109.5C30.5365 109.042 30.2812 108.477 30.2812 107.805C30.2812 107.174 30.4661 106.656 30.8359 106.25C31.2057 105.844 31.888 105.542 32.8828 105.344C34.0755 105.104 34.849 104.938 35.2031 104.844C35.5573 104.745 35.9323 104.617 36.3281 104.461C36.3281 104.07 36.2474 103.797 36.0859 103.641C35.9245 103.484 35.6406 103.406 35.2344 103.406C34.7135 103.406 34.3229 103.49 34.0625 103.656C33.8594 103.786 33.6953 104.031 33.5703 104.391ZM36.3281 106.062C35.8906 106.219 35.4349 106.357 34.9609 106.477C34.3151 106.648 33.9062 106.818 33.7344 106.984C33.5573 107.156 33.4688 107.352 33.4688 107.57C33.4688 107.82 33.5547 108.026 33.7266 108.188C33.9036 108.344 34.1615 108.422 34.5 108.422C34.8542 108.422 35.1823 108.336 35.4844 108.164C35.7917 107.992 36.0078 107.784 36.1328 107.539C36.263 107.289 36.3281 106.966 36.3281 106.57V106.062ZM50.875 110H47.6953V104.031H45.2812V107.508C45.2812 108.435 45.0911 109.122 44.7109 109.57C44.3359 110.018 43.7578 110.242 42.9766 110.242C42.0911 110.242 41.2969 110.161 40.5938 110V107.648C40.9688 107.763 41.2552 107.82 41.4531 107.82C41.8802 107.82 42.0938 107.503 42.0938 106.867V101.711H50.875V110ZM56.0938 104.656H57.5469C60 104.656 61.2266 105.552 61.2266 107.344C61.2266 109.115 60.0312 110 57.6406 110H52.9062V101.711H56.0938V104.656ZM56.0938 108.047H57.1328C57.3932 108.047 57.6042 107.987 57.7656 107.867C57.9323 107.747 58.0156 107.573 58.0156 107.344C58.0156 106.844 57.7214 106.594 57.1328 106.594H56.0938V108.047ZM70.7969 110H67.6172V106.781H67.5C67.276 106.781 67.099 106.844 66.9688 106.969C66.8438 107.089 66.7161 107.273 66.5859 107.523L65.3125 110H61.7891L63.0234 107.602C63.388 106.888 63.8672 106.497 64.4609 106.43C63.7891 106.326 63.276 106.047 62.9219 105.594C62.5729 105.135 62.3984 104.635 62.3984 104.094C62.3984 103.557 62.5312 103.083 62.7969 102.672C63.0677 102.255 63.4583 101.992 63.9688 101.883C64.4844 101.768 65.1328 101.711 65.9141 101.711H70.7969V110ZM67.6172 104.898V103.602H66.625C66.1562 103.602 65.8646 103.659 65.75 103.773C65.6354 103.883 65.5781 104.039 65.5781 104.242C65.5781 104.68 65.9635 104.898 66.7344 104.898H67.6172ZM82.0938 110H78.9062V106.867H76.0156V110H72.8281V101.711H76.0156V104.547H78.9062V101.711H82.0938V110ZM90.3125 106.758L93.3359 107.102C93.1693 107.732 92.8958 108.279 92.5156 108.742C92.1354 109.201 91.6484 109.557 91.0547 109.812C90.4661 110.068 89.7161 110.195 88.8047 110.195C87.9245 110.195 87.1901 110.115 86.6016 109.953C86.0182 109.786 85.5156 109.521 85.0938 109.156C84.6719 108.786 84.3411 108.354 84.1016 107.859C83.862 107.365 83.7422 106.708 83.7422 105.891C83.7422 105.036 83.888 104.326 84.1797 103.758C84.3932 103.341 84.6849 102.969 85.0547 102.641C85.4245 102.307 85.8047 102.06 86.1953 101.898C86.8151 101.643 87.6094 101.516 88.5781 101.516C89.9323 101.516 90.9635 101.758 91.6719 102.242C92.3854 102.727 92.8854 103.435 93.1719 104.367L90.1797 104.766C90.0859 104.411 89.9141 104.146 89.6641 103.969C89.4193 103.786 89.0885 103.695 88.6719 103.695C88.1458 103.695 87.7188 103.885 87.3906 104.266C87.0677 104.641 86.9062 105.211 86.9062 105.977C86.9062 106.659 87.0677 107.177 87.3906 107.531C87.7135 107.885 88.125 108.062 88.625 108.062C89.0417 108.062 89.3906 107.956 89.6719 107.742C89.9583 107.529 90.1719 107.201 90.3125 106.758ZM104.031 110H100.445L99.2266 107.711C99.0339 107.346 98.8438 107.117 98.6562 107.023C98.474 106.93 98.2474 106.883 97.9766 106.883V110H94.7969V101.711H97.9766V104.703C98.237 104.677 98.4297 104.591 98.5547 104.445C98.6797 104.299 98.8594 103.979 99.0938 103.484C99.3333 102.99 99.5469 102.628 99.7344 102.398C99.9219 102.169 100.161 101.997 100.453 101.883C100.745 101.768 101.109 101.695 101.547 101.664C101.984 101.633 102.635 101.617 103.5 101.617V103.875H103.359C102.932 103.875 102.607 103.893 102.383 103.93C102.159 103.961 101.979 104.031 101.844 104.141C101.708 104.25 101.552 104.474 101.375 104.812C101.198 105.151 101.049 105.388 100.93 105.523C100.815 105.654 100.643 105.742 100.414 105.789C100.857 105.831 101.198 105.927 101.438 106.078C101.677 106.224 102.039 106.701 102.523 107.508L104.031 110ZM114.344 110H111.336V105.922L108.211 110H105.188V101.711H108.195V105.844L111.352 101.711H114.344V110ZM125.641 110H122.633V105.922L119.508 110H116.484V101.711H119.492V105.844L122.648 101.711H125.641V110ZM123.625 98.3516C123.609 99.1068 123.346 99.6875 122.836 100.094C122.326 100.5 121.719 100.703 121.016 100.703C120.193 100.703 119.549 100.497 119.086 100.086C118.622 99.6693 118.359 99.0911 118.297 98.3516H119.641C119.797 98.9089 120.234 99.1875 120.953 99.1875C121.349 99.1875 121.659 99.1328 121.883 99.0234C122.112 98.9089 122.266 98.6849 122.344 98.3516H123.625ZM57.3594 125H54.1797V121.781H54.0625C53.8385 121.781 53.6615 121.844 53.5312 121.969C53.4062 122.089 53.2786 122.273 53.1484 122.523L51.875 125H48.3516L49.5859 122.602C49.9505 121.888 50.4297 121.497 51.0234 121.43C50.3516 121.326 49.8385 121.047 49.4844 120.594C49.1354 120.135 48.9609 119.635 48.9609 119.094C48.9609 118.557 49.0938 118.083 49.3594 117.672C49.6302 117.255 50.0208 116.992 50.5312 116.883C51.0469 116.768 51.6953 116.711 52.4766 116.711H57.3594V125ZM54.1797 119.898V118.602H53.1875C52.7188 118.602 52.4271 118.659 52.3125 118.773C52.1979 118.883 52.1406 119.039 52.1406 119.242C52.1406 119.68 52.526 119.898 53.2969 119.898H54.1797ZM66.9609 120.711C67.4557 120.867 67.849 121.112 68.1406 121.445C68.4323 121.773 68.5781 122.138 68.5781 122.539C68.5781 123.404 68.1641 124.062 67.3359 124.516C66.5078 124.969 65.2995 125.195 63.7109 125.195C62.3776 125.195 61.3281 124.951 60.5625 124.461C59.8021 123.966 59.2526 123.224 58.9141 122.234L61.9375 121.898C62.0417 122.19 62.2552 122.451 62.5781 122.68C62.9062 122.904 63.2786 123.016 63.6953 123.016C64.763 123.016 65.2969 122.75 65.2969 122.219C65.2969 122.036 65.1953 121.891 64.9922 121.781C64.7891 121.667 64.5234 121.609 64.1953 121.609H62.8125V119.977H64.2266C64.5026 119.977 64.7552 119.919 64.9844 119.805C65.2135 119.69 65.3281 119.544 65.3281 119.367C65.3281 119.169 65.1927 119.008 64.9219 118.883C64.6562 118.758 64.2839 118.695 63.8047 118.695C63.3359 118.695 62.9401 118.794 62.6172 118.992C62.2943 119.185 62.0885 119.417 62 119.688L59.0703 119.289C59.3568 118.346 59.8802 117.651 60.6406 117.203C61.401 116.75 62.4505 116.523 63.7891 116.523C65.1797 116.523 66.2682 116.75 67.0547 117.203C67.8464 117.656 68.2422 118.229 68.2422 118.922C68.2422 119.755 67.8151 120.352 66.9609 120.711ZM73.4375 119.656H74.8906C77.3438 119.656 78.5703 120.552 78.5703 122.344C78.5703 124.115 77.375 125 74.9844 125H70.25V116.711H73.4375V119.656ZM73.4375 123.047H74.4766C74.737 123.047 74.9479 122.987 75.1094 122.867C75.276 122.747 75.3594 122.573 75.3594 122.344C75.3594 121.844 75.0651 121.594 74.4766 121.594H73.4375V123.047ZM79.4766 116.703H82.6562V125H79.4766V116.703ZM93.9219 125H90.3359L89.1172 122.711C88.9245 122.346 88.7344 122.117 88.5469 122.023C88.3646 121.93 88.138 121.883 87.8672 121.883V125H84.6875V116.711H87.8672V119.703C88.1276 119.677 88.3203 119.591 88.4453 119.445C88.5703 119.299 88.75 118.979 88.9844 118.484C89.224 117.99 89.4375 117.628 89.625 117.398C89.8125 117.169 90.0521 116.997 90.3438 116.883C90.6354 116.768 91 116.695 91.4375 116.664C91.875 116.633 92.526 116.617 93.3906 116.617V118.875H93.25C92.8229 118.875 92.4974 118.893 92.2734 118.93C92.0495 118.961 91.8698 119.031 91.7344 119.141C91.599 119.25 91.4427 119.474 91.2656 119.812C91.0885 120.151 90.9401 120.388 90.8203 120.523C90.7057 120.654 90.5339 120.742 90.3047 120.789C90.7474 120.831 91.0885 120.927 91.3281 121.078C91.5677 121.224 91.9297 121.701 92.4141 122.508L93.9219 125Z" fill="#FF41AF" /><g clip-path="url(#clip0_230_902)"><path d="M92.7444 32.6746V71.0052H74.462H55.5559H42.0932V32.6746H25.9149V85.4951H108.926V32.6746H92.7444Z" fill="#FF41AF" /><mask id="mask0_230_902" style="mask-type:luminance" maskUnits="userSpaceOnUse" x="-1517" y="-1323" width="2816" height="1761"><path d="M-1516.83 437.273H1298.26V-1322.16H-1516.83V437.273Z" fill="white" /></mask><g mask="url(#mask0_230_902)"><path d="M64.3384 41.3395L64.9436 35.8837C64.9839 35.4896 65.3346 35.2009 65.7257 35.2413C66.1198 35.2785 66.4084 35.6292 66.3712 36.0203L65.7815 41.4761L68.6057 41.7399L69.2108 36.2934C69.2481 35.8992 69.5988 35.6137 69.9929 35.6509C70.387 35.6882 70.6756 36.0389 70.6384 36.433L70.0457 41.8733L72.9287 42.1464L73.5277 36.7527C73.5681 36.3585 73.9187 36.073 74.3098 36.1102C74.7039 36.1475 74.9925 36.4982 74.9553 36.8923L74.3687 42.2799L77.9594 42.6182L78.968 33.103L76.1098 32.8206L69.9836 32.2092L61.7471 31.3899L60.7291 41.0013L64.3384 41.3395Z" fill="#FF41AF" /></g><mask id="mask1_230_902" style="mask-type:luminance" maskUnits="userSpaceOnUse" x="-1517" y="-1323" width="2816" height="1761"><path d="M-1516.83 437.274H1298.26V-1322.16H-1516.83V437.274Z" fill="white" /></mask><g mask="url(#mask1_230_902)"><path d="M63.1391 52.2619L63.7443 46.8061C63.7846 46.4119 64.1353 46.1233 64.5263 46.1636C64.9205 46.2009 65.2091 46.5516 65.1718 46.9426L64.5822 52.3985L67.4063 52.6623L68.0115 47.2157C68.0487 46.8216 68.3994 46.5361 68.7936 46.5733C69.1877 46.6105 69.4763 46.9612 69.4391 47.3554L68.8463 52.7957L71.7294 53.0688L72.3284 47.675C72.3687 47.2809 72.7194 46.9954 73.1104 47.0326C73.5046 47.0699 73.7932 47.4205 73.756 47.8147L73.1694 53.2023L76.7601 53.5405L77.7687 44.0254L74.9104 43.743L68.7842 43.1316L60.5477 42.3123L59.5298 51.9236L63.1391 52.2619Z" fill="#FF41AF" /></g><mask id="mask2_230_902" style="mask-type:luminance" maskUnits="userSpaceOnUse" x="-1517" y="-1323" width="2816" height="1761"><path d="M-1516.83 437.274H1298.26V-1322.16H-1516.83V437.274Z" fill="white" /></mask><g mask="url(#mask2_230_902)"><path d="M61.9404 63.184L62.5455 57.7282C62.5859 57.334 62.9366 57.0454 63.3276 57.0858C63.7217 57.123 64.0103 57.4737 63.9731 57.8647L63.3835 63.3206L66.2076 63.5844L66.8128 58.1378C66.85 57.7437 67.2007 57.4582 67.5948 57.4954C67.989 57.5327 68.2776 57.8834 68.2403 58.2775L67.6476 63.7178L70.5307 63.9909L71.1296 58.5971C71.17 58.2061 71.5207 57.9175 71.9117 57.9547C72.3058 57.992 72.5945 58.3427 72.5572 58.7368L71.9707 64.1244L75.5614 64.4626L76.57 54.9475L73.7117 54.6651L67.5855 54.0537L59.349 53.2344L58.3311 62.8458L61.9404 63.184Z" fill="#FF41AF" /></g><mask id="mask3_230_902" style="mask-type:luminance" maskUnits="userSpaceOnUse" x="-1517" y="-1323" width="2816" height="1761"><path d="M-1516.83 437.274H1298.26V-1322.16H-1516.83V437.274Z" fill="white" /></mask><g mask="url(#mask3_230_902)"><path d="M60.637 74.2788L61.2422 68.8229C61.2825 68.4288 61.6332 68.1402 62.0242 68.1805C62.4184 68.2177 62.707 68.5684 62.6698 68.9595L62.0801 74.4153L64.9042 74.6791L65.5094 69.2326C65.5467 68.8384 65.8973 68.5529 66.2915 68.5901C66.6856 68.6274 66.9742 68.9781 66.937 69.3722L66.3442 74.8125L69.2273 75.0857L69.8263 69.6919C69.8666 69.3008 70.2173 69.0122 70.6084 69.0495C71.0025 69.0867 71.2911 69.4374 71.2539 69.8315L70.6673 75.2191L74.258 75.5574L75.2666 66.0422L72.4084 65.7598L66.2822 65.1484L58.0456 64.3291L57.0277 73.9405L60.637 74.2788Z" fill="#FF41AF" /></g></g><defs><clipPath id="clip0_230_902"><rect width="83" height="54.1583" fill="white" transform="translate(26 31.3899)" /></clipPath></defs></svg><svg width="136" height="136" viewBox="0 0 136 136" fill="none" xmlns="http://www.w3.org/2000/svg" x="272"><rect x="3" y="3" width="130" height="130" rx="11" fill="#F0F0F0" /><rect x="3" y="3" width="130" height="130" rx="11" stroke="#BB3B85" stroke-width="6" /><path d="M20.5156 110H17.5078V105.922L14.3828 110H11.3594V101.711H14.3672V105.844L17.5234 101.711H20.5156V110ZM29.5391 104.031H27.2344V110H24.0469V104.031H21.7422V101.711H29.5391V104.031ZM33.5703 104.391L30.5312 104.07C30.6458 103.539 30.8099 103.122 31.0234 102.82C31.2422 102.513 31.5547 102.247 31.9609 102.023C32.2526 101.862 32.6536 101.737 33.1641 101.648C33.6745 101.56 34.2266 101.516 34.8203 101.516C35.7734 101.516 36.5391 101.57 37.1172 101.68C37.6953 101.784 38.1771 102.005 38.5625 102.344C38.8333 102.578 39.0469 102.911 39.2031 103.344C39.3594 103.771 39.4375 104.18 39.4375 104.57V108.234C39.4375 108.625 39.4609 108.932 39.5078 109.156C39.5599 109.375 39.6693 109.656 39.8359 110H36.8516C36.7318 109.786 36.6536 109.625 36.6172 109.516C36.5807 109.401 36.5443 109.224 36.5078 108.984C36.0911 109.385 35.6771 109.672 35.2656 109.844C34.7031 110.073 34.0495 110.188 33.3047 110.188C32.3151 110.188 31.5625 109.958 31.0469 109.5C30.5365 109.042 30.2812 108.477 30.2812 107.805C30.2812 107.174 30.4661 106.656 30.8359 106.25C31.2057 105.844 31.888 105.542 32.8828 105.344C34.0755 105.104 34.849 104.938 35.2031 104.844C35.5573 104.745 35.9323 104.617 36.3281 104.461C36.3281 104.07 36.2474 103.797 36.0859 103.641C35.9245 103.484 35.6406 103.406 35.2344 103.406C34.7135 103.406 34.3229 103.49 34.0625 103.656C33.8594 103.786 33.6953 104.031 33.5703 104.391ZM36.3281 106.062C35.8906 106.219 35.4349 106.357 34.9609 106.477C34.3151 106.648 33.9062 106.818 33.7344 106.984C33.5573 107.156 33.4688 107.352 33.4688 107.57C33.4688 107.82 33.5547 108.026 33.7266 108.188C33.9036 108.344 34.1615 108.422 34.5 108.422C34.8542 108.422 35.1823 108.336 35.4844 108.164C35.7917 107.992 36.0078 107.784 36.1328 107.539C36.263 107.289 36.3281 106.966 36.3281 106.57V106.062ZM50.875 110H47.6953V104.031H45.2812V107.508C45.2812 108.435 45.0911 109.122 44.7109 109.57C44.3359 110.018 43.7578 110.242 42.9766 110.242C42.0911 110.242 41.2969 110.161 40.5938 110V107.648C40.9688 107.763 41.2552 107.82 41.4531 107.82C41.8802 107.82 42.0938 107.503 42.0938 106.867V101.711H50.875V110ZM56.0938 104.656H57.5469C60 104.656 61.2266 105.552 61.2266 107.344C61.2266 109.115 60.0312 110 57.6406 110H52.9062V101.711H56.0938V104.656ZM56.0938 108.047H57.1328C57.3932 108.047 57.6042 107.987 57.7656 107.867C57.9323 107.747 58.0156 107.573 58.0156 107.344C58.0156 106.844 57.7214 106.594 57.1328 106.594H56.0938V108.047ZM70.7969 110H67.6172V106.781H67.5C67.276 106.781 67.099 106.844 66.9688 106.969C66.8438 107.089 66.7161 107.273 66.5859 107.523L65.3125 110H61.7891L63.0234 107.602C63.388 106.888 63.8672 106.497 64.4609 106.43C63.7891 106.326 63.276 106.047 62.9219 105.594C62.5729 105.135 62.3984 104.635 62.3984 104.094C62.3984 103.557 62.5312 103.083 62.7969 102.672C63.0677 102.255 63.4583 101.992 63.9688 101.883C64.4844 101.768 65.1328 101.711 65.9141 101.711H70.7969V110ZM67.6172 104.898V103.602H66.625C66.1562 103.602 65.8646 103.659 65.75 103.773C65.6354 103.883 65.5781 104.039 65.5781 104.242C65.5781 104.68 65.9635 104.898 66.7344 104.898H67.6172ZM82.0938 110H78.9062V106.867H76.0156V110H72.8281V101.711H76.0156V104.547H78.9062V101.711H82.0938V110ZM90.3125 106.758L93.3359 107.102C93.1693 107.732 92.8958 108.279 92.5156 108.742C92.1354 109.201 91.6484 109.557 91.0547 109.812C90.4661 110.068 89.7161 110.195 88.8047 110.195C87.9245 110.195 87.1901 110.115 86.6016 109.953C86.0182 109.786 85.5156 109.521 85.0938 109.156C84.6719 108.786 84.3411 108.354 84.1016 107.859C83.862 107.365 83.7422 106.708 83.7422 105.891C83.7422 105.036 83.888 104.326 84.1797 103.758C84.3932 103.341 84.6849 102.969 85.0547 102.641C85.4245 102.307 85.8047 102.06 86.1953 101.898C86.8151 101.643 87.6094 101.516 88.5781 101.516C89.9323 101.516 90.9635 101.758 91.6719 102.242C92.3854 102.727 92.8854 103.435 93.1719 104.367L90.1797 104.766C90.0859 104.411 89.9141 104.146 89.6641 103.969C89.4193 103.786 89.0885 103.695 88.6719 103.695C88.1458 103.695 87.7188 103.885 87.3906 104.266C87.0677 104.641 86.9062 105.211 86.9062 105.977C86.9062 106.659 87.0677 107.177 87.3906 107.531C87.7135 107.885 88.125 108.062 88.625 108.062C89.0417 108.062 89.3906 107.956 89.6719 107.742C89.9583 107.529 90.1719 107.201 90.3125 106.758ZM104.031 110H100.445L99.2266 107.711C99.0339 107.346 98.8438 107.117 98.6562 107.023C98.474 106.93 98.2474 106.883 97.9766 106.883V110H94.7969V101.711H97.9766V104.703C98.237 104.677 98.4297 104.591 98.5547 104.445C98.6797 104.299 98.8594 103.979 99.0938 103.484C99.3333 102.99 99.5469 102.628 99.7344 102.398C99.9219 102.169 100.161 101.997 100.453 101.883C100.745 101.768 101.109 101.695 101.547 101.664C101.984 101.633 102.635 101.617 103.5 101.617V103.875H103.359C102.932 103.875 102.607 103.893 102.383 103.93C102.159 103.961 101.979 104.031 101.844 104.141C101.708 104.25 101.552 104.474 101.375 104.812C101.198 105.151 101.049 105.388 100.93 105.523C100.815 105.654 100.643 105.742 100.414 105.789C100.857 105.831 101.198 105.927 101.438 106.078C101.677 106.224 102.039 106.701 102.523 107.508L104.031 110ZM114.344 110H111.336V105.922L108.211 110H105.188V101.711H108.195V105.844L111.352 101.711H114.344V110ZM125.641 110H122.633V105.922L119.508 110H116.484V101.711H119.492V105.844L122.648 101.711H125.641V110ZM123.625 98.3516C123.609 99.1068 123.346 99.6875 122.836 100.094C122.326 100.5 121.719 100.703 121.016 100.703C120.193 100.703 119.549 100.497 119.086 100.086C118.622 99.6693 118.359 99.0911 118.297 98.3516H119.641C119.797 98.9089 120.234 99.1875 120.953 99.1875C121.349 99.1875 121.659 99.1328 121.883 99.0234C122.112 98.9089 122.266 98.6849 122.344 98.3516H123.625ZM57.3594 125H54.1797V121.781H54.0625C53.8385 121.781 53.6615 121.844 53.5312 121.969C53.4062 122.089 53.2786 122.273 53.1484 122.523L51.875 125H48.3516L49.5859 122.602C49.9505 121.888 50.4297 121.497 51.0234 121.43C50.3516 121.326 49.8385 121.047 49.4844 120.594C49.1354 120.135 48.9609 119.635 48.9609 119.094C48.9609 118.557 49.0938 118.083 49.3594 117.672C49.6302 117.255 50.0208 116.992 50.5312 116.883C51.0469 116.768 51.6953 116.711 52.4766 116.711H57.3594V125ZM54.1797 119.898V118.602H53.1875C52.7188 118.602 52.4271 118.659 52.3125 118.773C52.1979 118.883 52.1406 119.039 52.1406 119.242C52.1406 119.68 52.526 119.898 53.2969 119.898H54.1797ZM66.9609 120.711C67.4557 120.867 67.849 121.112 68.1406 121.445C68.4323 121.773 68.5781 122.138 68.5781 122.539C68.5781 123.404 68.1641 124.062 67.3359 124.516C66.5078 124.969 65.2995 125.195 63.7109 125.195C62.3776 125.195 61.3281 124.951 60.5625 124.461C59.8021 123.966 59.2526 123.224 58.9141 122.234L61.9375 121.898C62.0417 122.19 62.2552 122.451 62.5781 122.68C62.9062 122.904 63.2786 123.016 63.6953 123.016C64.763 123.016 65.2969 122.75 65.2969 122.219C65.2969 122.036 65.1953 121.891 64.9922 121.781C64.7891 121.667 64.5234 121.609 64.1953 121.609H62.8125V119.977H64.2266C64.5026 119.977 64.7552 119.919 64.9844 119.805C65.2135 119.69 65.3281 119.544 65.3281 119.367C65.3281 119.169 65.1927 119.008 64.9219 118.883C64.6562 118.758 64.2839 118.695 63.8047 118.695C63.3359 118.695 62.9401 118.794 62.6172 118.992C62.2943 119.185 62.0885 119.417 62 119.688L59.0703 119.289C59.3568 118.346 59.8802 117.651 60.6406 117.203C61.401 116.75 62.4505 116.523 63.7891 116.523C65.1797 116.523 66.2682 116.75 67.0547 117.203C67.8464 117.656 68.2422 118.229 68.2422 118.922C68.2422 119.755 67.8151 120.352 66.9609 120.711ZM73.4375 119.656H74.8906C77.3438 119.656 78.5703 120.552 78.5703 122.344C78.5703 124.115 77.375 125 74.9844 125H70.25V116.711H73.4375V119.656ZM73.4375 123.047H74.4766C74.737 123.047 74.9479 122.987 75.1094 122.867C75.276 122.747 75.3594 122.573 75.3594 122.344C75.3594 121.844 75.0651 121.594 74.4766 121.594H73.4375V123.047ZM79.4766 116.703H82.6562V125H79.4766V116.703ZM93.9219 125H90.3359L89.1172 122.711C88.9245 122.346 88.7344 122.117 88.5469 122.023C88.3646 121.93 88.138 121.883 87.8672 121.883V125H84.6875V116.711H87.8672V119.703C88.1276 119.677 88.3203 119.591 88.4453 119.445C88.5703 119.299 88.75 118.979 88.9844 118.484C89.224 117.99 89.4375 117.628 89.625 117.398C89.8125 117.169 90.0521 116.997 90.3438 116.883C90.6354 116.768 91 116.695 91.4375 116.664C91.875 116.633 92.526 116.617 93.3906 116.617V118.875H93.25C92.8229 118.875 92.4974 118.893 92.2734 118.93C92.0495 118.961 91.8698 119.031 91.7344 119.141C91.599 119.25 91.4427 119.474 91.2656 119.812C91.0885 120.151 90.9401 120.388 90.8203 120.523C90.7057 120.654 90.5339 120.742 90.3047 120.789C90.7474 120.831 91.0885 120.927 91.3281 121.078C91.5677 121.224 91.9297 121.701 92.4141 122.508L93.9219 125Z" fill="#BB3B85" /><g clip-path="url(#clip0_230_901)"><path d="M92.7444 32.6746V71.0052H74.462H55.5559H42.0932V32.6746H25.9149V85.4951H108.926V32.6746H92.7444Z" fill="#BB3B85" /><mask id="mask0_230_901" style="mask-type:luminance" maskUnits="userSpaceOnUse" x="-1517" y="-1323" width="2816" height="1761"><path d="M-1516.83 437.273H1298.26V-1322.16H-1516.83V437.273Z" fill="white" /></mask><g mask="url(#mask0_230_901)"><path d="M64.3384 41.3395L64.9436 35.8837C64.9839 35.4896 65.3346 35.2009 65.7257 35.2413C66.1198 35.2785 66.4084 35.6292 66.3712 36.0203L65.7815 41.4761L68.6057 41.7399L69.2108 36.2934C69.2481 35.8992 69.5988 35.6137 69.9929 35.6509C70.387 35.6882 70.6756 36.0389 70.6384 36.433L70.0457 41.8733L72.9287 42.1464L73.5277 36.7527C73.5681 36.3585 73.9187 36.073 74.3098 36.1102C74.7039 36.1475 74.9925 36.4982 74.9553 36.8923L74.3687 42.2799L77.9594 42.6182L78.968 33.103L76.1098 32.8206L69.9836 32.2092L61.7471 31.3899L60.7291 41.0013L64.3384 41.3395Z" fill="#BB3B85" /></g><mask id="mask1_230_901" style="mask-type:luminance" maskUnits="userSpaceOnUse" x="-1517" y="-1323" width="2816" height="1761"><path d="M-1516.83 437.274H1298.26V-1322.16H-1516.83V437.274Z" fill="white" /></mask><g mask="url(#mask1_230_901)"><path d="M63.1391 52.2619L63.7443 46.8061C63.7846 46.4119 64.1353 46.1233 64.5263 46.1636C64.9205 46.2009 65.2091 46.5516 65.1718 46.9426L64.5822 52.3985L67.4063 52.6623L68.0115 47.2157C68.0487 46.8216 68.3994 46.5361 68.7936 46.5733C69.1877 46.6105 69.4763 46.9612 69.4391 47.3554L68.8463 52.7957L71.7294 53.0688L72.3284 47.675C72.3687 47.2809 72.7194 46.9954 73.1104 47.0326C73.5046 47.0699 73.7932 47.4205 73.756 47.8147L73.1694 53.2023L76.7601 53.5405L77.7687 44.0254L74.9104 43.743L68.7842 43.1316L60.5477 42.3123L59.5298 51.9236L63.1391 52.2619Z" fill="#BB3B85" /></g><mask id="mask2_230_901" style="mask-type:luminance" maskUnits="userSpaceOnUse" x="-1517" y="-1323" width="2816" height="1761"><path d="M-1516.83 437.274H1298.26V-1322.16H-1516.83V437.274Z" fill="white" /></mask><g mask="url(#mask2_230_901)"><path d="M61.9404 63.184L62.5455 57.7282C62.5859 57.334 62.9366 57.0454 63.3276 57.0858C63.7217 57.123 64.0103 57.4737 63.9731 57.8647L63.3835 63.3206L66.2076 63.5844L66.8128 58.1378C66.85 57.7437 67.2007 57.4582 67.5948 57.4954C67.989 57.5327 68.2776 57.8834 68.2403 58.2775L67.6476 63.7178L70.5307 63.9909L71.1296 58.5971C71.17 58.2061 71.5207 57.9175 71.9117 57.9547C72.3058 57.992 72.5945 58.3427 72.5572 58.7368L71.9707 64.1244L75.5614 64.4626L76.57 54.9475L73.7117 54.6651L67.5855 54.0537L59.349 53.2344L58.3311 62.8458L61.9404 63.184Z" fill="#BB3B85" /></g><mask id="mask3_230_901" style="mask-type:luminance" maskUnits="userSpaceOnUse" x="-1517" y="-1323" width="2816" height="1761"><path d="M-1516.83 437.274H1298.26V-1322.16H-1516.83V437.274Z" fill="white" /></mask><g mask="url(#mask3_230_901)"><path d="M60.637 74.2788L61.2422 68.8229C61.2825 68.4288 61.6332 68.1402 62.0242 68.1805C62.4184 68.2177 62.707 68.5684 62.6698 68.9595L62.0801 74.4153L64.9042 74.6791L65.5094 69.2326C65.5467 68.8384 65.8973 68.5529 66.2915 68.5901C66.6856 68.6274 66.9742 68.9781 66.937 69.3722L66.3442 74.8125L69.2273 75.0857L69.8263 69.6919C69.8666 69.3008 70.2173 69.0122 70.6084 69.0495C71.0025 69.0867 71.2911 69.4374 71.2539 69.8315L70.6673 75.2191L74.258 75.5574L75.2666 66.0422L72.4084 65.7598L66.2822 65.1484L58.0456 64.3291L57.0277 73.9405L60.637 74.2788Z" fill="#BB3B85" /></g></g><defs><clipPath id="clip0_230_901"><rect width="83" height="54.1583" fill="white" transform="translate(26 31.3899)" /></clipPath></defs></svg></svg>