<svg xmlns="http://www.w3.org/2000/svg" viewBox="0 0 408 136"><svg width="136" height="136" viewBox="0 0 136 136" fill="none" xmlns="http://www.w3.org/2000/svg" x="0"><g clip-path="url(#clip0_135_571)"><rect x="6" y="6" width="124" height="124" rx="8" fill="#FF41AF" /><path d="M32.1406 113.156V101.703H35.1172V102.93C35.5286 102.414 35.9062 102.065 36.25 101.883C36.7135 101.638 37.2266 101.516 37.7891 101.516C38.8984 101.516 39.7552 101.94 40.3594 102.789C40.9688 103.638 41.2734 104.688 41.2734 105.938C41.2734 107.318 40.9427 108.372 40.2812 109.102C39.6198 109.826 38.7839 110.188 37.7734 110.188C37.2839 110.188 36.8359 110.104 36.4297 109.938C36.0286 109.771 35.6693 109.523 35.3516 109.195V113.156H32.1406ZM35.3281 105.875C35.3281 106.531 35.4661 107.018 35.7422 107.336C36.0182 107.654 36.3672 107.812 36.7891 107.812C37.1589 107.812 37.4688 107.661 37.7188 107.359C37.9688 107.052 38.0938 106.534 38.0938 105.805C38.0938 105.133 37.9635 104.641 37.7031 104.328C37.4427 104.01 37.125 103.852 36.75 103.852C36.3438 103.852 36.0052 104.01 35.7344 104.328C35.4635 104.646 35.3281 105.161 35.3281 105.875ZM41.875 101.703H45.2344L46.9453 107.227L48.5312 101.703H51.6641L48.375 110.57C48 111.581 47.6172 112.263 47.2266 112.617C46.6745 113.117 45.8333 113.367 44.7031 113.367C44.2448 113.367 43.5365 113.305 42.5781 113.18L42.3281 110.961C42.7865 111.107 43.2969 111.18 43.8594 111.18C44.2344 111.18 44.5365 111.094 44.7656 110.922C45 110.75 45.1979 110.443 45.3594 110L41.875 101.703ZM58.7656 106.758L61.7891 107.102C61.6224 107.732 61.349 108.279 60.9688 108.742C60.5885 109.201 60.1016 109.557 59.5078 109.812C58.9193 110.068 58.1693 110.195 57.2578 110.195C56.3776 110.195 55.6432 110.115 55.0547 109.953C54.4714 109.786 53.9688 109.521 53.5469 109.156C53.125 108.786 52.7943 108.354 52.5547 107.859C52.3151 107.365 52.1953 106.708 52.1953 105.891C52.1953 105.036 52.3411 104.326 52.6328 103.758C52.8464 103.341 53.138 102.969 53.5078 102.641C53.8776 102.307 54.2578 102.06 54.6484 101.898C55.2682 101.643 56.0625 101.516 57.0312 101.516C58.3854 101.516 59.4167 101.758 60.125 102.242C60.8385 102.727 61.3385 103.435 61.625 104.367L58.6328 104.766C58.5391 104.411 58.3672 104.146 58.1172 103.969C57.8724 103.786 57.5417 103.695 57.125 103.695C56.599 103.695 56.1719 103.885 55.8438 104.266C55.5208 104.641 55.3594 105.211 55.3594 105.977C55.3594 106.659 55.5208 107.177 55.8438 107.531C56.1667 107.885 56.5781 108.062 57.0781 108.062C57.4948 108.062 57.8438 107.956 58.125 107.742C58.4115 107.529 58.625 107.201 58.7656 106.758ZM69.4375 106.758L72.4609 107.102C72.2943 107.732 72.0208 108.279 71.6406 108.742C71.2604 109.201 70.7734 109.557 70.1797 109.812C69.5911 110.068 68.8411 110.195 67.9297 110.195C67.0495 110.195 66.3151 110.115 65.7266 109.953C65.1432 109.786 64.6406 109.521 64.2188 109.156C63.7969 108.786 63.4661 108.354 63.2266 107.859C62.987 107.365 62.8672 106.708 62.8672 105.891C62.8672 105.036 63.013 104.326 63.3047 103.758C63.5182 103.341 63.8099 102.969 64.1797 102.641C64.5495 102.307 64.9297 102.06 65.3203 101.898C65.9401 101.643 66.7344 101.516 67.7031 101.516C69.0573 101.516 70.0885 101.758 70.7969 102.242C71.5104 102.727 72.0104 103.435 72.2969 104.367L69.3047 104.766C69.2109 104.411 69.0391 104.146 68.7891 103.969C68.5443 103.786 68.2135 103.695 67.7969 103.695C67.2708 103.695 66.8438 103.885 66.5156 104.266C66.1927 104.641 66.0312 105.211 66.0312 105.977C66.0312 106.659 66.1927 107.177 66.5156 107.531C66.8385 107.885 67.25 108.062 67.75 108.062C68.1667 108.062 68.5156 107.956 68.7969 107.742C69.0833 107.529 69.2969 107.201 69.4375 106.758ZM83.1562 110H79.5703L78.3516 107.711C78.1589 107.346 77.9688 107.117 77.7812 107.023C77.599 106.93 77.3724 106.883 77.1016 106.883V110H73.9219V101.711H77.1016V104.703C77.362 104.677 77.5547 104.591 77.6797 104.445C77.8047 104.299 77.9844 103.979 78.2188 103.484C78.4583 102.99 78.6719 102.628 78.8594 102.398C79.0469 102.169 79.2865 101.997 79.5781 101.883C79.8698 101.768 80.2344 101.695 80.6719 101.664C81.1094 101.633 81.7604 101.617 82.625 101.617V103.875H82.4844C82.0573 103.875 81.7318 103.893 81.5078 103.93C81.2839 103.961 81.1042 104.031 80.9688 104.141C80.8333 104.25 80.6771 104.474 80.5 104.812C80.3229 105.151 80.1745 105.388 80.0547 105.523C79.9401 105.654 79.7682 105.742 79.5391 105.789C79.9818 105.831 80.3229 105.927 80.5625 106.078C80.8021 106.224 81.1641 106.701 81.6484 107.508L83.1562 110ZM93.4688 110H90.4609V105.922L87.3359 110H84.3125V101.711H87.3203V105.844L90.4766 101.711H93.4688V110ZM104.766 110H101.758V105.922L98.6328 110H95.6094V101.711H98.6172V105.844L101.773 101.711H104.766V110ZM102.75 98.3516C102.734 99.1068 102.471 99.6875 101.961 100.094C101.451 100.5 100.844 100.703 100.141 100.703C99.3177 100.703 98.6745 100.497 98.2109 100.086C97.7474 99.6693 97.4844 99.0911 97.4219 98.3516H98.7656C98.9219 98.9089 99.3594 99.1875 100.078 99.1875C100.474 99.1875 100.784 99.1328 101.008 99.0234C101.237 98.9089 101.391 98.6849 101.469 98.3516H102.75ZM57.3594 125H54.1797V121.781H54.0625C53.8385 121.781 53.6615 121.844 53.5312 121.969C53.4062 122.089 53.2786 122.273 53.1484 122.523L51.875 125H48.3516L49.5859 122.602C49.9505 121.888 50.4297 121.497 51.0234 121.43C50.3516 121.326 49.8385 121.047 49.4844 120.594C49.1354 120.135 48.9609 119.635 48.9609 119.094C48.9609 118.557 49.0938 118.083 49.3594 117.672C49.6302 117.255 50.0208 116.992 50.5312 116.883C51.0469 116.768 51.6953 116.711 52.4766 116.711H57.3594V125ZM54.1797 119.898V118.602H53.1875C52.7188 118.602 52.4271 118.659 52.3125 118.773C52.1979 118.883 52.1406 119.039 52.1406 119.242C52.1406 119.68 52.526 119.898 53.2969 119.898H54.1797ZM66.9609 120.711C67.4557 120.867 67.849 121.112 68.1406 121.445C68.4323 121.773 68.5781 122.138 68.5781 122.539C68.5781 123.404 68.1641 124.062 67.3359 124.516C66.5078 124.969 65.2995 125.195 63.7109 125.195C62.3776 125.195 61.3281 124.951 60.5625 124.461C59.8021 123.966 59.2526 123.224 58.9141 122.234L61.9375 121.898C62.0417 122.19 62.2552 122.451 62.5781 122.68C62.9062 122.904 63.2786 123.016 63.6953 123.016C64.763 123.016 65.2969 122.75 65.2969 122.219C65.2969 122.036 65.1953 121.891 64.9922 121.781C64.7891 121.667 64.5234 121.609 64.1953 121.609H62.8125V119.977H64.2266C64.5026 119.977 64.7552 119.919 64.9844 119.805C65.2135 119.69 65.3281 119.544 65.3281 119.367C65.3281 119.169 65.1927 119.008 64.9219 118.883C64.6562 118.758 64.2839 118.695 63.8047 118.695C63.3359 118.695 62.9401 118.794 62.6172 118.992C62.2943 119.185 62.0885 119.417 62 119.688L59.0703 119.289C59.3568 118.346 59.8802 117.651 60.6406 117.203C61.401 116.75 62.4505 116.523 63.7891 116.523C65.1797 116.523 66.2682 116.75 67.0547 117.203C67.8464 117.656 68.2422 118.229 68.2422 118.922C68.2422 119.755 67.8151 120.352 66.9609 120.711ZM73.4375 119.656H74.8906C77.3438 119.656 78.5703 120.552 78.5703 122.344C78.5703 124.115 77.375 125 74.9844 125H70.25V116.711H73.4375V119.656ZM73.4375 123.047H74.4766C74.737 123.047 74.9479 122.987 75.1094 122.867C75.276 122.747 75.3594 122.573 75.3594 122.344C75.3594 121.844 75.0651 121.594 74.4766 121.594H73.4375V123.047ZM79.4766 116.703H82.6562V125H79.4766V116.703ZM93.9219 125H90.3359L89.1172 122.711C88.9245 122.346 88.7344 122.117 88.5469 122.023C88.3646 121.93 88.138 121.883 87.8672 121.883V125H84.6875V116.711H87.8672V119.703C88.1276 119.677 88.3203 119.591 88.4453 119.445C88.5703 119.299 88.75 118.979 88.9844 118.484C89.224 117.99 89.4375 117.628 89.625 117.398C89.8125 117.169 90.0521 116.997 90.3438 116.883C90.6354 116.768 91 116.695 91.4375 116.664C91.875 116.633 92.526 116.617 93.3906 116.617V118.875H93.25C92.8229 118.875 92.4974 118.893 92.2734 118.93C92.0495 118.961 91.8698 119.031 91.7344 119.141C91.599 119.25 91.4427 119.474 91.2656 119.812C91.0885 120.151 90.9401 120.388 90.8203 120.523C90.7057 120.654 90.5339 120.742 90.3047 120.789C90.7474 120.831 91.0885 120.927 91.3281 121.078C91.5677 121.224 91.9297 121.701 92.4141 122.508L93.9219 125Z" fill="#F0F0F0" /><path d="M38.2148 64.2188C38.2148 56.3086 40.8841 49.7982 46.2227 44.6875C51.5612 39.5443 58.7715 36.9727 67.8535 36.9727C78.2376 36.9727 86.0827 39.9837 91.3887 46.0059C95.653 50.8561 97.7852 56.8294 97.7852 63.9258C97.7852 71.901 95.1322 78.444 89.8262 83.5547C84.5527 88.6328 77.2448 91.1719 67.9023 91.1719C59.569 91.1719 52.8307 89.056 47.6875 84.8242C41.3724 79.5833 38.2148 72.7148 38.2148 64.2188ZM58.1367 64.1699C58.1367 68.7923 59.0645 72.2103 60.9199 74.4238C62.8079 76.6374 65.168 77.7441 68 77.7441C70.8646 77.7441 73.2083 76.6536 75.0312 74.4727C76.8867 72.2917 77.8145 68.7923 77.8145 63.9746C77.8145 59.4824 76.8867 56.1458 75.0312 53.9648C73.1758 51.7513 70.8809 50.6445 68.1465 50.6445C65.2493 50.6445 62.8568 51.7676 60.9688 54.0137C59.0807 56.2272 58.1367 59.6126 58.1367 64.1699ZM67.5117 17.1973H84.6016L68.8301 31.7969H59.3086L67.5117 17.1973Z" fill="#F0F0F0" /></g><rect x="3" y="3" width="130" height="130" rx="11" stroke="#FF41AF" stroke-width="6" /><defs><clipPath id="clip0_135_571"><rect x="6" y="6" width="124" height="124" rx="8" fill="white" /></clipPath></defs></svg><svg width="136" height="136" viewBox="0 0 136 136" fill="none" xmlns="http://www.w3.org/2000/svg" x="136"><g clip-path="url(#clip0_230_1114)"><rect x="6" y="6" width="124" height="124" rx="8" fill="#F0F0F0" /><path d="M32.1406 113.156V101.703H35.1172V102.93C35.5286 102.414 35.9062 102.065 36.25 101.883C36.7135 101.638 37.2266 101.516 37.7891 101.516C38.8984 101.516 39.7552 101.94 40.3594 102.789C40.9688 103.638 41.2734 104.688 41.2734 105.938C41.2734 107.318 40.9427 108.372 40.2812 109.102C39.6198 109.826 38.7839 110.188 37.7734 110.188C37.2839 110.188 36.8359 110.104 36.4297 109.938C36.0286 109.771 35.6693 109.523 35.3516 109.195V113.156H32.1406ZM35.3281 105.875C35.3281 106.531 35.4661 107.018 35.7422 107.336C36.0182 107.654 36.3672 107.812 36.7891 107.812C37.1589 107.812 37.4688 107.661 37.7188 107.359C37.9688 107.052 38.0938 106.534 38.0938 105.805C38.0938 105.133 37.9635 104.641 37.7031 104.328C37.4427 104.01 37.125 103.852 36.75 103.852C36.3438 103.852 36.0052 104.01 35.7344 104.328C35.4635 104.646 35.3281 105.161 35.3281 105.875ZM41.875 101.703H45.2344L46.9453 107.227L48.5312 101.703H51.6641L48.375 110.57C48 111.581 47.6172 112.263 47.2266 112.617C46.6745 113.117 45.8333 113.367 44.7031 113.367C44.2448 113.367 43.5365 113.305 42.5781 113.18L42.3281 110.961C42.7865 111.107 43.2969 111.18 43.8594 111.18C44.2344 111.18 44.5365 111.094 44.7656 110.922C45 110.75 45.1979 110.443 45.3594 110L41.875 101.703ZM58.7656 106.758L61.7891 107.102C61.6224 107.732 61.349 108.279 60.9688 108.742C60.5885 109.201 60.1016 109.557 59.5078 109.812C58.9193 110.068 58.1693 110.195 57.2578 110.195C56.3776 110.195 55.6432 110.115 55.0547 109.953C54.4714 109.786 53.9688 109.521 53.5469 109.156C53.125 108.786 52.7943 108.354 52.5547 107.859C52.3151 107.365 52.1953 106.708 52.1953 105.891C52.1953 105.036 52.3411 104.326 52.6328 103.758C52.8464 103.341 53.138 102.969 53.5078 102.641C53.8776 102.307 54.2578 102.06 54.6484 101.898C55.2682 101.643 56.0625 101.516 57.0312 101.516C58.3854 101.516 59.4167 101.758 60.125 102.242C60.8385 102.727 61.3385 103.435 61.625 104.367L58.6328 104.766C58.5391 104.411 58.3672 104.146 58.1172 103.969C57.8724 103.786 57.5417 103.695 57.125 103.695C56.599 103.695 56.1719 103.885 55.8438 104.266C55.5208 104.641 55.3594 105.211 55.3594 105.977C55.3594 106.659 55.5208 107.177 55.8438 107.531C56.1667 107.885 56.5781 108.062 57.0781 108.062C57.4948 108.062 57.8438 107.956 58.125 107.742C58.4115 107.529 58.625 107.201 58.7656 106.758ZM69.4375 106.758L72.4609 107.102C72.2943 107.732 72.0208 108.279 71.6406 108.742C71.2604 109.201 70.7734 109.557 70.1797 109.812C69.5911 110.068 68.8411 110.195 67.9297 110.195C67.0495 110.195 66.3151 110.115 65.7266 109.953C65.1432 109.786 64.6406 109.521 64.2188 109.156C63.7969 108.786 63.4661 108.354 63.2266 107.859C62.987 107.365 62.8672 106.708 62.8672 105.891C62.8672 105.036 63.013 104.326 63.3047 103.758C63.5182 103.341 63.8099 102.969 64.1797 102.641C64.5495 102.307 64.9297 102.06 65.3203 101.898C65.9401 101.643 66.7344 101.516 67.7031 101.516C69.0573 101.516 70.0885 101.758 70.7969 102.242C71.5104 102.727 72.0104 103.435 72.2969 104.367L69.3047 104.766C69.2109 104.411 69.0391 104.146 68.7891 103.969C68.5443 103.786 68.2135 103.695 67.7969 103.695C67.2708 103.695 66.8438 103.885 66.5156 104.266C66.1927 104.641 66.0312 105.211 66.0312 105.977C66.0312 106.659 66.1927 107.177 66.5156 107.531C66.8385 107.885 67.25 108.062 67.75 108.062C68.1667 108.062 68.5156 107.956 68.7969 107.742C69.0833 107.529 69.2969 107.201 69.4375 106.758ZM83.1562 110H79.5703L78.3516 107.711C78.1589 107.346 77.9688 107.117 77.7812 107.023C77.599 106.93 77.3724 106.883 77.1016 106.883V110H73.9219V101.711H77.1016V104.703C77.362 104.677 77.5547 104.591 77.6797 104.445C77.8047 104.299 77.9844 103.979 78.2188 103.484C78.4583 102.99 78.6719 102.628 78.8594 102.398C79.0469 102.169 79.2865 101.997 79.5781 101.883C79.8698 101.768 80.2344 101.695 80.6719 101.664C81.1094 101.633 81.7604 101.617 82.625 101.617V103.875H82.4844C82.0573 103.875 81.7318 103.893 81.5078 103.93C81.2839 103.961 81.1042 104.031 80.9688 104.141C80.8333 104.25 80.6771 104.474 80.5 104.812C80.3229 105.151 80.1745 105.388 80.0547 105.523C79.9401 105.654 79.7682 105.742 79.5391 105.789C79.9818 105.831 80.3229 105.927 80.5625 106.078C80.8021 106.224 81.1641 106.701 81.6484 107.508L83.1562 110ZM93.4688 110H90.4609V105.922L87.3359 110H84.3125V101.711H87.3203V105.844L90.4766 101.711H93.4688V110ZM104.766 110H101.758V105.922L98.6328 110H95.6094V101.711H98.6172V105.844L101.773 101.711H104.766V110ZM102.75 98.3516C102.734 99.1068 102.471 99.6875 101.961 100.094C101.451 100.5 100.844 100.703 100.141 100.703C99.3177 100.703 98.6745 100.497 98.2109 100.086C97.7474 99.6693 97.4844 99.0911 97.4219 98.3516H98.7656C98.9219 98.9089 99.3594 99.1875 100.078 99.1875C100.474 99.1875 100.784 99.1328 101.008 99.0234C101.237 98.9089 101.391 98.6849 101.469 98.3516H102.75ZM57.3594 125H54.1797V121.781H54.0625C53.8385 121.781 53.6615 121.844 53.5312 121.969C53.4062 122.089 53.2786 122.273 53.1484 122.523L51.875 125H48.3516L49.5859 122.602C49.9505 121.888 50.4297 121.497 51.0234 121.43C50.3516 121.326 49.8385 121.047 49.4844 120.594C49.1354 120.135 48.9609 119.635 48.9609 119.094C48.9609 118.557 49.0938 118.083 49.3594 117.672C49.6302 117.255 50.0208 116.992 50.5312 116.883C51.0469 116.768 51.6953 116.711 52.4766 116.711H57.3594V125ZM54.1797 119.898V118.602H53.1875C52.7188 118.602 52.4271 118.659 52.3125 118.773C52.1979 118.883 52.1406 119.039 52.1406 119.242C52.1406 119.68 52.526 119.898 53.2969 119.898H54.1797ZM66.9609 120.711C67.4557 120.867 67.849 121.112 68.1406 121.445C68.4323 121.773 68.5781 122.138 68.5781 122.539C68.5781 123.404 68.1641 124.062 67.3359 124.516C66.5078 124.969 65.2995 125.195 63.7109 125.195C62.3776 125.195 61.3281 124.951 60.5625 124.461C59.8021 123.966 59.2526 123.224 58.9141 122.234L61.9375 121.898C62.0417 122.19 62.2552 122.451 62.5781 122.68C62.9062 122.904 63.2786 123.016 63.6953 123.016C64.763 123.016 65.2969 122.75 65.2969 122.219C65.2969 122.036 65.1953 121.891 64.9922 121.781C64.7891 121.667 64.5234 121.609 64.1953 121.609H62.8125V119.977H64.2266C64.5026 119.977 64.7552 119.919 64.9844 119.805C65.2135 119.69 65.3281 119.544 65.3281 119.367C65.3281 119.169 65.1927 119.008 64.9219 118.883C64.6562 118.758 64.2839 118.695 63.8047 118.695C63.3359 118.695 62.9401 118.794 62.6172 118.992C62.2943 119.185 62.0885 119.417 62 119.688L59.0703 119.289C59.3568 118.346 59.8802 117.651 60.6406 117.203C61.401 116.75 62.4505 116.523 63.7891 116.523C65.1797 116.523 66.2682 116.75 67.0547 117.203C67.8464 117.656 68.2422 118.229 68.2422 118.922C68.2422 119.755 67.8151 120.352 66.9609 120.711ZM73.4375 119.656H74.8906C77.3438 119.656 78.5703 120.552 78.5703 122.344C78.5703 124.115 77.375 125 74.9844 125H70.25V116.711H73.4375V119.656ZM73.4375 123.047H74.4766C74.737 123.047 74.9479 122.987 75.1094 122.867C75.276 122.747 75.3594 122.573 75.3594 122.344C75.3594 121.844 75.0651 121.594 74.4766 121.594H73.4375V123.047ZM79.4766 116.703H82.6562V125H79.4766V116.703ZM93.9219 125H90.3359L89.1172 122.711C88.9245 122.346 88.7344 122.117 88.5469 122.023C88.3646 121.93 88.138 121.883 87.8672 121.883V125H84.6875V116.711H87.8672V119.703C88.1276 119.677 88.3203 119.591 88.4453 119.445C88.5703 119.299 88.75 118.979 88.9844 118.484C89.224 117.99 89.4375 117.628 89.625 117.398C89.8125 117.169 90.0521 116.997 90.3438 116.883C90.6354 116.768 91 116.695 91.4375 116.664C91.875 116.633 92.526 116.617 93.3906 116.617V118.875H93.25C92.8229 118.875 92.4974 118.893 92.2734 118.93C92.0495 118.961 91.8698 119.031 91.7344 119.141C91.599 119.25 91.4427 119.474 91.2656 119.812C91.0885 120.151 90.9401 120.388 90.8203 120.523C90.7057 120.654 90.5339 120.742 90.3047 120.789C90.7474 120.831 91.0885 120.927 91.3281 121.078C91.5677 121.224 91.9297 121.701 92.4141 122.508L93.9219 125Z" fill="#FF41AF" /><path d="M38.2148 64.2188C38.2148 56.3086 40.8841 49.7982 46.2227 44.6875C51.5612 39.5443 58.7715 36.9727 67.8535 36.9727C78.2376 36.9727 86.0827 39.9837 91.3887 46.0059C95.653 50.8561 97.7852 56.8294 97.7852 63.9258C97.7852 71.901 95.1322 78.444 89.8262 83.5547C84.5527 88.6328 77.2448 91.1719 67.9023 91.1719C59.569 91.1719 52.8307 89.056 47.6875 84.8242C41.3724 79.5833 38.2148 72.7148 38.2148 64.2188ZM58.1367 64.1699C58.1367 68.7923 59.0645 72.2103 60.9199 74.4238C62.8079 76.6374 65.168 77.7441 68 77.7441C70.8646 77.7441 73.2083 76.6536 75.0312 74.4727C76.8867 72.2917 77.8145 68.7923 77.8145 63.9746C77.8145 59.4824 76.8867 56.1458 75.0312 53.9648C73.1758 51.7513 70.8809 50.6445 68.1465 50.6445C65.2493 50.6445 62.8568 51.7676 60.9688 54.0137C59.0807 56.2272 58.1367 59.6126 58.1367 64.1699ZM67.5117 17.1973H84.6016L68.8301 31.7969H59.3086L67.5117 17.1973Z" fill="#FF41AF" /></g><rect x="3" y="3" width="130" height="130" rx="11" stroke="#FF41AF" stroke-width="6" /><defs><clipPath id="clip0_230_1114"><rect x="6" y="6" width="124" height="124" rx="8" fill="white" /></clipPath></defs></svg><svg width="136" height="136" viewBox="0 0 136 136" fill="none" xmlns="http://www.w3.org/2000/svg" x="272"><g clip-path="url(#clip0_230_1113)"><rect x="6" y="6" width="124" height="124" rx="8" fill="#F0F0F0" /><path d="M32.1406 113.156V101.703H35.1172V102.93C35.5286 102.414 35.9062 102.065 36.25 101.883C36.7135 101.638 37.2266 101.516 37.7891 101.516C38.8984 101.516 39.7552 101.94 40.3594 102.789C40.9688 103.638 41.2734 104.688 41.2734 105.938C41.2734 107.318 40.9427 108.372 40.2812 109.102C39.6198 109.826 38.7839 110.188 37.7734 110.188C37.2839 110.188 36.8359 110.104 36.4297 109.938C36.0286 109.771 35.6693 109.523 35.3516 109.195V113.156H32.1406ZM35.3281 105.875C35.3281 106.531 35.4661 107.018 35.7422 107.336C36.0182 107.654 36.3672 107.812 36.7891 107.812C37.1589 107.812 37.4688 107.661 37.7188 107.359C37.9688 107.052 38.0938 106.534 38.0938 105.805C38.0938 105.133 37.9635 104.641 37.7031 104.328C37.4427 104.01 37.125 103.852 36.75 103.852C36.3438 103.852 36.0052 104.01 35.7344 104.328C35.4635 104.646 35.3281 105.161 35.3281 105.875ZM41.875 101.703H45.2344L46.9453 107.227L48.5312 101.703H51.6641L48.375 110.57C48 111.581 47.6172 112.263 47.2266 112.617C46.6745 113.117 45.8333 113.367 44.7031 113.367C44.2448 113.367 43.5365 113.305 42.5781 113.18L42.3281 110.961C42.7865 111.107 43.2969 111.18 43.8594 111.18C44.2344 111.18 44.5365 111.094 44.7656 110.922C45 110.75 45.1979 110.443 45.3594 110L41.875 101.703ZM58.7656 106.758L61.7891 107.102C61.6224 107.732 61.349 108.279 60.9688 108.742C60.5885 109.201 60.1016 109.557 59.5078 109.812C58.9193 110.068 58.1693 110.195 57.2578 110.195C56.3776 110.195 55.6432 110.115 55.0547 109.953C54.4714 109.786 53.9688 109.521 53.5469 109.156C53.125 108.786 52.7943 108.354 52.5547 107.859C52.3151 107.365 52.1953 106.708 52.1953 105.891C52.1953 105.036 52.3411 104.326 52.6328 103.758C52.8464 103.341 53.138 102.969 53.5078 102.641C53.8776 102.307 54.2578 102.06 54.6484 101.898C55.2682 101.643 56.0625 101.516 57.0312 101.516C58.3854 101.516 59.4167 101.758 60.125 102.242C60.8385 102.727 61.3385 103.435 61.625 104.367L58.6328 104.766C58.5391 104.411 58.3672 104.146 58.1172 103.969C57.8724 103.786 57.5417 103.695 57.125 103.695C56.599 103.695 56.1719 103.885 55.8438 104.266C55.5208 104.641 55.3594 105.211 55.3594 105.977C55.3594 106.659 55.5208 107.177 55.8438 107.531C56.1667 107.885 56.5781 108.062 57.0781 108.062C57.4948 108.062 57.8438 107.956 58.125 107.742C58.4115 107.529 58.625 107.201 58.7656 106.758ZM69.4375 106.758L72.4609 107.102C72.2943 107.732 72.0208 108.279 71.6406 108.742C71.2604 109.201 70.7734 109.557 70.1797 109.812C69.5911 110.068 68.8411 110.195 67.9297 110.195C67.0495 110.195 66.3151 110.115 65.7266 109.953C65.1432 109.786 64.6406 109.521 64.2188 109.156C63.7969 108.786 63.4661 108.354 63.2266 107.859C62.987 107.365 62.8672 106.708 62.8672 105.891C62.8672 105.036 63.013 104.326 63.3047 103.758C63.5182 103.341 63.8099 102.969 64.1797 102.641C64.5495 102.307 64.9297 102.06 65.3203 101.898C65.9401 101.643 66.7344 101.516 67.7031 101.516C69.0573 101.516 70.0885 101.758 70.7969 102.242C71.5104 102.727 72.0104 103.435 72.2969 104.367L69.3047 104.766C69.2109 104.411 69.0391 104.146 68.7891 103.969C68.5443 103.786 68.2135 103.695 67.7969 103.695C67.2708 103.695 66.8438 103.885 66.5156 104.266C66.1927 104.641 66.0312 105.211 66.0312 105.977C66.0312 106.659 66.1927 107.177 66.5156 107.531C66.8385 107.885 67.25 108.062 67.75 108.062C68.1667 108.062 68.5156 107.956 68.7969 107.742C69.0833 107.529 69.2969 107.201 69.4375 106.758ZM83.1562 110H79.5703L78.3516 107.711C78.1589 107.346 77.9688 107.117 77.7812 107.023C77.599 106.93 77.3724 106.883 77.1016 106.883V110H73.9219V101.711H77.1016V104.703C77.362 104.677 77.5547 104.591 77.6797 104.445C77.8047 104.299 77.9844 103.979 78.2188 103.484C78.4583 102.99 78.6719 102.628 78.8594 102.398C79.0469 102.169 79.2865 101.997 79.5781 101.883C79.8698 101.768 80.2344 101.695 80.6719 101.664C81.1094 101.633 81.7604 101.617 82.625 101.617V103.875H82.4844C82.0573 103.875 81.7318 103.893 81.5078 103.93C81.2839 103.961 81.1042 104.031 80.9688 104.141C80.8333 104.25 80.6771 104.474 80.5 104.812C80.3229 105.151 80.1745 105.388 80.0547 105.523C79.9401 105.654 79.7682 105.742 79.5391 105.789C79.9818 105.831 80.3229 105.927 80.5625 106.078C80.8021 106.224 81.1641 106.701 81.6484 107.508L83.1562 110ZM93.4688 110H90.4609V105.922L87.3359 110H84.3125V101.711H87.3203V105.844L90.4766 101.711H93.4688V110ZM104.766 110H101.758V105.922L98.6328 110H95.6094V101.711H98.6172V105.844L101.773 101.711H104.766V110ZM102.75 98.3516C102.734 99.1068 102.471 99.6875 101.961 100.094C101.451 100.5 100.844 100.703 100.141 100.703C99.3177 100.703 98.6745 100.497 98.2109 100.086C97.7474 99.6693 97.4844 99.0911 97.4219 98.3516H98.7656C98.9219 98.9089 99.3594 99.1875 100.078 99.1875C100.474 99.1875 100.784 99.1328 101.008 99.0234C101.237 98.9089 101.391 98.6849 101.469 98.3516H102.75ZM57.3594 125H54.1797V121.781H54.0625C53.8385 121.781 53.6615 121.844 53.5312 121.969C53.4062 122.089 53.2786 122.273 53.1484 122.523L51.875 125H48.3516L49.5859 122.602C49.9505 121.888 50.4297 121.497 51.0234 121.43C50.3516 121.326 49.8385 121.047 49.4844 120.594C49.1354 120.135 48.9609 119.635 48.9609 119.094C48.9609 118.557 49.0938 118.083 49.3594 117.672C49.6302 117.255 50.0208 116.992 50.5312 116.883C51.0469 116.768 51.6953 116.711 52.4766 116.711H57.3594V125ZM54.1797 119.898V118.602H53.1875C52.7188 118.602 52.4271 118.659 52.3125 118.773C52.1979 118.883 52.1406 119.039 52.1406 119.242C52.1406 119.68 52.526 119.898 53.2969 119.898H54.1797ZM66.9609 120.711C67.4557 120.867 67.849 121.112 68.1406 121.445C68.4323 121.773 68.5781 122.138 68.5781 122.539C68.5781 123.404 68.1641 124.062 67.3359 124.516C66.5078 124.969 65.2995 125.195 63.7109 125.195C62.3776 125.195 61.3281 124.951 60.5625 124.461C59.8021 123.966 59.2526 123.224 58.9141 122.234L61.9375 121.898C62.0417 122.19 62.2552 122.451 62.5781 122.68C62.9062 122.904 63.2786 123.016 63.6953 123.016C64.763 123.016 65.2969 122.75 65.2969 122.219C65.2969 122.036 65.1953 121.891 64.9922 121.781C64.7891 121.667 64.5234 121.609 64.1953 121.609H62.8125V119.977H64.2266C64.5026 119.977 64.7552 119.919 64.9844 119.805C65.2135 119.69 65.3281 119.544 65.3281 119.367C65.3281 119.169 65.1927 119.008 64.9219 118.883C64.6562 118.758 64.2839 118.695 63.8047 118.695C63.3359 118.695 62.9401 118.794 62.6172 118.992C62.2943 119.185 62.0885 119.417 62 119.688L59.0703 119.289C59.3568 118.346 59.8802 117.651 60.6406 117.203C61.401 116.75 62.4505 116.523 63.7891 116.523C65.1797 116.523 66.2682 116.75 67.0547 117.203C67.8464 117.656 68.2422 118.229 68.2422 118.922C68.2422 119.755 67.8151 120.352 66.9609 120.711ZM73.4375 119.656H74.8906C77.3438 119.656 78.5703 120.552 78.5703 122.344C78.5703 124.115 77.375 125 74.9844 125H70.25V116.711H73.4375V119.656ZM73.4375 123.047H74.4766C74.737 123.047 74.9479 122.987 75.1094 122.867C75.276 122.747 75.3594 122.573 75.3594 122.344C75.3594 121.844 75.0651 121.594 74.4766 121.594H73.4375V123.047ZM79.4766 116.703H82.6562V125H79.4766V116.703ZM93.9219 125H90.3359L89.1172 122.711C88.9245 122.346 88.7344 122.117 88.5469 122.023C88.3646 121.93 88.138 121.883 87.8672 121.883V125H84.6875V116.711H87.8672V119.703C88.1276 119.677 88.3203 119.591 88.4453 119.445C88.5703 119.299 88.75 118.979 88.9844 118.484C89.224 117.99 89.4375 117.628 89.625 117.398C89.8125 117.169 90.0521 116.997 90.3438 116.883C90.6354 116.768 91 116.695 91.4375 116.664C91.875 116.633 92.526 116.617 93.3906 116.617V118.875H93.25C92.8229 118.875 92.4974 118.893 92.2734 118.93C92.0495 118.961 91.8698 119.031 91.7344 119.141C91.599 119.25 91.4427 119.474 91.2656 119.812C91.0885 120.151 90.9401 120.388 90.8203 120.523C90.7057 120.654 90.5339 120.742 90.3047 120.789C90.7474 120.831 91.0885 120.927 91.3281 121.078C91.5677 121.224 91.9297 121.701 92.4141 122.508L93.9219 125Z" fill="#BB3B85" /><path d="M38.2148 64.2188C38.2148 56.3086 40.8841 49.7982 46.2227 44.6875C51.5612 39.5443 58.7715 36.9727 67.8535 36.9727C78.2376 36.9727 86.0827 39.9837 91.3887 46.0059C95.653 50.8561 97.7852 56.8294 97.7852 63.9258C97.7852 71.901 95.1322 78.444 89.8262 83.5547C84.5527 88.6328 77.2448 91.1719 67.9023 91.1719C59.569 91.1719 52.8307 89.056 47.6875 84.8242C41.3724 79.5833 38.2148 72.7148 38.2148 64.2188ZM58.1367 64.1699C58.1367 68.7923 59.0645 72.2103 60.9199 74.4238C62.8079 76.6374 65.168 77.7441 68 77.7441C70.8646 77.7441 73.2083 76.6536 75.0312 74.4727C76.8867 72.2917 77.8145 68.7923 77.8145 63.9746C77.8145 59.4824 76.8867 56.1458 75.0312 53.9648C73.1758 51.7513 70.8809 50.6445 68.1465 50.6445C65.2493 50.6445 62.8568 51.7676 60.9688 54.0137C59.0807 56.2272 58.1367 59.6126 58.1367 64.1699ZM67.5117 17.1973H84.6016L68.8301 31.7969H59.3086L67.5117 17.1973Z" fill="#BB3B85" /></g><rect x="3" y="3" width="130" height="130" rx="11" stroke="#BB3B85" stroke-width="6" /><defs><clipPath id="clip0_230_1113"><rect x="6" y="6" width="124" height="124" rx="8" fill="white" /></clipPath></defs></svg></svg>