<svg xmlns="http://www.w3.org/2000/svg" viewBox="0 0 408 136"><svg width="136" height="136" viewBox="0 0 136 136" fill="none" xmlns="http://www.w3.org/2000/svg" x="0"><g clip-path="url(#clip0_143_594)"><rect x="6" y="6" width="124" height="124" rx="8" fill="#FF41AF" /><path d="M16.0938 102.547C16.7292 101.865 17.5391 101.523 18.5234 101.523C19.5911 101.523 20.4401 101.938 21.0703 102.766C21.7005 103.589 22.0156 104.661 22.0156 105.984C22.0156 107.266 21.7005 108.289 21.0703 109.055C20.4401 109.815 19.5859 110.195 18.5078 110.195C17.487 110.195 16.6823 109.865 16.0938 109.203V113.172H12.9141V109.219C12.2474 109.87 11.4349 110.195 10.4766 110.195C9.41406 110.195 8.56771 109.784 7.9375 108.961C7.30729 108.133 6.99219 107.055 6.99219 105.727C6.99219 104.445 7.30729 103.424 7.9375 102.664C8.56771 101.904 9.41927 101.523 10.4922 101.523C11.5078 101.523 12.3151 101.875 12.9141 102.578V98.5469H16.0938V102.547ZM17.5312 107.844C17.9479 107.844 18.2682 107.669 18.4922 107.32C18.7161 106.971 18.8281 106.505 18.8281 105.922C18.8281 104.557 18.3802 103.875 17.4844 103.875C17.0938 103.875 16.7578 104.023 16.4766 104.32C16.2005 104.617 16.0625 105.141 16.0625 105.891C16.0625 106.448 16.1875 106.914 16.4375 107.289C16.6875 107.659 17.0521 107.844 17.5312 107.844ZM11.5156 107.844C11.9115 107.844 12.2474 107.695 12.5234 107.398C12.8047 107.096 12.9453 106.57 12.9453 105.82C12.9453 105.263 12.8203 104.799 12.5703 104.43C12.3203 104.06 11.9531 103.875 11.4688 103.875C11.0573 103.875 10.737 104.049 10.5078 104.398C10.2839 104.742 10.1719 105.206 10.1719 105.789C10.1719 107.159 10.6198 107.844 11.5156 107.844ZM23.5938 113.156V101.703H26.5703V102.93C26.9818 102.414 27.3594 102.065 27.7031 101.883C28.1667 101.638 28.6797 101.516 29.2422 101.516C30.3516 101.516 31.2083 101.94 31.8125 102.789C32.4219 103.638 32.7266 104.688 32.7266 105.938C32.7266 107.318 32.3958 108.372 31.7344 109.102C31.0729 109.826 30.237 110.188 29.2266 110.188C28.737 110.188 28.2891 110.104 27.8828 109.938C27.4818 109.771 27.1224 109.523 26.8047 109.195V113.156H23.5938ZM26.7812 105.875C26.7812 106.531 26.9193 107.018 27.1953 107.336C27.4714 107.654 27.8203 107.812 28.2422 107.812C28.612 107.812 28.9219 107.661 29.1719 107.359C29.4219 107.052 29.5469 106.534 29.5469 105.805C29.5469 105.133 29.4167 104.641 29.1562 104.328C28.8958 104.01 28.5781 103.852 28.2031 103.852C27.7969 103.852 27.4583 104.01 27.1875 104.328C26.9167 104.646 26.7812 105.161 26.7812 105.875ZM37.1484 104.391L34.1094 104.07C34.224 103.539 34.388 103.122 34.6016 102.82C34.8203 102.513 35.1328 102.247 35.5391 102.023C35.8307 101.862 36.2318 101.737 36.7422 101.648C37.2526 101.56 37.8047 101.516 38.3984 101.516C39.3516 101.516 40.1172 101.57 40.6953 101.68C41.2734 101.784 41.7552 102.005 42.1406 102.344C42.4115 102.578 42.625 102.911 42.7812 103.344C42.9375 103.771 43.0156 104.18 43.0156 104.57V108.234C43.0156 108.625 43.0391 108.932 43.0859 109.156C43.138 109.375 43.2474 109.656 43.4141 110H40.4297C40.3099 109.786 40.2318 109.625 40.1953 109.516C40.1589 109.401 40.1224 109.224 40.0859 108.984C39.6693 109.385 39.2552 109.672 38.8438 109.844C38.2812 110.073 37.6276 110.188 36.8828 110.188C35.8932 110.188 35.1406 109.958 34.625 109.5C34.1146 109.042 33.8594 108.477 33.8594 107.805C33.8594 107.174 34.0443 106.656 34.4141 106.25C34.7839 105.844 35.4661 105.542 36.4609 105.344C37.6536 105.104 38.4271 104.938 38.7812 104.844C39.1354 104.745 39.5104 104.617 39.9062 104.461C39.9062 104.07 39.8255 103.797 39.6641 103.641C39.5026 103.484 39.2188 103.406 38.8125 103.406C38.2917 103.406 37.901 103.49 37.6406 103.656C37.4375 103.786 37.2734 104.031 37.1484 104.391ZM39.9062 106.062C39.4688 106.219 39.013 106.357 38.5391 106.477C37.8932 106.648 37.4844 106.818 37.3125 106.984C37.1354 107.156 37.0469 107.352 37.0469 107.57C37.0469 107.82 37.1328 108.026 37.3047 108.188C37.4818 108.344 37.7396 108.422 38.0781 108.422C38.4323 108.422 38.7604 108.336 39.0625 108.164C39.3698 107.992 39.5859 107.784 39.7109 107.539C39.8411 107.289 39.9062 106.966 39.9062 106.57V106.062ZM54.2969 110H51.1094V106.867H48.2188V110H45.0312V101.711H48.2188V104.547H51.1094V101.711H54.2969V110ZM66.2812 112.367H64.0703V110H56.2812V101.711H59.4609V107.68H61.8828V101.711H65.0625V107.68H66.2812V112.367ZM66.4531 101.703H69.8125L71.5234 107.227L73.1094 101.703H76.2422L72.9531 110.57C72.5781 111.581 72.1953 112.263 71.8047 112.617C71.2526 113.117 70.4115 113.367 69.2812 113.367C68.8229 113.367 68.1146 113.305 67.1562 113.18L66.9062 110.961C67.3646 111.107 67.875 111.18 68.4375 111.18C68.8125 111.18 69.1146 111.094 69.3438 110.922C69.5781 110.75 69.776 110.443 69.9375 110L66.4531 101.703ZM84.8359 105.711C85.3307 105.867 85.724 106.112 86.0156 106.445C86.3073 106.773 86.4531 107.138 86.4531 107.539C86.4531 108.404 86.0391 109.062 85.2109 109.516C84.3828 109.969 83.1745 110.195 81.5859 110.195C80.2526 110.195 79.2031 109.951 78.4375 109.461C77.6771 108.966 77.1276 108.224 76.7891 107.234L79.8125 106.898C79.9167 107.19 80.1302 107.451 80.4531 107.68C80.7812 107.904 81.1536 108.016 81.5703 108.016C82.638 108.016 83.1719 107.75 83.1719 107.219C83.1719 107.036 83.0703 106.891 82.8672 106.781C82.6641 106.667 82.3984 106.609 82.0703 106.609H80.6875V104.977H82.1016C82.3776 104.977 82.6302 104.919 82.8594 104.805C83.0885 104.69 83.2031 104.544 83.2031 104.367C83.2031 104.169 83.0677 104.008 82.7969 103.883C82.5312 103.758 82.1589 103.695 81.6797 103.695C81.2109 103.695 80.8151 103.794 80.4922 103.992C80.1693 104.185 79.9635 104.417 79.875 104.688L76.9453 104.289C77.2318 103.346 77.7552 102.651 78.5156 102.203C79.276 101.75 80.3255 101.523 81.6641 101.523C83.0547 101.523 84.1432 101.75 84.9297 102.203C85.7214 102.656 86.1172 103.229 86.1172 103.922C86.1172 104.755 85.6901 105.352 84.8359 105.711ZM94.2031 106.758L97.2266 107.102C97.0599 107.732 96.7865 108.279 96.4062 108.742C96.026 109.201 95.5391 109.557 94.9453 109.812C94.3568 110.068 93.6068 110.195 92.6953 110.195C91.8151 110.195 91.0807 110.115 90.4922 109.953C89.9089 109.786 89.4062 109.521 88.9844 109.156C88.5625 108.786 88.2318 108.354 87.9922 107.859C87.7526 107.365 87.6328 106.708 87.6328 105.891C87.6328 105.036 87.7786 104.326 88.0703 103.758C88.2839 103.341 88.5755 102.969 88.9453 102.641C89.3151 102.307 89.6953 102.06 90.0859 101.898C90.7057 101.643 91.5 101.516 92.4688 101.516C93.8229 101.516 94.8542 101.758 95.5625 102.242C96.276 102.727 96.776 103.435 97.0625 104.367L94.0703 104.766C93.9766 104.411 93.8047 104.146 93.5547 103.969C93.3099 103.786 92.9792 103.695 92.5625 103.695C92.0365 103.695 91.6094 103.885 91.2812 104.266C90.9583 104.641 90.7969 105.211 90.7969 105.977C90.7969 106.659 90.9583 107.177 91.2812 107.531C91.6042 107.885 92.0156 108.062 92.5156 108.062C92.9323 108.062 93.2812 107.956 93.5625 107.742C93.849 107.529 94.0625 107.201 94.2031 106.758ZM107.922 110H104.336L103.117 107.711C102.924 107.346 102.734 107.117 102.547 107.023C102.365 106.93 102.138 106.883 101.867 106.883V110H98.6875V101.711H101.867V104.703C102.128 104.677 102.32 104.591 102.445 104.445C102.57 104.299 102.75 103.979 102.984 103.484C103.224 102.99 103.438 102.628 103.625 102.398C103.812 102.169 104.052 101.997 104.344 101.883C104.635 101.768 105 101.695 105.438 101.664C105.875 101.633 106.526 101.617 107.391 101.617V103.875H107.25C106.823 103.875 106.497 103.893 106.273 103.93C106.049 103.961 105.87 104.031 105.734 104.141C105.599 104.25 105.443 104.474 105.266 104.812C105.089 105.151 104.94 105.388 104.82 105.523C104.706 105.654 104.534 105.742 104.305 105.789C104.747 105.831 105.089 105.927 105.328 106.078C105.568 106.224 105.93 106.701 106.414 107.508L107.922 110ZM118.234 110H115.227V105.922L112.102 110H109.078V101.711H112.086V105.844L115.242 101.711H118.234V110ZM129.531 110H126.523V105.922L123.398 110H120.375V101.711H123.383V105.844L126.539 101.711H129.531V110ZM127.516 98.3516C127.5 99.1068 127.237 99.6875 126.727 100.094C126.216 100.5 125.609 100.703 124.906 100.703C124.083 100.703 123.44 100.497 122.977 100.086C122.513 99.6693 122.25 99.0911 122.188 98.3516H123.531C123.688 98.9089 124.125 99.1875 124.844 99.1875C125.24 99.1875 125.549 99.1328 125.773 99.0234C126.003 98.9089 126.156 98.6849 126.234 98.3516H127.516ZM57.3594 125H54.1797V121.781H54.0625C53.8385 121.781 53.6615 121.844 53.5312 121.969C53.4062 122.089 53.2786 122.273 53.1484 122.523L51.875 125H48.3516L49.5859 122.602C49.9505 121.888 50.4297 121.497 51.0234 121.43C50.3516 121.326 49.8385 121.047 49.4844 120.594C49.1354 120.135 48.9609 119.635 48.9609 119.094C48.9609 118.557 49.0938 118.083 49.3594 117.672C49.6302 117.255 50.0208 116.992 50.5312 116.883C51.0469 116.768 51.6953 116.711 52.4766 116.711H57.3594V125ZM54.1797 119.898V118.602H53.1875C52.7188 118.602 52.4271 118.659 52.3125 118.773C52.1979 118.883 52.1406 119.039 52.1406 119.242C52.1406 119.68 52.526 119.898 53.2969 119.898H54.1797ZM66.9609 120.711C67.4557 120.867 67.849 121.112 68.1406 121.445C68.4323 121.773 68.5781 122.138 68.5781 122.539C68.5781 123.404 68.1641 124.062 67.3359 124.516C66.5078 124.969 65.2995 125.195 63.7109 125.195C62.3776 125.195 61.3281 124.951 60.5625 124.461C59.8021 123.966 59.2526 123.224 58.9141 122.234L61.9375 121.898C62.0417 122.19 62.2552 122.451 62.5781 122.68C62.9062 122.904 63.2786 123.016 63.6953 123.016C64.763 123.016 65.2969 122.75 65.2969 122.219C65.2969 122.036 65.1953 121.891 64.9922 121.781C64.7891 121.667 64.5234 121.609 64.1953 121.609H62.8125V119.977H64.2266C64.5026 119.977 64.7552 119.919 64.9844 119.805C65.2135 119.69 65.3281 119.544 65.3281 119.367C65.3281 119.169 65.1927 119.008 64.9219 118.883C64.6562 118.758 64.2839 118.695 63.8047 118.695C63.3359 118.695 62.9401 118.794 62.6172 118.992C62.2943 119.185 62.0885 119.417 62 119.688L59.0703 119.289C59.3568 118.346 59.8802 117.651 60.6406 117.203C61.401 116.75 62.4505 116.523 63.7891 116.523C65.1797 116.523 66.2682 116.75 67.0547 117.203C67.8464 117.656 68.2422 118.229 68.2422 118.922C68.2422 119.755 67.8151 120.352 66.9609 120.711ZM73.4375 119.656H74.8906C77.3438 119.656 78.5703 120.552 78.5703 122.344C78.5703 124.115 77.375 125 74.9844 125H70.25V116.711H73.4375V119.656ZM73.4375 123.047H74.4766C74.737 123.047 74.9479 122.987 75.1094 122.867C75.276 122.747 75.3594 122.573 75.3594 122.344C75.3594 121.844 75.0651 121.594 74.4766 121.594H73.4375V123.047ZM79.4766 116.703H82.6562V125H79.4766V116.703ZM93.9219 125H90.3359L89.1172 122.711C88.9245 122.346 88.7344 122.117 88.5469 122.023C88.3646 121.93 88.138 121.883 87.8672 121.883V125H84.6875V116.711H87.8672V119.703C88.1276 119.677 88.3203 119.591 88.4453 119.445C88.5703 119.299 88.75 118.979 88.9844 118.484C89.224 117.99 89.4375 117.628 89.625 117.398C89.8125 117.169 90.0521 116.997 90.3438 116.883C90.6354 116.768 91 116.695 91.4375 116.664C91.875 116.633 92.526 116.617 93.3906 116.617V118.875H93.25C92.8229 118.875 92.4974 118.893 92.2734 118.93C92.0495 118.961 91.8698 119.031 91.7344 119.141C91.599 119.25 91.4427 119.474 91.2656 119.812C91.0885 120.151 90.9401 120.388 90.8203 120.523C90.7057 120.654 90.5339 120.742 90.3047 120.789C90.7474 120.831 91.0885 120.927 91.3281 121.078C91.5677 121.224 91.9297 121.701 92.4141 122.508L93.9219 125Z" fill="#F0F0F0" /><path d="M84.8547 55.4275V56.012C84.8547 58.748 83.4192 60.8515 80.5483 62.3287C77.6741 63.8091 73.6182 64.5445 68.3773 64.5445C62.4653 64.5445 58.1171 63.5426 55.3297 61.5355C52.539 59.5252 51.1485 56.4038 51.1485 52.168V51.3299C51.1485 47.0941 52.5551 43.9406 55.3714 41.8789C58.1878 39.814 62.4942 38.7832 68.2938 38.7832C73.3677 38.7832 77.3948 39.5635 80.3813 41.1242C83.3614 42.6882 84.8547 44.8076 84.8547 47.4827V48.0671H102V47.4827C102 42.8006 100.565 38.6033 97.6936 34.8943C94.8227 31.1852 90.8342 28.3014 85.7346 26.2365C80.6318 24.1748 74.845 23.144 68.3773 23.144C61.5179 23.144 55.4967 24.3129 50.3104 26.6572C45.1241 28.9982 41.1099 32.3027 38.2647 36.5674C35.4226 40.832 34 45.8096 34 51.4969V51.9143C34 57.6048 35.4226 62.5792 38.2647 66.847C41.1099 71.1117 45.1241 74.4033 50.3104 76.7155C53.2648 78.0353 56.5243 78.9345 60.0247 79.4997L56.1582 93.0933H72.9695L76.8135 79.5093C79.9799 78.9987 82.9664 78.2087 85.7346 77.0912C90.8342 75.0295 94.8227 72.1554 97.6936 68.4752C100.565 64.7982 102 60.6427 102 56.012V55.4275H84.8547Z" fill="#F0F0F0" /></g><rect x="3" y="3" width="130" height="130" rx="11" stroke="#FF41AF" stroke-width="6" /><defs><clipPath id="clip0_143_594"><rect x="6" y="6" width="124" height="124" rx="8" fill="white" /></clipPath></defs></svg><svg width="136" height="136" viewBox="0 0 136 136" fill="none" xmlns="http://www.w3.org/2000/svg" x="136"><g clip-path="url(#clip0_230_906)"><rect x="6" y="6" width="124" height="124" rx="8" fill="#F0F0F0" /><path d="M16.0938 102.547C16.7292 101.865 17.5391 101.523 18.5234 101.523C19.5911 101.523 20.4401 101.938 21.0703 102.766C21.7005 103.589 22.0156 104.661 22.0156 105.984C22.0156 107.266 21.7005 108.289 21.0703 109.055C20.4401 109.815 19.5859 110.195 18.5078 110.195C17.487 110.195 16.6823 109.865 16.0938 109.203V113.172H12.9141V109.219C12.2474 109.87 11.4349 110.195 10.4766 110.195C9.41406 110.195 8.56771 109.784 7.9375 108.961C7.30729 108.133 6.99219 107.055 6.99219 105.727C6.99219 104.445 7.30729 103.424 7.9375 102.664C8.56771 101.904 9.41927 101.523 10.4922 101.523C11.5078 101.523 12.3151 101.875 12.9141 102.578V98.5469H16.0938V102.547ZM17.5312 107.844C17.9479 107.844 18.2682 107.669 18.4922 107.32C18.7161 106.971 18.8281 106.505 18.8281 105.922C18.8281 104.557 18.3802 103.875 17.4844 103.875C17.0938 103.875 16.7578 104.023 16.4766 104.32C16.2005 104.617 16.0625 105.141 16.0625 105.891C16.0625 106.448 16.1875 106.914 16.4375 107.289C16.6875 107.659 17.0521 107.844 17.5312 107.844ZM11.5156 107.844C11.9115 107.844 12.2474 107.695 12.5234 107.398C12.8047 107.096 12.9453 106.57 12.9453 105.82C12.9453 105.263 12.8203 104.799 12.5703 104.43C12.3203 104.06 11.9531 103.875 11.4688 103.875C11.0573 103.875 10.737 104.049 10.5078 104.398C10.2839 104.742 10.1719 105.206 10.1719 105.789C10.1719 107.159 10.6198 107.844 11.5156 107.844ZM23.5938 113.156V101.703H26.5703V102.93C26.9818 102.414 27.3594 102.065 27.7031 101.883C28.1667 101.638 28.6797 101.516 29.2422 101.516C30.3516 101.516 31.2083 101.94 31.8125 102.789C32.4219 103.638 32.7266 104.688 32.7266 105.938C32.7266 107.318 32.3958 108.372 31.7344 109.102C31.0729 109.826 30.237 110.188 29.2266 110.188C28.737 110.188 28.2891 110.104 27.8828 109.938C27.4818 109.771 27.1224 109.523 26.8047 109.195V113.156H23.5938ZM26.7812 105.875C26.7812 106.531 26.9193 107.018 27.1953 107.336C27.4714 107.654 27.8203 107.812 28.2422 107.812C28.612 107.812 28.9219 107.661 29.1719 107.359C29.4219 107.052 29.5469 106.534 29.5469 105.805C29.5469 105.133 29.4167 104.641 29.1562 104.328C28.8958 104.01 28.5781 103.852 28.2031 103.852C27.7969 103.852 27.4583 104.01 27.1875 104.328C26.9167 104.646 26.7812 105.161 26.7812 105.875ZM37.1484 104.391L34.1094 104.07C34.224 103.539 34.388 103.122 34.6016 102.82C34.8203 102.513 35.1328 102.247 35.5391 102.023C35.8307 101.862 36.2318 101.737 36.7422 101.648C37.2526 101.56 37.8047 101.516 38.3984 101.516C39.3516 101.516 40.1172 101.57 40.6953 101.68C41.2734 101.784 41.7552 102.005 42.1406 102.344C42.4115 102.578 42.625 102.911 42.7812 103.344C42.9375 103.771 43.0156 104.18 43.0156 104.57V108.234C43.0156 108.625 43.0391 108.932 43.0859 109.156C43.138 109.375 43.2474 109.656 43.4141 110H40.4297C40.3099 109.786 40.2318 109.625 40.1953 109.516C40.1589 109.401 40.1224 109.224 40.0859 108.984C39.6693 109.385 39.2552 109.672 38.8438 109.844C38.2812 110.073 37.6276 110.188 36.8828 110.188C35.8932 110.188 35.1406 109.958 34.625 109.5C34.1146 109.042 33.8594 108.477 33.8594 107.805C33.8594 107.174 34.0443 106.656 34.4141 106.25C34.7839 105.844 35.4661 105.542 36.4609 105.344C37.6536 105.104 38.4271 104.938 38.7812 104.844C39.1354 104.745 39.5104 104.617 39.9062 104.461C39.9062 104.07 39.8255 103.797 39.6641 103.641C39.5026 103.484 39.2188 103.406 38.8125 103.406C38.2917 103.406 37.901 103.49 37.6406 103.656C37.4375 103.786 37.2734 104.031 37.1484 104.391ZM39.9062 106.062C39.4688 106.219 39.013 106.357 38.5391 106.477C37.8932 106.648 37.4844 106.818 37.3125 106.984C37.1354 107.156 37.0469 107.352 37.0469 107.57C37.0469 107.82 37.1328 108.026 37.3047 108.188C37.4818 108.344 37.7396 108.422 38.0781 108.422C38.4323 108.422 38.7604 108.336 39.0625 108.164C39.3698 107.992 39.5859 107.784 39.7109 107.539C39.8411 107.289 39.9062 106.966 39.9062 106.57V106.062ZM54.2969 110H51.1094V106.867H48.2188V110H45.0312V101.711H48.2188V104.547H51.1094V101.711H54.2969V110ZM66.2812 112.367H64.0703V110H56.2812V101.711H59.4609V107.68H61.8828V101.711H65.0625V107.68H66.2812V112.367ZM66.4531 101.703H69.8125L71.5234 107.227L73.1094 101.703H76.2422L72.9531 110.57C72.5781 111.581 72.1953 112.263 71.8047 112.617C71.2526 113.117 70.4115 113.367 69.2812 113.367C68.8229 113.367 68.1146 113.305 67.1562 113.18L66.9062 110.961C67.3646 111.107 67.875 111.18 68.4375 111.18C68.8125 111.18 69.1146 111.094 69.3438 110.922C69.5781 110.75 69.776 110.443 69.9375 110L66.4531 101.703ZM84.8359 105.711C85.3307 105.867 85.724 106.112 86.0156 106.445C86.3073 106.773 86.4531 107.138 86.4531 107.539C86.4531 108.404 86.0391 109.062 85.2109 109.516C84.3828 109.969 83.1745 110.195 81.5859 110.195C80.2526 110.195 79.2031 109.951 78.4375 109.461C77.6771 108.966 77.1276 108.224 76.7891 107.234L79.8125 106.898C79.9167 107.19 80.1302 107.451 80.4531 107.68C80.7812 107.904 81.1536 108.016 81.5703 108.016C82.638 108.016 83.1719 107.75 83.1719 107.219C83.1719 107.036 83.0703 106.891 82.8672 106.781C82.6641 106.667 82.3984 106.609 82.0703 106.609H80.6875V104.977H82.1016C82.3776 104.977 82.6302 104.919 82.8594 104.805C83.0885 104.69 83.2031 104.544 83.2031 104.367C83.2031 104.169 83.0677 104.008 82.7969 103.883C82.5312 103.758 82.1589 103.695 81.6797 103.695C81.2109 103.695 80.8151 103.794 80.4922 103.992C80.1693 104.185 79.9635 104.417 79.875 104.688L76.9453 104.289C77.2318 103.346 77.7552 102.651 78.5156 102.203C79.276 101.75 80.3255 101.523 81.6641 101.523C83.0547 101.523 84.1432 101.75 84.9297 102.203C85.7214 102.656 86.1172 103.229 86.1172 103.922C86.1172 104.755 85.6901 105.352 84.8359 105.711ZM94.2031 106.758L97.2266 107.102C97.0599 107.732 96.7865 108.279 96.4062 108.742C96.026 109.201 95.5391 109.557 94.9453 109.812C94.3568 110.068 93.6068 110.195 92.6953 110.195C91.8151 110.195 91.0807 110.115 90.4922 109.953C89.9089 109.786 89.4062 109.521 88.9844 109.156C88.5625 108.786 88.2318 108.354 87.9922 107.859C87.7526 107.365 87.6328 106.708 87.6328 105.891C87.6328 105.036 87.7786 104.326 88.0703 103.758C88.2839 103.341 88.5755 102.969 88.9453 102.641C89.3151 102.307 89.6953 102.06 90.0859 101.898C90.7057 101.643 91.5 101.516 92.4688 101.516C93.8229 101.516 94.8542 101.758 95.5625 102.242C96.276 102.727 96.776 103.435 97.0625 104.367L94.0703 104.766C93.9766 104.411 93.8047 104.146 93.5547 103.969C93.3099 103.786 92.9792 103.695 92.5625 103.695C92.0365 103.695 91.6094 103.885 91.2812 104.266C90.9583 104.641 90.7969 105.211 90.7969 105.977C90.7969 106.659 90.9583 107.177 91.2812 107.531C91.6042 107.885 92.0156 108.062 92.5156 108.062C92.9323 108.062 93.2812 107.956 93.5625 107.742C93.849 107.529 94.0625 107.201 94.2031 106.758ZM107.922 110H104.336L103.117 107.711C102.924 107.346 102.734 107.117 102.547 107.023C102.365 106.93 102.138 106.883 101.867 106.883V110H98.6875V101.711H101.867V104.703C102.128 104.677 102.32 104.591 102.445 104.445C102.57 104.299 102.75 103.979 102.984 103.484C103.224 102.99 103.438 102.628 103.625 102.398C103.812 102.169 104.052 101.997 104.344 101.883C104.635 101.768 105 101.695 105.438 101.664C105.875 101.633 106.526 101.617 107.391 101.617V103.875H107.25C106.823 103.875 106.497 103.893 106.273 103.93C106.049 103.961 105.87 104.031 105.734 104.141C105.599 104.25 105.443 104.474 105.266 104.812C105.089 105.151 104.94 105.388 104.82 105.523C104.706 105.654 104.534 105.742 104.305 105.789C104.747 105.831 105.089 105.927 105.328 106.078C105.568 106.224 105.93 106.701 106.414 107.508L107.922 110ZM118.234 110H115.227V105.922L112.102 110H109.078V101.711H112.086V105.844L115.242 101.711H118.234V110ZM129.531 110H126.523V105.922L123.398 110H120.375V101.711H123.383V105.844L126.539 101.711H129.531V110ZM127.516 98.3516C127.5 99.1068 127.237 99.6875 126.727 100.094C126.216 100.5 125.609 100.703 124.906 100.703C124.083 100.703 123.44 100.497 122.977 100.086C122.513 99.6693 122.25 99.0911 122.188 98.3516H123.531C123.688 98.9089 124.125 99.1875 124.844 99.1875C125.24 99.1875 125.549 99.1328 125.773 99.0234C126.003 98.9089 126.156 98.6849 126.234 98.3516H127.516ZM57.3594 125H54.1797V121.781H54.0625C53.8385 121.781 53.6615 121.844 53.5312 121.969C53.4062 122.089 53.2786 122.273 53.1484 122.523L51.875 125H48.3516L49.5859 122.602C49.9505 121.888 50.4297 121.497 51.0234 121.43C50.3516 121.326 49.8385 121.047 49.4844 120.594C49.1354 120.135 48.9609 119.635 48.9609 119.094C48.9609 118.557 49.0938 118.083 49.3594 117.672C49.6302 117.255 50.0208 116.992 50.5312 116.883C51.0469 116.768 51.6953 116.711 52.4766 116.711H57.3594V125ZM54.1797 119.898V118.602H53.1875C52.7188 118.602 52.4271 118.659 52.3125 118.773C52.1979 118.883 52.1406 119.039 52.1406 119.242C52.1406 119.68 52.526 119.898 53.2969 119.898H54.1797ZM66.9609 120.711C67.4557 120.867 67.849 121.112 68.1406 121.445C68.4323 121.773 68.5781 122.138 68.5781 122.539C68.5781 123.404 68.1641 124.062 67.3359 124.516C66.5078 124.969 65.2995 125.195 63.7109 125.195C62.3776 125.195 61.3281 124.951 60.5625 124.461C59.8021 123.966 59.2526 123.224 58.9141 122.234L61.9375 121.898C62.0417 122.19 62.2552 122.451 62.5781 122.68C62.9062 122.904 63.2786 123.016 63.6953 123.016C64.763 123.016 65.2969 122.75 65.2969 122.219C65.2969 122.036 65.1953 121.891 64.9922 121.781C64.7891 121.667 64.5234 121.609 64.1953 121.609H62.8125V119.977H64.2266C64.5026 119.977 64.7552 119.919 64.9844 119.805C65.2135 119.69 65.3281 119.544 65.3281 119.367C65.3281 119.169 65.1927 119.008 64.9219 118.883C64.6562 118.758 64.2839 118.695 63.8047 118.695C63.3359 118.695 62.9401 118.794 62.6172 118.992C62.2943 119.185 62.0885 119.417 62 119.688L59.0703 119.289C59.3568 118.346 59.8802 117.651 60.6406 117.203C61.401 116.75 62.4505 116.523 63.7891 116.523C65.1797 116.523 66.2682 116.75 67.0547 117.203C67.8464 117.656 68.2422 118.229 68.2422 118.922C68.2422 119.755 67.8151 120.352 66.9609 120.711ZM73.4375 119.656H74.8906C77.3438 119.656 78.5703 120.552 78.5703 122.344C78.5703 124.115 77.375 125 74.9844 125H70.25V116.711H73.4375V119.656ZM73.4375 123.047H74.4766C74.737 123.047 74.9479 122.987 75.1094 122.867C75.276 122.747 75.3594 122.573 75.3594 122.344C75.3594 121.844 75.0651 121.594 74.4766 121.594H73.4375V123.047ZM79.4766 116.703H82.6562V125H79.4766V116.703ZM93.9219 125H90.3359L89.1172 122.711C88.9245 122.346 88.7344 122.117 88.5469 122.023C88.3646 121.93 88.138 121.883 87.8672 121.883V125H84.6875V116.711H87.8672V119.703C88.1276 119.677 88.3203 119.591 88.4453 119.445C88.5703 119.299 88.75 118.979 88.9844 118.484C89.224 117.99 89.4375 117.628 89.625 117.398C89.8125 117.169 90.0521 116.997 90.3438 116.883C90.6354 116.768 91 116.695 91.4375 116.664C91.875 116.633 92.526 116.617 93.3906 116.617V118.875H93.25C92.8229 118.875 92.4974 118.893 92.2734 118.93C92.0495 118.961 91.8698 119.031 91.7344 119.141C91.599 119.25 91.4427 119.474 91.2656 119.812C91.0885 120.151 90.9401 120.388 90.8203 120.523C90.7057 120.654 90.5339 120.742 90.3047 120.789C90.7474 120.831 91.0885 120.927 91.3281 121.078C91.5677 121.224 91.9297 121.701 92.4141 122.508L93.9219 125Z" fill="#FF41AF" /><path d="M84.8547 55.4275V56.012C84.8547 58.748 83.4192 60.8515 80.5483 62.3287C77.6741 63.8091 73.6182 64.5445 68.3773 64.5445C62.4653 64.5445 58.1171 63.5426 55.3297 61.5355C52.539 59.5252 51.1485 56.4038 51.1485 52.168V51.3299C51.1485 47.0941 52.5551 43.9406 55.3714 41.8789C58.1878 39.814 62.4942 38.7832 68.2938 38.7832C73.3677 38.7832 77.3948 39.5635 80.3813 41.1242C83.3614 42.6882 84.8547 44.8076 84.8547 47.4827V48.0671H102V47.4827C102 42.8006 100.565 38.6033 97.6936 34.8943C94.8227 31.1852 90.8342 28.3014 85.7346 26.2365C80.6318 24.1748 74.845 23.144 68.3773 23.144C61.5179 23.144 55.4967 24.3129 50.3104 26.6572C45.1241 28.9982 41.1099 32.3027 38.2647 36.5674C35.4226 40.832 34 45.8096 34 51.4969V51.9143C34 57.6048 35.4226 62.5792 38.2647 66.847C41.1099 71.1117 45.1241 74.4033 50.3104 76.7155C53.2648 78.0353 56.5243 78.9345 60.0247 79.4997L56.1582 93.0933H72.9695L76.8135 79.5093C79.9799 78.9987 82.9664 78.2087 85.7346 77.0912C90.8342 75.0295 94.8227 72.1554 97.6936 68.4752C100.565 64.7982 102 60.6427 102 56.012V55.4275H84.8547Z" fill="#FF41AF" /></g><rect x="3" y="3" width="130" height="130" rx="11" stroke="#FF41AF" stroke-width="6" /><defs><clipPath id="clip0_230_906"><rect x="6" y="6" width="124" height="124" rx="8" fill="white" /></clipPath></defs></svg><svg width="136" height="136" viewBox="0 0 136 136" fill="none" xmlns="http://www.w3.org/2000/svg" x="272"><g clip-path="url(#clip0_230_905)"><rect x="6" y="6" width="124" height="124" rx="8" fill="#F0F0F0" /><path d="M16.0938 102.547C16.7292 101.865 17.5391 101.523 18.5234 101.523C19.5911 101.523 20.4401 101.938 21.0703 102.766C21.7005 103.589 22.0156 104.661 22.0156 105.984C22.0156 107.266 21.7005 108.289 21.0703 109.055C20.4401 109.815 19.5859 110.195 18.5078 110.195C17.487 110.195 16.6823 109.865 16.0938 109.203V113.172H12.9141V109.219C12.2474 109.87 11.4349 110.195 10.4766 110.195C9.41406 110.195 8.56771 109.784 7.9375 108.961C7.30729 108.133 6.99219 107.055 6.99219 105.727C6.99219 104.445 7.30729 103.424 7.9375 102.664C8.56771 101.904 9.41927 101.523 10.4922 101.523C11.5078 101.523 12.3151 101.875 12.9141 102.578V98.5469H16.0938V102.547ZM17.5312 107.844C17.9479 107.844 18.2682 107.669 18.4922 107.32C18.7161 106.971 18.8281 106.505 18.8281 105.922C18.8281 104.557 18.3802 103.875 17.4844 103.875C17.0938 103.875 16.7578 104.023 16.4766 104.32C16.2005 104.617 16.0625 105.141 16.0625 105.891C16.0625 106.448 16.1875 106.914 16.4375 107.289C16.6875 107.659 17.0521 107.844 17.5312 107.844ZM11.5156 107.844C11.9115 107.844 12.2474 107.695 12.5234 107.398C12.8047 107.096 12.9453 106.57 12.9453 105.82C12.9453 105.263 12.8203 104.799 12.5703 104.43C12.3203 104.06 11.9531 103.875 11.4688 103.875C11.0573 103.875 10.737 104.049 10.5078 104.398C10.2839 104.742 10.1719 105.206 10.1719 105.789C10.1719 107.159 10.6198 107.844 11.5156 107.844ZM23.5938 113.156V101.703H26.5703V102.93C26.9818 102.414 27.3594 102.065 27.7031 101.883C28.1667 101.638 28.6797 101.516 29.2422 101.516C30.3516 101.516 31.2083 101.94 31.8125 102.789C32.4219 103.638 32.7266 104.688 32.7266 105.938C32.7266 107.318 32.3958 108.372 31.7344 109.102C31.0729 109.826 30.237 110.188 29.2266 110.188C28.737 110.188 28.2891 110.104 27.8828 109.938C27.4818 109.771 27.1224 109.523 26.8047 109.195V113.156H23.5938ZM26.7812 105.875C26.7812 106.531 26.9193 107.018 27.1953 107.336C27.4714 107.654 27.8203 107.812 28.2422 107.812C28.612 107.812 28.9219 107.661 29.1719 107.359C29.4219 107.052 29.5469 106.534 29.5469 105.805C29.5469 105.133 29.4167 104.641 29.1562 104.328C28.8958 104.01 28.5781 103.852 28.2031 103.852C27.7969 103.852 27.4583 104.01 27.1875 104.328C26.9167 104.646 26.7812 105.161 26.7812 105.875ZM37.1484 104.391L34.1094 104.07C34.224 103.539 34.388 103.122 34.6016 102.82C34.8203 102.513 35.1328 102.247 35.5391 102.023C35.8307 101.862 36.2318 101.737 36.7422 101.648C37.2526 101.56 37.8047 101.516 38.3984 101.516C39.3516 101.516 40.1172 101.57 40.6953 101.68C41.2734 101.784 41.7552 102.005 42.1406 102.344C42.4115 102.578 42.625 102.911 42.7812 103.344C42.9375 103.771 43.0156 104.18 43.0156 104.57V108.234C43.0156 108.625 43.0391 108.932 43.0859 109.156C43.138 109.375 43.2474 109.656 43.4141 110H40.4297C40.3099 109.786 40.2318 109.625 40.1953 109.516C40.1589 109.401 40.1224 109.224 40.0859 108.984C39.6693 109.385 39.2552 109.672 38.8438 109.844C38.2812 110.073 37.6276 110.188 36.8828 110.188C35.8932 110.188 35.1406 109.958 34.625 109.5C34.1146 109.042 33.8594 108.477 33.8594 107.805C33.8594 107.174 34.0443 106.656 34.4141 106.25C34.7839 105.844 35.4661 105.542 36.4609 105.344C37.6536 105.104 38.4271 104.938 38.7812 104.844C39.1354 104.745 39.5104 104.617 39.9062 104.461C39.9062 104.07 39.8255 103.797 39.6641 103.641C39.5026 103.484 39.2188 103.406 38.8125 103.406C38.2917 103.406 37.901 103.49 37.6406 103.656C37.4375 103.786 37.2734 104.031 37.1484 104.391ZM39.9062 106.062C39.4688 106.219 39.013 106.357 38.5391 106.477C37.8932 106.648 37.4844 106.818 37.3125 106.984C37.1354 107.156 37.0469 107.352 37.0469 107.57C37.0469 107.82 37.1328 108.026 37.3047 108.188C37.4818 108.344 37.7396 108.422 38.0781 108.422C38.4323 108.422 38.7604 108.336 39.0625 108.164C39.3698 107.992 39.5859 107.784 39.7109 107.539C39.8411 107.289 39.9062 106.966 39.9062 106.57V106.062ZM54.2969 110H51.1094V106.867H48.2188V110H45.0312V101.711H48.2188V104.547H51.1094V101.711H54.2969V110ZM66.2812 112.367H64.0703V110H56.2812V101.711H59.4609V107.68H61.8828V101.711H65.0625V107.68H66.2812V112.367ZM66.4531 101.703H69.8125L71.5234 107.227L73.1094 101.703H76.2422L72.9531 110.57C72.5781 111.581 72.1953 112.263 71.8047 112.617C71.2526 113.117 70.4115 113.367 69.2812 113.367C68.8229 113.367 68.1146 113.305 67.1562 113.18L66.9062 110.961C67.3646 111.107 67.875 111.18 68.4375 111.18C68.8125 111.18 69.1146 111.094 69.3438 110.922C69.5781 110.75 69.776 110.443 69.9375 110L66.4531 101.703ZM84.8359 105.711C85.3307 105.867 85.724 106.112 86.0156 106.445C86.3073 106.773 86.4531 107.138 86.4531 107.539C86.4531 108.404 86.0391 109.062 85.2109 109.516C84.3828 109.969 83.1745 110.195 81.5859 110.195C80.2526 110.195 79.2031 109.951 78.4375 109.461C77.6771 108.966 77.1276 108.224 76.7891 107.234L79.8125 106.898C79.9167 107.19 80.1302 107.451 80.4531 107.68C80.7812 107.904 81.1536 108.016 81.5703 108.016C82.638 108.016 83.1719 107.75 83.1719 107.219C83.1719 107.036 83.0703 106.891 82.8672 106.781C82.6641 106.667 82.3984 106.609 82.0703 106.609H80.6875V104.977H82.1016C82.3776 104.977 82.6302 104.919 82.8594 104.805C83.0885 104.69 83.2031 104.544 83.2031 104.367C83.2031 104.169 83.0677 104.008 82.7969 103.883C82.5312 103.758 82.1589 103.695 81.6797 103.695C81.2109 103.695 80.8151 103.794 80.4922 103.992C80.1693 104.185 79.9635 104.417 79.875 104.688L76.9453 104.289C77.2318 103.346 77.7552 102.651 78.5156 102.203C79.276 101.75 80.3255 101.523 81.6641 101.523C83.0547 101.523 84.1432 101.75 84.9297 102.203C85.7214 102.656 86.1172 103.229 86.1172 103.922C86.1172 104.755 85.6901 105.352 84.8359 105.711ZM94.2031 106.758L97.2266 107.102C97.0599 107.732 96.7865 108.279 96.4062 108.742C96.026 109.201 95.5391 109.557 94.9453 109.812C94.3568 110.068 93.6068 110.195 92.6953 110.195C91.8151 110.195 91.0807 110.115 90.4922 109.953C89.9089 109.786 89.4062 109.521 88.9844 109.156C88.5625 108.786 88.2318 108.354 87.9922 107.859C87.7526 107.365 87.6328 106.708 87.6328 105.891C87.6328 105.036 87.7786 104.326 88.0703 103.758C88.2839 103.341 88.5755 102.969 88.9453 102.641C89.3151 102.307 89.6953 102.06 90.0859 101.898C90.7057 101.643 91.5 101.516 92.4688 101.516C93.8229 101.516 94.8542 101.758 95.5625 102.242C96.276 102.727 96.776 103.435 97.0625 104.367L94.0703 104.766C93.9766 104.411 93.8047 104.146 93.5547 103.969C93.3099 103.786 92.9792 103.695 92.5625 103.695C92.0365 103.695 91.6094 103.885 91.2812 104.266C90.9583 104.641 90.7969 105.211 90.7969 105.977C90.7969 106.659 90.9583 107.177 91.2812 107.531C91.6042 107.885 92.0156 108.062 92.5156 108.062C92.9323 108.062 93.2812 107.956 93.5625 107.742C93.849 107.529 94.0625 107.201 94.2031 106.758ZM107.922 110H104.336L103.117 107.711C102.924 107.346 102.734 107.117 102.547 107.023C102.365 106.93 102.138 106.883 101.867 106.883V110H98.6875V101.711H101.867V104.703C102.128 104.677 102.32 104.591 102.445 104.445C102.57 104.299 102.75 103.979 102.984 103.484C103.224 102.99 103.438 102.628 103.625 102.398C103.812 102.169 104.052 101.997 104.344 101.883C104.635 101.768 105 101.695 105.438 101.664C105.875 101.633 106.526 101.617 107.391 101.617V103.875H107.25C106.823 103.875 106.497 103.893 106.273 103.93C106.049 103.961 105.87 104.031 105.734 104.141C105.599 104.25 105.443 104.474 105.266 104.812C105.089 105.151 104.94 105.388 104.82 105.523C104.706 105.654 104.534 105.742 104.305 105.789C104.747 105.831 105.089 105.927 105.328 106.078C105.568 106.224 105.93 106.701 106.414 107.508L107.922 110ZM118.234 110H115.227V105.922L112.102 110H109.078V101.711H112.086V105.844L115.242 101.711H118.234V110ZM129.531 110H126.523V105.922L123.398 110H120.375V101.711H123.383V105.844L126.539 101.711H129.531V110ZM127.516 98.3516C127.5 99.1068 127.237 99.6875 126.727 100.094C126.216 100.5 125.609 100.703 124.906 100.703C124.083 100.703 123.44 100.497 122.977 100.086C122.513 99.6693 122.25 99.0911 122.188 98.3516H123.531C123.688 98.9089 124.125 99.1875 124.844 99.1875C125.24 99.1875 125.549 99.1328 125.773 99.0234C126.003 98.9089 126.156 98.6849 126.234 98.3516H127.516ZM57.3594 125H54.1797V121.781H54.0625C53.8385 121.781 53.6615 121.844 53.5312 121.969C53.4062 122.089 53.2786 122.273 53.1484 122.523L51.875 125H48.3516L49.5859 122.602C49.9505 121.888 50.4297 121.497 51.0234 121.43C50.3516 121.326 49.8385 121.047 49.4844 120.594C49.1354 120.135 48.9609 119.635 48.9609 119.094C48.9609 118.557 49.0938 118.083 49.3594 117.672C49.6302 117.255 50.0208 116.992 50.5312 116.883C51.0469 116.768 51.6953 116.711 52.4766 116.711H57.3594V125ZM54.1797 119.898V118.602H53.1875C52.7188 118.602 52.4271 118.659 52.3125 118.773C52.1979 118.883 52.1406 119.039 52.1406 119.242C52.1406 119.68 52.526 119.898 53.2969 119.898H54.1797ZM66.9609 120.711C67.4557 120.867 67.849 121.112 68.1406 121.445C68.4323 121.773 68.5781 122.138 68.5781 122.539C68.5781 123.404 68.1641 124.062 67.3359 124.516C66.5078 124.969 65.2995 125.195 63.7109 125.195C62.3776 125.195 61.3281 124.951 60.5625 124.461C59.8021 123.966 59.2526 123.224 58.9141 122.234L61.9375 121.898C62.0417 122.19 62.2552 122.451 62.5781 122.68C62.9062 122.904 63.2786 123.016 63.6953 123.016C64.763 123.016 65.2969 122.75 65.2969 122.219C65.2969 122.036 65.1953 121.891 64.9922 121.781C64.7891 121.667 64.5234 121.609 64.1953 121.609H62.8125V119.977H64.2266C64.5026 119.977 64.7552 119.919 64.9844 119.805C65.2135 119.69 65.3281 119.544 65.3281 119.367C65.3281 119.169 65.1927 119.008 64.9219 118.883C64.6562 118.758 64.2839 118.695 63.8047 118.695C63.3359 118.695 62.9401 118.794 62.6172 118.992C62.2943 119.185 62.0885 119.417 62 119.688L59.0703 119.289C59.3568 118.346 59.8802 117.651 60.6406 117.203C61.401 116.75 62.4505 116.523 63.7891 116.523C65.1797 116.523 66.2682 116.75 67.0547 117.203C67.8464 117.656 68.2422 118.229 68.2422 118.922C68.2422 119.755 67.8151 120.352 66.9609 120.711ZM73.4375 119.656H74.8906C77.3438 119.656 78.5703 120.552 78.5703 122.344C78.5703 124.115 77.375 125 74.9844 125H70.25V116.711H73.4375V119.656ZM73.4375 123.047H74.4766C74.737 123.047 74.9479 122.987 75.1094 122.867C75.276 122.747 75.3594 122.573 75.3594 122.344C75.3594 121.844 75.0651 121.594 74.4766 121.594H73.4375V123.047ZM79.4766 116.703H82.6562V125H79.4766V116.703ZM93.9219 125H90.3359L89.1172 122.711C88.9245 122.346 88.7344 122.117 88.5469 122.023C88.3646 121.93 88.138 121.883 87.8672 121.883V125H84.6875V116.711H87.8672V119.703C88.1276 119.677 88.3203 119.591 88.4453 119.445C88.5703 119.299 88.75 118.979 88.9844 118.484C89.224 117.99 89.4375 117.628 89.625 117.398C89.8125 117.169 90.0521 116.997 90.3438 116.883C90.6354 116.768 91 116.695 91.4375 116.664C91.875 116.633 92.526 116.617 93.3906 116.617V118.875H93.25C92.8229 118.875 92.4974 118.893 92.2734 118.93C92.0495 118.961 91.8698 119.031 91.7344 119.141C91.599 119.25 91.4427 119.474 91.2656 119.812C91.0885 120.151 90.9401 120.388 90.8203 120.523C90.7057 120.654 90.5339 120.742 90.3047 120.789C90.7474 120.831 91.0885 120.927 91.3281 121.078C91.5677 121.224 91.9297 121.701 92.4141 122.508L93.9219 125Z" fill="#BB3B85" /><path d="M84.8547 55.4275V56.012C84.8547 58.748 83.4192 60.8515 80.5483 62.3287C77.6741 63.8091 73.6182 64.5445 68.3773 64.5445C62.4653 64.5445 58.1171 63.5426 55.3297 61.5355C52.539 59.5252 51.1485 56.4038 51.1485 52.168V51.3299C51.1485 47.0941 52.5551 43.9406 55.3714 41.8789C58.1878 39.814 62.4942 38.7832 68.2938 38.7832C73.3677 38.7832 77.3948 39.5635 80.3813 41.1242C83.3614 42.6882 84.8547 44.8076 84.8547 47.4827V48.0671H102V47.4827C102 42.8006 100.565 38.6033 97.6936 34.8943C94.8227 31.1852 90.8342 28.3014 85.7346 26.2365C80.6318 24.1748 74.845 23.144 68.3773 23.144C61.5179 23.144 55.4967 24.3129 50.3104 26.6572C45.1241 28.9982 41.1099 32.3027 38.2647 36.5674C35.4226 40.832 34 45.8096 34 51.4969V51.9143C34 57.6048 35.4226 62.5792 38.2647 66.847C41.1099 71.1117 45.1241 74.4033 50.3104 76.7155C53.2648 78.0353 56.5243 78.9345 60.0247 79.4997L56.1582 93.0933H72.9695L76.8135 79.5093C79.9799 78.9987 82.9664 78.2087 85.7346 77.0912C90.8342 75.0295 94.8227 72.1554 97.6936 68.4752C100.565 64.7982 102 60.6427 102 56.012V55.4275H84.8547Z" fill="#BB3B85" /></g><rect x="3" y="3" width="130" height="130" rx="11" stroke="#BB3B85" stroke-width="6" /><defs><clipPath id="clip0_230_905"><rect x="6" y="6" width="124" height="124" rx="8" fill="white" /></clipPath></defs></svg></svg>