<svg xmlns="http://www.w3.org/2000/svg" viewBox="0 0 408 136"><svg width="136" height="136" viewBox="0 0 136 136" fill="none" xmlns="http://www.w3.org/2000/svg" x="0"><rect x="3" y="3" width="130" height="130" rx="11" fill="#0096DA" /><rect x="3" y="3" width="130" height="130" rx="11" stroke="#0096DA" stroke-width="6" /><path d="M109 57.5C109 79.5685 90.6437 91 68 91C45.3563 91 27 79.392 27 57.5C27 35.0784 45.3563 24 68 24C90.6437 24 109 35.4315 109 57.5Z" fill="#F0F0F0" /><path d="M64.0806 43.0672H71.9195V91H64.0806V43.0672Z" fill="#0096DA" /><path d="M84.5732 47.7158L90.1161 53.2711L70.9849 72.4451L65.4419 66.8898L84.5732 47.7158Z" fill="#0096DA" /><path d="M44.7917 63.0994L50.3346 57.5441L70.7668 78.022L65.2239 83.5773L44.7917 63.0994Z" fill="#0096DA" /><path d="M28.7422 112.953C29.1224 112.667 29.6458 112.523 30.3125 112.523C31.8698 112.523 33.0547 112.935 33.8672 113.758C34.6849 114.576 35.0938 115.596 35.0938 116.82C35.0938 118.034 34.6875 119.068 33.875 119.922C33.0677 120.771 31.8802 121.195 30.3125 121.195C28.75 121.195 27.5703 120.768 26.7734 119.914C25.9766 119.055 25.5781 117.656 25.5781 115.719C25.5781 113.927 25.9219 112.479 26.6094 111.375C27.2969 110.271 28.2865 109.698 29.5781 109.656L30.5391 109.625C31.3984 109.589 31.8724 109.477 31.9609 109.289H34.4844C34.4844 110.805 33.6328 111.594 31.9297 111.656C30.7786 111.698 29.9974 111.812 29.5859 112C29.1745 112.182 28.8932 112.5 28.7422 112.953ZM30.3281 119.016C30.8385 119.016 31.2292 118.828 31.5 118.453C31.776 118.078 31.9141 117.542 31.9141 116.844C31.9141 116.151 31.7734 115.62 31.4922 115.25C31.2109 114.88 30.8333 114.695 30.3594 114.695C29.8333 114.695 29.4349 114.898 29.1641 115.305C28.8932 115.706 28.7578 116.229 28.7578 116.875C28.7578 117.547 28.8906 118.073 29.1562 118.453C29.4271 118.828 29.8177 119.016 30.3281 119.016ZM45.8984 121H42.8906V116.922L39.7656 121H36.7422V112.711H39.75V116.844L42.9062 112.711H45.8984V121ZM47.5391 116.875C47.5391 115.609 47.9661 114.568 48.8203 113.75C49.6745 112.927 50.8281 112.516 52.2812 112.516C53.9427 112.516 55.1979 112.997 56.0469 113.961C56.7292 114.737 57.0703 115.693 57.0703 116.828C57.0703 118.104 56.6458 119.151 55.7969 119.969C54.9531 120.781 53.7839 121.188 52.2891 121.188C50.9557 121.188 49.8776 120.849 49.0547 120.172C48.0443 119.333 47.5391 118.234 47.5391 116.875ZM50.7266 116.867C50.7266 117.607 50.875 118.154 51.1719 118.508C51.474 118.862 51.8516 119.039 52.3047 119.039C52.763 119.039 53.138 118.865 53.4297 118.516C53.7266 118.167 53.875 117.607 53.875 116.836C53.875 116.117 53.7266 115.583 53.4297 115.234C53.1328 114.88 52.7656 114.703 52.3281 114.703C51.8646 114.703 51.4818 114.883 51.1797 115.242C50.8776 115.596 50.7266 116.138 50.7266 116.867ZM68.1328 121H64.9531V115.031H62.5391V118.508C62.5391 119.435 62.349 120.122 61.9688 120.57C61.5938 121.018 61.0156 121.242 60.2344 121.242C59.349 121.242 58.5547 121.161 57.8516 121V118.648C58.2266 118.763 58.513 118.82 58.7109 118.82C59.138 118.82 59.3516 118.503 59.3516 117.867V112.711H68.1328V121ZM69.6641 116.875C69.6641 115.609 70.0911 114.568 70.9453 113.75C71.7995 112.927 72.9531 112.516 74.4062 112.516C76.0677 112.516 77.3229 112.997 78.1719 113.961C78.8542 114.737 79.1953 115.693 79.1953 116.828C79.1953 118.104 78.7708 119.151 77.9219 119.969C77.0781 120.781 75.9089 121.188 74.4141 121.188C73.0807 121.188 72.0026 120.849 71.1797 120.172C70.1693 119.333 69.6641 118.234 69.6641 116.875ZM72.8516 116.867C72.8516 117.607 73 118.154 73.2969 118.508C73.599 118.862 73.9766 119.039 74.4297 119.039C74.888 119.039 75.263 118.865 75.5547 118.516C75.8516 118.167 76 117.607 76 116.836C76 116.117 75.8516 115.583 75.5547 115.234C75.2578 114.88 74.8906 114.703 74.4531 114.703C73.9896 114.703 73.6068 114.883 73.3047 115.242C73.0026 115.596 72.8516 116.138 72.8516 116.867ZM87.5547 115.031H84.0234V121H80.8359V112.711H87.5547V115.031ZM98.1172 121H95.1094V116.922L91.9844 121H88.9609V112.711H91.9688V116.844L95.125 112.711H98.1172V121ZM108.211 121H105.031V117.781H104.914C104.69 117.781 104.513 117.844 104.383 117.969C104.258 118.089 104.13 118.273 104 118.523L102.727 121H99.2031L100.438 118.602C100.802 117.888 101.281 117.497 101.875 117.43C101.203 117.326 100.69 117.047 100.336 116.594C99.987 116.135 99.8125 115.635 99.8125 115.094C99.8125 114.557 99.9453 114.083 100.211 113.672C100.482 113.255 100.872 112.992 101.383 112.883C101.898 112.768 102.547 112.711 103.328 112.711H108.211V121ZM105.031 115.898V114.602H104.039C103.57 114.602 103.279 114.659 103.164 114.773C103.049 114.883 102.992 115.039 102.992 115.242C102.992 115.68 103.378 115.898 104.148 115.898H105.031Z" fill="#F0F0F0" /></svg><svg width="136" height="136" viewBox="0 0 136 136" fill="none" xmlns="http://www.w3.org/2000/svg" x="136"><rect x="3" y="3" width="130" height="130" rx="11" fill="#F0F0F0" /><rect x="3" y="3" width="130" height="130" rx="11" stroke="#0096DA" stroke-width="6" /><path d="M109 57.5C109 79.5685 90.6437 91 68 91C45.3563 91 27 79.392 27 57.5C27 35.0784 45.3563 24 68 24C90.6437 24 109 35.4315 109 57.5Z" fill="#0096DA" /><path d="M64.0806 43.0672H71.9195V91H64.0806V43.0672Z" fill="#F0F0F0" /><path d="M84.5732 47.7158L90.1161 53.2711L70.9849 72.4451L65.4419 66.8898L84.5732 47.7158Z" fill="#F0F0F0" /><path d="M44.7917 63.0994L50.3346 57.5441L70.7668 78.022L65.2239 83.5773L44.7917 63.0994Z" fill="#F0F0F0" /><path d="M28.7422 112.953C29.1224 112.667 29.6458 112.523 30.3125 112.523C31.8698 112.523 33.0547 112.935 33.8672 113.758C34.6849 114.576 35.0938 115.596 35.0938 116.82C35.0938 118.034 34.6875 119.068 33.875 119.922C33.0677 120.771 31.8802 121.195 30.3125 121.195C28.75 121.195 27.5703 120.768 26.7734 119.914C25.9766 119.055 25.5781 117.656 25.5781 115.719C25.5781 113.927 25.9219 112.479 26.6094 111.375C27.2969 110.271 28.2865 109.698 29.5781 109.656L30.5391 109.625C31.3984 109.589 31.8724 109.477 31.9609 109.289H34.4844C34.4844 110.805 33.6328 111.594 31.9297 111.656C30.7786 111.698 29.9974 111.812 29.5859 112C29.1745 112.182 28.8932 112.5 28.7422 112.953ZM30.3281 119.016C30.8385 119.016 31.2292 118.828 31.5 118.453C31.776 118.078 31.9141 117.542 31.9141 116.844C31.9141 116.151 31.7734 115.62 31.4922 115.25C31.2109 114.88 30.8333 114.695 30.3594 114.695C29.8333 114.695 29.4349 114.898 29.1641 115.305C28.8932 115.706 28.7578 116.229 28.7578 116.875C28.7578 117.547 28.8906 118.073 29.1562 118.453C29.4271 118.828 29.8177 119.016 30.3281 119.016ZM45.8984 121H42.8906V116.922L39.7656 121H36.7422V112.711H39.75V116.844L42.9062 112.711H45.8984V121ZM47.5391 116.875C47.5391 115.609 47.9661 114.568 48.8203 113.75C49.6745 112.927 50.8281 112.516 52.2812 112.516C53.9427 112.516 55.1979 112.997 56.0469 113.961C56.7292 114.737 57.0703 115.693 57.0703 116.828C57.0703 118.104 56.6458 119.151 55.7969 119.969C54.9531 120.781 53.7839 121.188 52.2891 121.188C50.9557 121.188 49.8776 120.849 49.0547 120.172C48.0443 119.333 47.5391 118.234 47.5391 116.875ZM50.7266 116.867C50.7266 117.607 50.875 118.154 51.1719 118.508C51.474 118.862 51.8516 119.039 52.3047 119.039C52.763 119.039 53.138 118.865 53.4297 118.516C53.7266 118.167 53.875 117.607 53.875 116.836C53.875 116.117 53.7266 115.583 53.4297 115.234C53.1328 114.88 52.7656 114.703 52.3281 114.703C51.8646 114.703 51.4818 114.883 51.1797 115.242C50.8776 115.596 50.7266 116.138 50.7266 116.867ZM68.1328 121H64.9531V115.031H62.5391V118.508C62.5391 119.435 62.349 120.122 61.9688 120.57C61.5938 121.018 61.0156 121.242 60.2344 121.242C59.349 121.242 58.5547 121.161 57.8516 121V118.648C58.2266 118.763 58.513 118.82 58.7109 118.82C59.138 118.82 59.3516 118.503 59.3516 117.867V112.711H68.1328V121ZM69.6641 116.875C69.6641 115.609 70.0911 114.568 70.9453 113.75C71.7995 112.927 72.9531 112.516 74.4062 112.516C76.0677 112.516 77.3229 112.997 78.1719 113.961C78.8542 114.737 79.1953 115.693 79.1953 116.828C79.1953 118.104 78.7708 119.151 77.9219 119.969C77.0781 120.781 75.9089 121.188 74.4141 121.188C73.0807 121.188 72.0026 120.849 71.1797 120.172C70.1693 119.333 69.6641 118.234 69.6641 116.875ZM72.8516 116.867C72.8516 117.607 73 118.154 73.2969 118.508C73.599 118.862 73.9766 119.039 74.4297 119.039C74.888 119.039 75.263 118.865 75.5547 118.516C75.8516 118.167 76 117.607 76 116.836C76 116.117 75.8516 115.583 75.5547 115.234C75.2578 114.88 74.8906 114.703 74.4531 114.703C73.9896 114.703 73.6068 114.883 73.3047 115.242C73.0026 115.596 72.8516 116.138 72.8516 116.867ZM87.5547 115.031H84.0234V121H80.8359V112.711H87.5547V115.031ZM98.1172 121H95.1094V116.922L91.9844 121H88.9609V112.711H91.9688V116.844L95.125 112.711H98.1172V121ZM108.211 121H105.031V117.781H104.914C104.69 117.781 104.513 117.844 104.383 117.969C104.258 118.089 104.13 118.273 104 118.523L102.727 121H99.2031L100.438 118.602C100.802 117.888 101.281 117.497 101.875 117.43C101.203 117.326 100.69 117.047 100.336 116.594C99.987 116.135 99.8125 115.635 99.8125 115.094C99.8125 114.557 99.9453 114.083 100.211 113.672C100.482 113.255 100.872 112.992 101.383 112.883C101.898 112.768 102.547 112.711 103.328 112.711H108.211V121ZM105.031 115.898V114.602H104.039C103.57 114.602 103.279 114.659 103.164 114.773C103.049 114.883 102.992 115.039 102.992 115.242C102.992 115.68 103.378 115.898 104.148 115.898H105.031Z" fill="#0096DA" /></svg><svg width="136" height="136" viewBox="0 0 136 136" fill="none" xmlns="http://www.w3.org/2000/svg" x="272"><rect x="3" y="3" width="130" height="130" rx="11" fill="#F0F0F0" /><rect x="3" y="3" width="130" height="130" rx="11" stroke="#0072B1" stroke-width="6" /><path d="M109 57.5C109 79.5685 90.6437 91 68 91C45.3563 91 27 79.392 27 57.5C27 35.0784 45.3563 24 68 24C90.6437 24 109 35.4315 109 57.5Z" fill="#0072B1" /><path d="M64.0806 43.0672H71.9195V91H64.0806V43.0672Z" fill="#F0F0F0" /><path d="M84.5732 47.7158L90.1161 53.2711L70.9849 72.4451L65.4419 66.8898L84.5732 47.7158Z" fill="#F0F0F0" /><path d="M44.7917 63.0994L50.3346 57.5441L70.7668 78.022L65.2239 83.5773L44.7917 63.0994Z" fill="#F0F0F0" /><path d="M28.7422 112.953C29.1224 112.667 29.6458 112.523 30.3125 112.523C31.8698 112.523 33.0547 112.935 33.8672 113.758C34.6849 114.576 35.0938 115.596 35.0938 116.82C35.0938 118.034 34.6875 119.068 33.875 119.922C33.0677 120.771 31.8802 121.195 30.3125 121.195C28.75 121.195 27.5703 120.768 26.7734 119.914C25.9766 119.055 25.5781 117.656 25.5781 115.719C25.5781 113.927 25.9219 112.479 26.6094 111.375C27.2969 110.271 28.2865 109.698 29.5781 109.656L30.5391 109.625C31.3984 109.589 31.8724 109.477 31.9609 109.289H34.4844C34.4844 110.805 33.6328 111.594 31.9297 111.656C30.7786 111.698 29.9974 111.812 29.5859 112C29.1745 112.182 28.8932 112.5 28.7422 112.953ZM30.3281 119.016C30.8385 119.016 31.2292 118.828 31.5 118.453C31.776 118.078 31.9141 117.542 31.9141 116.844C31.9141 116.151 31.7734 115.62 31.4922 115.25C31.2109 114.88 30.8333 114.695 30.3594 114.695C29.8333 114.695 29.4349 114.898 29.1641 115.305C28.8932 115.706 28.7578 116.229 28.7578 116.875C28.7578 117.547 28.8906 118.073 29.1562 118.453C29.4271 118.828 29.8177 119.016 30.3281 119.016ZM45.8984 121H42.8906V116.922L39.7656 121H36.7422V112.711H39.75V116.844L42.9062 112.711H45.8984V121ZM47.5391 116.875C47.5391 115.609 47.9661 114.568 48.8203 113.75C49.6745 112.927 50.8281 112.516 52.2812 112.516C53.9427 112.516 55.1979 112.997 56.0469 113.961C56.7292 114.737 57.0703 115.693 57.0703 116.828C57.0703 118.104 56.6458 119.151 55.7969 119.969C54.9531 120.781 53.7839 121.188 52.2891 121.188C50.9557 121.188 49.8776 120.849 49.0547 120.172C48.0443 119.333 47.5391 118.234 47.5391 116.875ZM50.7266 116.867C50.7266 117.607 50.875 118.154 51.1719 118.508C51.474 118.862 51.8516 119.039 52.3047 119.039C52.763 119.039 53.138 118.865 53.4297 118.516C53.7266 118.167 53.875 117.607 53.875 116.836C53.875 116.117 53.7266 115.583 53.4297 115.234C53.1328 114.88 52.7656 114.703 52.3281 114.703C51.8646 114.703 51.4818 114.883 51.1797 115.242C50.8776 115.596 50.7266 116.138 50.7266 116.867ZM68.1328 121H64.9531V115.031H62.5391V118.508C62.5391 119.435 62.349 120.122 61.9688 120.57C61.5938 121.018 61.0156 121.242 60.2344 121.242C59.349 121.242 58.5547 121.161 57.8516 121V118.648C58.2266 118.763 58.513 118.82 58.7109 118.82C59.138 118.82 59.3516 118.503 59.3516 117.867V112.711H68.1328V121ZM69.6641 116.875C69.6641 115.609 70.0911 114.568 70.9453 113.75C71.7995 112.927 72.9531 112.516 74.4062 112.516C76.0677 112.516 77.3229 112.997 78.1719 113.961C78.8542 114.737 79.1953 115.693 79.1953 116.828C79.1953 118.104 78.7708 119.151 77.9219 119.969C77.0781 120.781 75.9089 121.188 74.4141 121.188C73.0807 121.188 72.0026 120.849 71.1797 120.172C70.1693 119.333 69.6641 118.234 69.6641 116.875ZM72.8516 116.867C72.8516 117.607 73 118.154 73.2969 118.508C73.599 118.862 73.9766 119.039 74.4297 119.039C74.888 119.039 75.263 118.865 75.5547 118.516C75.8516 118.167 76 117.607 76 116.836C76 116.117 75.8516 115.583 75.5547 115.234C75.2578 114.88 74.8906 114.703 74.4531 114.703C73.9896 114.703 73.6068 114.883 73.3047 115.242C73.0026 115.596 72.8516 116.138 72.8516 116.867ZM87.5547 115.031H84.0234V121H80.8359V112.711H87.5547V115.031ZM98.1172 121H95.1094V116.922L91.9844 121H88.9609V112.711H91.9688V116.844L95.125 112.711H98.1172V121ZM108.211 121H105.031V117.781H104.914C104.69 117.781 104.513 117.844 104.383 117.969C104.258 118.089 104.13 118.273 104 118.523L102.727 121H99.2031L100.438 118.602C100.802 117.888 101.281 117.497 101.875 117.43C101.203 117.326 100.69 117.047 100.336 116.594C99.987 116.135 99.8125 115.635 99.8125 115.094C99.8125 114.557 99.9453 114.083 100.211 113.672C100.482 113.255 100.872 112.992 101.383 112.883C101.898 112.768 102.547 112.711 103.328 112.711H108.211V121ZM105.031 115.898V114.602H104.039C103.57 114.602 103.279 114.659 103.164 114.773C103.049 114.883 102.992 115.039 102.992 115.242C102.992 115.68 103.378 115.898 104.148 115.898H105.031Z" fill="#0072B1" /></svg></svg>