<svg xmlns="http://www.w3.org/2000/svg" viewBox="0 0 408 136"><svg width="136" height="136" viewBox="0 0 136 136" fill="none" xmlns="http://www.w3.org/2000/svg" x="0"><rect x="3" y="3" width="130" height="130" rx="11" fill="#FF41AF" /><rect x="3" y="3" width="130" height="130" rx="11" stroke="#FF41AF" stroke-width="6" /><rect x="36" y="23" width="64" height="64" fill="#F0F0F0" /><path d="M32.7188 110H29.7109V105.922L26.5859 110H23.5625V101.711H26.5703V105.844L29.7266 101.711H32.7188V110ZM40.9375 106.758L43.9609 107.102C43.7943 107.732 43.5208 108.279 43.1406 108.742C42.7604 109.201 42.2734 109.557 41.6797 109.812C41.0911 110.068 40.3411 110.195 39.4297 110.195C38.5495 110.195 37.8151 110.115 37.2266 109.953C36.6432 109.786 36.1406 109.521 35.7188 109.156C35.2969 108.786 34.9661 108.354 34.7266 107.859C34.487 107.365 34.3672 106.708 34.3672 105.891C34.3672 105.036 34.513 104.326 34.8047 103.758C35.0182 103.341 35.3099 102.969 35.6797 102.641C36.0495 102.307 36.4297 102.06 36.8203 101.898C37.4401 101.643 38.2344 101.516 39.2031 101.516C40.5573 101.516 41.5885 101.758 42.2969 102.242C43.0104 102.727 43.5104 103.435 43.7969 104.367L40.8047 104.766C40.7109 104.411 40.5391 104.146 40.2891 103.969C40.0443 103.786 39.7135 103.695 39.2969 103.695C38.7708 103.695 38.3438 103.885 38.0156 104.266C37.6927 104.641 37.5312 105.211 37.5312 105.977C37.5312 106.659 37.6927 107.177 38.0156 107.531C38.3385 107.885 38.75 108.062 39.25 108.062C39.6667 108.062 40.0156 107.956 40.2969 107.742C40.5833 107.529 40.7969 107.201 40.9375 106.758ZM54.6562 110H51.0703L49.8516 107.711C49.6589 107.346 49.4688 107.117 49.2812 107.023C49.099 106.93 48.8724 106.883 48.6016 106.883V110H45.4219V101.711H48.6016V104.703C48.862 104.677 49.0547 104.591 49.1797 104.445C49.3047 104.299 49.4844 103.979 49.7188 103.484C49.9583 102.99 50.1719 102.628 50.3594 102.398C50.5469 102.169 50.7865 101.997 51.0781 101.883C51.3698 101.768 51.7344 101.695 52.1719 101.664C52.6094 101.633 53.2604 101.617 54.125 101.617V103.875H53.9844C53.5573 103.875 53.2318 103.893 53.0078 103.93C52.7839 103.961 52.6042 104.031 52.4688 104.141C52.3333 104.25 52.1771 104.474 52 104.812C51.8229 105.151 51.6745 105.388 51.5547 105.523C51.4401 105.654 51.2682 105.742 51.0391 105.789C51.4818 105.831 51.8229 105.927 52.0625 106.078C52.3021 106.224 52.6641 106.701 53.1484 107.508L54.6562 110ZM54.7812 101.703H58.1406L59.8516 107.227L61.4375 101.703H64.5703L61.2812 110.57C60.9062 111.581 60.5234 112.263 60.1328 112.617C59.5807 113.117 58.7396 113.367 57.6094 113.367C57.151 113.367 56.4427 113.305 55.4844 113.18L55.2344 110.961C55.6927 111.107 56.2031 111.18 56.7656 111.18C57.1406 111.18 57.4427 111.094 57.6719 110.922C57.9062 110.75 58.1042 110.443 58.2656 110L54.7812 101.703ZM71.6719 106.758L74.6953 107.102C74.5286 107.732 74.2552 108.279 73.875 108.742C73.4948 109.201 73.0078 109.557 72.4141 109.812C71.8255 110.068 71.0755 110.195 70.1641 110.195C69.2839 110.195 68.5495 110.115 67.9609 109.953C67.3776 109.786 66.875 109.521 66.4531 109.156C66.0312 108.786 65.7005 108.354 65.4609 107.859C65.2214 107.365 65.1016 106.708 65.1016 105.891C65.1016 105.036 65.2474 104.326 65.5391 103.758C65.7526 103.341 66.0443 102.969 66.4141 102.641C66.7839 102.307 67.1641 102.06 67.5547 101.898C68.1745 101.643 68.9688 101.516 69.9375 101.516C71.2917 101.516 72.3229 101.758 73.0312 102.242C73.7448 102.727 74.2448 103.435 74.5312 104.367L71.5391 104.766C71.4453 104.411 71.2734 104.146 71.0234 103.969C70.7786 103.786 70.4479 103.695 70.0312 103.695C69.5052 103.695 69.0781 103.885 68.75 104.266C68.4271 104.641 68.2656 105.211 68.2656 105.977C68.2656 106.659 68.4271 107.177 68.75 107.531C69.0729 107.885 69.4844 108.062 69.9844 108.062C70.401 108.062 70.75 107.956 71.0312 107.742C71.3177 107.529 71.5312 107.201 71.6719 106.758ZM82.3438 106.758L85.3672 107.102C85.2005 107.732 84.9271 108.279 84.5469 108.742C84.1667 109.201 83.6797 109.557 83.0859 109.812C82.4974 110.068 81.7474 110.195 80.8359 110.195C79.9557 110.195 79.2214 110.115 78.6328 109.953C78.0495 109.786 77.5469 109.521 77.125 109.156C76.7031 108.786 76.3724 108.354 76.1328 107.859C75.8932 107.365 75.7734 106.708 75.7734 105.891C75.7734 105.036 75.9193 104.326 76.2109 103.758C76.4245 103.341 76.7161 102.969 77.0859 102.641C77.4557 102.307 77.8359 102.06 78.2266 101.898C78.8464 101.643 79.6406 101.516 80.6094 101.516C81.9635 101.516 82.9948 101.758 83.7031 102.242C84.4167 102.727 84.9167 103.435 85.2031 104.367L82.2109 104.766C82.1172 104.411 81.9453 104.146 81.6953 103.969C81.4505 103.786 81.1198 103.695 80.7031 103.695C80.1771 103.695 79.75 103.885 79.4219 104.266C79.099 104.641 78.9375 105.211 78.9375 105.977C78.9375 106.659 79.099 107.177 79.4219 107.531C79.7448 107.885 80.1562 108.062 80.6562 108.062C81.0729 108.062 81.4219 107.956 81.7031 107.742C81.9896 107.529 82.2031 107.201 82.3438 106.758ZM93.8203 104.031H91.5156V110H88.3281V104.031H86.0234V101.711H93.8203V104.031ZM101.211 105.586C101.841 105.648 102.341 105.857 102.711 106.211C103.086 106.565 103.273 107.039 103.273 107.633C103.273 108.424 103.013 109.018 102.492 109.414C101.971 109.805 101.036 110 99.6875 110H94.9531V101.711H100.07C100.997 101.711 101.703 101.888 102.188 102.242C102.677 102.596 102.922 103.091 102.922 103.727C102.922 104.174 102.763 104.565 102.445 104.898C102.128 105.227 101.716 105.445 101.211 105.555V105.586ZM98.1328 104.867H98.9375C99.4688 104.867 99.7344 104.625 99.7344 104.141C99.7344 103.75 99.4531 103.555 98.8906 103.555H98.1328V104.867ZM98.1328 108.047H99.1797C99.4401 108.047 99.651 107.987 99.8125 107.867C99.974 107.747 100.055 107.573 100.055 107.344C100.055 106.844 99.763 106.594 99.1797 106.594H98.1328V108.047ZM104.406 105.875C104.406 104.609 104.833 103.568 105.688 102.75C106.542 101.927 107.695 101.516 109.148 101.516C110.81 101.516 112.065 101.997 112.914 102.961C113.596 103.737 113.938 104.693 113.938 105.828C113.938 107.104 113.513 108.151 112.664 108.969C111.82 109.781 110.651 110.188 109.156 110.188C107.823 110.188 106.745 109.849 105.922 109.172C104.911 108.333 104.406 107.234 104.406 105.875ZM107.594 105.867C107.594 106.607 107.742 107.154 108.039 107.508C108.341 107.862 108.719 108.039 109.172 108.039C109.63 108.039 110.005 107.865 110.297 107.516C110.594 107.167 110.742 106.607 110.742 105.836C110.742 105.117 110.594 104.583 110.297 104.234C110 103.88 109.633 103.703 109.195 103.703C108.732 103.703 108.349 103.883 108.047 104.242C107.745 104.596 107.594 105.138 107.594 105.867ZM48.6328 113.352H50.6172C49.9349 114.862 49.4427 116.258 49.1406 117.539C48.8854 118.628 48.7578 119.789 48.7578 121.023C48.7578 123.404 49.3776 125.852 50.6172 128.367H48.6328C47.6224 126.935 46.9115 125.641 46.5 124.484C46.0938 123.323 45.8906 122.107 45.8906 120.836C45.8906 119.518 46.1042 118.266 46.5312 117.078C46.9635 115.891 47.6641 114.648 48.6328 113.352ZM63.7109 125H61.0234V119.797L59.0547 125H57.1406L55.0078 119.797V125H52.3203V116.711H56.1172L58.1016 121.477L59.9219 116.711H63.7109V125ZM65.0391 116.703H68.8125L70.1328 119.016L71.6641 116.703H75.1719L72.3438 120.656L75.375 125H71.6641L70.1328 122.328L68.3281 125H64.8828L67.8984 120.656L65.0391 116.703ZM85.6641 125H82.0781L80.8594 122.711C80.6667 122.346 80.4766 122.117 80.2891 122.023C80.1068 121.93 79.8802 121.883 79.6094 121.883V125H76.4297V116.711H79.6094V119.703C79.8698 119.677 80.0625 119.591 80.1875 119.445C80.3125 119.299 80.4922 118.979 80.7266 118.484C80.9661 117.99 81.1797 117.628 81.3672 117.398C81.5547 117.169 81.7943 116.997 82.0859 116.883C82.3776 116.768 82.7422 116.695 83.1797 116.664C83.6172 116.633 84.2682 116.617 85.1328 116.617V118.875H84.9922C84.5651 118.875 84.2396 118.893 84.0156 118.93C83.7917 118.961 83.612 119.031 83.4766 119.141C83.3411 119.25 83.1849 119.474 83.0078 119.812C82.8307 120.151 82.6823 120.388 82.5625 120.523C82.4479 120.654 82.276 120.742 82.0469 120.789C82.4896 120.831 82.8307 120.927 83.0703 121.078C83.3099 121.224 83.6719 121.701 84.1562 122.508L85.6641 125ZM88.3594 113.352C89.3281 114.648 90.026 115.891 90.4531 117.078C90.8854 118.266 91.1016 119.518 91.1016 120.836C91.1016 122.107 90.8958 123.323 90.4844 124.484C90.0781 125.641 89.3698 126.935 88.3594 128.367H86.375C87.6146 125.852 88.2344 123.404 88.2344 121.023C88.2344 119.789 88.1068 118.628 87.8516 117.539C87.5495 116.258 87.0573 114.862 86.375 113.352H88.3594Z" fill="#F0F0F0" /></svg><svg width="136" height="136" viewBox="0 0 136 136" fill="none" xmlns="http://www.w3.org/2000/svg" x="136"><rect x="3" y="3" width="130" height="130" rx="11" fill="#F0F0F0" /><rect x="3" y="3" width="130" height="130" rx="11" stroke="#FF41AF" stroke-width="6" /><rect x="36" y="23" width="64" height="64" fill="#FF41AF" /><path d="M32.7188 110H29.7109V105.922L26.5859 110H23.5625V101.711H26.5703V105.844L29.7266 101.711H32.7188V110ZM40.9375 106.758L43.9609 107.102C43.7943 107.732 43.5208 108.279 43.1406 108.742C42.7604 109.201 42.2734 109.557 41.6797 109.812C41.0911 110.068 40.3411 110.195 39.4297 110.195C38.5495 110.195 37.8151 110.115 37.2266 109.953C36.6432 109.786 36.1406 109.521 35.7188 109.156C35.2969 108.786 34.9661 108.354 34.7266 107.859C34.487 107.365 34.3672 106.708 34.3672 105.891C34.3672 105.036 34.513 104.326 34.8047 103.758C35.0182 103.341 35.3099 102.969 35.6797 102.641C36.0495 102.307 36.4297 102.06 36.8203 101.898C37.4401 101.643 38.2344 101.516 39.2031 101.516C40.5573 101.516 41.5885 101.758 42.2969 102.242C43.0104 102.727 43.5104 103.435 43.7969 104.367L40.8047 104.766C40.7109 104.411 40.5391 104.146 40.2891 103.969C40.0443 103.786 39.7135 103.695 39.2969 103.695C38.7708 103.695 38.3438 103.885 38.0156 104.266C37.6927 104.641 37.5312 105.211 37.5312 105.977C37.5312 106.659 37.6927 107.177 38.0156 107.531C38.3385 107.885 38.75 108.062 39.25 108.062C39.6667 108.062 40.0156 107.956 40.2969 107.742C40.5833 107.529 40.7969 107.201 40.9375 106.758ZM54.6562 110H51.0703L49.8516 107.711C49.6589 107.346 49.4688 107.117 49.2812 107.023C49.099 106.93 48.8724 106.883 48.6016 106.883V110H45.4219V101.711H48.6016V104.703C48.862 104.677 49.0547 104.591 49.1797 104.445C49.3047 104.299 49.4844 103.979 49.7188 103.484C49.9583 102.99 50.1719 102.628 50.3594 102.398C50.5469 102.169 50.7865 101.997 51.0781 101.883C51.3698 101.768 51.7344 101.695 52.1719 101.664C52.6094 101.633 53.2604 101.617 54.125 101.617V103.875H53.9844C53.5573 103.875 53.2318 103.893 53.0078 103.93C52.7839 103.961 52.6042 104.031 52.4688 104.141C52.3333 104.25 52.1771 104.474 52 104.812C51.8229 105.151 51.6745 105.388 51.5547 105.523C51.4401 105.654 51.2682 105.742 51.0391 105.789C51.4818 105.831 51.8229 105.927 52.0625 106.078C52.3021 106.224 52.6641 106.701 53.1484 107.508L54.6562 110ZM54.7812 101.703H58.1406L59.8516 107.227L61.4375 101.703H64.5703L61.2812 110.57C60.9062 111.581 60.5234 112.263 60.1328 112.617C59.5807 113.117 58.7396 113.367 57.6094 113.367C57.151 113.367 56.4427 113.305 55.4844 113.18L55.2344 110.961C55.6927 111.107 56.2031 111.18 56.7656 111.18C57.1406 111.18 57.4427 111.094 57.6719 110.922C57.9062 110.75 58.1042 110.443 58.2656 110L54.7812 101.703ZM71.6719 106.758L74.6953 107.102C74.5286 107.732 74.2552 108.279 73.875 108.742C73.4948 109.201 73.0078 109.557 72.4141 109.812C71.8255 110.068 71.0755 110.195 70.1641 110.195C69.2839 110.195 68.5495 110.115 67.9609 109.953C67.3776 109.786 66.875 109.521 66.4531 109.156C66.0312 108.786 65.7005 108.354 65.4609 107.859C65.2214 107.365 65.1016 106.708 65.1016 105.891C65.1016 105.036 65.2474 104.326 65.5391 103.758C65.7526 103.341 66.0443 102.969 66.4141 102.641C66.7839 102.307 67.1641 102.06 67.5547 101.898C68.1745 101.643 68.9688 101.516 69.9375 101.516C71.2917 101.516 72.3229 101.758 73.0312 102.242C73.7448 102.727 74.2448 103.435 74.5312 104.367L71.5391 104.766C71.4453 104.411 71.2734 104.146 71.0234 103.969C70.7786 103.786 70.4479 103.695 70.0312 103.695C69.5052 103.695 69.0781 103.885 68.75 104.266C68.4271 104.641 68.2656 105.211 68.2656 105.977C68.2656 106.659 68.4271 107.177 68.75 107.531C69.0729 107.885 69.4844 108.062 69.9844 108.062C70.401 108.062 70.75 107.956 71.0312 107.742C71.3177 107.529 71.5312 107.201 71.6719 106.758ZM82.3438 106.758L85.3672 107.102C85.2005 107.732 84.9271 108.279 84.5469 108.742C84.1667 109.201 83.6797 109.557 83.0859 109.812C82.4974 110.068 81.7474 110.195 80.8359 110.195C79.9557 110.195 79.2214 110.115 78.6328 109.953C78.0495 109.786 77.5469 109.521 77.125 109.156C76.7031 108.786 76.3724 108.354 76.1328 107.859C75.8932 107.365 75.7734 106.708 75.7734 105.891C75.7734 105.036 75.9193 104.326 76.2109 103.758C76.4245 103.341 76.7161 102.969 77.0859 102.641C77.4557 102.307 77.8359 102.06 78.2266 101.898C78.8464 101.643 79.6406 101.516 80.6094 101.516C81.9635 101.516 82.9948 101.758 83.7031 102.242C84.4167 102.727 84.9167 103.435 85.2031 104.367L82.2109 104.766C82.1172 104.411 81.9453 104.146 81.6953 103.969C81.4505 103.786 81.1198 103.695 80.7031 103.695C80.1771 103.695 79.75 103.885 79.4219 104.266C79.099 104.641 78.9375 105.211 78.9375 105.977C78.9375 106.659 79.099 107.177 79.4219 107.531C79.7448 107.885 80.1562 108.062 80.6562 108.062C81.0729 108.062 81.4219 107.956 81.7031 107.742C81.9896 107.529 82.2031 107.201 82.3438 106.758ZM93.8203 104.031H91.5156V110H88.3281V104.031H86.0234V101.711H93.8203V104.031ZM101.211 105.586C101.841 105.648 102.341 105.857 102.711 106.211C103.086 106.565 103.273 107.039 103.273 107.633C103.273 108.424 103.013 109.018 102.492 109.414C101.971 109.805 101.036 110 99.6875 110H94.9531V101.711H100.07C100.997 101.711 101.703 101.888 102.188 102.242C102.677 102.596 102.922 103.091 102.922 103.727C102.922 104.174 102.763 104.565 102.445 104.898C102.128 105.227 101.716 105.445 101.211 105.555V105.586ZM98.1328 104.867H98.9375C99.4688 104.867 99.7344 104.625 99.7344 104.141C99.7344 103.75 99.4531 103.555 98.8906 103.555H98.1328V104.867ZM98.1328 108.047H99.1797C99.4401 108.047 99.651 107.987 99.8125 107.867C99.974 107.747 100.055 107.573 100.055 107.344C100.055 106.844 99.763 106.594 99.1797 106.594H98.1328V108.047ZM104.406 105.875C104.406 104.609 104.833 103.568 105.688 102.75C106.542 101.927 107.695 101.516 109.148 101.516C110.81 101.516 112.065 101.997 112.914 102.961C113.596 103.737 113.938 104.693 113.938 105.828C113.938 107.104 113.513 108.151 112.664 108.969C111.82 109.781 110.651 110.188 109.156 110.188C107.823 110.188 106.745 109.849 105.922 109.172C104.911 108.333 104.406 107.234 104.406 105.875ZM107.594 105.867C107.594 106.607 107.742 107.154 108.039 107.508C108.341 107.862 108.719 108.039 109.172 108.039C109.63 108.039 110.005 107.865 110.297 107.516C110.594 107.167 110.742 106.607 110.742 105.836C110.742 105.117 110.594 104.583 110.297 104.234C110 103.88 109.633 103.703 109.195 103.703C108.732 103.703 108.349 103.883 108.047 104.242C107.745 104.596 107.594 105.138 107.594 105.867ZM48.6328 113.352H50.6172C49.9349 114.862 49.4427 116.258 49.1406 117.539C48.8854 118.628 48.7578 119.789 48.7578 121.023C48.7578 123.404 49.3776 125.852 50.6172 128.367H48.6328C47.6224 126.935 46.9115 125.641 46.5 124.484C46.0938 123.323 45.8906 122.107 45.8906 120.836C45.8906 119.518 46.1042 118.266 46.5312 117.078C46.9635 115.891 47.6641 114.648 48.6328 113.352ZM63.7109 125H61.0234V119.797L59.0547 125H57.1406L55.0078 119.797V125H52.3203V116.711H56.1172L58.1016 121.477L59.9219 116.711H63.7109V125ZM65.0391 116.703H68.8125L70.1328 119.016L71.6641 116.703H75.1719L72.3438 120.656L75.375 125H71.6641L70.1328 122.328L68.3281 125H64.8828L67.8984 120.656L65.0391 116.703ZM85.6641 125H82.0781L80.8594 122.711C80.6667 122.346 80.4766 122.117 80.2891 122.023C80.1068 121.93 79.8802 121.883 79.6094 121.883V125H76.4297V116.711H79.6094V119.703C79.8698 119.677 80.0625 119.591 80.1875 119.445C80.3125 119.299 80.4922 118.979 80.7266 118.484C80.9661 117.99 81.1797 117.628 81.3672 117.398C81.5547 117.169 81.7943 116.997 82.0859 116.883C82.3776 116.768 82.7422 116.695 83.1797 116.664C83.6172 116.633 84.2682 116.617 85.1328 116.617V118.875H84.9922C84.5651 118.875 84.2396 118.893 84.0156 118.93C83.7917 118.961 83.612 119.031 83.4766 119.141C83.3411 119.25 83.1849 119.474 83.0078 119.812C82.8307 120.151 82.6823 120.388 82.5625 120.523C82.4479 120.654 82.276 120.742 82.0469 120.789C82.4896 120.831 82.8307 120.927 83.0703 121.078C83.3099 121.224 83.6719 121.701 84.1562 122.508L85.6641 125ZM88.3594 113.352C89.3281 114.648 90.026 115.891 90.4531 117.078C90.8854 118.266 91.1016 119.518 91.1016 120.836C91.1016 122.107 90.8958 123.323 90.4844 124.484C90.0781 125.641 89.3698 126.935 88.3594 128.367H86.375C87.6146 125.852 88.2344 123.404 88.2344 121.023C88.2344 119.789 88.1068 118.628 87.8516 117.539C87.5495 116.258 87.0573 114.862 86.375 113.352H88.3594Z" fill="#FF41AF" /></svg><svg width="136" height="136" viewBox="0 0 136 136" fill="none" xmlns="http://www.w3.org/2000/svg" x="272"><rect x="3" y="3" width="130" height="130" rx="11" fill="#F0F0F0" /><rect x="3" y="3" width="130" height="130" rx="11" stroke="#BB3B85" stroke-width="6" /><rect x="36" y="23" width="64" height="64" fill="#BB3B85" /><path d="M32.7188 110H29.7109V105.922L26.5859 110H23.5625V101.711H26.5703V105.844L29.7266 101.711H32.7188V110ZM40.9375 106.758L43.9609 107.102C43.7943 107.732 43.5208 108.279 43.1406 108.742C42.7604 109.201 42.2734 109.557 41.6797 109.812C41.0911 110.068 40.3411 110.195 39.4297 110.195C38.5495 110.195 37.8151 110.115 37.2266 109.953C36.6432 109.786 36.1406 109.521 35.7188 109.156C35.2969 108.786 34.9661 108.354 34.7266 107.859C34.487 107.365 34.3672 106.708 34.3672 105.891C34.3672 105.036 34.513 104.326 34.8047 103.758C35.0182 103.341 35.3099 102.969 35.6797 102.641C36.0495 102.307 36.4297 102.06 36.8203 101.898C37.4401 101.643 38.2344 101.516 39.2031 101.516C40.5573 101.516 41.5885 101.758 42.2969 102.242C43.0104 102.727 43.5104 103.435 43.7969 104.367L40.8047 104.766C40.7109 104.411 40.5391 104.146 40.2891 103.969C40.0443 103.786 39.7135 103.695 39.2969 103.695C38.7708 103.695 38.3438 103.885 38.0156 104.266C37.6927 104.641 37.5312 105.211 37.5312 105.977C37.5312 106.659 37.6927 107.177 38.0156 107.531C38.3385 107.885 38.75 108.062 39.25 108.062C39.6667 108.062 40.0156 107.956 40.2969 107.742C40.5833 107.529 40.7969 107.201 40.9375 106.758ZM54.6562 110H51.0703L49.8516 107.711C49.6589 107.346 49.4688 107.117 49.2812 107.023C49.099 106.93 48.8724 106.883 48.6016 106.883V110H45.4219V101.711H48.6016V104.703C48.862 104.677 49.0547 104.591 49.1797 104.445C49.3047 104.299 49.4844 103.979 49.7188 103.484C49.9583 102.99 50.1719 102.628 50.3594 102.398C50.5469 102.169 50.7865 101.997 51.0781 101.883C51.3698 101.768 51.7344 101.695 52.1719 101.664C52.6094 101.633 53.2604 101.617 54.125 101.617V103.875H53.9844C53.5573 103.875 53.2318 103.893 53.0078 103.93C52.7839 103.961 52.6042 104.031 52.4688 104.141C52.3333 104.25 52.1771 104.474 52 104.812C51.8229 105.151 51.6745 105.388 51.5547 105.523C51.4401 105.654 51.2682 105.742 51.0391 105.789C51.4818 105.831 51.8229 105.927 52.0625 106.078C52.3021 106.224 52.6641 106.701 53.1484 107.508L54.6562 110ZM54.7812 101.703H58.1406L59.8516 107.227L61.4375 101.703H64.5703L61.2812 110.57C60.9062 111.581 60.5234 112.263 60.1328 112.617C59.5807 113.117 58.7396 113.367 57.6094 113.367C57.151 113.367 56.4427 113.305 55.4844 113.18L55.2344 110.961C55.6927 111.107 56.2031 111.18 56.7656 111.18C57.1406 111.18 57.4427 111.094 57.6719 110.922C57.9062 110.75 58.1042 110.443 58.2656 110L54.7812 101.703ZM71.6719 106.758L74.6953 107.102C74.5286 107.732 74.2552 108.279 73.875 108.742C73.4948 109.201 73.0078 109.557 72.4141 109.812C71.8255 110.068 71.0755 110.195 70.1641 110.195C69.2839 110.195 68.5495 110.115 67.9609 109.953C67.3776 109.786 66.875 109.521 66.4531 109.156C66.0312 108.786 65.7005 108.354 65.4609 107.859C65.2214 107.365 65.1016 106.708 65.1016 105.891C65.1016 105.036 65.2474 104.326 65.5391 103.758C65.7526 103.341 66.0443 102.969 66.4141 102.641C66.7839 102.307 67.1641 102.06 67.5547 101.898C68.1745 101.643 68.9688 101.516 69.9375 101.516C71.2917 101.516 72.3229 101.758 73.0312 102.242C73.7448 102.727 74.2448 103.435 74.5312 104.367L71.5391 104.766C71.4453 104.411 71.2734 104.146 71.0234 103.969C70.7786 103.786 70.4479 103.695 70.0312 103.695C69.5052 103.695 69.0781 103.885 68.75 104.266C68.4271 104.641 68.2656 105.211 68.2656 105.977C68.2656 106.659 68.4271 107.177 68.75 107.531C69.0729 107.885 69.4844 108.062 69.9844 108.062C70.401 108.062 70.75 107.956 71.0312 107.742C71.3177 107.529 71.5312 107.201 71.6719 106.758ZM82.3438 106.758L85.3672 107.102C85.2005 107.732 84.9271 108.279 84.5469 108.742C84.1667 109.201 83.6797 109.557 83.0859 109.812C82.4974 110.068 81.7474 110.195 80.8359 110.195C79.9557 110.195 79.2214 110.115 78.6328 109.953C78.0495 109.786 77.5469 109.521 77.125 109.156C76.7031 108.786 76.3724 108.354 76.1328 107.859C75.8932 107.365 75.7734 106.708 75.7734 105.891C75.7734 105.036 75.9193 104.326 76.2109 103.758C76.4245 103.341 76.7161 102.969 77.0859 102.641C77.4557 102.307 77.8359 102.06 78.2266 101.898C78.8464 101.643 79.6406 101.516 80.6094 101.516C81.9635 101.516 82.9948 101.758 83.7031 102.242C84.4167 102.727 84.9167 103.435 85.2031 104.367L82.2109 104.766C82.1172 104.411 81.9453 104.146 81.6953 103.969C81.4505 103.786 81.1198 103.695 80.7031 103.695C80.1771 103.695 79.75 103.885 79.4219 104.266C79.099 104.641 78.9375 105.211 78.9375 105.977C78.9375 106.659 79.099 107.177 79.4219 107.531C79.7448 107.885 80.1562 108.062 80.6562 108.062C81.0729 108.062 81.4219 107.956 81.7031 107.742C81.9896 107.529 82.2031 107.201 82.3438 106.758ZM93.8203 104.031H91.5156V110H88.3281V104.031H86.0234V101.711H93.8203V104.031ZM101.211 105.586C101.841 105.648 102.341 105.857 102.711 106.211C103.086 106.565 103.273 107.039 103.273 107.633C103.273 108.424 103.013 109.018 102.492 109.414C101.971 109.805 101.036 110 99.6875 110H94.9531V101.711H100.07C100.997 101.711 101.703 101.888 102.188 102.242C102.677 102.596 102.922 103.091 102.922 103.727C102.922 104.174 102.763 104.565 102.445 104.898C102.128 105.227 101.716 105.445 101.211 105.555V105.586ZM98.1328 104.867H98.9375C99.4688 104.867 99.7344 104.625 99.7344 104.141C99.7344 103.75 99.4531 103.555 98.8906 103.555H98.1328V104.867ZM98.1328 108.047H99.1797C99.4401 108.047 99.651 107.987 99.8125 107.867C99.974 107.747 100.055 107.573 100.055 107.344C100.055 106.844 99.763 106.594 99.1797 106.594H98.1328V108.047ZM104.406 105.875C104.406 104.609 104.833 103.568 105.688 102.75C106.542 101.927 107.695 101.516 109.148 101.516C110.81 101.516 112.065 101.997 112.914 102.961C113.596 103.737 113.938 104.693 113.938 105.828C113.938 107.104 113.513 108.151 112.664 108.969C111.82 109.781 110.651 110.188 109.156 110.188C107.823 110.188 106.745 109.849 105.922 109.172C104.911 108.333 104.406 107.234 104.406 105.875ZM107.594 105.867C107.594 106.607 107.742 107.154 108.039 107.508C108.341 107.862 108.719 108.039 109.172 108.039C109.63 108.039 110.005 107.865 110.297 107.516C110.594 107.167 110.742 106.607 110.742 105.836C110.742 105.117 110.594 104.583 110.297 104.234C110 103.88 109.633 103.703 109.195 103.703C108.732 103.703 108.349 103.883 108.047 104.242C107.745 104.596 107.594 105.138 107.594 105.867ZM48.6328 113.352H50.6172C49.9349 114.862 49.4427 116.258 49.1406 117.539C48.8854 118.628 48.7578 119.789 48.7578 121.023C48.7578 123.404 49.3776 125.852 50.6172 128.367H48.6328C47.6224 126.935 46.9115 125.641 46.5 124.484C46.0938 123.323 45.8906 122.107 45.8906 120.836C45.8906 119.518 46.1042 118.266 46.5312 117.078C46.9635 115.891 47.6641 114.648 48.6328 113.352ZM63.7109 125H61.0234V119.797L59.0547 125H57.1406L55.0078 119.797V125H52.3203V116.711H56.1172L58.1016 121.477L59.9219 116.711H63.7109V125ZM65.0391 116.703H68.8125L70.1328 119.016L71.6641 116.703H75.1719L72.3438 120.656L75.375 125H71.6641L70.1328 122.328L68.3281 125H64.8828L67.8984 120.656L65.0391 116.703ZM85.6641 125H82.0781L80.8594 122.711C80.6667 122.346 80.4766 122.117 80.2891 122.023C80.1068 121.93 79.8802 121.883 79.6094 121.883V125H76.4297V116.711H79.6094V119.703C79.8698 119.677 80.0625 119.591 80.1875 119.445C80.3125 119.299 80.4922 118.979 80.7266 118.484C80.9661 117.99 81.1797 117.628 81.3672 117.398C81.5547 117.169 81.7943 116.997 82.0859 116.883C82.3776 116.768 82.7422 116.695 83.1797 116.664C83.6172 116.633 84.2682 116.617 85.1328 116.617V118.875H84.9922C84.5651 118.875 84.2396 118.893 84.0156 118.93C83.7917 118.961 83.612 119.031 83.4766 119.141C83.3411 119.25 83.1849 119.474 83.0078 119.812C82.8307 120.151 82.6823 120.388 82.5625 120.523C82.4479 120.654 82.276 120.742 82.0469 120.789C82.4896 120.831 82.8307 120.927 83.0703 121.078C83.3099 121.224 83.6719 121.701 84.1562 122.508L85.6641 125ZM88.3594 113.352C89.3281 114.648 90.026 115.891 90.4531 117.078C90.8854 118.266 91.1016 119.518 91.1016 120.836C91.1016 122.107 90.8958 123.323 90.4844 124.484C90.0781 125.641 89.3698 126.935 88.3594 128.367H86.375C87.6146 125.852 88.2344 123.404 88.2344 121.023C88.2344 119.789 88.1068 118.628 87.8516 117.539C87.5495 116.258 87.0573 114.862 86.375 113.352H88.3594Z" fill="#BB3B85" /></svg></svg>