<svg xmlns="http://www.w3.org/2000/svg" viewBox="0 0 408 136"><svg width="136" height="136" viewBox="0 0 136 136" fill="none" xmlns="http://www.w3.org/2000/svg" x="0"><rect x="3" y="3" width="130" height="130" rx="11" fill="#8CD598" /><rect x="3" y="3" width="130" height="130" rx="11" stroke="#8CD598" stroke-width="6" /><path d="M17.6953 113.547C18.3307 112.865 19.1406 112.523 20.125 112.523C21.1927 112.523 22.0417 112.938 22.6719 113.766C23.3021 114.589 23.6172 115.661 23.6172 116.984C23.6172 118.266 23.3021 119.289 22.6719 120.055C22.0417 120.815 21.1875 121.195 20.1094 121.195C19.0885 121.195 18.2839 120.865 17.6953 120.203V124.172H14.5156V120.219C13.849 120.87 13.0365 121.195 12.0781 121.195C11.0156 121.195 10.1693 120.784 9.53906 119.961C8.90885 119.133 8.59375 118.055 8.59375 116.727C8.59375 115.445 8.90885 114.424 9.53906 113.664C10.1693 112.904 11.0208 112.523 12.0938 112.523C13.1094 112.523 13.9167 112.875 14.5156 113.578V109.547H17.6953V113.547ZM19.1328 118.844C19.5495 118.844 19.8698 118.669 20.0938 118.32C20.3177 117.971 20.4297 117.505 20.4297 116.922C20.4297 115.557 19.9818 114.875 19.0859 114.875C18.6953 114.875 18.3594 115.023 18.0781 115.32C17.8021 115.617 17.6641 116.141 17.6641 116.891C17.6641 117.448 17.7891 117.914 18.0391 118.289C18.2891 118.659 18.6536 118.844 19.1328 118.844ZM13.1172 118.844C13.513 118.844 13.849 118.695 14.125 118.398C14.4062 118.096 14.5469 117.57 14.5469 116.82C14.5469 116.263 14.4219 115.799 14.1719 115.43C13.9219 115.06 13.5547 114.875 13.0703 114.875C12.6589 114.875 12.3385 115.049 12.1094 115.398C11.8854 115.742 11.7734 116.206 11.7734 116.789C11.7734 118.159 12.2214 118.844 13.1172 118.844ZM34.4453 121H31.4375V116.922L28.3125 121H25.2891V112.711H28.2969V116.844L31.4531 112.711H34.4453V121ZM44.1562 116.711C44.651 116.867 45.0443 117.112 45.3359 117.445C45.6276 117.773 45.7734 118.138 45.7734 118.539C45.7734 119.404 45.3594 120.062 44.5312 120.516C43.7031 120.969 42.4948 121.195 40.9062 121.195C39.5729 121.195 38.5234 120.951 37.7578 120.461C36.9974 119.966 36.4479 119.224 36.1094 118.234L39.1328 117.898C39.237 118.19 39.4505 118.451 39.7734 118.68C40.1016 118.904 40.474 119.016 40.8906 119.016C41.9583 119.016 42.4922 118.75 42.4922 118.219C42.4922 118.036 42.3906 117.891 42.1875 117.781C41.9844 117.667 41.7188 117.609 41.3906 117.609H40.0078V115.977H41.4219C41.6979 115.977 41.9505 115.919 42.1797 115.805C42.4089 115.69 42.5234 115.544 42.5234 115.367C42.5234 115.169 42.388 115.008 42.1172 114.883C41.8516 114.758 41.4792 114.695 41 114.695C40.5312 114.695 40.1354 114.794 39.8125 114.992C39.4896 115.185 39.2839 115.417 39.1953 115.688L36.2656 115.289C36.5521 114.346 37.0755 113.651 37.8359 113.203C38.5964 112.75 39.6458 112.523 40.9844 112.523C42.375 112.523 43.4635 112.75 44.25 113.203C45.0417 113.656 45.4375 114.229 45.4375 114.922C45.4375 115.755 45.0104 116.352 44.1562 116.711ZM56.5703 121H52.9844L51.7656 118.711C51.5729 118.346 51.3828 118.117 51.1953 118.023C51.013 117.93 50.7865 117.883 50.5156 117.883V121H47.3359V112.711H50.5156V115.703C50.776 115.677 50.9688 115.591 51.0938 115.445C51.2188 115.299 51.3984 114.979 51.6328 114.484C51.8724 113.99 52.0859 113.628 52.2734 113.398C52.4609 113.169 52.7005 112.997 52.9922 112.883C53.2839 112.768 53.6484 112.695 54.0859 112.664C54.5234 112.633 55.1745 112.617 56.0391 112.617V114.875H55.8984C55.4714 114.875 55.1458 114.893 54.9219 114.93C54.6979 114.961 54.5182 115.031 54.3828 115.141C54.2474 115.25 54.0911 115.474 53.9141 115.812C53.737 116.151 53.5885 116.388 53.4688 116.523C53.3542 116.654 53.1823 116.742 52.9531 116.789C53.3958 116.831 53.737 116.927 53.9766 117.078C54.2161 117.224 54.5781 117.701 55.0625 118.508L56.5703 121ZM56.6953 112.703H60.0547L61.7656 118.227L63.3516 112.703H66.4844L63.1953 121.57C62.8203 122.581 62.4375 123.263 62.0469 123.617C61.4948 124.117 60.6536 124.367 59.5234 124.367C59.0651 124.367 58.3568 124.305 57.3984 124.18L57.1484 121.961C57.6068 122.107 58.1172 122.18 58.6797 122.18C59.0547 122.18 59.3568 122.094 59.5859 121.922C59.8203 121.75 60.0182 121.443 60.1797 121L56.6953 112.703ZM76.9297 121H73.75V115.031H71.3359V118.508C71.3359 119.435 71.1458 120.122 70.7656 120.57C70.3906 121.018 69.8125 121.242 69.0312 121.242C68.1458 121.242 67.3516 121.161 66.6484 121V118.648C67.0234 118.763 67.3099 118.82 67.5078 118.82C67.9349 118.82 68.1484 118.503 68.1484 117.867V112.711H76.9297V121ZM82.1484 115.656H83.6016C86.0547 115.656 87.2812 116.552 87.2812 118.344C87.2812 120.115 86.0859 121 83.6953 121H78.9609V112.711H82.1484V115.656ZM82.1484 119.047H83.1875C83.4479 119.047 83.6589 118.987 83.8203 118.867C83.987 118.747 84.0703 118.573 84.0703 118.344C84.0703 117.844 83.776 117.594 83.1875 117.594H82.1484V119.047ZM95.7812 115.031H93.4766V121H90.2891V115.031H87.9844V112.711H95.7812V115.031ZM95.9922 112.703H99.3516L101.062 118.227L102.648 112.703H105.781L102.492 121.57C102.117 122.581 101.734 123.263 101.344 123.617C100.792 124.117 99.9505 124.367 98.8203 124.367C98.362 124.367 97.6536 124.305 96.6953 124.18L96.4453 121.961C96.9036 122.107 97.4141 122.18 97.9766 122.18C98.3516 122.18 98.6536 122.094 98.8828 121.922C99.1172 121.75 99.3151 121.443 99.4766 121L95.9922 112.703ZM106.711 124.156V112.703H109.688V113.93C110.099 113.414 110.477 113.065 110.82 112.883C111.284 112.638 111.797 112.516 112.359 112.516C113.469 112.516 114.326 112.94 114.93 113.789C115.539 114.638 115.844 115.688 115.844 116.938C115.844 118.318 115.513 119.372 114.852 120.102C114.19 120.826 113.354 121.188 112.344 121.188C111.854 121.188 111.406 121.104 111 120.938C110.599 120.771 110.24 120.523 109.922 120.195V124.156H106.711ZM109.898 116.875C109.898 117.531 110.036 118.018 110.312 118.336C110.589 118.654 110.938 118.812 111.359 118.812C111.729 118.812 112.039 118.661 112.289 118.359C112.539 118.052 112.664 117.534 112.664 116.805C112.664 116.133 112.534 115.641 112.273 115.328C112.013 115.01 111.695 114.852 111.32 114.852C110.914 114.852 110.576 115.01 110.305 115.328C110.034 115.646 109.898 116.161 109.898 116.875ZM120.266 115.391L117.227 115.07C117.341 114.539 117.505 114.122 117.719 113.82C117.938 113.513 118.25 113.247 118.656 113.023C118.948 112.862 119.349 112.737 119.859 112.648C120.37 112.56 120.922 112.516 121.516 112.516C122.469 112.516 123.234 112.57 123.812 112.68C124.391 112.784 124.872 113.005 125.258 113.344C125.529 113.578 125.742 113.911 125.898 114.344C126.055 114.771 126.133 115.18 126.133 115.57V119.234C126.133 119.625 126.156 119.932 126.203 120.156C126.255 120.375 126.365 120.656 126.531 121H123.547C123.427 120.786 123.349 120.625 123.312 120.516C123.276 120.401 123.24 120.224 123.203 119.984C122.786 120.385 122.372 120.672 121.961 120.844C121.398 121.073 120.745 121.188 120 121.188C119.01 121.188 118.258 120.958 117.742 120.5C117.232 120.042 116.977 119.477 116.977 118.805C116.977 118.174 117.161 117.656 117.531 117.25C117.901 116.844 118.583 116.542 119.578 116.344C120.771 116.104 121.544 115.938 121.898 115.844C122.253 115.745 122.628 115.617 123.023 115.461C123.023 115.07 122.943 114.797 122.781 114.641C122.62 114.484 122.336 114.406 121.93 114.406C121.409 114.406 121.018 114.49 120.758 114.656C120.555 114.786 120.391 115.031 120.266 115.391ZM123.023 117.062C122.586 117.219 122.13 117.357 121.656 117.477C121.01 117.648 120.602 117.818 120.43 117.984C120.253 118.156 120.164 118.352 120.164 118.57C120.164 118.82 120.25 119.026 120.422 119.188C120.599 119.344 120.857 119.422 121.195 119.422C121.549 119.422 121.878 119.336 122.18 119.164C122.487 118.992 122.703 118.784 122.828 118.539C122.958 118.289 123.023 117.966 123.023 117.57V117.062Z" fill="#F0F0F0" /><path d="M65.2741 56.4719C64.2219 59.9645 61.0236 64.6373 53.1074 70.3555C47.313 74.5438 41.3768 77.5033 39.5249 78.3894C36.5758 73.9658 34.6409 68.8014 34.0594 63.232C36.067 62.2905 39.4211 60.9164 44.0628 59.646C49.016 58.2926 56.1569 56.8839 65.2741 56.4719Z" fill="#F0F0F0" /><path d="M65.1351 50.5488C50.1646 51.1927 39.7424 54.4325 34 56.7966C34.6161 49.4966 37.5548 42.8577 42.0719 37.6275C48.8736 38.794 62.2068 42.6915 65.1351 50.5488Z" fill="#F0F0F0" /><path d="M82.9546 56.9621C84.4741 57.1179 85.921 57.2979 87.2952 57.4986C88.0705 64.0441 91.3381 68.5127 94.2975 71.2957C95.4848 72.4068 96.6928 73.3206 97.8143 74.0579C93.1138 84.037 83.6746 91.3267 72.4078 92.9985C76.783 85.6881 83.3423 72.1056 82.9546 56.9621Z" fill="#F0F0F0" /><path d="M71.3611 56.3529C73.1922 56.3633 75.0855 56.4152 77.0481 56.5156C77.6954 73.099 68.5989 88.2633 65.2241 93.2927C56.6433 92.7285 48.9452 88.9348 43.3239 83.1059C46.0757 81.7317 51.3197 78.928 56.5464 75.1516C65.2898 68.8381 70.2535 62.5314 71.3611 56.3529Z" fill="#F0F0F0" /><path d="M93.4715 58.629C96.4691 59.2971 98.9751 60.0378 101 60.7474C100.92 63.3608 100.54 65.9014 99.8993 68.3313C97.3552 66.3998 94.5514 63.2985 93.4715 58.629Z" fill="#F0F0F0" /><path d="M71.242 50.4373C68.8606 39.6032 55.3473 34.6984 47.3239 32.7185C52.9313 28.499 59.899 25.9999 67.4449 25.9999C67.8118 25.9999 68.1752 26.0068 68.5352 26.0172C70.3455 29.3298 74.8868 38.5751 76.5137 50.5723C74.7068 50.4927 72.9485 50.4477 71.242 50.4373Z" fill="#F0F0F0" /><path d="M93.1475 52.092C93.549 48.4402 95.4493 45.8719 97.27 44.207C98.8934 47.3464 100.036 50.7732 100.603 54.3938C98.4572 53.7327 95.965 53.0819 93.1094 52.5073C93.1198 52.3689 93.1336 52.2304 93.1475 52.092Z" fill="#F0F0F0" /><path d="M87.2927 51.4435C87.2892 51.4712 87.2892 51.4989 87.2858 51.5266C85.7662 51.3189 84.1809 51.132 82.5056 50.9797C81.2872 40.644 78.0647 32.1775 75.6521 27.0131C83.0906 28.8892 89.546 33.2574 94.0805 39.1833C91.2144 41.5544 87.9469 45.4969 87.2927 51.4435Z" fill="#F0F0F0" /></svg><svg width="136" height="136" viewBox="0 0 136 136" fill="none" xmlns="http://www.w3.org/2000/svg" x="136"><rect x="3" y="3" width="130" height="130" rx="11" fill="#F2F2F3" /><rect x="3" y="3" width="130" height="130" rx="11" stroke="#8CD598" stroke-width="6" /><path d="M17.6953 113.547C18.3307 112.865 19.1406 112.523 20.125 112.523C21.1927 112.523 22.0417 112.938 22.6719 113.766C23.3021 114.589 23.6172 115.661 23.6172 116.984C23.6172 118.266 23.3021 119.289 22.6719 120.055C22.0417 120.815 21.1875 121.195 20.1094 121.195C19.0885 121.195 18.2839 120.865 17.6953 120.203V124.172H14.5156V120.219C13.849 120.87 13.0365 121.195 12.0781 121.195C11.0156 121.195 10.1693 120.784 9.53906 119.961C8.90885 119.133 8.59375 118.055 8.59375 116.727C8.59375 115.445 8.90885 114.424 9.53906 113.664C10.1693 112.904 11.0208 112.523 12.0938 112.523C13.1094 112.523 13.9167 112.875 14.5156 113.578V109.547H17.6953V113.547ZM19.1328 118.844C19.5495 118.844 19.8698 118.669 20.0938 118.32C20.3177 117.971 20.4297 117.505 20.4297 116.922C20.4297 115.557 19.9818 114.875 19.0859 114.875C18.6953 114.875 18.3594 115.023 18.0781 115.32C17.8021 115.617 17.6641 116.141 17.6641 116.891C17.6641 117.448 17.7891 117.914 18.0391 118.289C18.2891 118.659 18.6536 118.844 19.1328 118.844ZM13.1172 118.844C13.513 118.844 13.849 118.695 14.125 118.398C14.4062 118.096 14.5469 117.57 14.5469 116.82C14.5469 116.263 14.4219 115.799 14.1719 115.43C13.9219 115.06 13.5547 114.875 13.0703 114.875C12.6589 114.875 12.3385 115.049 12.1094 115.398C11.8854 115.742 11.7734 116.206 11.7734 116.789C11.7734 118.159 12.2214 118.844 13.1172 118.844ZM34.4453 121H31.4375V116.922L28.3125 121H25.2891V112.711H28.2969V116.844L31.4531 112.711H34.4453V121ZM44.1562 116.711C44.651 116.867 45.0443 117.112 45.3359 117.445C45.6276 117.773 45.7734 118.138 45.7734 118.539C45.7734 119.404 45.3594 120.062 44.5312 120.516C43.7031 120.969 42.4948 121.195 40.9062 121.195C39.5729 121.195 38.5234 120.951 37.7578 120.461C36.9974 119.966 36.4479 119.224 36.1094 118.234L39.1328 117.898C39.237 118.19 39.4505 118.451 39.7734 118.68C40.1016 118.904 40.474 119.016 40.8906 119.016C41.9583 119.016 42.4922 118.75 42.4922 118.219C42.4922 118.036 42.3906 117.891 42.1875 117.781C41.9844 117.667 41.7188 117.609 41.3906 117.609H40.0078V115.977H41.4219C41.6979 115.977 41.9505 115.919 42.1797 115.805C42.4089 115.69 42.5234 115.544 42.5234 115.367C42.5234 115.169 42.388 115.008 42.1172 114.883C41.8516 114.758 41.4792 114.695 41 114.695C40.5312 114.695 40.1354 114.794 39.8125 114.992C39.4896 115.185 39.2839 115.417 39.1953 115.688L36.2656 115.289C36.5521 114.346 37.0755 113.651 37.8359 113.203C38.5964 112.75 39.6458 112.523 40.9844 112.523C42.375 112.523 43.4635 112.75 44.25 113.203C45.0417 113.656 45.4375 114.229 45.4375 114.922C45.4375 115.755 45.0104 116.352 44.1562 116.711ZM56.5703 121H52.9844L51.7656 118.711C51.5729 118.346 51.3828 118.117 51.1953 118.023C51.013 117.93 50.7865 117.883 50.5156 117.883V121H47.3359V112.711H50.5156V115.703C50.776 115.677 50.9688 115.591 51.0938 115.445C51.2188 115.299 51.3984 114.979 51.6328 114.484C51.8724 113.99 52.0859 113.628 52.2734 113.398C52.4609 113.169 52.7005 112.997 52.9922 112.883C53.2839 112.768 53.6484 112.695 54.0859 112.664C54.5234 112.633 55.1745 112.617 56.0391 112.617V114.875H55.8984C55.4714 114.875 55.1458 114.893 54.9219 114.93C54.6979 114.961 54.5182 115.031 54.3828 115.141C54.2474 115.25 54.0911 115.474 53.9141 115.812C53.737 116.151 53.5885 116.388 53.4688 116.523C53.3542 116.654 53.1823 116.742 52.9531 116.789C53.3958 116.831 53.737 116.927 53.9766 117.078C54.2161 117.224 54.5781 117.701 55.0625 118.508L56.5703 121ZM56.6953 112.703H60.0547L61.7656 118.227L63.3516 112.703H66.4844L63.1953 121.57C62.8203 122.581 62.4375 123.263 62.0469 123.617C61.4948 124.117 60.6536 124.367 59.5234 124.367C59.0651 124.367 58.3568 124.305 57.3984 124.18L57.1484 121.961C57.6068 122.107 58.1172 122.18 58.6797 122.18C59.0547 122.18 59.3568 122.094 59.5859 121.922C59.8203 121.75 60.0182 121.443 60.1797 121L56.6953 112.703ZM76.9297 121H73.75V115.031H71.3359V118.508C71.3359 119.435 71.1458 120.122 70.7656 120.57C70.3906 121.018 69.8125 121.242 69.0312 121.242C68.1458 121.242 67.3516 121.161 66.6484 121V118.648C67.0234 118.763 67.3099 118.82 67.5078 118.82C67.9349 118.82 68.1484 118.503 68.1484 117.867V112.711H76.9297V121ZM82.1484 115.656H83.6016C86.0547 115.656 87.2812 116.552 87.2812 118.344C87.2812 120.115 86.0859 121 83.6953 121H78.9609V112.711H82.1484V115.656ZM82.1484 119.047H83.1875C83.4479 119.047 83.6589 118.987 83.8203 118.867C83.987 118.747 84.0703 118.573 84.0703 118.344C84.0703 117.844 83.776 117.594 83.1875 117.594H82.1484V119.047ZM95.7812 115.031H93.4766V121H90.2891V115.031H87.9844V112.711H95.7812V115.031ZM95.9922 112.703H99.3516L101.062 118.227L102.648 112.703H105.781L102.492 121.57C102.117 122.581 101.734 123.263 101.344 123.617C100.792 124.117 99.9505 124.367 98.8203 124.367C98.362 124.367 97.6536 124.305 96.6953 124.18L96.4453 121.961C96.9036 122.107 97.4141 122.18 97.9766 122.18C98.3516 122.18 98.6536 122.094 98.8828 121.922C99.1172 121.75 99.3151 121.443 99.4766 121L95.9922 112.703ZM106.711 124.156V112.703H109.688V113.93C110.099 113.414 110.477 113.065 110.82 112.883C111.284 112.638 111.797 112.516 112.359 112.516C113.469 112.516 114.326 112.94 114.93 113.789C115.539 114.638 115.844 115.688 115.844 116.938C115.844 118.318 115.513 119.372 114.852 120.102C114.19 120.826 113.354 121.188 112.344 121.188C111.854 121.188 111.406 121.104 111 120.938C110.599 120.771 110.24 120.523 109.922 120.195V124.156H106.711ZM109.898 116.875C109.898 117.531 110.036 118.018 110.312 118.336C110.589 118.654 110.938 118.812 111.359 118.812C111.729 118.812 112.039 118.661 112.289 118.359C112.539 118.052 112.664 117.534 112.664 116.805C112.664 116.133 112.534 115.641 112.273 115.328C112.013 115.01 111.695 114.852 111.32 114.852C110.914 114.852 110.576 115.01 110.305 115.328C110.034 115.646 109.898 116.161 109.898 116.875ZM120.266 115.391L117.227 115.07C117.341 114.539 117.505 114.122 117.719 113.82C117.938 113.513 118.25 113.247 118.656 113.023C118.948 112.862 119.349 112.737 119.859 112.648C120.37 112.56 120.922 112.516 121.516 112.516C122.469 112.516 123.234 112.57 123.812 112.68C124.391 112.784 124.872 113.005 125.258 113.344C125.529 113.578 125.742 113.911 125.898 114.344C126.055 114.771 126.133 115.18 126.133 115.57V119.234C126.133 119.625 126.156 119.932 126.203 120.156C126.255 120.375 126.365 120.656 126.531 121H123.547C123.427 120.786 123.349 120.625 123.312 120.516C123.276 120.401 123.24 120.224 123.203 119.984C122.786 120.385 122.372 120.672 121.961 120.844C121.398 121.073 120.745 121.188 120 121.188C119.01 121.188 118.258 120.958 117.742 120.5C117.232 120.042 116.977 119.477 116.977 118.805C116.977 118.174 117.161 117.656 117.531 117.25C117.901 116.844 118.583 116.542 119.578 116.344C120.771 116.104 121.544 115.938 121.898 115.844C122.253 115.745 122.628 115.617 123.023 115.461C123.023 115.07 122.943 114.797 122.781 114.641C122.62 114.484 122.336 114.406 121.93 114.406C121.409 114.406 121.018 114.49 120.758 114.656C120.555 114.786 120.391 115.031 120.266 115.391ZM123.023 117.062C122.586 117.219 122.13 117.357 121.656 117.477C121.01 117.648 120.602 117.818 120.43 117.984C120.253 118.156 120.164 118.352 120.164 118.57C120.164 118.82 120.25 119.026 120.422 119.188C120.599 119.344 120.857 119.422 121.195 119.422C121.549 119.422 121.878 119.336 122.18 119.164C122.487 118.992 122.703 118.784 122.828 118.539C122.958 118.289 123.023 117.966 123.023 117.57V117.062Z" fill="#8CD598" /><path d="M65.2741 56.4719C64.2219 59.9645 61.0236 64.6373 53.1074 70.3555C47.313 74.5438 41.3768 77.5033 39.5249 78.3894C36.5758 73.9658 34.6409 68.8014 34.0594 63.232C36.067 62.2905 39.4211 60.9164 44.0628 59.646C49.016 58.2926 56.1569 56.8839 65.2741 56.4719Z" fill="#8CD598" /><path d="M65.1351 50.5488C50.1646 51.1927 39.7424 54.4325 34 56.7966C34.6161 49.4966 37.5548 42.8577 42.0719 37.6275C48.8736 38.794 62.2068 42.6915 65.1351 50.5488Z" fill="#8CD598" /><path d="M82.9546 56.9621C84.4741 57.1179 85.921 57.2979 87.2952 57.4986C88.0705 64.0441 91.3381 68.5127 94.2975 71.2957C95.4848 72.4068 96.6928 73.3206 97.8143 74.0579C93.1138 84.037 83.6746 91.3267 72.4078 92.9985C76.783 85.6881 83.3423 72.1056 82.9546 56.9621Z" fill="#8CD598" /><path d="M71.3611 56.3529C73.1922 56.3633 75.0855 56.4152 77.0481 56.5156C77.6954 73.099 68.5989 88.2633 65.2241 93.2927C56.6433 92.7285 48.9452 88.9348 43.3239 83.1059C46.0757 81.7317 51.3197 78.928 56.5464 75.1516C65.2898 68.8381 70.2535 62.5314 71.3611 56.3529Z" fill="#8CD598" /><path d="M93.4715 58.6292C96.4691 59.2972 98.9751 60.038 101 60.7475C100.92 63.3609 100.54 65.9015 99.8993 68.3314C97.3552 66.4 94.5514 63.2986 93.4715 58.6292Z" fill="#8CD598" /><path d="M71.242 50.4374C68.8606 39.6033 55.3473 34.6985 47.3239 32.7186C52.9313 28.4992 59.899 26 67.4449 26C67.8118 26 68.1752 26.007 68.5352 26.0174C70.3455 29.3299 74.8868 38.5752 76.5137 50.5724C74.7068 50.4928 72.9485 50.4478 71.242 50.4374Z" fill="#8CD598" /><path d="M93.1475 52.092C93.549 48.4402 95.4493 45.8719 97.27 44.207C98.8934 47.3464 100.036 50.7732 100.603 54.3938C98.4572 53.7327 95.965 53.0819 93.1094 52.5073C93.1198 52.3689 93.1336 52.2304 93.1475 52.092Z" fill="#8CD598" /><path d="M87.2927 51.4437C87.2892 51.4714 87.2892 51.499 87.2858 51.5267C85.7662 51.3191 84.1809 51.1321 82.5056 50.9798C81.2872 40.6442 78.0647 32.1776 75.6521 27.0132C83.0906 28.8893 89.546 33.2576 94.0805 39.1835C91.2144 41.5545 87.9469 45.497 87.2927 51.4437Z" fill="#8CD598" /></svg><svg width="136" height="136" viewBox="0 0 136 136" fill="none" xmlns="http://www.w3.org/2000/svg" x="272"><rect x="3" y="3" width="130" height="130" rx="11" fill="#F2F2F3" /><rect x="3" y="3" width="130" height="130" rx="11" stroke="#6FAF7C" stroke-width="6" /><path d="M17.6953 113.547C18.3307 112.865 19.1406 112.523 20.125 112.523C21.1927 112.523 22.0417 112.938 22.6719 113.766C23.3021 114.589 23.6172 115.661 23.6172 116.984C23.6172 118.266 23.3021 119.289 22.6719 120.055C22.0417 120.815 21.1875 121.195 20.1094 121.195C19.0885 121.195 18.2839 120.865 17.6953 120.203V124.172H14.5156V120.219C13.849 120.87 13.0365 121.195 12.0781 121.195C11.0156 121.195 10.1693 120.784 9.53906 119.961C8.90885 119.133 8.59375 118.055 8.59375 116.727C8.59375 115.445 8.90885 114.424 9.53906 113.664C10.1693 112.904 11.0208 112.523 12.0938 112.523C13.1094 112.523 13.9167 112.875 14.5156 113.578V109.547H17.6953V113.547ZM19.1328 118.844C19.5495 118.844 19.8698 118.669 20.0938 118.32C20.3177 117.971 20.4297 117.505 20.4297 116.922C20.4297 115.557 19.9818 114.875 19.0859 114.875C18.6953 114.875 18.3594 115.023 18.0781 115.32C17.8021 115.617 17.6641 116.141 17.6641 116.891C17.6641 117.448 17.7891 117.914 18.0391 118.289C18.2891 118.659 18.6536 118.844 19.1328 118.844ZM13.1172 118.844C13.513 118.844 13.849 118.695 14.125 118.398C14.4062 118.096 14.5469 117.57 14.5469 116.82C14.5469 116.263 14.4219 115.799 14.1719 115.43C13.9219 115.06 13.5547 114.875 13.0703 114.875C12.6589 114.875 12.3385 115.049 12.1094 115.398C11.8854 115.742 11.7734 116.206 11.7734 116.789C11.7734 118.159 12.2214 118.844 13.1172 118.844ZM34.4453 121H31.4375V116.922L28.3125 121H25.2891V112.711H28.2969V116.844L31.4531 112.711H34.4453V121ZM44.1562 116.711C44.651 116.867 45.0443 117.112 45.3359 117.445C45.6276 117.773 45.7734 118.138 45.7734 118.539C45.7734 119.404 45.3594 120.062 44.5312 120.516C43.7031 120.969 42.4948 121.195 40.9062 121.195C39.5729 121.195 38.5234 120.951 37.7578 120.461C36.9974 119.966 36.4479 119.224 36.1094 118.234L39.1328 117.898C39.237 118.19 39.4505 118.451 39.7734 118.68C40.1016 118.904 40.474 119.016 40.8906 119.016C41.9583 119.016 42.4922 118.75 42.4922 118.219C42.4922 118.036 42.3906 117.891 42.1875 117.781C41.9844 117.667 41.7188 117.609 41.3906 117.609H40.0078V115.977H41.4219C41.6979 115.977 41.9505 115.919 42.1797 115.805C42.4089 115.69 42.5234 115.544 42.5234 115.367C42.5234 115.169 42.388 115.008 42.1172 114.883C41.8516 114.758 41.4792 114.695 41 114.695C40.5312 114.695 40.1354 114.794 39.8125 114.992C39.4896 115.185 39.2839 115.417 39.1953 115.688L36.2656 115.289C36.5521 114.346 37.0755 113.651 37.8359 113.203C38.5964 112.75 39.6458 112.523 40.9844 112.523C42.375 112.523 43.4635 112.75 44.25 113.203C45.0417 113.656 45.4375 114.229 45.4375 114.922C45.4375 115.755 45.0104 116.352 44.1562 116.711ZM56.5703 121H52.9844L51.7656 118.711C51.5729 118.346 51.3828 118.117 51.1953 118.023C51.013 117.93 50.7865 117.883 50.5156 117.883V121H47.3359V112.711H50.5156V115.703C50.776 115.677 50.9688 115.591 51.0938 115.445C51.2188 115.299 51.3984 114.979 51.6328 114.484C51.8724 113.99 52.0859 113.628 52.2734 113.398C52.4609 113.169 52.7005 112.997 52.9922 112.883C53.2839 112.768 53.6484 112.695 54.0859 112.664C54.5234 112.633 55.1745 112.617 56.0391 112.617V114.875H55.8984C55.4714 114.875 55.1458 114.893 54.9219 114.93C54.6979 114.961 54.5182 115.031 54.3828 115.141C54.2474 115.25 54.0911 115.474 53.9141 115.812C53.737 116.151 53.5885 116.388 53.4688 116.523C53.3542 116.654 53.1823 116.742 52.9531 116.789C53.3958 116.831 53.737 116.927 53.9766 117.078C54.2161 117.224 54.5781 117.701 55.0625 118.508L56.5703 121ZM56.6953 112.703H60.0547L61.7656 118.227L63.3516 112.703H66.4844L63.1953 121.57C62.8203 122.581 62.4375 123.263 62.0469 123.617C61.4948 124.117 60.6536 124.367 59.5234 124.367C59.0651 124.367 58.3568 124.305 57.3984 124.18L57.1484 121.961C57.6068 122.107 58.1172 122.18 58.6797 122.18C59.0547 122.18 59.3568 122.094 59.5859 121.922C59.8203 121.75 60.0182 121.443 60.1797 121L56.6953 112.703ZM76.9297 121H73.75V115.031H71.3359V118.508C71.3359 119.435 71.1458 120.122 70.7656 120.57C70.3906 121.018 69.8125 121.242 69.0312 121.242C68.1458 121.242 67.3516 121.161 66.6484 121V118.648C67.0234 118.763 67.3099 118.82 67.5078 118.82C67.9349 118.82 68.1484 118.503 68.1484 117.867V112.711H76.9297V121ZM82.1484 115.656H83.6016C86.0547 115.656 87.2812 116.552 87.2812 118.344C87.2812 120.115 86.0859 121 83.6953 121H78.9609V112.711H82.1484V115.656ZM82.1484 119.047H83.1875C83.4479 119.047 83.6589 118.987 83.8203 118.867C83.987 118.747 84.0703 118.573 84.0703 118.344C84.0703 117.844 83.776 117.594 83.1875 117.594H82.1484V119.047ZM95.7812 115.031H93.4766V121H90.2891V115.031H87.9844V112.711H95.7812V115.031ZM95.9922 112.703H99.3516L101.062 118.227L102.648 112.703H105.781L102.492 121.57C102.117 122.581 101.734 123.263 101.344 123.617C100.792 124.117 99.9505 124.367 98.8203 124.367C98.362 124.367 97.6536 124.305 96.6953 124.18L96.4453 121.961C96.9036 122.107 97.4141 122.18 97.9766 122.18C98.3516 122.18 98.6536 122.094 98.8828 121.922C99.1172 121.75 99.3151 121.443 99.4766 121L95.9922 112.703ZM106.711 124.156V112.703H109.688V113.93C110.099 113.414 110.477 113.065 110.82 112.883C111.284 112.638 111.797 112.516 112.359 112.516C113.469 112.516 114.326 112.94 114.93 113.789C115.539 114.638 115.844 115.688 115.844 116.938C115.844 118.318 115.513 119.372 114.852 120.102C114.19 120.826 113.354 121.188 112.344 121.188C111.854 121.188 111.406 121.104 111 120.938C110.599 120.771 110.24 120.523 109.922 120.195V124.156H106.711ZM109.898 116.875C109.898 117.531 110.036 118.018 110.312 118.336C110.589 118.654 110.938 118.812 111.359 118.812C111.729 118.812 112.039 118.661 112.289 118.359C112.539 118.052 112.664 117.534 112.664 116.805C112.664 116.133 112.534 115.641 112.273 115.328C112.013 115.01 111.695 114.852 111.32 114.852C110.914 114.852 110.576 115.01 110.305 115.328C110.034 115.646 109.898 116.161 109.898 116.875ZM120.266 115.391L117.227 115.07C117.341 114.539 117.505 114.122 117.719 113.82C117.938 113.513 118.25 113.247 118.656 113.023C118.948 112.862 119.349 112.737 119.859 112.648C120.37 112.56 120.922 112.516 121.516 112.516C122.469 112.516 123.234 112.57 123.812 112.68C124.391 112.784 124.872 113.005 125.258 113.344C125.529 113.578 125.742 113.911 125.898 114.344C126.055 114.771 126.133 115.18 126.133 115.57V119.234C126.133 119.625 126.156 119.932 126.203 120.156C126.255 120.375 126.365 120.656 126.531 121H123.547C123.427 120.786 123.349 120.625 123.312 120.516C123.276 120.401 123.24 120.224 123.203 119.984C122.786 120.385 122.372 120.672 121.961 120.844C121.398 121.073 120.745 121.188 120 121.188C119.01 121.188 118.258 120.958 117.742 120.5C117.232 120.042 116.977 119.477 116.977 118.805C116.977 118.174 117.161 117.656 117.531 117.25C117.901 116.844 118.583 116.542 119.578 116.344C120.771 116.104 121.544 115.938 121.898 115.844C122.253 115.745 122.628 115.617 123.023 115.461C123.023 115.07 122.943 114.797 122.781 114.641C122.62 114.484 122.336 114.406 121.93 114.406C121.409 114.406 121.018 114.49 120.758 114.656C120.555 114.786 120.391 115.031 120.266 115.391ZM123.023 117.062C122.586 117.219 122.13 117.357 121.656 117.477C121.01 117.648 120.602 117.818 120.43 117.984C120.253 118.156 120.164 118.352 120.164 118.57C120.164 118.82 120.25 119.026 120.422 119.188C120.599 119.344 120.857 119.422 121.195 119.422C121.549 119.422 121.878 119.336 122.18 119.164C122.487 118.992 122.703 118.784 122.828 118.539C122.958 118.289 123.023 117.966 123.023 117.57V117.062Z" fill="#6FAF7C" /><path d="M65.2741 56.4719C64.2219 59.9645 61.0236 64.6373 53.1074 70.3555C47.313 74.5438 41.3768 77.5033 39.5249 78.3894C36.5758 73.9658 34.6409 68.8014 34.0594 63.232C36.067 62.2905 39.4211 60.9164 44.0628 59.646C49.016 58.2926 56.1569 56.8839 65.2741 56.4719Z" fill="#6FAF7C" /><path d="M65.1351 50.5488C50.1646 51.1927 39.7424 54.4325 34 56.7966C34.6161 49.4966 37.5548 42.8577 42.0719 37.6275C48.8736 38.794 62.2068 42.6915 65.1351 50.5488Z" fill="#6FAF7C" /><path d="M82.9546 56.9621C84.4741 57.1179 85.921 57.2979 87.2952 57.4986C88.0705 64.0441 91.3381 68.5127 94.2975 71.2957C95.4848 72.4068 96.6928 73.3206 97.8143 74.0579C93.1138 84.037 83.6746 91.3267 72.4078 92.9985C76.783 85.6881 83.3423 72.1056 82.9546 56.9621Z" fill="#6FAF7C" /><path d="M71.3611 56.3529C73.1922 56.3633 75.0855 56.4152 77.0481 56.5156C77.6954 73.099 68.5989 88.2633 65.2241 93.2927C56.6433 92.7285 48.9452 88.9348 43.3239 83.1059C46.0757 81.7317 51.3197 78.928 56.5464 75.1516C65.2898 68.8381 70.2535 62.5314 71.3611 56.3529Z" fill="#6FAF7C" /><path d="M93.4715 58.6292C96.4691 59.2972 98.9751 60.038 101 60.7475C100.92 63.3609 100.54 65.9015 99.8993 68.3314C97.3552 66.4 94.5514 63.2986 93.4715 58.6292Z" fill="#6FAF7C" /><path d="M71.242 50.4374C68.8606 39.6033 55.3473 34.6985 47.3239 32.7186C52.9313 28.4992 59.899 26 67.4449 26C67.8118 26 68.1752 26.007 68.5352 26.0174C70.3455 29.3299 74.8868 38.5752 76.5137 50.5724C74.7068 50.4928 72.9485 50.4478 71.242 50.4374Z" fill="#6FAF7C" /><path d="M93.1475 52.092C93.549 48.4402 95.4493 45.8719 97.27 44.207C98.8934 47.3464 100.036 50.7732 100.603 54.3938C98.4572 53.7327 95.965 53.0819 93.1094 52.5073C93.1198 52.3689 93.1336 52.2304 93.1475 52.092Z" fill="#6FAF7C" /><path d="M87.2927 51.4437C87.2892 51.4714 87.2892 51.499 87.2858 51.5267C85.7662 51.3191 84.1809 51.1321 82.5056 50.9798C81.2872 40.6442 78.0647 32.1776 75.6521 27.0132C83.0906 28.8893 89.546 33.2576 94.0805 39.1835C91.2144 41.5545 87.9469 45.497 87.2927 51.4437Z" fill="#6FAF7C" /></svg></svg>